<svg xmlns="http://www.w3.org/2000/svg" overflow="visible" viewBox="0 0 386.9 114.6"><defs/><style>.st0{opacity:.6}.st1{fill:#fff}.st2{fill:#4cb693}.st3{fill:#111413}.st4{fill:#3a3d3b}</style><g class="st0"><path d="M63 18.6c.4.4.6 1.1.6 1.8v1.9c0 .8-.2 1.4-.6 1.8-.4.4-.9.7-1.6.7-.5 0-.9-.1-1.2-.4-.3-.2-.5-.6-.6-1v1.3h-1.3v-8.8h1.3v3.4c.1-.4.3-.8.6-1 .3-.2.7-.4 1.2-.4.7 0 1.2.3 1.6.7zm-.7 1.9c0-.5-.1-.8-.3-1.1-.2-.2-.6-.4-1-.4s-.7.1-1 .4c-.2.3-.4.6-.4 1v1.7c0 .4.1.8.4 1 .2.3.6.4 1 .4s.8-.1 1-.4c.2-.2.3-.6.3-1.1v-1.5zM66.2 24.1c-.5-.5-.7-1.1-.7-1.9V18h1.3v4.1c0 .5.1.8.3 1.1s.6.4 1 .4.7-.1 1-.4c.2-.3.4-.6.4-1.1V18h1.3v4.2c0 .8-.2 1.4-.7 1.9s-1.1.7-1.9.7-1.5-.2-2-.7zM74.3 24.7v-5.3h-1.9v-1.2h1.9v-.6c0-.5.2-1 .5-1.3.3-.3.8-.5 1.4-.5h2V17h-2c-.2 0-.3.1-.4.2-.1.1-.2.3-.2.4v.6h2.6v1.2h-2.6v5.3h-1.3zM81.5 24.7v-5.3h-1.9v-1.2h1.9v-.6c0-.5.2-1 .5-1.3.3-.3.8-.5 1.4-.5h2V17h-2c-.2 0-.3.1-.4.2-.1.1-.2.3-.2.4v.6h2.6v1.2h-2.6v5.3h-1.3zM92.4 21.7h-4v.6c0 .5.1.9.4 1.1.2.3.6.4 1.1.4.4 0 .7-.1.9-.2s.4-.3.4-.6h1.3c-.1.6-.4 1-.9 1.3-.5.3-1.1.5-1.8.5-.8 0-1.5-.2-1.9-.7-.5-.5-.7-1.1-.7-1.9v-1.7c0-.8.2-1.4.7-1.9s1.1-.7 1.9-.7c.8 0 1.5.2 1.9.7.5.5.7 1.1.7 1.9v1.2zm-4.1-.9h2.8v-.3c0-.5-.1-.9-.4-1.1-.2-.3-.6-.4-1-.4s-.8.1-1 .4c-.2.3-.4.6-.4 1.1v.3zM99.3 18.6c.4.4.6 1 .6 1.8v.4h-1.3v-.3c0-.5-.1-.8-.4-1.1-.2-.3-.6-.4-1-.4s-.8.1-1 .4c-.2.3-.4.6-.4 1.1v4.2h-1.3v-6.6h1.2v1.2c.2-.9.8-1.4 1.8-1.4.8 0 1.4.3 1.8.7z" class="st1"/></g><g class="st0"><path d="M5.7 95.7H0v-1.2h2.3v-4.2h-2v-1.2h3.3v5.4h2.1v1.2zm-3-7.7c-.2 0-.4-.1-.6-.2-.1-.1-.2-.3-.2-.5s.1-.4.2-.6c.1-.1.3-.2.6-.2H3c.2 0 .4.1.6.2.2.1.2.3.2.6 0 .2-.1.4-.2.5-.2.2-.4.2-.6.2h-.3zM11.9 89.6c.4.4.6 1 .6 1.7v4.4h-1.3v-4.2c0-.4-.1-.8-.3-1-.2-.2-.5-.4-.9-.4s-.7.1-1 .4c-.2.3-.4.6-.4 1.1v4.2H7.3v-6.6h1.3v1.3c.1-.4.2-.8.5-1 .3-.2.7-.4 1.2-.4.7-.1 1.2.1 1.6.5zM18.4 86.9h1.3v8.8h-1.3v-1.3c-.1.4-.2.8-.6 1-.3.2-.7.4-1.2.4-.7 0-1.2-.2-1.6-.7s-.6-1.1-.6-1.8v-1.9c0-.8.2-1.4.6-1.8s.9-.7 1.6-.7c.5 0 .9.1 1.2.4.3.2.5.6.6 1v-3.4zm-.4 7.4c.2-.3.4-.6.4-1v-1.7c0-.4-.1-.8-.4-1s-.6-.4-1-.4-.8.1-1 .4c-.2.2-.3.6-.3 1.1v1.7c0 .5.1.8.3 1.1.2.2.6.4 1 .4.5-.2.8-.3 1-.6zM26.9 92.7h-4v.6c0 .5.1.9.4 1.1.2.3.6.4 1.1.4.4 0 .7-.1.9-.2s.4-.3.4-.6H27c-.1.6-.4 1-.9 1.3-.5.3-1.1.5-1.8.5-.8 0-1.5-.2-1.9-.7-.5-.5-.7-1.1-.7-1.9v-1.7c0-.8.2-1.4.7-1.9s1.1-.7 1.9-.7c.8 0 1.5.2 1.9.7.5.5.7 1.1.7 1.9v1.2zm-4-.9h2.8v-.3c0-.5-.1-.9-.4-1.1-.2-.3-.6-.4-1-.4s-.8.1-1 .4c-.2.3-.4.6-.4 1.1v.3zM28.4 95.7l2.3-3.4-2.1-3.2h1.5l1.1 1.8.3.6.3-.6 1.1-1.8h1.5l-2.1 3.2 2.3 3.4H33l-1.2-2-.3-.6-.3.6-1.2 2h-1.6zM41.3 92.7h-4v.6c0 .5.1.9.4 1.1.2.3.6.4 1.1.4.4 0 .7-.1.9-.2s.4-.3.4-.6h1.3c-.1.6-.4 1-.9 1.3-.5.3-1.1.5-1.8.5-.8 0-1.5-.2-1.9-.7-.5-.4-.8-1.1-.8-1.8v-1.7c0-.8.2-1.4.7-1.9s1.1-.7 1.9-.7c.8 0 1.5.2 1.9.7.5.5.7 1.1.7 1.9v1.1zm-4-.9h2.8v-.3c0-.5-.1-.9-.4-1.1-.2-.3-.6-.4-1-.4s-.8.1-1 .4c-.2.3-.4.6-.4 1.1v.3zM47.2 86.9h1.3v8.8h-1.3v-1.3c-.1.4-.2.8-.6 1-.3.2-.7.4-1.2.4-.7 0-1.2-.2-1.6-.7s-.6-1.1-.6-1.8v-1.9c0-.8.2-1.4.6-1.8s.9-.7 1.6-.7c.5 0 .9.1 1.2.4.3.2.5.6.6 1v-3.4zm-.4 7.4c.2-.3.4-.6.4-1v-1.7c0-.4-.1-.8-.4-1s-.6-.4-1-.4-.8.1-1 .4c-.2.2-.3.6-.3 1.1v1.7c0 .5.1.8.3 1.1.2.2.6.4 1 .4.5-.2.8-.3 1-.6zM56 97.1h-5.8V96H56v1.1zM62.3 89.7c.4.4.6 1.1.6 1.8v1.9c0 .8-.2 1.4-.6 1.8-.4.4-.9.7-1.6.7-.5 0-.9-.1-1.2-.4-.3-.2-.5-.6-.6-1v1.3h-1.3V87H59v3.4c.1-.4.3-.8.6-1 .3-.2.7-.4 1.2-.4.6 0 1.1.2 1.5.7zm-.7 1.8c0-.5-.1-.8-.3-1.1-.2-.2-.6-.4-1-.4s-.7.1-1 .4c-.2.3-.4.6-.4 1v1.7c0 .4.1.8.4 1 .2.3.6.4 1 .4s.8-.1 1-.4c.2-.2.3-.6.3-1.1v-1.5zM65.6 95.1c-.5-.5-.7-1.1-.7-1.9V89h1.3v4.1c0 .5.1.8.3 1.1s.6.4 1 .4.7-.1 1-.4c.2-.3.4-.6.4-1.1V89h1.3v4.2c0 .8-.2 1.4-.7 1.9s-1.1.7-1.9.7-1.6-.2-2-.7zM73.6 95.7v-5.3h-1.9v-1.2h1.9v-.6c0-.5.2-1 .5-1.3.3-.3.8-.5 1.4-.5h2V88h-2c-.2 0-.3.1-.4.2-.1.1-.2.3-.2.4v.6h2.6v1.2h-2.6v5.3h-1.3zM80.8 95.7v-5.3H79v-1.2h1.9v-.6c0-.5.2-1 .5-1.3.3-.3.8-.5 1.4-.5h2V88h-2c-.2 0-.3.1-.4.2-.1.1-.2.3-.2.4v.6h2.6v1.2h-2.6v5.3h-1.4zM91.7 92.7h-4v.6c0 .5.1.9.4 1.1.2.3.6.4 1.1.4.4 0 .7-.1.9-.2s.4-.3.4-.6h1.3c-.1.6-.4 1-.9 1.3-.5.3-1.1.5-1.8.5-.8 0-1.5-.2-1.9-.7-.5-.5-.7-1.1-.7-1.9v-1.7c0-.8.2-1.4.7-1.9s1.1-.7 1.9-.7c.8 0 1.5.2 1.9.7.5.5.7 1.1.7 1.9v1.2zm-4-.9h2.8v-.3c0-.5-.1-.9-.4-1.1-.2-.3-.6-.4-1-.4s-.8.1-1 .4c-.2.3-.4.6-.4 1.1v.3zM98.6 89.6c.4.4.6 1 .6 1.8v.4h-1.3v-.3c0-.5-.1-.8-.4-1.1-.2-.3-.6-.4-1-.4s-.8.1-1 .4c-.2.3-.4.6-.4 1.1v4.2h-1.3v-6.6H95v1.2c.2-.9.8-1.4 1.8-1.4.8.1 1.4.3 1.8.7z" class="st1"/></g><path d="M162.8 81.1h-1c0-3.4 1.5-4.8 3-6.3 2.3-2.2 5.1-4.9 4.8-15.5h1c.3 11.1-2.7 13.9-5.1 16.3-1.5 1.4-2.7 2.5-2.7 5.5z" class="st2"/><path d="M170 58h.5c1.1 0 2.1.9 2.1 2.1v.5c0 1.1-.9 2.1-2.1 2.1h-.5c-1.1 0-2.1-.9-2.1-2.1V60c0-1.1.9-2 2.1-2z" class="st3"/><path d="M170.4 63.1h-.4c-1.4 0-2.6-1.2-2.6-2.6V60c0-1.4 1.1-2.6 2.6-2.6h.5c1.4 0 2.6 1.2 2.6 2.6v.5c-.1 1.4-1.2 2.6-2.7 2.6zm-.4-4.6c-.9 0-1.6.7-1.6 1.6v.5c0 .9.7 1.6 1.6 1.6h.5c.9 0 1.6-.7 1.6-1.6V60c0-.9-.7-1.6-1.6-1.6h-.5zM211.8 96.5c-.5-.4-.8-1-.8-1.8h1.3c0 .4.1.7.4.9.3.2.7.3 1.2.3s.8-.1 1.1-.3c.3-.2.4-.5.4-.9 0-.3-.1-.6-.3-.8-.2-.2-.4-.4-.8-.5l-1.1-.3c-.6-.2-1.1-.5-1.5-.9-.4-.4-.5-1-.5-1.6 0-.5.1-.9.3-1.3.2-.4.5-.6.9-.8.4-.2.9-.3 1.4-.3.8 0 1.4.2 1.9.7.5.4.7 1 .7 1.7h-1.3c0-.4-.1-.7-.4-.9s-.6-.3-1-.3-.8.1-1 .3c-.2.2-.4.5-.4.9 0 .3.1.6.3.9.2.2.4.4.8.5l1.1.3c.6.2 1.1.5 1.5.9.3.4.5 1 .5 1.6 0 .5-.1.9-.3 1.3s-.6.7-1 .9c-.4.2-.9.3-1.5.3-.7-.1-1.4-.4-1.9-.8zM256.4 97v-8.8h2.7c.5 0 1 .1 1.4.3.4.2.7.5 1 .9s.3.8.3 1.3c0 .6-.1 1.1-.4 1.5-.3.4-.7.7-1.2.9L262 97h-1.5l-1.6-3.6h-1.2V97h-1.3zm2.8-4.7c.4 0 .8-.1 1-.4.3-.3.4-.6.4-1s-.1-.8-.4-1.1c-.3-.3-.6-.4-1-.4h-1.5v2.9h1.5zM231.6 97h-1.3v-8.8h5.3v1.2h-4V92h3.7v1.2h-3.7V97zM242.9 97h-5.1v-8.8h1.3v7.6h3.8V97zM279.7 100.7h3.6v3.6h-3.6zM287.3 100.7h3.6v3.6h-3.6zM294.8 100.7h3.6v3.6h-3.6zM160.2 114.1c-.3-.3-.5-.7-.5-1.2v-2.5c0-.5.2-.9.5-1.2s.7-.5 1.3-.5c.5 0 1 .2 1.3.5s.5.7.5 1.2v2.5c0 .3-.1.6-.2.9-.1.3-.3.5-.6.6-.3.1-.6.2-.9.2-.7 0-1.1-.2-1.4-.5zm1.9-.5c.2-.2.3-.4.3-.7v-2.5c0-.3-.1-.5-.3-.7-.2-.2-.4-.3-.7-.3s-.5.1-.7.3c-.2.2-.3.4-.3.7v2.5c0 .3.1.5.3.7.2.2.4.3.7.3s.6-.1.7-.3zm-.9-1.6c-.1-.1-.1-.2-.1-.3v-.1c0-.1 0-.2.1-.3.1-.1.2-.1.3-.1.1 0 .2 0 .3.1.1.1.1.2.1.3v.1c0 .1 0 .2-.1.3-.1.1-.2.1-.3.1-.2 0-.3 0-.3-.1zM136.7 96.5c-.5-.4-.8-1-.8-1.8h1.3c0 .4.1.7.4.9.3.2.7.3 1.2.3s.8-.1 1.1-.3c.3-.2.4-.5.4-.9 0-.3-.1-.6-.3-.8-.2-.2-.4-.4-.8-.5l-1.1-.3c-.6-.2-1.1-.5-1.5-.9-.4-.4-.5-1-.5-1.6 0-.5.1-.9.3-1.3.2-.4.5-.6.9-.8.4-.2.9-.3 1.4-.3.8 0 1.4.2 1.9.7.5.4.7 1 .7 1.7H140c0-.4-.1-.7-.4-.9s-.6-.3-1-.3-.8.1-1 .3c-.2.2-.4.5-.4.9 0 .3.1.6.3.9.2.2.4.4.8.5l1.1.3c.6.2 1.1.5 1.5.9.3.4.5 1 .5 1.6 0 .5-.1.9-.3 1.3s-.6.7-1 .9c-.4.2-.9.3-1.5.3-.7-.1-1.4-.4-1.9-.8zM156.5 97h-1.3v-8.8h5.3v1.2h-4V92h3.7v1.2h-3.7V97zM167.7 97h-5.1v-8.8h1.3v7.6h3.8V97zM181.3 97v-8.8h2.7c.5 0 1 .1 1.4.3.4.2.7.5 1 .9s.3.8.3 1.3c0 .6-.1 1.1-.4 1.5-.3.4-.7.7-1.2.9l1.8 3.8h-1.5l-1.6-3.6h-1.2V97h-1.3zm2.8-4.7c.4 0 .8-.1 1-.4.3-.3.4-.6.4-1s-.1-.8-.4-1.1c-.3-.3-.6-.4-1-.4h-1.5v2.9h1.5z" class="st4"/><path id="Rettangolo_1-7_29_" d="M150.1 104.5h-22.7c-.3 0-.5-.2-.5-.5V81.3c0-.3.2-.5.5-.5h22.7c.3 0 .5.2.5.5V104c0 .3-.2.5-.5.5zm-22.2-1h21.7V81.8h-21.7v21.7z" class="st4"/><path id="Rettangolo_1-7_28_" d="M172.8 104.5h-22.7c-.3 0-.5-.2-.5-.5V81.3c0-.3.2-.5.5-.5h22.7c.3 0 .5.2.5.5V104c0 .3-.2.5-.5.5zm-22.2-1h21.7V81.8h-21.7v21.7z" class="st4"/><g id="Rettangolo_1-7_27_"><path d="M195.5 104.5h-22.7c-.3 0-.5-.2-.5-.5V81.3c0-.3.2-.5.5-.5h22.7c.3 0 .5.2.5.5V104c0 .3-.3.5-.5.5zm-22.2-1H195V81.8h-21.7v21.7z" class="st4"/></g><g><path d="M238.5 114.5h-3.6v-.7h1.5v-4.2l-1.5 1.1v-.9l1.3-.9h1.1v4.9h1.2v.7z" class="st4"/></g><g id="Rettangolo_1-7_26_"><path d="M225.2 104.5h-22.7c-.3 0-.5-.2-.5-.5V81.3c0-.3.2-.5.5-.5h22.7c.3 0 .5.2.5.5V104c0 .3-.2.5-.5.5zm-22.2-1h21.7V81.8H203v21.7z" class="st4"/></g><g id="Rettangolo_1-7_25_"><path d="M247.9 104.5h-22.7c-.3 0-.5-.2-.5-.5V81.3c0-.3.2-.5.5-.5h22.7c.3 0 .5.2.5.5V104c0 .3-.2.5-.5.5zm-22.2-1h21.7V81.8h-21.7v21.7z" class="st4"/></g><g id="Rettangolo_1-7_24_"><path d="M270.6 104.5h-22.7c-.3 0-.5-.2-.5-.5V81.3c0-.3.2-.5.5-.5h22.7c.3 0 .5.2.5.5V104c0 .3-.3.5-.5.5zm-22.2-1h21.7V81.8h-21.7v21.7z" class="st4"/></g><g><path d="M343.9 110.6c.3.3.4.6.4 1.1v2.8h-.8v-2.8c0-.3-.1-.5-.2-.7s-.4-.2-.6-.2c-.3 0-.5.1-.6.2-.2.2-.2.4-.2.7v2.7h-.8v-4.3h.8v.8c0-.3.2-.5.3-.7.2-.2.5-.2.8-.2.3.2.6.3.9.6z" class="st4"/></g><g><path d="M315.9 96.5c-.5-.4-.8-1-.8-1.8h1.3c0 .4.1.7.4.9.3.2.7.3 1.2.3s.8-.1 1.1-.3c.3-.2.4-.5.4-.9 0-.3-.1-.6-.3-.8-.2-.2-.4-.4-.8-.5l-1.1-.3c-.6-.2-1.1-.5-1.5-.9-.4-.4-.5-1-.5-1.6 0-.5.1-.9.3-1.3.2-.4.5-.6.9-.8.4-.2.9-.3 1.4-.3.8 0 1.4.2 1.9.7.5.4.7 1 .7 1.7h-1.3c0-.4-.1-.7-.4-.9s-.6-.3-1-.3-.8.1-1 .3c-.2.2-.4.5-.4.9 0 .3.1.6.3.9.2.2.4.4.8.5l1.1.3c.6.2 1.1.5 1.5.9.3.4.5 1 .5 1.6 0 .5-.1.9-.3 1.3s-.6.7-1 .9c-.4.2-.9.3-1.5.3-.7-.1-1.4-.4-1.9-.8zM360.5 97v-8.8h2.7c.5 0 1 .1 1.4.3.4.2.7.5 1 .9s.3.8.3 1.3c0 .6-.1 1.1-.4 1.5-.3.4-.7.7-1.2.9l1.8 3.8h-1.5l-1.6-3.6h-1.2V97h-1.3zm2.7-4.7c.4 0 .8-.1 1-.4.3-.3.4-.6.4-1s-.1-.8-.4-1.1c-.3-.3-.6-.4-1-.4h-1.5v2.9h1.5zM335.6 97h-1.3v-8.8h5.3v1.2h-4V92h3.7v1.2h-3.7V97zM346.9 97h-5.1v-8.8h1.3v7.6h3.8V97z" class="st4"/><path id="Rettangolo_1-7_23_" d="M329.2 104.5h-22.7c-.3 0-.5-.2-.5-.5V81.3c0-.3.2-.5.5-.5h22.7c.3 0 .5.2.5.5V104c0 .3-.2.5-.5.5zm-22.1-1h21.7V81.8h-21.7v21.7z" class="st4"/><path id="Rettangolo_1-7_22_" d="M351.9 104.5h-22.7c-.3 0-.5-.2-.5-.5V81.3c0-.3.2-.5.5-.5h22.7c.3 0 .5.2.5.5V104c0 .3-.2.5-.5.5zm-22.2-1h21.7V81.8h-21.7v21.7z" class="st4"/><g id="Rettangolo_1-7_21_"><path d="M374.6 104.5h-22.7c-.3 0-.5-.2-.5-.5V81.3c0-.3.2-.5.5-.5h22.7c.3 0 .5.2.5.5V104c0 .3-.2.5-.5.5zm-22.2-1h21.7V81.8h-21.7v21.7z" class="st4"/></g></g><g><path d="M124.2 110.1h-8.3V75.4h8.3V77h-6.5v31.4h6.5v1.7z" class="st4"/></g><g><path d="M386.9 110.1h-8.3v-1.7h6.5V77h-6.5v-1.7h8.3v34.8z" class="st4"/></g><g><path d="M142.3 41.7c0 1.3.6 2.3 1.9 3.1 1.2.8 2.9 1.1 5 1l13-.6c2.1-.1 3.8.1 5.2.7 1.4.6 2.3 1.4 2.8 2.4.4-1 1.3-1.9 2.8-2.4 1.5-.6 3.2-.8 5.3-.7l12.9.6c2.1.1 3.8-.2 5-1 1.2-.8 1.9-1.8 1.9-3.1v-2.3h3v2.3c0 2-.9 3.6-2.6 4.7s-4.2 1.6-7.2 1.5l-12.9-.6h-1.2c-1.9 0-3.3.3-4.1.9-.8.6-1.2 1.7-1.2 3.3V56h-3v-4.5c0-1.7-.5-2.8-1.4-3.4-1-.6-2.7-.8-5.1-.7l-13 .6c-3.1.1-5.5-.4-7.2-1.5-1.7-1.1-2.6-2.7-2.6-4.7v-2.3h3v2.2zM224 30.6h3.6v3.6H224zM231.5 30.6h3.6v3.6h-3.6zM239.1 30.6h3.6v3.6h-3.6z" class="st4"/><path id="Rettangolo_1-7_20_" d="M147.5 34.2h-22.7c-.3 0-.5-.2-.5-.5V11c0-.3.2-.5.5-.5h22.7c.3 0 .5.2.5.5v22.7c0 .2-.2.5-.5.5zm-22.1-1H147V11.5h-21.7v21.7z" class="st4"/><path id="Rettangolo_1-7_19_" d="M170.2 34.2h-22.7c-.3 0-.5-.2-.5-.5V11c0-.3.2-.5.5-.5h22.7c.3 0 .5.2.5.5v22.7c0 .2-.2.5-.5.5zm-22.2-1h21.7V11.5H148v21.7z" class="st4"/><path d="M131.2 6.6l2.3-3.4-2.2-3.2h1.5l1.1 1.8.3.6.3-.6 1.1-1.8h1.5L135 3.2l2.3 3.4h-1.5l-1.2-2-.3-.6-.3.6-1.2 2h-1.6zM155.4 8.8l.9-2.5-2.4-6.3h1.4l1.3 3.7c.1.3.2.7.3 1.1.1-.5.2-.8.3-1.1l1.2-3.7h1.4l-3.1 8.8h-1.3zM142.7 6.6h-3.6v-.7h1.5V1.7l-1.5 1.1v-.9l1.3-.9h1.1v4.9h1.2v.7zM165.2 6.6h-3.6v-.7h1.5V1.7l-1.5 1.1v-.9l1.3-.9h1.1v4.9h1.2v.7z" class="st4"/><g><path id="Rettangolo_1-7_18_" d="M192.9 34.2h-22.7c-.3 0-.5-.2-.5-.5V11c0-.3.2-.5.5-.5h22.7c.3 0 .5.2.5.5v22.7c0 .2-.2.5-.5.5zm-22.2-1h21.7V11.5h-21.7v21.7z" class="st4"/><path id="Rettangolo_1-7_17_" d="M215.6 34.2h-22.7c-.3 0-.5-.2-.5-.5V11c0-.3.2-.5.5-.5h22.7c.3 0 .5.2.5.5v22.7c0 .2-.3.5-.5.5zm-22.2-1h21.7V11.5h-21.7v21.7z" class="st4"/><path d="M176.5 6.6l2.3-3.4-2.1-3.2h1.5l1.1 1.8.3.6.3-.6L181 0h1.5l-2.1 3.2 2.3 3.4h-1.5l-1.2-2-.3-.6-.3.6-1.2 2h-1.7zM200.7 8.8l.9-2.5-2.4-6.3h1.4l1.3 3.7c.1.3.2.7.3 1.1.1-.5.2-.8.3-1.1l1.2-3.7h1.4L202 8.8h-1.3zM184.5 6.6v-.8l1.8-1.8c.3-.3.5-.5.6-.8.1-.2.1-.5.1-.7 0-.3-.1-.5-.2-.7-.2-.2-.4-.2-.6-.2-.3 0-.5.1-.7.3-.2.2-.3.4-.3.7h-.8c0-.5.2-.9.5-1.3.3-.3.8-.5 1.3-.5s.9.1 1.3.4c.3.3.5.7.5 1.2 0 .3-.1.7-.3 1-.2.3-.5.7-.9 1.1l-1.3 1.3h2.5v.8h-3.5zM207 6.6v-.8l1.8-1.8c.3-.3.5-.5.6-.8.1-.2.2-.5.2-.7 0-.3-.1-.5-.2-.7-.2-.2-.4-.2-.6-.2-.3 0-.5.1-.7.3-.2.2-.3.4-.3.7h-.8c0-.5.2-.9.5-1.3.3-.3.8-.5 1.3-.5s.9.1 1.3.4c.3.3.5.7.5 1.2 0 .3-.1.7-.3 1-.2.3-.5.7-.9 1.1L208 5.8h2.5v.8H207z" class="st4"/></g><g><path id="Rettangolo_1-7_7_" d="M274.1 34.2h-22.7c-.3 0-.5-.2-.5-.5V11c0-.3.2-.5.5-.5h22.7c.3 0 .5.2.5.5v22.7c0 .3-.3.5-.5.5zm-22.2-1h21.7V11.5h-21.7v21.7z" class="st4"/><path id="Rettangolo_1-7_6_" d="M296.7 34.2H274c-.3 0-.5-.2-.5-.5V11c0-.3.2-.5.5-.5h22.7c.3 0 .5.2.5.5v22.7c0 .3-.2.5-.5.5zm-22.1-1h21.7V11.5h-21.7v21.7z" class="st4"/><path d="M257.7 6.7l2.3-3.4-2.1-3.2h1.5l1.1 1.8.3.6.3-.6 1.1-1.8h1.5l-2.1 3.2 2.3 3.4h-1.5l-1.2-2-.3-.6-.3.6-1.2 2h-1.7zM281.9 8.8l.9-2.5-2.4-6.2h1.4l1.3 3.7c.1.3.2.7.3 1.1.1-.5.2-.8.3-1.1l1.2-3.7h1.4l-3.1 8.8h-1.3zM268.6 2.7c.3.3.4.6.4 1.1v2.8h-.8V3.9c0-.3-.1-.5-.2-.7s-.4-.2-.7-.2c-.3 0-.5.1-.6.2-.2.2-.2.4-.2.7v2.7h-.8V2.4h.8v.8c0-.3.2-.5.3-.7.2-.2.5-.2.8-.2.5 0 .8.1 1 .4zM291.1 2.7c.3.3.4.6.4 1.1v2.8h-.8V3.9c0-.3-.1-.5-.2-.7s-.4-.2-.7-.2c-.3 0-.5.1-.6.2-.1.2-.2.5-.2.8v2.7h-.8V2.4h.8v.8c0-.3.2-.5.3-.7.2-.2.5-.2.8-.2.5 0 .8.1 1 .4z" class="st4"/></g><g><path d="M121.8 39h-8.3V4.3h8.3V6h-6.5v31.4h6.5V39z" class="st4"/></g><g><path d="M307.9 39h-8.3v-1.7h6.5V6h-6.5V4.3h8.3V39z" class="st4"/></g></g></svg>