<svg xmlns="http://www.w3.org/2000/svg" id="Livello_1" data-name="Livello 1" viewBox="0 0 453 228.21"><defs/><defs><style>.cls-1,.cls-2,.cls-6,.cls-7{fill:none}.cls-1,.cls-6,.cls-8{stroke:#3a3d3b}.cls-1,.cls-2,.cls-7{stroke-linecap:round;stroke-linejoin:round}.cls-2{stroke:#4cb693}.cls-3,.cls-4{opacity:.6;isolation:isolate;font-size:12.12px;fill:#fff;font-family:JetBrainsMono-SemiLight,JetBrains Mono;font-weight:300}.cls-4{opacity:.4}.cls-5,.cls-8{fill:#111413}.cls-7{stroke:#707672}</style></defs><path id="Tracciato_2" d="M319.75 399.68c0-29.48-119-9.21-119-42.75" class="cls-1" data-name="Tracciato 2" transform="translate(-71.14 -330.33)"/><path id="Tracciato_4" d="M410 458.05c0-20.5-89-6.28-89-33" class="cls-1" data-name="Tracciato 4" transform="translate(-71.14 -330.33)"/><path id="Tracciato_1" d="M106.51 399.68c.69-25.61 93.28-7.68 93.28-43" class="cls-2" data-name="Tracciato 1" transform="translate(-71.14 -330.33)"/><path id="Tracciato_3" d="M319.75 424.74c0 29.49-86 7.45-86 33.31" class="cls-2" data-name="Tracciato 3" transform="translate(-71.14 -330.33)"/><path id="Tracciato_5" d="M410 483.51c0 23.69-60.84 24.37-60.84 49.29" class="cls-2" data-name="Tracciato 5" transform="translate(-71.14 -330.33)"/><path id="Tracciato_6" d="M410.89 483.51c.25 22.92 68.86 19.82 68.86 49.29" class="cls-2" data-name="Tracciato 6" transform="translate(-71.14 -330.33)"/><text class="cls-3" transform="translate(16.86 85.93)">Group</text><rect id="Rettangolo_1-2" width="101.18" height="25.45" x="198.02" y="68.97" class="cls-1" data-name="Rettangolo 1-2" rx="1"/><text class="cls-4" transform="translate(216.2 85.93)">ShapeBase</text><path d="M245.89 91.38h6.06v6.06h-6.06z" class="cls-5"/><path d="M246.19 91.69h5.45v5.45h-5.45z" class="cls-6"/><text class="cls-3" transform="translate(144.1 144.7)">Shape</text><rect id="Rettangolo_1-4" width="129.06" height="25.45" x="274.37" y="127.74" class="cls-1" data-name="Rettangolo 1-4" rx="1"/><text class="cls-4" transform="translate(288.3 144.7)">ShapePrimitive</text><path d="M336.17 150.16h6.06v6.06h-6.06z" class="cls-5"/><path d="M336.47 150.46h5.45v5.45h-5.45z" class="cls-6"/><text class="cls-3" transform="translate(238.01 219.23)">ShapeBuffer</text><rect id="Rettangolo_1" width="68.47" height="25.45" x=".5" y="68.97" class="cls-7" data-name="Rettangolo 1" rx="1"/><rect id="Rettangolo_1-3" width="67.25" height="25.45" x="128.34" y="127.74" class="cls-7" data-name="Rettangolo 1-3" rx="1"/><rect id="Rettangolo_1-5" width="104.82" height="25.45" x="225.29" y="202.26" class="cls-7" data-name="Rettangolo 1-5" rx="1"/><rect id="Rettangolo_1-6" width="89.07" height="25.45" x="363.43" y="202.26" class="cls-7" data-name="Rettangolo 1-6" rx="1"/><text class="cls-3" transform="translate(375.55 219.23)">ShapeLoop</text><text class="cls-4" transform="translate(88.96 17.47)">Scene Child</text><rect id="Rettangolo_1-7" width="101.18" height="25.45" x="78.05" y=".5" class="cls-1" data-name="Rettangolo 1-7" rx="1"/><path d="M125.92 22.92h6.06v6.06h-6.06z" class="cls-5"/><path d="M126.22 23.22h5.45v5.45h-5.45z" class="cls-6"/><rect width="4.59" height="4.59" x="246.63" y="66.67" class="cls-8" rx="2.06"/><rect width="4.59" height="4.59" x="336.9" y="125.45" class="cls-8" rx="2.29"/><rect width="4.59" height="4.59" x="405.98" y="199.97" class="cls-8" rx="2.29"/><rect width="4.59" height="4.59" x="159.98" y="125.45" class="cls-8" rx="2.06"/><rect width="4.59" height="4.59" x="275.71" y="199.97" class="cls-8" rx="2.29"/><rect width="4.59" height="4.59" x="32.74" y="66.67" class="cls-8" rx="2.06"/></svg>