<svg xmlns="http://www.w3.org/2000/svg" overflow="visible" viewBox="0 0 453 228.2"><defs/><style>.st0{fill:#3a3d3b}.st1{fill:#4cb693}.st2{opacity:.6;enable-background:new}.st3{fill:#fff}.st4{opacity:.4;enable-background:new}.st5{fill:#111413}.st6{fill:#707672}</style><path id="Tracciato_2_1_" d="M248.6 69.9c-.3 0-.5-.2-.5-.5 0-13.8-27.3-16.4-56.2-19.1-30.9-2.9-62.8-5.9-62.8-23.7 0-.3.2-.5.5-.5s.5.2.5.5c0 16.9 31.5 19.8 61.9 22.7 29.4 2.8 57.1 5.4 57.1 20.1 0 .2-.2.5-.5.5z" class="st0"/><path id="Tracciato_4_1_" d="M338.9 128.2c-.3 0-.5-.2-.5-.5 0-9.1-19.3-11.1-39.6-13.2-24.3-2.5-49.4-5.1-49.4-19.8 0-.3.2-.5.5-.5s.5.2.5.5c0 13.8 24.6 16.3 48.5 18.8 20.8 2.2 40.5 4.2 40.5 14.2 0 .3-.3.5-.5.5z" class="st0"/><path id="Tracciato_1_1_" d="M35.4 69.9c-.3 0-.5-.2-.5-.5.3-12.2 20.4-14.8 41.7-17.6 25.4-3.3 51.6-6.7 51.6-25.4 0-.3.2-.5.5-.5s.5.2.5.5c0 19.5-27.9 23.2-52.5 26.4-20.8 2.7-40.5 5.2-40.8 16.6 0 .2-.3.5-.5.5z" class="st1"/><path id="Tracciato_3_1_" d="M162.6 128.2c-.3 0-.5-.2-.5-.5 0-13 20.1-14.3 41.4-15.7 22-1.4 44.6-2.9 44.6-17.7 0-.3.2-.5.5-.5s.5.2.5.5c0 15.7-23.2 17.2-45.6 18.7-20.8 1.3-40.4 2.6-40.4 14.7 0 .3-.2.5-.5.5z" class="st1"/><path id="Tracciato_5_1_" d="M278 203c-.3 0-.5-.2-.5-.5 0-13 15.9-19.5 31.3-25.8 15.2-6.2 29.5-12.1 29.5-23.5 0-.3.2-.5.5-.5s.5.2.5.5c0 12-15.3 18.3-30.2 24.4-15.1 6.2-30.7 12.6-30.7 24.9.1.2-.1.5-.4.5z" class="st1"/><path id="Tracciato_6_1_" d="M408.6 203c-.3 0-.5-.2-.5-.5 0-15.3-18.9-21.6-37.3-27.7-16.2-5.4-31.5-10.5-31.6-21.6 0-.3.2-.5.5-.5s.5.2.5.5c.1 10.4 15.1 15.4 30.9 20.6 18.7 6.2 38 12.6 38 28.7 0 .2-.2.5-.5.5z" class="st1"/><g class="st2"><path d="M18.7 85.4c-.5-.4-.7-1-.7-1.8v-4.1c0-.8.2-1.4.7-1.8.5-.4 1.1-.7 1.8-.7.8 0 1.4.2 1.8.7.5.5.7 1.1.7 1.9h-.8c0-.6-.2-1-.5-1.3s-.7-.5-1.3-.5c-.5 0-1 .2-1.3.5-.3.3-.5.7-.5 1.3v4.1c0 .5.2 1 .5 1.3.3.3.7.5 1.3.5.5 0 1-.2 1.3-.5.3-.3.5-.8.5-1.3v-1.2h-2v-.7H23v2c0 .8-.2 1.4-.7 1.9-.5.5-1.1.7-1.8.7-.7-.3-1.3-.6-1.8-1zM29.9 79.8c.4.4.6 1 .6 1.8v.4h-.8v-.3c0-.6-.1-1-.4-1.3s-.7-.5-1.2-.5-.9.2-1.2.5c-.3.3-.4.8-.4 1.3V86h-.8v-6.7h.8v1.1c.1-.4.3-.7.6-.9.3-.2.7-.3 1.1-.3.7-.1 1.3.2 1.7.6zM33.3 85.4c-.4-.4-.7-1-.7-1.8v-2c0-.8.2-1.4.7-1.8.4-.4 1-.7 1.8-.7.7 0 1.3.2 1.8.7s.7 1 .7 1.8v2c0 .8-.2 1.4-.7 1.8s-1 .7-1.8.7-1.4-.3-1.8-.7zm3-.5c.3-.3.4-.7.4-1.3v-2c0-.6-.1-1-.4-1.3-.3-.3-.7-.5-1.3-.5-.5 0-.9.2-1.2.5-.3.3-.4.7-.4 1.3v2c0 .6.1 1 .4 1.3.3.3.7.5 1.2.5.6-.1 1-.2 1.3-.5zM40.5 85.4c-.4-.4-.6-1.1-.6-1.8v-4.3h.8v4.3c0 .6.1 1 .4 1.3s.7.5 1.2.5.9-.2 1.2-.5c.3-.3.4-.7.4-1.3v-4.3h.8v4.3c0 .8-.2 1.4-.7 1.8-.4.4-1 .7-1.8.7-.6 0-1.2-.3-1.7-.7zM51.4 79.8c.4.4.6 1 .6 1.8v2c0 .7-.2 1.3-.6 1.8s-.9.7-1.6.7c-.5 0-.9-.1-1.2-.3s-.5-.5-.7-.9v3.3h-.8v-8.8h.9v1.1c.1-.4.3-.7.7-.9s.7-.3 1.2-.3c.6-.2 1.1.1 1.5.5zm-.2 1.8c0-.6-.1-1-.4-1.3-.3-.3-.7-.5-1.2-.5s-.9.2-1.2.5c-.3.3-.4.7-.4 1.3v2c0 .6.1 1 .4 1.3.3.3.7.5 1.2.5s.9-.2 1.2-.5c.3-.3.4-.7.4-1.3v-2z" class="st3"/></g><path id="Rettangolo_1-2_1_" d="M298.2 94.9H199c-.8 0-1.5-.7-1.5-1.5V70c0-.8.7-1.5 1.5-1.5h99.2c.8 0 1.5.7 1.5 1.5v23.5c0 .7-.7 1.4-1.5 1.4zM199 69.5c-.3 0-.5.2-.5.5v23.5c0 .3.2.5.5.5h99.2c.3 0 .5-.2.5-.5V70c0-.3-.2-.5-.5-.5H199z" class="st0"/><g class="st4"><path d="M217.9 85.4c-.5-.4-.7-1-.7-1.7h.8c0 .5.2.9.5 1.2.3.3.8.5 1.4.5.6 0 1-.1 1.3-.4.3-.3.5-.7.5-1.2 0-.4-.1-.8-.4-1.1-.2-.3-.6-.5-1-.7l-1.1-.3c-.6-.2-1-.5-1.4-.9-.3-.4-.5-.9-.5-1.5 0-.7.2-1.2.7-1.6s1.1-.6 1.8-.6c.8 0 1.4.2 1.8.6.4.4.7 1 .7 1.7h-.8c0-.5-.2-.9-.5-1.2s-.7-.4-1.2-.4-.9.1-1.2.4c-.3.3-.4.6-.4 1.1 0 .4.1.8.3 1.1.2.3.5.5.9.6l1.1.3c.6.2 1.1.5 1.4.9s.5 1 .5 1.6c0 .7-.2 1.3-.7 1.7-.5.4-1.1.6-1.9.6-.7 0-1.4-.3-1.9-.7zM228.9 79.8c.4.4.6 1 .6 1.7V86h-.8v-4.4c0-.5-.1-1-.4-1.3-.3-.3-.7-.5-1.2-.5s-.9.2-1.2.5c-.3.3-.4.8-.4 1.3v4.3h-.8v-8.8h.8v3.3c.1-.4.3-.7.6-.9.3-.2.7-.3 1.2-.3.7-.1 1.2.2 1.6.6zM236.2 79.7c.4.4.6.9.6 1.6v4.6h-.8v-1.1c-.1.4-.3.7-.7.9s-.8.3-1.4.3c-.7 0-1.2-.2-1.6-.5-.4-.4-.6-.8-.6-1.4s.2-1.1.6-1.4.9-.5 1.6-.5h2.2v-.8c0-.5-.1-.9-.4-1.1-.3-.3-.7-.4-1.2-.4-.4 0-.8.1-1.1.3-.3.2-.5.5-.5.8h-.9c.1-.6.3-1 .8-1.4.4-.3 1-.5 1.6-.5.8 0 1.3.2 1.8.6zm-.7 5.3c.4-.3.5-.6.5-1.1v-1.1h-2.2c-.4 0-.7.1-1 .3-.2.2-.4.5-.4.9s.1.7.4 1c.3.2.7.4 1.1.4.7 0 1.2-.1 1.6-.4zM243.5 79.8c.4.4.6 1 .6 1.8v2c0 .7-.2 1.3-.6 1.8-.4.4-.9.7-1.6.7-.5 0-.9-.1-1.2-.3s-.5-.5-.7-.9v3.3h-.8v-8.8h.8v1.1c.1-.4.3-.7.7-.9s.7-.3 1.2-.3c.7-.2 1.2.1 1.6.5zm-.2 1.8c0-.6-.1-1-.4-1.3-.3-.3-.7-.5-1.2-.5s-.9.2-1.2.5c-.3.3-.4.7-.4 1.3v2c0 .6.1 1 .4 1.3.3.3.7.5 1.2.5s.9-.2 1.2-.5c.3-.3.4-.7.4-1.3v-2zM251.4 82.8h-4.1v.8c0 .6.1 1 .4 1.3.3.3.7.5 1.2.5.4 0 .8-.1 1.1-.3.3-.2.5-.5.6-.8h.8c-.1.5-.4 1-.8 1.3-.4.3-1 .5-1.6.5-.8 0-1.4-.2-1.8-.7-.4-.4-.7-1-.7-1.8v-2c0-.8.2-1.4.7-1.8s1-.7 1.8-.7 1.3.2 1.8.7c.4.4.7 1 .7 1.8v1.2zm-4.1-.7h3.3v-.5c0-.6-.1-1-.4-1.3-.3-.3-.7-.5-1.2-.5s-1 .2-1.2.5c-.3.3-.4.8-.4 1.3v.5zM258.5 82.1c.3.4.4.9.4 1.4 0 .7-.2 1.3-.7 1.8s-1.1.7-1.9.7h-2.5v-8.8h2.4c.8 0 1.4.2 1.8.6s.7 1 .7 1.7c0 .5-.1.9-.4 1.3s-.6.6-1 .7c.5-.1.9.2 1.2.6zm-3.9-4.3V81h1.6c.5 0 .9-.1 1.2-.4.3-.3.4-.7.4-1.2s-.2-.9-.5-1.2c-.3-.3-.7-.4-1.2-.4h-1.5zm1.6 7.4c.6 0 1-.2 1.4-.5.3-.3.5-.7.5-1.3 0-.5-.2-1-.5-1.3s-.8-.5-1.4-.5h-1.6v3.5h1.6zM265.2 79.7c.4.4.6.9.6 1.6v4.6h-.8v-1.1c-.1.4-.3.7-.7.9s-.8.3-1.4.3c-.7 0-1.2-.2-1.6-.5s-.6-.8-.6-1.4.2-1.1.6-1.4c.4-.3.9-.5 1.6-.5h2.2v-.8c0-.5-.1-.9-.4-1.1s-.7-.4-1.2-.4c-.4 0-.8.1-1.1.3s-.5.5-.5.8h-.8c.1-.6.3-1 .8-1.4.4-.3 1-.5 1.6-.5.7 0 1.3.2 1.7.6zm-.7 5.3c.4-.3.5-.6.5-1.1v-1.1h-2.2c-.4 0-.8.1-1 .3-.2.2-.4.5-.4.9s.1.7.4 1c.3.2.7.4 1.1.4.8 0 1.3-.1 1.6-.4zM270.4 86.1c-.6 0-1.1-.2-1.5-.5s-.6-.7-.7-1.3h.8c.1.3.2.6.5.8s.6.3 1 .3h.7c.4 0 .8-.1 1-.3s.4-.5.4-.8c0-.3-.1-.6-.3-.8s-.5-.3-.8-.4l-1.1-.2c-1.2-.2-1.9-.8-1.9-1.8 0-.6.2-1 .6-1.4.4-.3.9-.5 1.6-.5h.5c.6 0 1.1.1 1.5.4s.6.7.7 1.2h-.8c0-.3-.2-.5-.4-.7-.2-.2-.6-.3-.9-.3h-.5c-.4 0-.8.1-1 .3-.2.2-.4.5-.4.8 0 .3.1.5.3.7.2.2.5.3.9.4l1.1.2c.6.1 1.1.3 1.4.6.3.3.5.7.5 1.3 0 .6-.2 1.1-.6 1.4-.4.3-.9.5-1.6.5h-1zM280.5 82.8h-4.1v.8c0 .6.1 1 .4 1.3.3.3.7.5 1.2.5.4 0 .8-.1 1.1-.3.3-.2.5-.5.6-.8h.8c-.1.5-.4 1-.8 1.3-.4.3-1 .5-1.6.5-.8 0-1.4-.2-1.8-.7-.4-.4-.7-1-.7-1.8v-2c0-.8.2-1.4.7-1.8s1-.7 1.8-.7 1.3.2 1.8.7.7 1 .7 1.8v1.2zm-4.1-.7h3.3v-.5c0-.6-.1-1-.4-1.3-.3-.3-.7-.5-1.2-.5s-1 .2-1.2.5c-.3.3-.4.8-.4 1.3v.5z" class="st3"/></g><path d="M245.9 91.4h6.1v6.1h-6.1v-6.1z" class="st5"/><path d="M252.1 97.6h-6.4v-6.4h6.4v6.4zm-5.4-1h4.4v-4.4h-4.4v4.4z" class="st0"/><g class="st2"><path d="M145.8 144.2c-.5-.4-.7-1-.7-1.7h.8c0 .5.2.9.5 1.2.3.3.8.5 1.4.5.6 0 1-.1 1.3-.4.3-.3.5-.7.5-1.2 0-.4-.1-.8-.4-1.1-.2-.3-.6-.5-1-.7l-1.1-.3c-.6-.2-1-.5-1.4-.9-.3-.4-.5-.9-.5-1.5 0-.7.2-1.2.7-1.6s1.1-.6 1.8-.6c.8 0 1.4.2 1.8.6.4.4.7 1 .7 1.7h-.8c0-.5-.2-.9-.5-1.2s-.7-.4-1.2-.4-.9.1-1.2.4c-.3.3-.4.6-.4 1.1 0 .4.1.8.3 1.1.2.3.5.5.9.6l1.1.3c.6.2 1.1.5 1.4.9s.5 1 .5 1.6c0 .7-.2 1.3-.7 1.7-.5.4-1.1.6-1.9.6-.7-.1-1.4-.3-1.9-.7zM156.8 138.5c.4.4.6 1 .6 1.7v4.5h-.8v-4.4c0-.5-.1-1-.4-1.3-.3-.3-.7-.5-1.2-.5s-.9.2-1.2.5c-.3.3-.4.8-.4 1.3v4.3h-.8v-8.8h.8v3.3c.1-.4.3-.7.6-.9.3-.2.7-.3 1.2-.3.7 0 1.2.2 1.6.6zM164.1 138.5c.4.4.6.9.6 1.6v4.6h-.8v-1.1c-.1.4-.3.7-.7.9s-.8.3-1.4.3c-.7 0-1.2-.2-1.6-.5-.4-.4-.6-.8-.6-1.4s.2-1.1.6-1.4c.4-.3.9-.5 1.6-.5h2.2v-.8c0-.5-.1-.9-.4-1.1-.3-.3-.7-.4-1.2-.4-.4 0-.8.1-1.1.3-.3.2-.5.5-.5.8h-.8c.1-.6.3-1 .8-1.4.4-.3 1-.5 1.6-.5.7 0 1.2.2 1.7.6zm-.7 5.3c.4-.3.5-.6.5-1.1v-1.1h-2.2c-.4 0-.7.1-1 .3-.2.2-.4.5-.4.9s.1.7.4 1c.3.2.7.4 1.1.4.7 0 1.2-.2 1.6-.4zM171.4 138.6c.4.4.6 1 .6 1.8v2c0 .7-.2 1.3-.6 1.8s-.9.7-1.6.7c-.5 0-.9-.1-1.2-.3s-.5-.5-.7-.9v3.3h-.8v-9h.8v1.1c.1-.4.3-.7.7-.9s.7-.3 1.2-.3c.7 0 1.2.2 1.6.7zm-.2 1.8c0-.6-.1-1-.4-1.3-.3-.3-.7-.5-1.2-.5s-.9.2-1.2.5c-.3.3-.4.7-.4 1.3v2c0 .6.1 1 .4 1.3.3.3.7.5 1.2.5s.9-.2 1.2-.5c.3-.3.4-.7.4-1.3v-2zM179.3 141.5h-4.1v.8c0 .6.1 1 .4 1.3.3.3.7.5 1.2.5.4 0 .8-.1 1.1-.3.3-.2.5-.5.6-.8h.8c-.1.5-.4 1-.8 1.3s-1 .5-1.6.5c-.8 0-1.4-.2-1.8-.7-.4-.4-.7-1-.7-1.8v-2c0-.8.2-1.4.7-1.8s1-.7 1.8-.7 1.3.2 1.8.7c.4.4.7 1 .7 1.8v1.2zm-4.1-.6h3.3v-.5c0-.6-.1-1-.4-1.3s-.7-.5-1.2-.5-1 .2-1.2.5-.4.8-.4 1.3v.5z" class="st3"/></g><path id="Rettangolo_1-4_1_" d="M402.4 153.7h-127c-.8 0-1.5-.7-1.5-1.5v-23.4c0-.8.7-1.5 1.5-1.5h127.1c.8 0 1.5.7 1.5 1.5v23.4c-.1.8-.7 1.5-1.6 1.5zm-127-25.5c-.3 0-.5.2-.5.5v23.4c0 .3.2.5.5.5h127.1c.3 0 .5-.2.5-.5v-23.4c0-.3-.2-.5-.5-.5H275.4z" class="st0"/><g class="st4"><path d="M290 144.2c-.5-.4-.7-1-.7-1.7h.8c0 .5.2.9.5 1.2.3.3.8.5 1.4.5.6 0 1-.1 1.3-.4.3-.3.5-.7.5-1.2 0-.4-.1-.8-.4-1.1-.2-.3-.6-.5-1-.7l-1.1-.3c-.6-.2-1-.5-1.4-.9-.3-.4-.5-.9-.5-1.5 0-.7.2-1.2.7-1.6.5-.4 1.1-.6 1.8-.6.8 0 1.4.2 1.8.6.4.4.7 1 .7 1.7h-.8c0-.5-.2-.9-.5-1.2-.3-.3-.7-.4-1.2-.4s-.9.1-1.2.4c-.3.3-.4.6-.4 1.1 0 .4.1.8.3 1.1.2.3.5.5.9.6l1.1.3c.6.2 1.1.5 1.4.9.3.4.5 1 .5 1.6 0 .7-.2 1.3-.7 1.7-.5.4-1.1.6-1.9.6-.7-.1-1.4-.3-1.9-.7zM301 138.5c.4.4.6 1 .6 1.7v4.5h-.8v-4.4c0-.5-.1-1-.4-1.3-.3-.3-.7-.5-1.2-.5s-.9.2-1.2.5-.4.8-.4 1.3v4.3h-.8v-8.8h.8v3.3c.1-.4.3-.7.6-.9s.7-.3 1.2-.3c.7 0 1.2.2 1.6.6zM308.3 138.5c.4.4.6.9.6 1.6v4.6h-.8v-1.1c-.1.4-.3.7-.7.9s-.8.3-1.4.3c-.7 0-1.2-.2-1.6-.5s-.6-.8-.6-1.4.2-1.1.6-1.4c.4-.3.9-.5 1.6-.5h2.2v-.8c0-.5-.1-.9-.4-1.1s-.7-.4-1.2-.4c-.4 0-.8.1-1.1.3s-.5.5-.5.8h-.8c.1-.6.3-1 .8-1.4.4-.3 1-.5 1.6-.5.7 0 1.2.2 1.7.6zm-.7 5.3c.4-.3.5-.6.5-1.1v-1.1h-2.2c-.4 0-.8.1-1 .3-.2.2-.4.5-.4.9s.1.7.4 1c.3.2.7.4 1.1.4.7 0 1.2-.2 1.6-.4zM315.6 138.6c.4.4.6 1 .6 1.8v2c0 .7-.2 1.3-.6 1.8-.4.4-.9.7-1.6.7-.5 0-.9-.1-1.2-.3s-.5-.5-.7-.9v3.3h-.8v-9h.8v1.1c.1-.4.3-.7.7-.9s.7-.3 1.2-.3c.7 0 1.2.2 1.6.7zm-.2 1.8c0-.6-.1-1-.4-1.3-.3-.3-.7-.5-1.2-.5s-.9.2-1.2.5c-.3.3-.4.7-.4 1.3v2c0 .6.1 1 .4 1.3.3.3.7.5 1.2.5s.9-.2 1.2-.5c.3-.3.4-.7.4-1.3v-2zM323.5 141.5h-4.1v.8c0 .6.1 1 .4 1.3.3.3.7.5 1.2.5.4 0 .8-.1 1.1-.3.3-.2.5-.5.6-.8h.8c-.1.5-.4 1-.8 1.3-.4.3-1 .5-1.6.5-.8 0-1.4-.2-1.8-.7-.4-.4-.7-1-.7-1.8v-2c0-.8.2-1.4.7-1.8s1-.7 1.8-.7 1.3.2 1.8.7.7 1 .7 1.8v1.2zm-4.1-.6h3.3v-.5c0-.6-.1-1-.4-1.3-.3-.3-.7-.5-1.2-.5s-1 .2-1.2.5c-.3.3-.4.8-.4 1.3v.5zM325.9 144.7v-8.8h2.7c.8 0 1.4.2 1.9.7.5.5.7 1.1.7 1.8 0 .8-.2 1.4-.7 1.8-.5.5-1.1.7-1.9.7h-1.9v3.8h-.8zm2.7-4.5c.5 0 1-.2 1.3-.5s.5-.8.5-1.3-.2-1-.5-1.3c-.3-.3-.8-.5-1.3-.5h-1.9v3.6h1.9zM337.7 138.6c.4.4.6 1 .6 1.8v.4h-.8v-.3c0-.6-.1-1-.4-1.3-.3-.3-.7-.5-1.2-.5s-.9.2-1.2.5-.4.8-.4 1.3v4.3h-.8V138h.8v1.1c.1-.4.3-.7.6-.9s.7-.3 1.1-.3c.7 0 1.3.2 1.7.7zM345.8 144.7h-5.5v-.7h2.4v-5.2h-2.1v-.8h2.9v5.9h2.3v.8zm-2.9-7.9c-.2 0-.4-.1-.5-.2-.1-.1-.2-.3-.2-.5s.1-.4.2-.5c.1-.1.3-.2.5-.2h.1c.2 0 .4.1.5.2.1.1.2.3.2.5s-.1.4-.2.5c-.1.1-.3.2-.5.2h-.1zM352.5 138.3c.2.3.3.7.3 1.2v5.2h-.8v-5.1c0-.3-.1-.6-.2-.7-.1-.2-.3-.3-.6-.3s-.5.1-.6.3c-.1.2-.2.4-.2.7v5.1h-.7v-5.1c0-.3-.1-.6-.2-.7-.1-.2-.3-.3-.6-.3-.2 0-.4.1-.6.3s-.2.4-.2.7v5.1h-.8V138h.7v.9h.1c0-.3.2-.5.4-.7.2-.2.4-.3.8-.3.3 0 .5.1.7.3.2.2.3.4.4.7 0-.3.2-.5.4-.7s.4-.3.8-.3.7.2.9.4zM360.3 144.7h-5.5v-.7h2.4v-5.2h-2.1v-.8h2.9v5.9h2.3v.8zm-2.8-7.9c-.2 0-.4-.1-.5-.2-.1-.1-.2-.3-.2-.5s.1-.4.2-.5c.1-.1.3-.2.5-.2h.1c.2 0 .4.1.5.2.1.1.2.3.2.5s-.1.4-.2.5c-.1.1-.3.2-.5.2h-.1zM365.4 144.7c-.5 0-.9-.1-1.2-.4-.3-.3-.4-.7-.4-1.2v-4.3h-1.9v-.8h1.9v-1.8h.8v1.8h2.7v.7h-2.7v4.3c0 .6.3.9.9.9h1.7v.7h-1.8zM374.8 144.7h-5.5v-.7h2.4v-5.2h-2.1v-.8h2.9v5.9h2.3v.8zm-2.8-7.9c-.2 0-.4-.1-.5-.2-.1-.1-.2-.3-.2-.5s.1-.4.2-.5c.1-.1.3-.2.5-.2h.1c.2 0 .4.1.5.2.1.1.2.3.2.5s-.1.4-.2.5c-.1.1-.3.2-.5.2h-.1zM378.7 144.7l-2.3-6.7h.8l1.6 4.8.4 1.3c.1-.4.3-.9.4-1.3l1.6-4.8h.8l-2.3 6.7h-1zM388.9 141.5h-4.1v.8c0 .6.1 1 .4 1.3.3.3.7.5 1.2.5.4 0 .8-.1 1.1-.3.3-.2.5-.5.6-.8h.8c-.1.5-.4 1-.8 1.3-.4.3-1 .5-1.6.5-.8 0-1.4-.2-1.8-.7-.4-.4-.7-1-.7-1.8v-2c0-.8.2-1.4.7-1.8s1-.7 1.8-.7 1.3.2 1.8.7.7 1 .7 1.8v1.2zm-4.1-.6h3.3v-.5c0-.6-.1-1-.4-1.3-.3-.3-.7-.5-1.2-.5s-1 .2-1.2.5c-.3.3-.4.8-.4 1.3v.5z" class="st3"/></g><path d="M336.2 150.2h6.1v6.1h-6.1v-6.1z" class="st5"/><path d="M342.4 156.4H336V150h6.5v6.4zm-5.4-1h4.5V151H337v4.4z" class="st0"/><g class="st2"><path d="M239.7 218.7c-.5-.4-.7-1-.7-1.7h.8c0 .5.2.9.5 1.2.3.3.8.5 1.4.5.6 0 1-.1 1.3-.4.3-.3.5-.7.5-1.2 0-.4-.1-.8-.4-1.1-.2-.3-.6-.5-1-.7l-1.1-.3c-.6-.2-1-.5-1.4-.9-.3-.4-.5-.9-.5-1.5 0-.7.2-1.2.7-1.6.5-.4 1.1-.6 1.8-.6.8 0 1.4.2 1.8.6.4.4.7 1 .7 1.7h-.8c0-.5-.2-.9-.5-1.2-.3-.3-.7-.4-1.2-.4s-.9.1-1.2.4c-.3.3-.4.6-.4 1.1 0 .4.1.8.3 1.1.2.3.5.5.9.6l1.1.3c.6.2 1.1.5 1.4.9.3.4.5 1 .5 1.6 0 .7-.2 1.3-.7 1.7-.5.4-1.1.6-1.9.6-.7 0-1.4-.3-1.9-.7zM250.7 213.1c.4.4.6 1 .6 1.7v4.5h-.8v-4.4c0-.5-.1-1-.4-1.3-.3-.3-.7-.5-1.2-.5s-.9.2-1.2.5-.4.8-.4 1.3v4.3h-.8v-8.8h.8v3.3c.1-.4.3-.7.6-.9s.7-.3 1.2-.3c.7-.1 1.2.2 1.6.6zM258 213c.4.4.6.9.6 1.6v4.6h-.8v-1.1c-.1.4-.3.7-.7.9s-.8.3-1.4.3c-.7 0-1.2-.2-1.6-.5s-.6-.8-.6-1.4.2-1.1.6-1.4c.4-.3.9-.5 1.6-.5h2.2v-.8c0-.5-.1-.9-.4-1.1s-.7-.4-1.2-.4c-.4 0-.8.1-1.1.3s-.5.5-.5.8h-.8c.1-.6.3-1 .8-1.4.4-.3 1-.5 1.6-.5.7 0 1.2.2 1.7.6zm-.7 5.3c.4-.3.5-.6.5-1.1v-1.1h-2.2c-.4 0-.8.1-1 .3-.2.2-.4.5-.4.9s.1.7.4 1c.3.2.7.4 1.1.4.7 0 1.2-.1 1.6-.4zM265.3 213.1c.4.4.6 1 .6 1.8v2c0 .7-.2 1.3-.6 1.8-.4.4-.9.7-1.6.7-.5 0-.9-.1-1.2-.3s-.5-.5-.7-.9v3.3h-.8v-8.8h.8v1.1c.1-.4.3-.7.7-.9s.7-.3 1.2-.3c.7-.2 1.2.1 1.6.5zm-.2 1.8c0-.6-.1-1-.4-1.3-.3-.3-.7-.5-1.2-.5s-.9.2-1.2.5c-.3.3-.4.7-.4 1.3v2c0 .6.1 1 .4 1.3.3.3.7.5 1.2.5s.9-.2 1.2-.5c.3-.3.4-.7.4-1.3v-2zM273.2 216.1h-4.1v.8c0 .6.1 1 .4 1.3.3.3.7.5 1.2.5.4 0 .8-.1 1.1-.3.3-.2.5-.5.6-.8h.8c-.1.5-.4 1-.8 1.3-.4.3-1 .5-1.6.5-.8 0-1.4-.2-1.8-.7-.4-.4-.7-1-.7-1.8v-2c0-.8.2-1.4.7-1.8s1-.7 1.8-.7 1.3.2 1.8.7.7 1 .7 1.8v1.2zm-4.1-.7h3.3v-.5c0-.6-.1-1-.4-1.3-.3-.3-.7-.5-1.2-.5s-1 .2-1.2.5c-.3.3-.4.8-.4 1.3v.5zM280.3 215.4c.3.4.4.9.4 1.4 0 .7-.2 1.3-.7 1.8s-1.1.7-1.9.7h-2.5v-8.8h2.4c.8 0 1.4.2 1.8.6.4.4.7 1 .7 1.7 0 .5-.1.9-.4 1.3s-.6.6-1 .7c.5-.1.9.2 1.2.6zm-3.9-4.3v3.2h1.6c.5 0 .9-.1 1.2-.4s.4-.7.4-1.2-.2-.9-.5-1.2-.7-.4-1.2-.4h-1.5zm1.6 7.4c.6 0 1-.2 1.4-.5.3-.3.5-.7.5-1.3 0-.5-.2-1-.5-1.3-.3-.3-.8-.5-1.4-.5h-1.6v3.5h1.6zM283.5 218.7c-.4-.4-.6-1.1-.6-1.8v-4.3h.8v4.3c0 .6.1 1 .4 1.3.3.3.7.5 1.2.5s.9-.2 1.2-.5c.3-.3.4-.7.4-1.3v-4.3h.8v4.3c0 .8-.2 1.4-.7 1.8-.4.4-1 .7-1.8.7-.7 0-1.3-.3-1.7-.7zM291.7 219.2v-5.9h-2v-.7h2v-.6c0-.5.1-.9.4-1.2.3-.3.7-.4 1.2-.4h1.9v.7h-1.9c-.3 0-.5.1-.6.2s-.2.4-.2.6v.7h2.8v.7h-2.8v5.9h-.8zM299 219.2v-5.9h-2v-.7h2v-.6c0-.5.1-.9.4-1.2.3-.3.7-.4 1.2-.4h1.9v.7h-1.9c-.3 0-.5.1-.6.2s-.2.4-.2.6v.7h2.8v.7h-2.8v5.9h-.8zM309.5 216.1h-4.1v.8c0 .6.1 1 .4 1.3.3.3.7.5 1.2.5.4 0 .8-.1 1.1-.3.3-.2.5-.5.6-.8h.8c-.1.5-.4 1-.8 1.3-.4.3-1 .5-1.6.5-.8 0-1.4-.2-1.8-.7-.4-.4-.7-1-.7-1.8v-2c0-.8.2-1.4.7-1.8s1-.7 1.8-.7 1.3.2 1.8.7.7 1 .7 1.8v1.2zm-4.1-.7h3.3v-.5c0-.6-.1-1-.4-1.3-.3-.3-.7-.5-1.2-.5s-1 .2-1.2.5c-.3.3-.4.8-.4 1.3v.5zM316.5 213.1c.4.4.6 1 .6 1.8v.4h-.8v-.3c0-.6-.1-1-.4-1.3-.3-.3-.7-.5-1.2-.5s-.9.2-1.2.5c-.3.3-.4.8-.4 1.3v4.3h-.8v-6.7h.8v1.1c.1-.4.3-.7.6-.9.3-.2.7-.3 1.1-.3.7-.1 1.2.2 1.7.6z" class="st3"/></g><path id="Rettangolo_1_1_" d="M68 94.9H1.5c-.8 0-1.5-.7-1.5-1.5V70c0-.8.7-1.5 1.5-1.5H68c.8 0 1.5.7 1.5 1.5v23.5c0 .7-.7 1.4-1.5 1.4zM1.5 69.5c-.3 0-.5.2-.5.5v23.5c0 .3.2.5.5.5H68c.3 0 .5-.2.5-.5V70c0-.3-.2-.5-.5-.5H1.5z" class="st6"/><path id="Rettangolo_1-3_1_" d="M194.6 153.7h-65.2c-.8 0-1.5-.7-1.5-1.5v-23.4c0-.8.7-1.5 1.5-1.5h65.2c.8 0 1.5.7 1.5 1.5v23.4c0 .8-.7 1.5-1.5 1.5zm-65.3-25.5c-.3 0-.5.2-.5.5v23.4c0 .3.2.5.5.5h65.2c.3 0 .5-.2.5-.5v-23.4c0-.3-.2-.5-.5-.5h-65.2z" class="st6"/><path id="Rettangolo_1-5_1_" d="M329.1 228.2H226.3c-.8 0-1.5-.7-1.5-1.5v-23.5c0-.8.7-1.5 1.5-1.5h102.8c.8 0 1.5.7 1.5 1.5v23.5c0 .8-.7 1.5-1.5 1.5zm-102.8-25.4c-.3 0-.5.2-.5.5v23.5c0 .3.2.5.5.5h102.8c.3 0 .5-.2.5-.5v-23.5c0-.3-.2-.5-.5-.5H226.3z" class="st6"/><path id="Rettangolo_1-6_1_" d="M451.5 228.2h-87.1c-.8 0-1.5-.7-1.5-1.5v-23.5c0-.8.7-1.5 1.5-1.5h87.1c.8 0 1.5.7 1.5 1.5v23.5c0 .8-.7 1.5-1.5 1.5zm-87.1-25.4c-.3 0-.5.2-.5.5v23.5c0 .3.2.5.5.5h87.1c.3 0 .5-.2.5-.5v-23.5c0-.3-.2-.5-.5-.5h-87.1z" class="st6"/><g class="st2"><path d="M377.3 218.7c-.5-.4-.7-1-.7-1.7h.8c0 .5.2.9.5 1.2.3.3.8.5 1.4.5.6 0 1-.1 1.3-.4.3-.3.5-.7.5-1.2 0-.4-.1-.8-.4-1.1-.2-.3-.6-.5-1-.7l-1.1-.3c-.6-.2-1-.5-1.4-.9-.3-.4-.5-.9-.5-1.5 0-.7.2-1.2.7-1.6.5-.4 1.1-.6 1.8-.6.8 0 1.4.2 1.8.6.4.4.7 1 .7 1.7h-.8c0-.5-.2-.9-.5-1.2-.3-.3-.7-.4-1.2-.4s-.9.1-1.2.4c-.3.3-.4.6-.4 1.1 0 .4.1.8.3 1.1.2.3.5.5.9.6l1.1.3c.6.2 1.1.5 1.4.9.3.4.5 1 .5 1.6 0 .7-.2 1.3-.7 1.7-.5.4-1.1.6-1.9.6-.8 0-1.4-.3-1.9-.7zM388.3 213.1c.4.4.6 1 .6 1.7v4.5h-.8v-4.4c0-.5-.1-1-.4-1.3-.3-.3-.7-.5-1.2-.5s-.9.2-1.2.5-.4.8-.4 1.3v4.3h-.8v-8.8h.8v3.3c.1-.4.3-.7.6-.9s.7-.3 1.2-.3c.7-.1 1.2.2 1.6.6zM395.5 213c.4.4.6.9.6 1.6v4.6h-.8v-1.1c-.1.4-.3.7-.7.9s-.8.3-1.4.3c-.7 0-1.2-.2-1.6-.5s-.6-.8-.6-1.4.2-1.1.6-1.4c.4-.3.9-.5 1.6-.5h2.2v-.8c0-.5-.1-.9-.4-1.1s-.7-.4-1.2-.4c-.4 0-.8.1-1.1.3s-.5.5-.5.8h-.8c.1-.6.3-1 .8-1.4.4-.3 1-.5 1.6-.5.7 0 1.3.2 1.7.6zm-.7 5.3c.4-.3.5-.6.5-1.1v-1.1h-2.2c-.4 0-.8.1-1 .3-.2.2-.4.5-.4.9s.1.7.4 1c.3.2.7.4 1.1.4.8 0 1.2-.1 1.6-.4zM402.9 213.1c.4.4.6 1 .6 1.8v2c0 .7-.2 1.3-.6 1.8-.4.4-.9.7-1.6.7-.5 0-.9-.1-1.2-.3s-.5-.5-.7-.9v3.3h-.8v-8.8h.8v1.1c.1-.4.3-.7.7-.9s.7-.3 1.2-.3c.6-.2 1.2.1 1.6.5zm-.3 1.8c0-.6-.1-1-.4-1.3-.3-.3-.7-.5-1.2-.5s-.9.2-1.2.5c-.3.3-.4.7-.4 1.3v2c0 .6.1 1 .4 1.3.3.3.7.5 1.2.5s.9-.2 1.2-.5c.3-.3.4-.7.4-1.3v-2zM410.7 216.1h-4.1v.8c0 .6.1 1 .4 1.3.3.3.7.5 1.2.5.4 0 .8-.1 1.1-.3.3-.2.5-.5.6-.8h.8c-.1.5-.4 1-.8 1.3-.4.3-1 .5-1.6.5-.8 0-1.4-.2-1.8-.7-.4-.4-.7-1-.7-1.8v-2c0-.8.2-1.4.7-1.8s1-.7 1.8-.7 1.3.2 1.8.7.7 1 .7 1.8v1.2zm-4.1-.7h3.3v-.5c0-.6-.1-1-.4-1.3-.3-.3-.7-.5-1.2-.5s-1 .2-1.2.5c-.3.3-.4.8-.4 1.3v.5zM418.3 219.2h-5v-8.8h.8v8.1h4.2v.7zM421 218.7c-.4-.4-.7-1-.7-1.8v-2c0-.8.2-1.4.7-1.8.4-.4 1-.7 1.8-.7s1.3.2 1.8.7.7 1 .7 1.8v2c0 .8-.2 1.4-.7 1.8s-1 .7-1.8.7-1.3-.3-1.8-.7zm3-.5c.3-.3.4-.7.4-1.3v-2c0-.6-.1-1-.4-1.3-.3-.3-.7-.5-1.2-.5s-.9.2-1.2.5c-.3.3-.4.7-.4 1.3v2c0 .6.1 1 .4 1.3.3.3.7.5 1.2.5s.9-.2 1.2-.5zM428.3 218.7c-.4-.4-.7-1-.7-1.8v-2c0-.8.2-1.4.7-1.8s1-.7 1.8-.7c.7 0 1.3.2 1.8.7s.7 1 .7 1.8v2c0 .8-.2 1.4-.7 1.8s-1 .7-1.8.7-1.3-.3-1.8-.7zm3-.5c.3-.3.4-.7.4-1.3v-2c0-.6-.1-1-.4-1.3-.3-.3-.7-.5-1.2-.5s-.9.2-1.2.5c-.3.3-.4.7-.4 1.3v2c0 .6.1 1 .4 1.3.3.3.7.5 1.2.5.5-.1.9-.2 1.2-.5zM439.2 213.1c.4.4.6 1 .6 1.8v2c0 .7-.2 1.3-.6 1.8-.4.4-.9.7-1.6.7-.5 0-.9-.1-1.2-.3s-.5-.5-.7-.9v3.3h-.7v-8.8h.8v1.1c.1-.4.3-.7.7-.9s.7-.3 1.2-.3c.6-.2 1.1.1 1.5.5zm-.2 1.8c0-.6-.1-1-.4-1.3-.3-.3-.7-.5-1.2-.5s-.9.2-1.2.5c-.3.3-.4.7-.4 1.3v2c0 .6.1 1 .4 1.3.3.3.7.5 1.2.5s.9-.2 1.2-.5c.3-.3.4-.7.4-1.3v-2z" class="st3"/></g><g class="st4"><path d="M90.7 16.9c-.5-.4-.7-1-.7-1.7h.8c0 .5.2.9.5 1.2.3.3.8.5 1.4.5.6 0 1-.1 1.3-.4.3-.3.5-.7.5-1.2 0-.4-.1-.8-.4-1.1-.2-.3-.6-.5-1-.7l-1.1-.3c-.6-.2-1-.5-1.4-.9-.3-.4-.5-.9-.5-1.5 0-.7.2-1.2.7-1.6s1.1-.6 1.8-.6c.8 0 1.4.2 1.8.6.4.4.7 1 .7 1.7h-.8c0-.5-.2-.9-.5-1.2s-.7-.4-1.2-.4-.9.1-1.2.4c-.3.3-.4.6-.4 1.1 0 .4.1.8.3 1.1.2.3.5.5.9.6l1.1.3c.6.2 1.1.5 1.4.9s.5 1 .5 1.6c0 .7-.2 1.3-.7 1.7-.5.4-1.1.6-1.9.6-.8 0-1.4-.2-1.9-.7zM98.1 16.9c-.4-.4-.7-1-.7-1.8v-2c0-.8.2-1.4.7-1.8.4-.4 1.1-.7 1.8-.7s1.3.2 1.8.6c.4.4.7 1 .7 1.7h-.8c0-.5-.2-.9-.5-1.2-.3-.3-.7-.4-1.2-.4s-.9.2-1.2.5c-.3.3-.4.7-.4 1.3v2c0 .5.1 1 .4 1.3.3.3.7.5 1.2.5s.9-.1 1.2-.4c.3-.3.4-.7.5-1.2h.8c0 .7-.2 1.3-.7 1.7-.4.4-1 .6-1.8.6s-1.4-.2-1.8-.7zM109.6 14.3h-4.1v.8c0 .6.1 1 .4 1.3.3.3.7.5 1.2.5.4 0 .8-.1 1.1-.3.3-.2.5-.5.6-.8h.8c-.1.5-.4 1-.8 1.3s-1 .5-1.6.5c-.8 0-1.4-.2-1.8-.7-.4-.4-.7-1-.7-1.8v-2c0-.8.2-1.4.7-1.8s1-.7 1.8-.7 1.3.2 1.8.7c.4.4.7 1 .7 1.8v1.2zm-4.1-.6h3.3v-.5c0-.6-.1-1-.4-1.3s-.7-.5-1.2-.5-1 .2-1.2.5-.4.8-.4 1.3v.5zM116.2 11.3c.4.4.6 1 .6 1.7v4.5h-.8v-4.4c0-.5-.1-1-.4-1.3-.3-.3-.7-.5-1.2-.5s-.9.2-1.2.5c-.3.3-.4.8-.4 1.3v4.3h-.8v-6.7h.8V12c.1-.4.3-.7.6-1 .3-.2.7-.3 1.2-.3.7 0 1.2.2 1.6.6zM124.1 14.3H120v.8c0 .6.1 1 .4 1.3.3.3.7.5 1.2.5.4 0 .8-.1 1.1-.3.3-.2.5-.5.6-.8h.8c-.1.5-.4 1-.8 1.3s-1 .5-1.6.5c-.8 0-1.4-.2-1.8-.7-.4-.4-.7-1-.7-1.8v-2c0-.8.2-1.4.7-1.8s1-.7 1.8-.7 1.3.2 1.8.7c.4.4.7 1 .7 1.8v1.2zm-4.1-.6h3.3v-.5c0-.6-.1-1-.4-1.3s-.7-.5-1.2-.5-1 .2-1.2.5-.4.8-.4 1.3v.5zM134.5 16.9c-.5-.4-.7-1-.7-1.8V11c0-.8.2-1.4.7-1.8.5-.4 1.1-.7 1.8-.7.8 0 1.4.2 1.8.7.5.5.7 1.1.7 1.9h-.8c0-.6-.2-1-.5-1.3s-.7-.5-1.3-.5c-.5 0-1 .2-1.3.5-.3.3-.5.7-.5 1.3v4.1c0 .5.2 1 .5 1.3.3.3.7.5 1.3.5.5 0 1-.2 1.3-.5.3-.3.5-.8.5-1.3h.8c0 .8-.2 1.4-.7 1.9-.5.5-1.1.7-1.8.7-.8-.2-1.4-.4-1.8-.9zM145.3 11.3c.4.4.6 1 .6 1.7v4.5h-.8v-4.4c0-.5-.1-1-.4-1.3-.3-.3-.7-.5-1.2-.5s-.9.2-1.2.5c-.3.3-.4.8-.4 1.3v4.3h-.8V8.6h.8v3.3c.1-.4.3-.7.6-.9.3-.2.7-.3 1.2-.3.7 0 1.2.2 1.6.6zM153.7 17.5h-5.5v-.7h2.4v-5.2h-2.1v-.7h2.9v5.9h2.3v.7zm-2.9-7.9c-.2 0-.4-.1-.5-.2-.1-.1-.2-.3-.2-.5s.1-.4.2-.5c.1-.1.3-.2.5-.2h.1c.2 0 .4.1.5.2.1.1.2.3.2.5s-.1.4-.2.5c-.1.1-.3.2-.5.2h-.1zM158.8 17.5c-.6 0-1-.2-1.3-.5-.3-.3-.5-.7-.5-1.3V9.3h-2v-.7h2.9v7.1c0 .3.1.6.3.7.2.2.4.3.7.3h2.2v.7h-2.3zM166.9 8.6h.8v8.8h-.8v-1.1c-.1.4-.3.7-.7.9s-.7.3-1.2.3c-.7 0-1.2-.2-1.6-.7s-.6-1-.6-1.8v-2c0-.7.2-1.3.6-1.8.4-.4.9-.7 1.6-.7.5 0 .9.1 1.2.3s.5.5.7.9V8.6zm-.4 7.8c.3-.3.4-.7.4-1.3v-2c0-.6-.1-1-.4-1.3-.3-.3-.7-.5-1.2-.5s-.9.2-1.2.5c-.3.3-.4.8-.4 1.3v2c0 .6.1 1 .4 1.3.3.3.7.5 1.2.5s.9-.2 1.2-.5z" class="st3"/></g><path id="Rettangolo_1-7_1_" d="M178.2 26.4H79c-.8 0-1.5-.7-1.5-1.5V1.5c0-.8.7-1.5 1.5-1.5h99.2c.8 0 1.5.7 1.5 1.5v23.4c0 .9-.6 1.5-1.5 1.5zM79 1c-.3 0-.5.2-.5.5v23.4c0 .3.2.5.5.5h99.2c.3 0 .5-.2.5-.5V1.5c0-.3-.2-.5-.5-.5H79z" class="st0"/><path d="M125.9 22.9h6.1V29h-6.1v-6.1z" class="st5"/><path d="M132.2 29.2h-6.4v-6.5h6.4v6.5zm-5.5-1h4.4v-4.5h-4.4v4.5z" class="st0"/><path d="M248.7 66.7h.5c1.1 0 2.1.9 2.1 2.1v.5c0 1.1-.9 2.1-2.1 2.1h-.5c-1.1 0-2.1-.9-2.1-2.1v-.5c0-1.2 1-2.1 2.1-2.1z" class="st5"/><path d="M249.2 71.8h-.5c-1.4 0-2.6-1.1-2.6-2.6v-.5c0-1.4 1.1-2.6 2.6-2.6h.5c1.4 0 2.6 1.1 2.6 2.6v.5c-.1 1.4-1.2 2.6-2.6 2.6zm-.5-4.6c-.9 0-1.6.7-1.6 1.6v.5c0 .9.7 1.6 1.6 1.6h.5c.9 0 1.6-.7 1.6-1.6v-.5c0-.9-.7-1.6-1.6-1.6h-.5z" class="st0"/><path d="M339.2 125.4c1.3 0 2.3 1 2.3 2.3 0 1.3-1 2.3-2.3 2.3-1.3 0-2.3-1-2.3-2.3 0-1.2 1-2.3 2.3-2.3z" class="st5"/><path d="M339.2 130.5c-1.5 0-2.8-1.3-2.8-2.8 0-1.5 1.3-2.8 2.8-2.8 1.5 0 2.8 1.3 2.8 2.8 0 1.6-1.3 2.8-2.8 2.8zm0-4.5c-1 0-1.8.8-1.8 1.8s.8 1.8 1.8 1.8 1.8-.8 1.8-1.8-.8-1.8-1.8-1.8z" class="st0"/><path d="M408.3 200c1.3 0 2.3 1 2.3 2.3 0 1.3-1 2.3-2.3 2.3-1.3 0-2.3-1-2.3-2.3 0-1.3 1-2.3 2.3-2.3z" class="st5"/><path d="M408.3 205.1c-1.5 0-2.8-1.3-2.8-2.8 0-1.5 1.3-2.8 2.8-2.8 1.5 0 2.8 1.3 2.8 2.8 0 1.5-1.3 2.8-2.8 2.8zm0-4.6c-1 0-1.8.8-1.8 1.8s.8 1.8 1.8 1.8 1.8-.8 1.8-1.8-.8-1.8-1.8-1.8z" class="st0"/><g><path d="M162 125.4h.5c1.1 0 2.1.9 2.1 2.1v.5c0 1.1-.9 2.1-2.1 2.1h-.5c-1.1 0-2.1-.9-2.1-2.1v-.5c.1-1.1 1-2.1 2.1-2.1z" class="st5"/><path d="M162.5 130.5h-.5c-1.4 0-2.6-1.1-2.6-2.6v-.5c0-1.4 1.1-2.6 2.6-2.6h.5c1.4 0 2.6 1.1 2.6 2.6v.5c0 1.5-1.2 2.6-2.6 2.6zm-.5-4.5c-.9 0-1.6.7-1.6 1.6v.5c0 .9.7 1.6 1.6 1.6h.5c.9 0 1.6-.7 1.6-1.6v-.5c0-.9-.7-1.6-1.6-1.6h-.5z" class="st0"/></g><g><path d="M278 200c1.3 0 2.3 1 2.3 2.3 0 1.3-1 2.3-2.3 2.3-1.3 0-2.3-1-2.3-2.3 0-1.3 1-2.3 2.3-2.3z" class="st5"/><path d="M278 205.1c-1.5 0-2.8-1.3-2.8-2.8 0-1.5 1.3-2.8 2.8-2.8 1.5 0 2.8 1.3 2.8 2.8 0 1.5-1.3 2.8-2.8 2.8zm0-4.6c-1 0-1.8.8-1.8 1.8s.8 1.8 1.8 1.8 1.8-.8 1.8-1.8-.8-1.8-1.8-1.8z" class="st0"/></g><g><path d="M34.8 66.7h.5c1.1 0 2.1.9 2.1 2.1v.5c0 1.1-.9 2.1-2.1 2.1h-.5c-1.1 0-2.1-.9-2.1-2.1v-.5c0-1.2 1-2.1 2.1-2.1z" class="st5"/><path d="M35.3 71.8h-.5c-1.4 0-2.6-1.1-2.6-2.6v-.5c0-1.4 1.1-2.6 2.6-2.6h.5c1.4 0 2.6 1.1 2.6 2.6v.5c-.1 1.4-1.2 2.6-2.6 2.6zm-.5-4.6c-.9 0-1.6.7-1.6 1.6v.5c0 .9.7 1.6 1.6 1.6h.5c.9 0 1.6-.7 1.6-1.6v-.5c0-.9-.7-1.6-1.6-1.6h-.5z" class="st0"/></g></svg>