<svg xmlns="http://www.w3.org/2000/svg" viewBox="0 0 84 73.33" fill="#1fcc9a">
  <path d="M14.25 60.05v11.2c0 1.6 1.73 2.61 3.12 1.8l23.59-13.6a2.09 2.09 0 012.08 0l23.58 13.6c1.39.8 3.12-.2 3.12-1.8v-11.2c0-.74-.4-1.43-1.04-1.8L43.05 43.43a2.09 2.09 0 00-2.08 0L15.29 58.24a2.1 2.1 0 00-1.04 1.81z"/>
  <path d="M31.81 69.74v1.08c0 1.6 1.74 2.61 3.12 1.8l6.03-3.48a2.09 2.09 0 012.08 0l6.03 3.48c1.39.8 3.12-.2 3.12-1.8v-1.08c0-.74-.4-1.43-1.04-1.8l-8.12-4.69a2.09 2.09 0 00-2.08 0l-8.12 4.69a2.09 2.09 0 00-1.02 1.8zM38.49 5.88l-9.7-5.6c-1.39-.8-3.12.2-3.12 1.8v27.23c0 .74-.4 1.43-1.04 1.8L1.04 44.73a2.08 2.08 0 000 3.61l9.7 5.61c.64.37 1.44.37 2.08 0l25.66-14.82a2.09 2.09 0 001.04-1.8l.01-29.64c0-.75-.4-1.44-1.04-1.81z"/>
  <path d="M22.36 27.4v-9.37c0-.74-.4-1.43-1.04-1.8l-.93-.54c-1.39-.8-3.12.2-3.12 1.8v6.97c0 .74-.4 1.43-1.04 1.8l-6.03 3.48a2.08 2.08 0 000 3.61l.93.54c.64.37 1.44.37 2.08 0l8.12-4.69a2.07 2.07 0 001.03-1.8z"/>
  <g>
    <path d="M58.35 29.31l-.01-27.22c0-1.6-1.74-2.6-3.12-1.8l-9.7 5.6a2.09 2.09 0 00-1.04 1.8v29.64c0 .74.4 1.43 1.04 1.8l25.66 14.82c.64.37 1.44.37 2.08 0l9.7-5.61a2.08 2.08 0 000-3.61L59.39 31.11a2.07 2.07 0 01-1.04-1.8z"/>
    <path d="M72.88 33.9l.93-.54a2.08 2.08 0 000-3.61l-6.03-3.48a2.09 2.09 0 01-1.04-1.8V17.5c0-1.6-1.73-2.6-3.12-1.81l-.94.54a2.07 2.07 0 00-1.04 1.81l.01 9.37c0 .74.4 1.43 1.04 1.8l8.11 4.69c.65.37 1.44.37 2.08 0z"/>
  </g>
</svg>