<svg xmlns="http://www.w3.org/2000/svg" viewBox="0 0 84.67 73.33"  fill="#1fcc9a">
    <path d="M15.81 73.33l26.53-15.3 26.52 15.3v-15.3L42.34 42.72 15.81 58.03z" class="st0" />
    <path
        d="M32.59 72.93l9.75-5.63 9.75 5.63V67.3l-9.75-5.63-9.75 5.63zM26.52 0v30.63L0 45.94l13.25 7.66 26.52-15.32.01-30.63z"
        class="st0"
    />
    <path
        d="M18.49 14.73v11.26l-9.75 5.63 4.87 2.81 9.75-5.63V17.54zM84.67 45.94L58.16 30.62 58.15 0 44.9 7.65v30.63L71.42 53.6z"
        class="st0"
    />
    <path d="M75.94 31.62l-9.75-5.63V14.73l-4.88 2.81.01 11.26 9.74 5.63z" class="st0" />
</svg>