<svg xmlns="http://www.w3.org/2000/svg" viewBox="0 0 220 126.9" fill="#1fcc9a">
  <path d="M28.7 69.2L20.4 74l.1 19.1 8.3-4.8c1.7-1 2.5-2.4 2.5-4.4V70.7c-.1-2-.9-2.5-2.6-1.5zM136 37.3l-8.2-4.8-.1 19.1 8.2 4.8c1.7 1 2.5.5 2.5-1.5V41.7c0-2-.8-3.4-2.4-4.4z" class="st0"/>
  <path d="M211.6 58.5L110 0 8.4 58.5C3.2 61.5 0 67 0 72.9v54l110-63.3 110 63.3v-54c0-5.9-3.2-11.4-8.4-14.4zm-174 30.7c-1.6 2.7-3.9 5-6.9 6.7l-19.1 11 1.1-4V74.3l-1.1-4 19-11c3-1.8 5.3-2.2 6.9-1.3 1.6.9 2.4 3.1 2.4 6.6v15.2c.1 3.5-.7 6.7-2.3 9.4zm6.5-1L44 51.6l27.1-15.7v8.7L52.7 55.2v5.2l14.2-8.2v8.7l-14.2 8.2v5.2l18.4-10.6v8.7l-27 15.8zM100 54c-1.1 1.9-2.8 3.5-5.1 4.8l-20.7 12v-8.7l17.4-10c.9-.5 1.4-1.3 1.4-2.4v-2.1c0-1-.5-1.3-1.4-.8l-10.4 6c-4.5 2.6-6.7 1.3-6.8-3.8v-7.3c0-2.6.5-4.9 1.6-6.8s2.8-3.5 5.1-4.8L100.4 19v8.7l-16 9.2c-.5.3-.8.6-1 .9s-.3.8-.3 1.4v2.1c0 .6.1.9.3 1 .2.1.6 0 1-.3l10.3-6c2.3-1.3 4.1-1.7 5.2-1.1s1.7 2.2 1.7 4.8V47c.1 2.8-.5 5.1-1.6 7zm14.3-1.4l-4.3-2.5-4.3 2.5-.1-36.6 4.4-2.6 4.4 2.6-.1 36.6zm32.8 8.3c0 3.5-.8 5.7-2.4 6.6s-3.9.5-6.9-1.3l-18.8-11 1.1-4 .1-28.6-1.1-4 18.8 11c3 1.8 5.3 4 6.9 6.7s2.3 5.8 2.3 9.4v15.2zm30.7 20.8c0 2.6-.5 4.2-1.6 4.9-1 .7-2.7.3-4.9-.9l-14.1-8.2c-2.2-1.3-3.8-2.8-4.9-4.7-1-1.9-1.6-4.1-1.5-6.7l.1-28.9 8.3 4.8-.1 26.3c0 .6.1 1 .3 1.4.2.4.5.7 1 .9l7.8 4.5c.5.3.8.3 1 .2.2-.1.3-.5.3-1l.1-26.3 8.3 4.8-.1 28.9zm30.5 17.6c0 2.6-.6 4.2-1.7 4.8-1.1.6-2.8.3-5.1-1.1L181 91v-8.7l17.2 10c.9.5 1.4.3 1.4-.8v-2.1c0-1-.4-1.8-1.3-2.4L188 81c-4.5-2.6-6.7-6.4-6.7-11.6v-7.3c0-2.6.6-4.2 1.7-4.8 1.1-.6 2.8-.3 5.1 1.1l19.1 11.1v8.7L191.4 69c-.5-.3-.8-.4-1-.3s-.3.5-.3 1v2.1c0 .6.1 1.1.3 1.4.2.3.6.7 1 .9l10.3 6c2.3 1.3 4 3 5.1 4.9s1.6 4.1 1.6 6.8l-.1 7.5z" class="st0"/>
  <path d="M147.4 98.6L110 77.1 72.6 98.6a6.14 6.14 0 00-3.1 5.3v19.8l40.4-23.3 40.4 23.3v-19.8c.1-2.2-1-4.2-2.9-5.3z" class="st0"/>
</svg>