<svg xmlns="http://www.w3.org/2000/svg" viewBox="0 0 240 235.1" fill="#fff">
  <path fill="none" d="M0 0h240v235.1H0z"/>
  <path d="M101.6 101.12c-5.55 0-9.93 4.87-9.93 10.8s4.48 10.8 9.93 10.8c5.55 0 9.93-4.87 9.93-10.8.1-5.94-4.38-10.8-9.93-10.8zm35.53 0c-5.55 0-9.93 4.87-9.93 10.8s4.48 10.8 9.93 10.8c5.55 0 9.93-4.87 9.93-10.8s-4.39-10.8-9.93-10.8zM0 0" class="st1"/>
  <path d="M101.6 102.09c-5.55 0-9.93 4.87-9.93 10.8s4.48 10.8 9.93 10.8c5.55 0 9.93-4.87 9.93-10.8.1-5.93-4.38-10.8-9.93-10.8zm35.53 0c-5.55 0-9.93 4.87-9.93 10.8s4.48 10.8 9.93 10.8c5.55 0 9.93-4.87 9.93-10.8s-4.39-10.8-9.93-10.8z" class="st1"/>
  <path d="M197.84.42H40.6a24.12 24.12 0 00-24.06 24.17v158.65a24.11 24.11 0 0024.06 24.17h133.07l-6.22-21.71 15.02 13.96 14.2 13.14 25.23 22.3V24.59A24.12 24.12 0 00197.84.42zm-45.3 153.25s-4.22-5.05-7.74-9.5c15.37-4.34 21.24-13.96 21.24-13.96a66.88 66.88 0 01-13.49 6.92 77.64 77.64 0 01-17.01 5.05 82.08 82.08 0 01-30.39-.12 98.14 98.14 0 01-17.25-5.05 70.16 70.16 0 01-8.57-3.99c-.35-.23-.7-.35-1.06-.59a1.73 1.73 0 01-.47-.35c-2.11-1.17-3.29-1.99-3.29-1.99s5.63 9.39 20.53 13.85c-3.52 4.46-7.86 9.74-7.86 9.74-25.93-.82-35.79-17.84-35.79-17.84 0-37.78 16.9-68.41 16.9-68.41 16.9-12.67 32.97-12.32 32.97-12.32l1.17 1.41c-21.12 6.1-30.86 15.37-30.86 15.37s2.58-1.41 6.92-3.4c12.56-5.52 22.53-7.04 26.64-7.39.7-.12 1.29-.23 1.99-.23a95.75 95.75 0 0159.02 11.03s-9.27-8.8-29.22-14.9l1.64-1.88s16.08-.35 32.97 12.32c0 0 16.9 30.63 16.9 68.41.02-.02-9.95 16.99-35.89 17.82z" class="st1"/>
</svg>