<svg xmlns="http://www.w3.org/2000/svg" viewBox="0 0 32.58 31.77" fill="#fff">
    <path
        fill-rule="evenodd"
        d="M16.29 0a16.29 16.29 0 00-5.15 31.75c.81.15 1.11-.35 1.11-.79l-.02-2.77c-4.53.98-5.49-2.18-5.49-2.18-.74-1.88-1.81-2.39-1.81-2.39-1.48-1.01.11-.99.11-.99 1.63.12 2.5 1.68 2.5 1.68 1.45 2.49 3.81 1.77 4.74 1.35a3.54 3.54 0 011.03-2.18c-3.61-.4-7.41-1.8-7.41-8.04 0-1.78.63-3.23 1.68-4.37a5.86 5.86 0 01.15-4.31s1.37-.44 4.48 1.67a15.8 15.8 0 014.08-.55c1.38.01 2.78.19 4.08.55 3.11-2.11 4.48-1.67 4.48-1.67.89 2.24.33 3.9.16 4.31a6.3 6.3 0 011.67 4.37c0 6.26-3.81 7.63-7.44 8.04.58.5 1.11 1.5 1.11 3.02l-.02 4.47c0 .44.29.94 1.12.78A16.3 16.3 0 0016.29 0z"
        clip-rule="evenodd"
    />
</svg>