<svg xmlns="http://www.w3.org/2000/svg" overflow="visible" viewBox="0 0 453 228.2"><defs/><style>.st0{fill:#4cb693}.st1{opacity:.6;enable-background:new}.st2{fill:#fff}.st3{fill:#3a3d3b}.st4{fill:#111413}.st5{fill:#707672}.st6{opacity:.6}</style><path id="Tracciato_1_1_" d="M35.4 69.9c-.3 0-.5-.2-.5-.5.3-12.2 20.4-14.8 41.7-17.6 25.4-3.3 51.6-6.7 51.6-25.4 0-.3.2-.5.5-.5s.5.2.5.5c0 19.5-27.9 23.2-52.5 26.4-20.8 2.7-40.5 5.2-40.8 16.6 0 .2-.3.5-.5.5z" class="st0"/><path id="Tracciato_2_1_" d="M248.6 69.9c-.3 0-.5-.2-.5-.5 0-13.8-27.3-16.4-56.2-19.1C161 47.4 129 44.4 129 26.6c0-.3.2-.5.5-.5s.5.2.5.5c0 16.9 31.5 19.8 61.9 22.7 29.4 2.8 57.1 5.4 57.1 20.1.1.2-.1.5-.4.5z" class="st0"/><path id="Tracciato_4_3_" d="M338.9 128.2c-.3 0-.5-.2-.5-.5 0-9.1-19.2-11.1-39.6-13.2-24.3-2.5-49.4-5.1-49.4-19.8 0-.3.2-.5.5-.5s.5.2.5.5c0 13.8 24.6 16.4 48.5 18.8 20.8 2.2 40.5 4.2 40.5 14.2 0 .3-.2.5-.5.5z" class="st0"/><path id="Tracciato_5_1_" d="M278.1 203c-.3 0-.5-.2-.5-.5 0-13 15.9-19.5 31.3-25.8 15.2-6.2 29.5-12.1 29.5-23.5 0-.3.2-.5.5-.5s.5.2.5.5c0 12-15.3 18.3-30.2 24.4-15.1 6.2-30.7 12.6-30.7 24.9.1.2-.2.5-.4.5z" class="st0"/><path id="Tracciato_6_1_" d="M408.6 203c-.3 0-.5-.2-.5-.5 0-15.3-18.9-21.6-37.3-27.7-16.2-5.4-31.5-10.5-31.6-21.6 0-.3.2-.5.5-.5.2 0 .5.2.5.5.1 10.4 15.1 15.4 30.9 20.6 18.7 6.2 38 12.6 38 28.7 0 .2-.2.5-.5.5z" class="st0"/><path d="M81.4 202.3h-1c.3-20.9 22-23.6 43-26.2 20-2.5 39-4.9 39-22.3h1c0 18.4-20.3 20.9-39.9 23.3-20.6 2.5-41.8 5.1-42.1 25.2z" class="st0"/><path id="Tracciato_4_2_" d="M162.6 128.2c.3 0 .5-.2.5-.5 0-9.1 18.6-11.1 38.2-13.2 23.4-2.5 47.6-5.1 47.6-19.8 0-.3-.2-.5-.5-.5s-.5.2-.5.5c0 13.8-23.8 16.4-46.8 18.8-20.1 2.2-39.1 4.2-39.1 14.2.1.3.3.5.6.5z" class="st0"/><g class="st1"><path d="M18.7 85.4c-.5-.4-.7-1.1-.7-1.8v-4.1c0-.8.2-1.4.7-1.8.5-.4 1.1-.7 1.9-.7.8 0 1.4.2 1.9.7.5.5.7 1.1.7 1.9h-1c0-.5-.1-.9-.4-1.2-.3-.3-.7-.4-1.2-.4s-.9.1-1.2.4c-.3.3-.4.7-.4 1.2v4.1c0 .5.1.9.4 1.2.3.3.7.4 1.2.4s.9-.1 1.2-.4c.3-.3.4-.7.4-1.2v-1.2h-1.9v-.9h2.8v2c0 .8-.2 1.4-.7 1.9-.5.5-1.1.7-1.9.7-.7-.1-1.4-.4-1.8-.8zM29.9 79.8c.4.4.6 1 .6 1.8v.4h-1v-.3c0-.5-.1-1-.4-1.3s-.6-.4-1.1-.4c-.5 0-.9.1-1.1.4-.3.3-.4.7-.4 1.2v4.3h-1v-6.7h.9v1.2c.1-.4.3-.7.6-1 .3-.2.7-.3 1.2-.3.8 0 1.3.3 1.7.7zM33.2 85.4c-.5-.4-.7-1.1-.7-1.8v-1.9c0-.8.2-1.4.7-1.8.5-.4 1.1-.7 1.8-.7s1.4.2 1.8.7c.5.4.7 1.1.7 1.8v1.9c0 .8-.2 1.4-.7 1.8-.5.4-1.1.7-1.8.7s-1.3-.3-1.8-.7zm3-.6c.3-.3.4-.7.4-1.2v-1.9c0-.5-.1-.9-.4-1.2-.3-.4-.7-.5-1.2-.5s-.9.1-1.1.4c-.3.3-.4.7-.4 1.2v1.9c0 .5.1.9.4 1.2s.6.4 1.2.4c.4.1.8 0 1.1-.3zM40.5 85.4c-.4-.5-.7-1.1-.7-1.8v-4.3h1v4.3c0 .5.1.9.4 1.2s.6.4 1.1.4.9-.1 1.1-.4c.3-.3.4-.7.4-1.2v-4.3h1v4.3c0 .8-.2 1.4-.7 1.8-.5.5-1.1.7-1.8.7s-1.4-.3-1.8-.7zM51.5 79.8c.4.4.6 1 .6 1.8v2c0 .8-.2 1.4-.6 1.8s-.9.7-1.6.7c-.5 0-.9-.1-1.2-.3-.3-.2-.5-.5-.6-1v3.4h-1v-8.8h1v1.2c.1-.4.3-.7.6-1 .3-.2.7-.3 1.2-.3.7-.2 1.2.1 1.6.5zm-.4 1.9c0-.5-.1-.9-.4-1.2s-.6-.5-1.1-.5c-.5 0-.9.1-1.1.4-.3.3-.4.7-.4 1.2v1.9c0 .5.1.9.4 1.2.3.3.6.4 1.1.4.5 0 .8-.1 1.1-.4.3-.3.4-.7.4-1.2v-1.8z" class="st2"/></g><path id="Rettangolo_1-2_1_" d="M298.2 94.9H199c-.8 0-1.5-.7-1.5-1.5V70c0-.8.7-1.5 1.5-1.5h99.2c.8 0 1.5.7 1.5 1.5v23.4c0 .8-.7 1.5-1.5 1.5zM199 69.5c-.3 0-.5.2-.5.5v23.4c0 .3.2.5.5.5h99.2c.3 0 .5-.2.5-.5V70c0-.3-.2-.5-.5-.5H199z" class="st3"/><g class="st1"><path d="M217.9 85.4c-.5-.4-.7-1-.8-1.8h1c0 .5.2.9.5 1.1.3.3.8.4 1.3.4s1-.1 1.3-.4c.3-.3.5-.6.5-1.1 0-.4-.1-.7-.3-1s-.5-.5-.9-.6l-1.2-.4c-.6-.2-1.1-.5-1.4-.9s-.5-.9-.5-1.5c0-.7.2-1.3.7-1.7.5-.4 1.1-.6 1.9-.6.8 0 1.4.2 1.8.6s.7 1 .7 1.7h-1c0-.5-.1-.8-.4-1.1-.3-.3-.7-.4-1.2-.4s-.9.1-1.2.4c-.3.2-.4.6-.4 1s.1.7.3 1c.2.3.5.5.9.6l1.2.4c.6.2 1.1.5 1.4.9.3.4.5 1 .5 1.6 0 .5-.1.9-.3 1.3-.2.4-.5.6-.9.8-.4.2-.9.3-1.4.3-1 .1-1.6-.2-2.1-.6zM229 79.8c.4.4.6 1 .6 1.7V86h-1v-4.4c0-.5-.1-.9-.4-1.2-.3-.3-.6-.4-1.1-.4-.5 0-.9.1-1.1.4-.3.3-.4.7-.4 1.2v4.3h-1v-8.8h1v3.4c.1-.4.3-.7.6-1 .3-.2.7-.3 1.2-.3.7-.1 1.2.2 1.6.6zM236.2 79.7c.4.4.7.9.7 1.6v4.6h-.9v-1.2c-.1.4-.3.7-.7.9-.4.2-.9.4-1.4.4-.7 0-1.2-.2-1.6-.5-.4-.4-.6-.8-.6-1.4 0-.6.2-1.1.6-1.5.4-.4.9-.5 1.6-.5h2.1v-.7c0-.4-.1-.8-.4-1-.3-.2-.6-.4-1.1-.4-.4 0-.8.1-1 .3-.3.2-.4.4-.5.7h-1c.1-.6.3-1 .8-1.4.5-.3 1-.5 1.7-.5.7.1 1.3.3 1.7.6zm-.8 5.2c.4-.3.5-.6.5-1v-1h-2.1c-.4 0-.7.1-.9.3-.2.2-.3.5-.3.9s.1.7.4.9c.3.2.6.3 1.1.3.5 0 .9-.2 1.3-.4zM243.6 79.8c.4.4.6 1 .6 1.8v2c0 .8-.2 1.4-.6 1.8s-.9.7-1.6.7c-.5 0-.9-.1-1.2-.3-.3-.2-.5-.5-.6-1v3.4h-1v-8.8h1v1.2c.1-.4.3-.7.6-1 .3-.2.7-.3 1.2-.3.7-.2 1.2.1 1.6.5zm-.4 1.9c0-.5-.1-.9-.4-1.2s-.6-.4-1.1-.4-.9.1-1.1.4c-.3.3-.4.7-.4 1.2v1.9c0 .5.1.9.4 1.2s.7.4 1.1.4.8-.1 1.1-.4c.3-.3.4-.7.4-1.2v-1.9zM251.4 82.8h-4.1v.7c0 .5.1 1 .4 1.3s.7.4 1.2.4c.4 0 .8-.1 1-.3.3-.2.4-.4.5-.7h1c-.1.6-.3 1-.8 1.3-.4.3-1 .5-1.7.5-.8 0-1.4-.2-1.8-.7s-.7-1.1-.7-1.8v-1.9c0-.8.2-1.4.7-1.8.5-.5 1.1-.7 1.8-.7.8 0 1.4.2 1.8.7.5.5.7 1.1.7 1.8v1.2zm-4.1-.7h3.2v-.4c0-.5-.1-1-.4-1.3s-.7-.4-1.2-.4-.9.1-1.2.4-.4.7-.4 1.3v.4zM258.5 82.1c.3.4.4.9.4 1.4 0 .8-.2 1.3-.7 1.8-.5.4-1.1.7-1.9.7h-2.6v-8.8h2.4c.8 0 1.4.2 1.9.6.5.4.7 1 .7 1.7 0 .5-.1.9-.4 1.2s-.6.6-1 .7c.6 0 .9.3 1.2.7zm-3.8-4.2v3h1.5c.5 0 .9-.1 1.2-.4.3-.3.4-.6.4-1.1s-.1-.8-.4-1.1c-.3-.3-.7-.4-1.2-.4h-1.5zm1.5 7.2c.5 0 1-.1 1.3-.4.3-.3.5-.7.5-1.2s-.2-.9-.5-1.2c-.3-.3-.7-.5-1.3-.5h-1.6v3.3h1.6zM265.3 79.7c.4.4.7.9.7 1.6v4.6h-1v-1.2c-.1.4-.3.7-.7.9-.4.2-.9.4-1.4.4-.7 0-1.2-.2-1.6-.5-.4-.4-.6-.8-.6-1.4 0-.6.2-1.1.6-1.5.4-.4.9-.5 1.6-.5h2.1v-.7c0-.4-.1-.8-.4-1-.3-.2-.6-.4-1.1-.4-.4 0-.8.1-1 .3-.3.2-.4.4-.5.7h-1c.1-.6.3-1 .8-1.4.5-.3 1-.5 1.7-.5.7.1 1.3.3 1.8.6zm-.8 5.2c.4-.3.5-.6.5-1v-1h-2.1c-.4 0-.7.1-.9.3-.2.2-.3.5-.3.9s.1.7.4.9c.3.2.6.3 1.1.3.5 0 .9-.2 1.3-.4zM270.4 86.1c-.7 0-1.2-.2-1.6-.5-.4-.3-.6-.7-.7-1.3h1c.1.3.2.5.4.7.2.2.5.2.9.2h.6c.4 0 .8-.1 1-.3.2-.2.3-.4.3-.8 0-.3-.1-.5-.3-.7-.2-.2-.5-.3-.8-.4l-1-.2c-.6-.1-1.1-.3-1.4-.6-.3-.3-.5-.7-.5-1.3 0-.6.2-1.1.6-1.4.4-.3.9-.5 1.7-.5h.5c.6 0 1.1.2 1.5.5.4.3.6.7.7 1.2h-1c0-.3-.2-.4-.4-.6-.2-.1-.5-.2-.9-.2h-.5c-.4 0-.7.1-1 .3-.2.2-.3.4-.3.8 0 .3.1.5.3.7.2.2.4.3.8.3l1 .2c.7.1 1.2.3 1.5.6s.5.7.5 1.3c0 .6-.2 1.1-.6 1.4-.4.4-1 .5-1.7.5h-.6zM280.5 82.8h-4.1v.7c0 .5.1 1 .4 1.3s.7.4 1.2.4c.4 0 .8-.1 1-.3.3-.2.4-.4.5-.7h1c-.1.6-.3 1-.8 1.3-.4.3-1 .5-1.7.5-.8 0-1.4-.2-1.8-.7s-.7-1.1-.7-1.8v-1.9c0-.8.2-1.4.7-1.8.5-.5 1.1-.7 1.8-.7.8 0 1.4.2 1.8.7.5.5.7 1.1.7 1.8v1.2zm-4.1-.7h3.2v-.4c0-.5-.1-1-.4-1.3s-.7-.4-1.2-.4-.9.1-1.2.4-.4.7-.4 1.3v.4z" class="st2"/></g><path d="M245.9 91.4h6.1v6.1h-6.1z" class="st4"/><path d="M252.1 97.6h-6.5v-6.5h6.5v6.5zm-5.4-1h4.5v-4.5h-4.5v4.5z" class="st3"/><g class="st1"><path d="M145.8 144.2c-.5-.4-.7-1-.8-1.8h1c0 .5.2.9.5 1.1.3.3.8.4 1.3.4s1-.1 1.3-.4c.3-.3.5-.6.5-1.1 0-.4-.1-.7-.3-1-.2-.3-.5-.5-.9-.6l-1.2-.4c-.6-.2-1.1-.5-1.4-.9-.3-.4-.5-.9-.5-1.5 0-.7.2-1.3.7-1.7.5-.4 1.1-.6 1.9-.6.8 0 1.4.2 1.8.6.5.4.7 1 .7 1.7h-1c0-.5-.1-.8-.4-1.1s-.7-.4-1.2-.4-.9.1-1.2.4c-.3.2-.4.6-.4 1s.1.7.3 1c.2.3.5.5.9.6l1.2.4c.6.2 1.1.5 1.4.9.3.4.5 1 .5 1.6 0 .5-.1.9-.3 1.3-.2.4-.5.6-.9.8-.4.2-.9.3-1.4.3-1 0-1.6-.2-2.1-.6zM156.9 138.5c.4.4.6 1 .6 1.7v4.5h-1v-4.4c0-.5-.1-.9-.4-1.2s-.6-.4-1.1-.4c-.5 0-.9.2-1.1.4-.3.3-.4.7-.4 1.2v4.3h-1v-8.8h1v3.4c.1-.4.3-.7.6-1 .3-.2.7-.3 1.2-.3.7 0 1.2.2 1.6.6zM164.1 138.5c.4.4.7.9.7 1.6v4.6h-.9v-1.2c-.1.4-.3.7-.7.9-.4.2-.9.4-1.4.4-.7 0-1.2-.2-1.6-.5s-.6-.8-.6-1.4c0-.6.2-1.1.6-1.5.4-.4.9-.5 1.6-.5h2.1v-.7c0-.4-.1-.8-.4-1-.3-.2-.6-.4-1.1-.4-.4 0-.8.1-1 .3s-.4.4-.5.7h-1c.1-.6.3-1 .8-1.4.5-.3 1-.5 1.7-.5s1.3.2 1.7.6zm-.8 5.2c.4-.3.5-.6.5-1v-1h-2.1c-.4 0-.7.1-.9.3-.2.2-.3.5-.3.9s.1.7.4.9c.3.2.6.3 1.1.3.5-.1.9-.2 1.3-.4zM171.5 138.6c.4.4.6 1 .6 1.8v2c0 .8-.2 1.4-.6 1.8s-.9.7-1.6.7c-.5 0-.9-.1-1.2-.3-.3-.2-.5-.5-.6-1v3.4h-1v-9h1v1.2c.1-.4.3-.7.6-1 .3-.2.7-.3 1.2-.3.7 0 1.2.2 1.6.7zm-.4 1.8c0-.5-.1-.9-.4-1.2s-.6-.4-1.1-.4c-.5 0-.9.1-1.1.4-.3.3-.4.7-.4 1.2v1.9c0 .5.1.9.4 1.2.3.3.6.4 1.1.4.5 0 .8-.1 1.1-.4s.4-.7.4-1.2v-1.9zM179.3 141.6h-4.1v.7c0 .5.1 1 .4 1.3.3.3.7.4 1.2.4.4 0 .8-.1 1-.3.3-.2.4-.4.5-.7h1c-.1.6-.3 1-.8 1.3s-1 .5-1.7.5c-.8 0-1.4-.2-1.8-.7-.5-.5-.7-1.1-.7-1.8v-1.9c0-.8.2-1.4.7-1.8.5-.5 1.1-.7 1.8-.7s1.4.2 1.8.7c.5.5.7 1.1.7 1.8v1.2zm-4.1-.7h3.2v-.4c0-.5-.1-1-.4-1.3-.3-.3-.7-.4-1.2-.4s-.9.1-1.2.4c-.3.3-.4.7-.4 1.3v.4z" class="st2"/></g><path id="Rettangolo_1-4_1_" d="M402.4 153.7h-127c-.8 0-1.5-.7-1.5-1.5v-23.4c0-.8.7-1.5 1.5-1.5h127.1c.8 0 1.5.7 1.5 1.5v23.4c-.1.8-.8 1.5-1.6 1.5zm-127-25.5c-.3 0-.5.2-.5.5v23.4c0 .3.2.5.5.5h127.1c.3 0 .5-.2.5-.5v-23.4c0-.3-.2-.5-.5-.5H275.4z" class="st3"/><g class="st1"><path d="M290 144.2c-.5-.4-.7-1-.8-1.8h1c0 .5.2.9.5 1.1.3.3.8.4 1.3.4s1-.1 1.3-.4c.3-.3.5-.6.5-1.1 0-.4-.1-.7-.3-1-.2-.3-.5-.5-.9-.6l-1.2-.4c-.6-.2-1.1-.5-1.4-.9-.3-.4-.5-.9-.5-1.5 0-.7.2-1.3.7-1.7.5-.4 1.1-.6 1.9-.6.8 0 1.4.2 1.8.6.5.4.7 1 .7 1.7h-1c0-.5-.1-.8-.4-1.1-.3-.3-.7-.4-1.2-.4s-.9.1-1.2.4c-.3.2-.4.6-.4 1s.1.7.3 1c.2.3.5.5.9.6l1.2.4c.6.2 1.1.5 1.4.9.3.4.5 1 .5 1.6 0 .5-.1.9-.3 1.3-.2.4-.5.6-.9.8-.4.2-.9.3-1.4.3-1 0-1.6-.2-2.1-.6zM301.1 138.5c.4.4.6 1 .6 1.7v4.5h-1v-4.4c0-.5-.1-.9-.4-1.2s-.6-.4-1.1-.4c-.5 0-.9.2-1.1.4s-.4.7-.4 1.2v4.3h-1v-8.8h1v3.4c.1-.4.3-.7.6-1 .3-.2.7-.3 1.2-.3.7 0 1.2.2 1.6.6zM308.3 138.5c.4.4.7.9.7 1.6v4.6h-1v-1.2c-.1.4-.3.7-.7.9s-.9.4-1.4.4c-.7 0-1.2-.2-1.6-.5-.4-.4-.6-.8-.6-1.4 0-.6.2-1.1.6-1.5.4-.4.9-.5 1.6-.5h2.1v-.7c0-.4-.1-.8-.4-1s-.6-.4-1.1-.4c-.4 0-.8.1-1 .3s-.4.4-.5.7h-1c.1-.6.3-1 .8-1.4.5-.3 1-.5 1.7-.5.8 0 1.4.2 1.8.6zm-.8 5.2c.4-.3.5-.6.5-1v-1h-2.1c-.4 0-.7.1-.9.3-.2.2-.3.5-.3.9s.1.7.4.9c.3.2.6.3 1.1.3.5-.1.9-.2 1.3-.4zM315.7 138.6c.4.4.6 1 .6 1.8v2c0 .8-.2 1.4-.6 1.8s-.9.7-1.6.7c-.5 0-.9-.1-1.2-.3-.3-.2-.5-.5-.6-1v3.4h-1v-9h1v1.2c.1-.4.3-.7.6-1 .3-.2.7-.3 1.2-.3.7 0 1.2.2 1.6.7zm-.4 1.8c0-.5-.1-.9-.4-1.2s-.6-.4-1.1-.4-.9.1-1.1.4-.4.7-.4 1.2v1.9c0 .5.1.9.4 1.2s.7.4 1.1.4.8-.1 1.1-.4.4-.7.4-1.2v-1.9zM323.5 141.6h-4.1v.7c0 .5.1 1 .4 1.3s.7.4 1.2.4c.4 0 .8-.1 1-.3.3-.2.4-.4.5-.7h1c-.1.6-.3 1-.8 1.3s-1 .5-1.7.5c-.8 0-1.4-.2-1.8-.7s-.7-1.1-.7-1.8v-1.9c0-.8.2-1.4.7-1.8.5-.5 1.1-.7 1.8-.7.8 0 1.4.2 1.8.7.5.5.7 1.1.7 1.8v1.2zm-4.1-.7h3.2v-.4c0-.5-.1-1-.4-1.3-.3-.3-.7-.4-1.2-.4s-.9.1-1.2.4c-.3.3-.4.7-.4 1.3v.4zM325.8 144.7v-8.8h2.8c.8 0 1.5.2 1.9.7.5.5.7 1.1.7 1.9 0 .8-.2 1.4-.7 1.9-.5.5-1.1.7-1.9.7h-1.8v3.7h-1zm2.8-4.6c.5 0 .9-.2 1.2-.5.3-.3.5-.7.5-1.2s-.2-.9-.5-1.2c-.3-.3-.7-.5-1.2-.5h-1.8v3.4h1.8zM337.7 138.6c.4.4.6 1 .6 1.8v.4h-1v-.3c0-.5-.1-1-.4-1.3-.3-.3-.6-.4-1.1-.4-.5 0-.9.2-1.1.4s-.4.7-.4 1.2v4.3h-1V138h.9v1.2c.1-.4.3-.7.6-1s.7-.3 1.2-.3c.7 0 1.3.2 1.7.7zM345.8 144.7h-5.6v-.9h2.4v-4.9h-2.1v-.9h3v5.8h2.3v.9zm-2.9-7.8c-.2 0-.4-.1-.6-.2-.1-.1-.2-.3-.2-.5s.1-.4.2-.5c.1-.1.3-.2.6-.2h.2c.2 0 .4.1.5.2.1.1.2.3.2.5s-.1.4-.2.5c-.1.1-.3.2-.5.2h-.2zM352.5 138.4c.2.3.4.7.4 1.2v5.1h-.9v-5.1c0-.3-.1-.5-.2-.7-.1-.2-.3-.2-.5-.2s-.4.1-.6.2c-.1.2-.2.4-.2.7v5.1h-.8v-5.1c0-.3-.1-.5-.2-.7-.1-.2-.3-.2-.6-.2s-.4.1-.5.2c-.1.2-.2.4-.2.7v5.1h-.9V138h.8v.8h.1c0-.3.2-.5.4-.7.2-.2.4-.3.7-.3.3 0 .5.1.7.2.2.2.3.4.4.7 0-.3.2-.5.4-.7.2-.2.4-.3.7-.3.5.2.8.4 1 .7zM360.4 144.7h-5.6v-.9h2.4v-4.9h-2.1v-.9h3v5.8h2.3v.9zm-3-7.8c-.2 0-.4-.1-.6-.2-.1-.1-.2-.3-.2-.5s.1-.4.2-.5c.1-.1.3-.2.6-.2h.2c.2 0 .4.1.5.2.1.1.2.3.2.5s-.1.4-.2.5c-.1.1-.3.2-.5.2h-.2zM365.4 144.7c-.6 0-1-.1-1.3-.4-.3-.3-.5-.7-.5-1.3v-4.1h-1.9v-.9h1.9v-1.8h1v1.8h2.7v.9h-2.7v4.1c0 .5.3.8.8.8h1.8v.9h-1.8zM374.9 144.7h-5.6v-.9h2.4v-4.9h-2.1v-.9h3v5.8h2.3v.9zm-3-7.8c-.2 0-.4-.1-.6-.2-.1-.1-.2-.3-.2-.5s.1-.4.2-.5c.1-.1.3-.2.6-.2h.2c.2 0 .4.1.5.2.1.1.2.3.2.5s-.1.4-.2.5c-.1.1-.3.2-.5.2h-.2zM378.5 144.7l-2.2-6.7h1l1.5 4.6.4 1.3c.1-.4.3-.9.4-1.3l1.5-4.6h1l-2.2 6.7h-1.4zM389 141.6h-4.1v.7c0 .5.1 1 .4 1.3s.7.4 1.2.4c.4 0 .8-.1 1-.3.3-.2.4-.4.5-.7h1c-.1.6-.3 1-.8 1.3s-1 .5-1.7.5c-.8 0-1.4-.2-1.8-.7s-.7-1.1-.7-1.8v-1.9c0-.8.2-1.4.7-1.8.5-.5 1.1-.7 1.8-.7.8 0 1.4.2 1.8.7.5.5.7 1.1.7 1.8v1.2zm-4.1-.7h3.2v-.4c0-.5-.1-1-.4-1.3-.3-.3-.7-.4-1.2-.4s-.9.1-1.2.4c-.3.3-.4.7-.4 1.3v.4z" class="st2"/></g><path d="M336.2 150.2h6.1v6.1h-6.1z" class="st4"/><path d="M342.4 156.4H336V150h6.5v6.4zm-5.4-1h4.5V151H337v4.4z" class="st3"/><g class="st1"><path d="M239.7 218.7c-.5-.4-.7-1-.8-1.8h1c0 .5.2.9.5 1.1.3.3.8.4 1.3.4s1-.1 1.3-.4c.3-.3.5-.6.5-1.1 0-.4-.1-.7-.3-1-.2-.3-.5-.5-.9-.6l-1.2-.4c-.6-.2-1.1-.5-1.4-.9-.3-.4-.5-.9-.5-1.5 0-.7.2-1.3.7-1.7.5-.4 1.1-.6 1.9-.6.8 0 1.4.2 1.8.6.5.4.7 1 .7 1.7h-1c0-.5-.1-.8-.4-1.1-.3-.3-.7-.4-1.2-.4s-.9.1-1.2.4c-.3.2-.4.6-.4 1s.1.7.3 1c.2.3.5.5.9.6l1.2.4c.6.2 1.1.5 1.4.9.3.4.5 1 .5 1.6 0 .5-.1.9-.3 1.3-.2.4-.5.6-.9.8-.4.2-.9.3-1.4.3-1 .1-1.6-.2-2.1-.6zM250.8 213.1c.4.4.6 1 .6 1.7v4.5h-1v-4.4c0-.5-.1-.9-.4-1.2s-.6-.4-1.1-.4c-.5 0-.9.2-1.1.4s-.4.7-.4 1.2v4.3h-1v-8.8h1v3.4c.1-.4.3-.7.6-1 .3-.2.7-.3 1.2-.3.7-.1 1.2.2 1.6.6zM258 213c.4.4.7.9.7 1.6v4.6h-.9V218c-.1.4-.3.7-.7.9s-.9.4-1.4.4c-.7 0-1.2-.2-1.6-.5-.4-.4-.6-.8-.6-1.4 0-.6.2-1.1.6-1.5.4-.4.9-.5 1.6-.5h2.1v-.7c0-.4-.1-.8-.4-1s-.6-.4-1.1-.4c-.4 0-.8.1-1 .3s-.4.4-.5.7h-1c.1-.6.3-1 .8-1.4.5-.3 1-.5 1.7-.5.7.1 1.3.3 1.7.6zm-.8 5.2c.4-.3.5-.6.5-1v-1h-2.1c-.4 0-.7.1-.9.3-.2.2-.3.5-.3.9s.1.7.4.9c.3.2.6.3 1.1.3.5 0 .9-.2 1.3-.4zM265.4 213.1c.4.4.6 1 .6 1.8v2c0 .8-.2 1.4-.6 1.8s-.9.7-1.6.7c-.5 0-.9-.1-1.2-.3-.3-.2-.5-.5-.6-1v3.4h-1v-8.8h1v1.2c.1-.4.3-.7.6-1 .3-.2.7-.3 1.2-.3.7-.2 1.2.1 1.6.5zm-.4 1.9c0-.5-.1-.9-.4-1.2s-.6-.4-1.1-.4-.9.1-1.1.4-.4.7-.4 1.2v1.9c0 .5.1.9.4 1.2s.7.4 1.1.4.8-.1 1.1-.4.4-.7.4-1.2V215zM273.2 216.1h-4.1v.7c0 .5.1 1 .4 1.3s.7.4 1.2.4c.4 0 .8-.1 1-.3.3-.2.4-.4.5-.7h1c-.1.6-.3 1-.8 1.3s-1 .5-1.7.5c-.8 0-1.4-.2-1.8-.7s-.7-1.1-.7-1.8V215c0-.8.2-1.4.7-1.8.5-.5 1.1-.7 1.8-.7.8 0 1.4.2 1.8.7.5.5.7 1.1.7 1.8v1.1zm-4-.7h3.2v-.4c0-.5-.1-1-.4-1.3-.3-.3-.7-.4-1.2-.4s-.9.1-1.2.4c-.3.3-.4.7-.4 1.3v.4zM280.3 215.4c.3.4.4.9.4 1.4 0 .8-.2 1.3-.7 1.8-.5.4-1.1.7-1.9.7h-2.6v-8.8h2.4c.8 0 1.4.2 1.9.6.5.4.7 1 .7 1.7 0 .5-.1.9-.4 1.2-.2.3-.6.6-1 .7.6 0 1 .3 1.2.7zm-3.8-4.2v3h1.5c.5 0 .9-.1 1.2-.4.3-.3.4-.6.4-1.1 0-.5-.1-.8-.4-1.1-.3-.3-.7-.4-1.2-.4h-1.5zm1.5 7.2c.5 0 1-.1 1.3-.4.3-.3.5-.7.5-1.2s-.2-.9-.5-1.2c-.3-.3-.7-.5-1.3-.5h-1.6v3.3h1.6zM283.5 218.7c-.4-.5-.7-1.1-.7-1.8v-4.3h1v4.3c0 .5.1.9.4 1.2s.6.4 1.1.4.9-.1 1.1-.4.4-.7.4-1.2v-4.3h1v4.3c0 .8-.2 1.4-.7 1.8-.5.5-1.1.7-1.8.7-.8 0-1.4-.3-1.8-.7zM291.6 219.2v-5.7h-2v-.9h2v-.6c0-.5.2-.9.5-1.2.3-.3.7-.4 1.2-.4h2v.9h-2c-.2 0-.4.1-.5.2-.1.1-.2.3-.2.6v.7h2.8v.9h-2.8v5.7h-1zM298.9 219.2v-5.7h-2v-.9h2v-.6c0-.5.2-.9.5-1.2.3-.3.7-.4 1.2-.4h2v.9h-2c-.2 0-.4.1-.5.2-.1.1-.2.3-.2.6v.7h2.8v.9h-2.8v5.7h-1zM309.6 216.1h-4.1v.7c0 .5.1 1 .4 1.3s.7.4 1.2.4c.4 0 .8-.1 1-.3.3-.2.4-.4.5-.7h1c-.1.6-.3 1-.8 1.3s-1 .5-1.7.5c-.8 0-1.4-.2-1.8-.7s-.7-1.1-.7-1.8V215c0-.8.2-1.4.7-1.8.5-.5 1.1-.7 1.8-.7.8 0 1.4.2 1.8.7.5.5.7 1.1.7 1.8v1.1zm-4.1-.7h3.2v-.4c0-.5-.1-1-.4-1.3-.3-.3-.7-.4-1.2-.4s-.9.1-1.2.4c-.3.3-.4.7-.4 1.3v.4zM316.5 213.1c.4.4.6 1 .6 1.8v.4h-1v-.3c0-.5-.1-1-.4-1.3-.3-.3-.6-.4-1.1-.4-.5 0-.9.2-1.1.4s-.4.7-.4 1.2v4.3h-1v-6.7h.9v1.2c.1-.4.3-.7.6-1s.7-.3 1.2-.3c.7 0 1.3.3 1.7.7z" class="st2"/></g><path id="Rettangolo_1_1_" d="M68 94.9H1.5c-.8 0-1.5-.7-1.5-1.5V70c0-.8.7-1.5 1.5-1.5H68c.8 0 1.5.7 1.5 1.5v23.4c0 .8-.7 1.5-1.5 1.5zM1.5 69.5c-.3 0-.5.2-.5.5v23.4c0 .3.2.5.5.5H68c.3 0 .5-.2.5-.5V70c0-.3-.2-.5-.5-.5H1.5z" class="st5"/><path id="Rettangolo_1-3_1_" d="M194.6 153.7h-65.3c-.8 0-1.5-.7-1.5-1.5v-23.4c0-.8.7-1.5 1.5-1.5h65.3c.8 0 1.5.7 1.5 1.5v23.4c0 .8-.7 1.5-1.5 1.5zm-65.3-25.5c-.3 0-.5.2-.5.5v23.4c0 .3.2.5.5.5h65.3c.3 0 .5-.2.5-.5v-23.4c0-.3-.2-.5-.5-.5h-65.3z" class="st5"/><path id="Rettangolo_1-5_3_" d="M329.1 228.2H226.3c-.8 0-1.5-.7-1.5-1.5v-23.4c0-.8.7-1.5 1.5-1.5h102.8c.8 0 1.5.7 1.5 1.5v23.4c0 .8-.7 1.5-1.5 1.5zm-102.8-25.4c-.3 0-.5.2-.5.5v23.4c0 .3.2.5.5.5h102.8c.3 0 .5-.2.5-.5v-23.4c0-.3-.2-.5-.5-.5H226.3z" class="st5"/><path id="Rettangolo_1-5_2_" d="M135.1 228.2h-114c-.9 0-1.7-.7-1.7-1.5v-23.4c0-.8.7-1.5 1.7-1.5h114c.9 0 1.7.7 1.7 1.5v23.4c0 .8-.8 1.5-1.7 1.5zm-114-25.4c-.3 0-.6.2-.6.5v23.4c0 .3.2.5.6.5h114c.3 0 .6-.2.6-.5v-23.4c0-.3-.2-.5-.6-.5h-114z" class="st5"/><path id="Rettangolo_1-6_1_" d="M451.5 228.2h-87.1c-.8 0-1.5-.7-1.5-1.5v-23.4c0-.8.7-1.5 1.5-1.5h87.1c.8 0 1.5.7 1.5 1.5v23.4c0 .8-.7 1.5-1.5 1.5zm-87.1-25.4c-.3 0-.5.2-.5.5v23.4c0 .3.2.5.5.5h87.1c.3 0 .5-.2.5-.5v-23.4c0-.3-.2-.5-.5-.5h-87.1z" class="st5"/><g class="st1"><path d="M377.2 218.7c-.5-.4-.7-1-.8-1.8h1c0 .5.2.9.5 1.1.3.3.8.4 1.3.4s1-.1 1.3-.4c.3-.3.5-.6.5-1.1 0-.4-.1-.7-.3-1-.2-.3-.5-.5-.9-.6l-1.2-.4c-.6-.2-1.1-.5-1.4-.9-.3-.4-.5-.9-.5-1.5 0-.7.2-1.3.7-1.7.5-.4 1.1-.6 1.9-.6.8 0 1.4.2 1.8.6.5.4.7 1 .7 1.7h-1c0-.5-.1-.8-.4-1.1-.3-.3-.7-.4-1.2-.4s-.9.1-1.2.4c-.3.2-.4.6-.4 1s.1.7.3 1c.2.3.5.5.9.6l1.2.4c.6.2 1.1.5 1.4.9.3.4.5 1 .5 1.6 0 .5-.1.9-.3 1.3-.2.4-.5.6-.9.8-.4.2-.9.3-1.4.3-.9.1-1.6-.2-2.1-.6zM388.3 213.1c.4.4.6 1 .6 1.7v4.5h-1v-4.4c0-.5-.1-.9-.4-1.2s-.6-.4-1.1-.4c-.5 0-.9.2-1.1.4s-.4.7-.4 1.2v4.3h-1v-8.8h1v3.4c.1-.4.3-.7.6-1 .3-.2.7-.3 1.2-.3.7-.1 1.3.2 1.6.6zM395.6 213c.4.4.7.9.7 1.6v4.6h-.9V218c-.1.4-.3.7-.7.9s-.9.4-1.4.4c-.7 0-1.2-.2-1.6-.5-.4-.4-.6-.8-.6-1.4 0-.6.2-1.1.6-1.5.4-.4.9-.5 1.6-.5h2.1v-.7c0-.4-.1-.8-.4-1s-.6-.4-1.1-.4c-.4 0-.8.1-1 .3s-.4.4-.5.7h-1c.1-.6.3-1 .8-1.4.5-.3 1-.5 1.7-.5.6.1 1.2.3 1.7.6zm-.9 5.2c.4-.3.5-.6.5-1v-1h-2.1c-.4 0-.7.1-.9.3-.2.2-.3.5-.3.9s.1.7.4.9c.3.2.6.3 1.1.3.5 0 1-.2 1.3-.4zM402.9 213.1c.4.4.6 1 .6 1.8v2c0 .8-.2 1.4-.6 1.8s-.9.7-1.6.7c-.5 0-.9-.1-1.2-.3-.3-.2-.5-.5-.6-1v3.4h-1v-8.8h1v1.2c.1-.4.3-.7.6-1 .3-.2.7-.3 1.2-.3.7-.2 1.2.1 1.6.5zm-.4 1.9c0-.5-.1-.9-.4-1.2s-.6-.4-1.1-.4-.9.1-1.1.4-.4.7-.4 1.2v1.9c0 .5.1.9.4 1.2s.7.4 1.1.4.8-.1 1.1-.4.4-.7.4-1.2V215zM410.8 216.1h-4.1v.7c0 .5.1 1 .4 1.3s.7.4 1.2.4c.4 0 .8-.1 1-.3.3-.2.4-.4.5-.7h1c-.1.6-.3 1-.8 1.3s-1 .5-1.7.5c-.8 0-1.4-.2-1.8-.7s-.7-1.1-.7-1.8V215c0-.8.2-1.4.7-1.8.5-.5 1.1-.7 1.8-.7.8 0 1.4.2 1.8.7.5.5.7 1.1.7 1.8v1.1zm-4.1-.7h3.2v-.4c0-.5-.1-1-.4-1.3-.3-.3-.7-.4-1.2-.4s-.9.1-1.2.4c-.3.3-.4.7-.4 1.3v.4zM418.3 219.2h-5v-8.8h1v8h4.1v.8zM421 218.7c-.5-.4-.7-1.1-.7-1.8V215c0-.8.2-1.4.7-1.8s1.1-.7 1.8-.7c.8 0 1.4.2 1.8.7.5.4.7 1.1.7 1.8v1.9c0 .8-.2 1.4-.7 1.8-.5.4-1.1.7-1.8.7-.8 0-1.4-.3-1.8-.7zm3-.6c.3-.3.4-.7.4-1.2V215c0-.5-.1-.9-.4-1.2-.3-.3-.7-.4-1.1-.4-.5 0-.9.1-1.1.4-.3.3-.4.7-.4 1.2v1.9c0 .5.1.9.4 1.2s.7.4 1.2.4c.3 0 .7-.1 1-.4zM428.2 218.7c-.5-.4-.7-1.1-.7-1.8V215c0-.8.2-1.4.7-1.8s1.1-.7 1.8-.7c.8 0 1.4.2 1.8.7.5.4.7 1.1.7 1.8v1.9c0 .8-.2 1.4-.7 1.8-.5.4-1.1.7-1.8.7s-1.3-.3-1.8-.7zm3-.6c.3-.3.4-.7.4-1.2V215c0-.5-.1-.9-.4-1.2-.3-.3-.7-.4-1.1-.4-.5 0-.9.1-1.1.4-.3.3-.4.7-.4 1.2v1.9c0 .5.1.9.4 1.2s.7.4 1.2.4c.4 0 .8-.1 1-.4zM439.3 213.1c.4.4.6 1 .6 1.8v2c0 .8-.2 1.4-.6 1.8s-.9.7-1.6.7c-.5 0-.9-.1-1.2-.3-.3-.2-.5-.5-.6-1v3.4h-1v-8.8h1v1.2c.1-.4.3-.7.6-1 .3-.2.7-.3 1.2-.3.7-.2 1.2.1 1.6.5zm-.4 1.9c0-.5-.1-.9-.4-1.2s-.6-.4-1.1-.4-.9.1-1.1.4-.4.7-.4 1.2v1.9c0 .5.1.9.4 1.2s.7.4 1.1.4.8-.1 1.1-.4.4-.7.4-1.2V215z" class="st2"/></g><g class="st1"><path d="M90.6 16.9c-.5-.4-.7-1-.8-1.8h1c0 .5.2.9.5 1.1.3.3.8.4 1.3.4s1-.1 1.3-.4c.3-.3.5-.6.5-1.1 0-.4-.1-.7-.3-1s-.5-.5-.9-.6l-1.2-.3c-.6-.2-1.1-.5-1.4-.9s-.5-.9-.5-1.5c0-.7.2-1.3.7-1.7.5-.4 1.1-.6 1.9-.6.8 0 1.4.2 1.8.6s.7 1 .7 1.7h-1c0-.5-.1-.8-.4-1.1-.3-.3-.7-.4-1.2-.4s-.9.1-1.2.4c-.3.2-.4.6-.4 1s.1.7.3 1c.2.3.5.5.9.6l1.2.4c.6.2 1.1.5 1.4.9.3.4.5 1 .5 1.6 0 .5-.1.9-.3 1.3-.2.4-.5.6-.9.8-.4.2-.9.3-1.4.3-.9 0-1.6-.2-2.1-.7zM98 16.9c-.5-.4-.7-1.1-.7-1.8v-1.9c0-.8.2-1.4.7-1.8.5-.4 1.1-.7 1.9-.7.8 0 1.4.2 1.8.6.5.4.7 1 .7 1.7h-1c0-.5-.2-.8-.4-1.1-.3-.3-.7-.4-1.1-.4-.5 0-.9.1-1.2.4s-.4.7-.4 1.2V15c0 .5.1.9.4 1.2s.7.4 1.2.4.9-.1 1.1-.4c.3-.3.4-.6.4-1.1h1c0 .7-.3 1.3-.7 1.7-.5.4-1.1.6-1.8.6-.8.2-1.4 0-1.9-.5zM109.6 14.4h-4.1v.7c0 .5.1 1 .4 1.3.3.3.7.4 1.2.4.4 0 .8-.1 1-.3.3-.2.4-.4.5-.7h1c-.1.6-.3 1-.8 1.3-.4.3-1 .5-1.7.5-.8 0-1.4-.2-1.8-.7-.5-.5-.7-1.1-.7-1.8v-1.9c0-.8.2-1.4.7-1.8.5-.5 1.1-.7 1.8-.7s1.4.2 1.8.7c.5.5.7 1.1.7 1.8v1.2zm-4-.8h3.2v-.4c0-.5-.1-1-.4-1.3s-.7-.4-1.2-.4-.9.1-1.2.4c-.3.3-.4.7-.4 1.3v.4zM116.3 11.3c.4.4.6 1 .6 1.7v4.5h-1v-4.4c0-.5-.1-.9-.4-1.2s-.6-.4-1.1-.4c-.5 0-.9.1-1.1.4-.3.3-.4.7-.4 1.2v4.3h-1v-6.7h1V12c.1-.4.3-.8.6-1s.7-.4 1.2-.4c.7.1 1.2.3 1.6.7zM124.2 14.4h-4.1v.7c0 .5.1 1 .4 1.3.3.3.7.4 1.2.4.4 0 .8-.1 1-.3.3-.2.4-.4.5-.7h1c-.1.6-.3 1-.8 1.3-.4.3-1 .5-1.7.5-.8 0-1.4-.2-1.8-.7-.5-.5-.7-1.1-.7-1.8v-1.9c0-.8.2-1.4.7-1.8.5-.5 1.1-.7 1.8-.7s1.4.2 1.8.7c.5.5.7 1.1.7 1.8v1.2zm-4.1-.8h3.2v-.4c0-.5-.1-1-.4-1.3s-.7-.4-1.2-.4-.9.1-1.2.4c-.3.3-.4.7-.4 1.3v.4zM134.4 16.9c-.5-.4-.7-1.1-.7-1.8V11c0-.8.2-1.4.7-1.8.5-.4 1.1-.7 1.9-.7.8 0 1.4.2 1.9.7.5.5.7 1.1.7 1.9h-1c0-.5-.1-.9-.4-1.2-.3-.3-.7-.4-1.2-.4s-.9.1-1.2.4c-.3.3-.4.7-.4 1.2v4.1c0 .5.1.9.4 1.2.3.3.7.4 1.2.4s.9-.1 1.2-.4c.3-.3.4-.7.4-1.2h1c0 .8-.2 1.4-.7 1.9-.5.5-1.1.7-1.9.7-.8-.2-1.4-.4-1.9-.9zM145.4 11.3c.4.4.6 1 .6 1.7v4.5h-1v-4.4c0-.5-.1-.9-.4-1.2s-.6-.4-1.1-.4c-.5 0-.9.1-1.1.4-.3.3-.4.7-.4 1.2v4.3h-1V8.6h1V12c.1-.4.3-.7.6-1 .3-.2.7-.3 1.2-.3.7 0 1.2.2 1.6.6zM153.7 17.5h-5.6v-.9h2.4v-4.9h-2.1v-.9h3v5.8h2.3v.9zm-2.9-7.9c-.2 0-.4-.1-.6-.2-.1-.1-.2-.3-.2-.5s.1-.4.2-.5c.1-.1.3-.2.6-.2h.2c.2 0 .4.1.5.2.1.1.2.3.2.5s-.1.4-.2.5c-.1.1-.3.2-.5.2h-.2zM158.8 17.5c-.6 0-1-.2-1.4-.5-.3-.3-.5-.8-.5-1.3V9.5h-2v-.9h3v7c0 .3.1.5.2.7.2.2.4.2.7.2h2.2v.9h-2.2zM166.8 8.6h1v8.8h-1v-1.2c-.1.4-.3.7-.6 1-.3.2-.7.3-1.2.3-.7 0-1.2-.2-1.6-.7-.4-.4-.6-1-.6-1.8v-2c0-.8.2-1.4.6-1.8.4-.4.9-.7 1.6-.7.5 0 .9.1 1.2.4.3.2.5.5.6.9V8.6zm-.4 7.7c.3-.3.4-.7.4-1.2v-1.9c0-.5-.1-.9-.4-1.2-.3-.3-.6-.4-1.1-.4-.5 0-.9.1-1.1.4s-.4.7-.4 1.2v1.9c0 .5.1.9.4 1.2.3.3.6.4 1.1.4.5.1.8-.1 1.1-.4z" class="st2"/></g><path id="Rettangolo_1-7_1_" d="M178.2 26.4H79.1c-.8 0-1.5-.7-1.5-1.5V1.5c0-.8.7-1.5 1.5-1.5h99.2c.8 0 1.5.7 1.5 1.5v23.4c-.1.9-.7 1.5-1.6 1.5zM79.1 1c-.3 0-.5.2-.5.5v23.4c0 .3.2.5.5.5h99.2c.3 0 .5-.2.5-.5V1.5c0-.3-.2-.5-.5-.5H79.1z" class="st3"/><path d="M125.9 22.9h6.1V29h-6.1z" class="st4"/><path d="M132.2 29.2h-6.5v-6.5h6.5v6.5zm-5.5-1h4.5v-4.5h-4.5v4.5z" class="st3"/><path d="M248.7 66.7h.5c1.1 0 2.1.9 2.1 2.1v.5c0 1.1-.9 2.1-2.1 2.1h-.5c-1.1 0-2.1-.9-2.1-2.1v-.5c0-1.2.9-2.1 2.1-2.1z" class="st4"/><path d="M249.1 71.8h-.5c-1.4 0-2.6-1.2-2.6-2.6v-.5c0-1.4 1.2-2.6 2.6-2.6h.5c1.4 0 2.6 1.2 2.6 2.6v.5c0 1.4-1.1 2.6-2.6 2.6zm-.4-4.6c-.9 0-1.6.7-1.6 1.6v.5c0 .9.7 1.6 1.6 1.6h.5c.9 0 1.6-.7 1.6-1.6v-.5c0-.9-.7-1.6-1.6-1.6h-.5z" class="st3"/><path d="M339.2 125.4c1.3 0 2.3 1 2.3 2.3 0 1.3-1 2.3-2.3 2.3-1.3 0-2.3-1-2.3-2.3 0-1.2 1-2.3 2.3-2.3z" class="st4"/><path d="M339.2 130.5c-1.5 0-2.8-1.3-2.8-2.8s1.3-2.8 2.8-2.8 2.8 1.3 2.8 2.8-1.3 2.8-2.8 2.8zm0-4.6c-1 0-1.8.8-1.8 1.8s.8 1.8 1.8 1.8 1.8-.8 1.8-1.8-.8-1.8-1.8-1.8z" class="st3"/><path d="M408.3 200c1.3 0 2.3 1 2.3 2.3 0 1.3-1 2.3-2.3 2.3-1.3 0-2.3-1-2.3-2.3 0-1.3 1-2.3 2.3-2.3z" class="st4"/><path d="M408.3 205.1c-1.5 0-2.8-1.3-2.8-2.8 0-1.5 1.3-2.8 2.8-2.8s2.8 1.3 2.8 2.8c0 1.5-1.3 2.8-2.8 2.8zm0-4.6c-1 0-1.8.8-1.8 1.8s.8 1.8 1.8 1.8 1.8-.8 1.8-1.8-.8-1.8-1.8-1.8z" class="st3"/><g><path d="M162 125.4h.5c1.1 0 2.1.9 2.1 2.1v.5c0 1.1-.9 2.1-2.1 2.1h-.5c-1.1 0-2.1-.9-2.1-2.1v-.5c.1-1.1 1-2.1 2.1-2.1z" class="st4"/><path d="M162.5 130.5h-.5c-1.4 0-2.6-1.2-2.6-2.6v-.5c0-1.4 1.2-2.6 2.6-2.6h.5c1.4 0 2.6 1.2 2.6 2.6v.5c0 1.5-1.2 2.6-2.6 2.6zm-.5-4.6c-.9 0-1.6.7-1.6 1.6v.5c0 .9.7 1.6 1.6 1.6h.5c.9 0 1.6-.7 1.6-1.6v-.5c0-.9-.7-1.6-1.6-1.6h-.5z" class="st3"/></g><g><path d="M278 200c1.3 0 2.3 1 2.3 2.3 0 1.3-1 2.3-2.3 2.3-1.3 0-2.3-1-2.3-2.3 0-1.3 1-2.3 2.3-2.3z" class="st4"/><path d="M278 205.1c-1.5 0-2.8-1.3-2.8-2.8s1.3-2.8 2.8-2.8c1.5 0 2.8 1.3 2.8 2.8s-1.3 2.8-2.8 2.8zm0-4.6c-1 0-1.8.8-1.8 1.8s.8 1.8 1.8 1.8 1.8-.8 1.8-1.8-.8-1.8-1.8-1.8z" class="st3"/></g><g><path d="M277.9 200c1.3 0 2.3 1 2.3 2.3 0 1.3-1 2.3-2.3 2.3-1.3 0-2.3-1-2.3-2.3 0-1.3 1-2.3 2.3-2.3z" class="st4"/><path d="M277.9 205.1c-1.5 0-2.8-1.3-2.8-2.8s1.3-2.8 2.8-2.8c1.5 0 2.8 1.3 2.8 2.8s-1.3 2.8-2.8 2.8zm0-4.6c-1 0-1.8.8-1.8 1.8s.8 1.8 1.8 1.8 1.8-.8 1.8-1.8-.8-1.8-1.8-1.8z" class="st3"/></g><g><path d="M277.8 200c1.3 0 2.3 1 2.3 2.3 0 1.3-1 2.3-2.3 2.3-1.3 0-2.3-1-2.3-2.3 0-1.3 1-2.3 2.3-2.3z" class="st4"/><path d="M277.8 205.1c-1.5 0-2.8-1.3-2.8-2.8s1.3-2.8 2.8-2.8c1.5 0 2.8 1.3 2.8 2.8s-1.3 2.8-2.8 2.8zm0-4.6c-1 0-1.8.8-1.8 1.8s.8 1.8 1.8 1.8 1.8-.8 1.8-1.8-.8-1.8-1.8-1.8z" class="st3"/></g><g><path d="M277.7 200c1.3 0 2.3 1 2.3 2.3 0 1.3-1 2.3-2.3 2.3-1.3 0-2.3-1-2.3-2.3 0-1.3 1-2.3 2.3-2.3z" class="st4"/><path d="M277.7 205.1c-1.5 0-2.8-1.3-2.8-2.8s1.3-2.8 2.8-2.8c1.5 0 2.8 1.3 2.8 2.8s-1.3 2.8-2.8 2.8zm0-4.6c-1 0-1.8.8-1.8 1.8s.8 1.8 1.8 1.8 1.8-.8 1.8-1.8-.8-1.8-1.8-1.8z" class="st3"/></g><g><path d="M277.6 200c1.3 0 2.3 1 2.3 2.3 0 1.3-1 2.3-2.3 2.3-1.3 0-2.3-1-2.3-2.3 0-1.3 1-2.3 2.3-2.3z" class="st4"/><path d="M277.6 205.1c-1.5 0-2.8-1.3-2.8-2.8s1.3-2.8 2.8-2.8c1.5 0 2.8 1.3 2.8 2.8s-1.3 2.8-2.8 2.8zm0-4.6c-1 0-1.8.8-1.8 1.8s.8 1.8 1.8 1.8 1.8-.8 1.8-1.8-.8-1.8-1.8-1.8z" class="st3"/></g><g><path d="M81 200c1.3 0 2.3 1 2.3 2.3 0 1.3-1 2.3-2.3 2.3-1.3 0-2.3-1-2.3-2.3 0-1.3 1-2.3 2.3-2.3z" class="st4"/><path d="M81 205.1c-1.5 0-2.8-1.3-2.8-2.8s1.3-2.8 2.8-2.8c1.5 0 2.8 1.3 2.8 2.8s-1.3 2.8-2.8 2.8zm0-4.6c-1 0-1.8.8-1.8 1.8s.8 1.8 1.8 1.8 1.8-.8 1.8-1.8-.8-1.8-1.8-1.8z" class="st3"/></g><g><path d="M34.8 66.7h.5c1.1 0 2.1.9 2.1 2.1v.5c0 1.1-.9 2.1-2.1 2.1h-.5c-1.1 0-2.1-.9-2.1-2.1v-.5c0-1.2 1-2.1 2.1-2.1z" class="st4"/><path d="M35.3 71.8h-.5c-1.4 0-2.6-1.2-2.6-2.6v-.5c0-1.4 1.2-2.6 2.6-2.6h.5c1.4 0 2.6 1.2 2.6 2.6v.5c-.1 1.4-1.2 2.6-2.6 2.6zm-.5-4.6c-.9 0-1.6.7-1.6 1.6v.5c0 .9.7 1.6 1.6 1.6h.5c.9 0 1.6-.7 1.6-1.6v-.5c0-.9-.7-1.6-1.6-1.6h-.5z" class="st3"/></g><g class="st6"><path d="M28.4 218.7c-.5-.4-.7-1-.8-1.8h1.1c0 .4.2.8.5 1.1s.7.4 1.3.4c.5 0 .9-.1 1.2-.4.3-.3.4-.6.4-1s-.1-.7-.3-.9c-.2-.3-.5-.4-.8-.6l-1.2-.4c-.6-.2-1.1-.5-1.4-.9-.3-.4-.5-.9-.5-1.5 0-.5.1-.9.3-1.2.2-.4.5-.6.9-.8.4-.2.8-.3 1.4-.3.8 0 1.4.2 1.8.6.5.4.7 1 .7 1.7h-1c0-.4-.1-.8-.4-1-.3-.2-.6-.4-1.1-.4-.5 0-.8.1-1.1.3-.3.2-.4.5-.4.9s.1.7.3.9c.2.3.5.5.8.6l1.2.4c.6.2 1 .5 1.4.9.3.4.5 1 .5 1.5s-.1.9-.3 1.3c-.2.4-.5.6-.9.8-.4.2-.9.3-1.4.3-1 .1-1.7-.1-2.2-.5zM39.5 213.1c.4.4.6 1 .6 1.7v4.4H39v-4.3c0-.5-.1-.8-.4-1.1s-.6-.4-1-.4c-.5 0-.8.1-1.1.4s-.4.7-.4 1.2v4.2H35v-8.8h1.1v3.4c.1-.4.2-.8.5-1 .3-.2.7-.4 1.2-.4.8.1 1.4.3 1.7.7zM46.7 213.1c.4.4.7.9.7 1.6v4.5h-1.1V218c0 .4-.2.8-.6 1-.4.3-.9.4-1.4.4-.7 0-1.2-.2-1.6-.5-.4-.4-.6-.8-.6-1.4 0-.6.2-1.1.6-1.5.4-.4.9-.5 1.6-.5h2v-.6c0-.4-.1-.7-.4-.9-.3-.2-.6-.3-1.1-.3-.4 0-.7.1-1 .2-.3.2-.4.4-.4.7h-1.1c.1-.6.3-1 .8-1.3.5-.3 1-.5 1.7-.5.8-.3 1.4-.1 1.9.3zm-1 5c.3-.3.5-.6.5-1v-.9h-2c-.4 0-.6.1-.9.3-.2.2-.3.5-.3.8 0 .4.1.7.4.9s.6.3 1 .3c.6 0 1-.1 1.3-.4zM54 213.2c.4.4.6 1 .6 1.8v1.9c0 .8-.2 1.4-.6 1.8-.4.4-.9.7-1.6.7-.5 0-.9-.1-1.2-.4-.3-.2-.5-.6-.6-1v3.4h-1.1v-8.8h1.1v1.3c.1-.4.2-.8.6-1 .3-.2.7-.4 1.2-.4.7 0 1.2.2 1.6.7zm-.5 1.8c0-.5-.1-.9-.4-1.2-.2-.3-.6-.4-1.1-.4-.4 0-.8.1-1.1.4-.3.3-.4.7-.4 1.2v1.8c0 .5.1.9.4 1.2.3.3.6.4 1.1.4.5 0 .8-.1 1.1-.4.2-.3.4-.7.4-1.2V215zM61.8 216.2h-4v.6c0 .5.1.9.4 1.2.3.3.6.4 1.1.4.8 0 1.3-.3 1.4-.9h1.1c-.1.6-.3 1-.8 1.3s-1 .5-1.7.5c-.8 0-1.4-.2-1.9-.7-.5-.5-.7-1.1-.7-1.8V215c0-.8.2-1.4.7-1.8.5-.5 1.1-.7 1.9-.7.8 0 1.4.2 1.9.7.5.5.7 1.1.7 1.8v1.2zm-4.1-.8h3v-.4c0-.5-.1-.9-.4-1.2-.3-.3-.6-.4-1.1-.4-.5 0-.9.1-1.1.4-.3.3-.4.7-.4 1.2v.4zM63.9 219.2v-8.8h2.7c.5 0 1 .1 1.4.3.4.2.7.5.9.9.2.4.3.8.3 1.3 0 .6-.2 1.1-.5 1.5s-.7.7-1.3.9l1.8 3.8h-1.3l-1.7-3.7H65v3.7h-1.1zm2.7-4.7c.4 0 .8-.1 1.1-.4.3-.3.4-.7.4-1.1 0-.5-.1-.8-.4-1.1s-.6-.4-1.1-.4H65v3.1h1.6zM76.2 216.2h-4v.6c0 .5.1.9.4 1.2.3.3.6.4 1.1.4.8 0 1.3-.3 1.4-.9h1.1c-.1.6-.3 1-.8 1.3s-1 .5-1.7.5c-.8 0-1.4-.2-1.9-.7-.5-.5-.7-1.1-.7-1.8V215c0-.8.2-1.4.7-1.8.5-.5 1.1-.7 1.9-.7.8 0 1.4.2 1.9.7.5.5.7 1.1.7 1.8v1.2zm-4.1-.8h3v-.4c0-.5-.1-.9-.4-1.2-.3-.3-.6-.4-1.1-.4-.5 0-.9.1-1.1.4-.3.3-.4.7-.4 1.2v.4zM79 218.7c-.5-.4-.7-1.1-.7-1.8V215c0-.8.2-1.4.7-1.8s1.1-.7 1.9-.7c.8 0 1.4.2 1.8.6.5.4.7 1 .7 1.7h-1.1c0-.4-.2-.7-.4-1-.3-.2-.6-.3-1.1-.3-.5 0-.8.1-1.1.4-.3.3-.4.7-.4 1.1v1.8c0 .5.1.9.4 1.2.3.3.6.4 1.1.4.4 0 .8-.1 1.1-.3.3-.2.4-.6.4-1h1.1c0 .7-.3 1.3-.7 1.7s-1.1.6-1.8.6c-.8-.1-1.5-.3-1.9-.7zM86.3 218.7c-.5-.5-.7-1.1-.7-1.8v-4.2h1.1v4.2c0 .5.1.9.4 1.2.3.3.6.4 1 .4.5 0 .8-.1 1.1-.4.3-.3.4-.7.4-1.2v-4.2h1.1v4.2c0 .8-.2 1.4-.7 1.8-.5.5-1.1.7-1.8.7-.8-.1-1.5-.3-1.9-.7zM97.5 213.2c.4.4.6 1 .6 1.8v.4H97v-.4c0-.5-.1-.9-.4-1.2s-.6-.4-1.1-.4c-.5 0-.8.1-1.1.4-.3.3-.4.7-.4 1.2v4.2h-1.1v-6.6H94v1.2c.2-.9.8-1.3 1.7-1.3.8 0 1.4.2 1.8.7zM102.3 219.3c-.7 0-1.2-.2-1.6-.5-.4-.3-.6-.7-.7-1.3h1.1c0 .2.2.4.4.6.2.1.5.2.8.2h.5c.4 0 .7-.1.9-.3.2-.2.3-.4.3-.7 0-.5-.4-.9-1.1-1l-.9-.1c-.7-.1-1.1-.3-1.5-.6-.3-.3-.5-.7-.5-1.3 0-.6.2-1.1.6-1.4.4-.3.9-.5 1.7-.5h.5c.6 0 1.1.1 1.5.5.4.3.6.7.7 1.2h-1c0-.2-.2-.4-.4-.5-.2-.1-.5-.2-.8-.2h-.5c-.8 0-1.2.3-1.2.9 0 .3.1.5.2.6.2.1.4.2.8.3l.9.1c.7.1 1.2.3 1.6.6.3.3.5.7.5 1.3 0 .6-.2 1.1-.6 1.5-.4.3-1 .5-1.7.5h-.5zM112.7 219.2h-5.6v-1h2.3v-4.6h-2v-1h3.1v5.6h2.2v1zm-3-7.7c-.2 0-.4-.1-.6-.2-.1-.1-.2-.3-.2-.5s.1-.4.2-.5c.1-.1.3-.2.6-.2h.2c.2 0 .4.1.6.2.1.1.2.3.2.5s-.1.4-.2.5-.3.2-.6.2h-.2zM116.2 219.2l-2.1-6.6h1.1l1.4 4.4c.1.5.3.9.4 1.3.1-.4.3-.9.4-1.3l1.4-4.4h1.1l-2.1 6.6h-1.6zM126.7 216.2h-4v.6c0 .5.1.9.4 1.2.3.3.6.4 1.1.4.8 0 1.3-.3 1.4-.9h1.1c-.1.6-.3 1-.8 1.3s-1 .5-1.7.5c-.8 0-1.4-.2-1.9-.7-.5-.5-.7-1.1-.7-1.8V215c0-.8.2-1.4.7-1.8.5-.5 1.1-.7 1.9-.7.8 0 1.4.2 1.9.7.5.5.7 1.1.7 1.8v1.2zm-4.1-.8h3v-.4c0-.5-.1-.9-.4-1.2-.3-.3-.6-.4-1.1-.4-.5 0-.9.1-1.1.4-.3.3-.4.7-.4 1.2v.4z" class="st2"/></g></svg>