<svg xmlns="http://www.w3.org/2000/svg" viewBox="0 0 504 505" fill="#fff">
    <path
        d="M333.53 504.02a280.3 280.3 0 0033.3-1.09c19.27-1.7 38.06-5.52 55.98-13.23 18.22-7.84 33.36-19.76 46.3-34.47a119.62 119.62 0 0021.95-36.86c6.5-17.12 9.79-34.79 11.17-53.02.51-6.79.41-13.55.81-20.32.08-1.36-.8-3.04.97-4.03V164c-2.09-1.91-.92-4.38-.93-6.53-.13-23.11-3.07-45.72-11-67.56-10.48-28.82-28.8-51.15-55.08-66.89-17.76-10.64-37.12-16.43-57.6-19.1C360.83 1.5 342.21.88 323.52.96c-1.2.01-2.72.68-3.53-.97h-136c-.35 1.01-1.21.97-2.03.98-11.76.23-23.51.33-35.28.84-27.37 1.2-53.62 6.4-77.69 19.82C49.38 32.56 33.9 48.1 22.33 67.34c-11.02 18.32-16.79 38.4-19.42 59.54-1.22 9.85-2.08 19.68-1.95 29.6.02 1.19.68 2.72-.96 3.53v185c1.94 1.36.95 3.37.95 5.03-.07 24.85 3.78 49.03 13.25 72.03 5.38 13.06 12.77 25.05 22.68 35.41 10.55 11.02 21.76 21.21 35.44 28.1a152.03 152.03 0 0038.17 13.44c19.14 3.89 38.49 5.19 57.99 5.02 1.2-.01 2.72-.68 3.53.96h159c.47-1.27 1.59-1.01 2.52-.98zm-22.9-45.8c-19.8 1.38-39.56-.02-55.54.78-18.94 0-34.13.53-49.27-.15-14.94-.67-29.91-.14-44.8-1.03-16.64-.99-33.33-1.62-49.58-6.66-20.85-6.47-37.16-18.46-48.67-36.87-8.28-13.25-12.03-28.02-13.86-43.43-1.19-10.02-1.61-20.04-1.99-30.11-2.05-54.26-.85-108.54-.65-162.8.08-20.29.47-40.82 5.69-60.78 6.46-24.67 19.91-43.98 42.58-56.28 10.87-5.9 22.72-8.95 34.86-10.84 10.12-1.58 20.35-1.78 30.59-2.15 55.26-2.04 110.54-.48 165.8-.77 19.91-.1 39.97.38 59.46 5.02 19.52 4.65 36.52 13.74 49.49 29.88 11.05 13.74 16.56 29.4 19.3 46.43 1.97 12.23 2.57 24.54 3.03 36.9 1.9 51.43.61 102.87.81 154.3.06 14.7-.75 29.45-2.01 44.1-1.64 19.2-5.97 37.68-17.09 54.02-12.01 17.66-28.71 28.4-48.94 34.18-10.11 2.89-20.52 4.07-30.94 5-16.05 1.44-32.24.14-48.27 1.26z"
        class="st0"
    />
    <path
        d="M381.85 255.55a129.08 129.08 0 00-121.99-133.04c-81.95-4.09-135.5 59.87-137.86 124.28-2.82 77.05 59.91 136.48 129.27 134.7 73.86 1.48 129.23-58.22 130.58-125.94zm-133.37 79.86c-44.1-2.03-79.96-36.22-80.04-83.33-.08-45.96 35.42-83.6 85.02-83.36 44.05.21 82.33 37.34 81.53 83.56.94 45.21-38.02 85.36-86.51 83.13zM386.46 148.51a30.5 30.5 0 0030.63-29.97c.47-18.17-13.64-31.87-30.48-31.8-16.28.07-31.24 11.48-30.61 31.26-.85 17.41 14.25 30.58 30.46 30.51z"
        class="st0"
    />
</svg>