<?xml version="1.0" encoding="utf-8"?>
<!-- Generator: Adobe Illustrator 25.0.1, SVG Export Plug-In . SVG Version: 6.00 Build 0)  -->
<svg version="1.1" xmlns="http://www.w3.org/2000/svg" xmlns:xlink="http://www.w3.org/1999/xlink" x="0px" y="0px"
	 viewBox="0 0 352 60" style="enable-background:new 0 0 352 60;" xml:space="preserve">
<style type="text/css">
	.st0{fill:#0D1117;}
	.st1{fill:#FFFFFF;}
	.st2{fill:none;}
</style>
<g id="Livello_2">
</g>
<g id="Livello_1">
	<g>
		<g>
			<path class="st0" d="M87.05,50.58c-4.05,0-7.27-1.12-9.57-3.32c-2.3-2.21-3.47-5.29-3.47-9.16V10.19c0-0.89,0.73-1.62,1.62-1.62
				h4.33c0.89,0,1.62,0.73,1.62,1.62v27.85c0,1.87,0.47,3.35,1.39,4.38c0.92,1.02,2.29,1.54,4.08,1.54c1.75,0,3.11-0.52,4.05-1.54
				c0.94-1.03,1.42-2.5,1.42-4.38V10.19c0-0.89,0.73-1.62,1.62-1.62h4.33c0.89,0,1.62,0.73,1.62,1.62V38.1
				c0,3.87-1.17,6.95-3.47,9.16C94.31,49.46,91.09,50.58,87.05,50.58z"/>
			<path class="st1" d="M98.47,8.82c0.76,0,1.37,0.61,1.37,1.37V38.1c0,3.81-1.13,6.81-3.39,8.97c-2.26,2.17-5.39,3.25-9.4,3.25
				c-4,0-7.13-1.08-9.39-3.25c-2.26-2.17-3.39-5.16-3.39-8.97V10.19c0-0.76,0.61-1.37,1.37-1.37h4.33c0.76,0,1.37,0.61,1.37,1.37
				v27.85c0,1.95,0.49,3.46,1.46,4.54c0.97,1.08,2.39,1.63,4.26,1.63c1.83,0,3.24-0.54,4.23-1.63c0.99-1.08,1.49-2.6,1.49-4.54
				V10.19c0-0.76,0.61-1.37,1.37-1.37H98.47 M98.47,8.32h-4.33c-1.03,0-1.87,0.84-1.87,1.87v27.85c0,1.81-0.46,3.22-1.36,4.21
				c-0.9,0.98-2.16,1.46-3.87,1.46c-1.74,0-3.01-0.48-3.89-1.46c-0.88-0.98-1.33-2.4-1.33-4.21V10.19c0-1.03-0.84-1.87-1.87-1.87
				h-4.33c-1.03,0-1.87,0.84-1.87,1.87V38.1c0,3.94,1.19,7.08,3.55,9.34c2.35,2.25,5.62,3.39,9.74,3.39c4.11,0,7.39-1.14,9.74-3.39
				c2.35-2.26,3.55-5.4,3.55-9.34V10.19C100.33,9.16,99.5,8.32,98.47,8.32L98.47,8.32z"/>
		</g>
		<g>
			<path class="st0" d="M108.27,50.02c-0.89,0-1.62-0.73-1.62-1.62V20.29c0-0.89,0.73-1.62,1.62-1.62h3.88
				c0.89,0,1.62,0.73,1.62,1.62v3c0.56-1.48,1.4-2.65,2.52-3.5c1.46-1.11,3.4-1.68,5.76-1.68c3.38,0,6.09,1.06,8.04,3.16
				c1.94,2.09,2.93,5.02,2.93,8.69v0.88c0,0.89-0.73,1.62-1.62,1.62h-5.98c-0.14,0-0.25-0.11-0.25-0.25v-1.74
				c0-1.91-0.5-3.39-1.47-4.43c-0.97-1.03-2.34-1.55-4.05-1.55c-1.71,0-3.07,0.53-4.02,1.57c-0.96,1.05-1.45,2.53-1.45,4.4V48.4
				c0,0.89-0.73,1.62-1.62,1.62H108.27z"/>
			<path class="st1" d="M122.04,18.36c3.33,0,5.95,1.03,7.85,3.08c1.91,2.06,2.86,4.9,2.86,8.52v0.88c0,0.76-0.61,1.37-1.37,1.37
				h-5.98v-1.74c0-1.98-0.51-3.51-1.54-4.6c-1.03-1.08-2.44-1.63-4.23-1.63s-3.2,0.55-4.21,1.66c-1.01,1.1-1.51,2.63-1.51,4.57V48.4
				c0,0.76-0.61,1.37-1.37,1.37h-4.28c-0.76,0-1.37-0.61-1.37-1.37V20.29c0-0.76,0.61-1.37,1.37-1.37h3.88
				c0.76,0,1.37,0.61,1.37,1.37v4.52h0.06c0.49-2.13,1.44-3.74,2.86-4.82C117.86,18.9,119.73,18.36,122.04,18.36 M122.04,17.86
				c-2.42,0-4.41,0.58-5.91,1.73c-0.87,0.66-1.57,1.51-2.11,2.53v-1.83c0-1.03-0.84-1.87-1.87-1.87h-3.88
				c-1.03,0-1.87,0.84-1.87,1.87V48.4c0,1.03,0.84,1.87,1.87,1.87h4.28c1.03,0,1.87-0.84,1.87-1.87V30.47
				c0-1.81,0.47-3.23,1.38-4.23c0.92-1,2.17-1.49,3.84-1.49c1.67,0,2.93,0.48,3.87,1.47c0.93,0.98,1.41,2.42,1.41,4.25v1.74
				c0,0.28,0.22,0.5,0.5,0.5h5.98c1.03,0,1.87-0.84,1.87-1.87v-0.88c0-3.74-1.01-6.72-2.99-8.86
				C128.27,18.95,125.5,17.86,122.04,17.86L122.04,17.86z"/>
		</g>
		<g>
			<path class="st0" d="M138.73,60.11c-0.89,0-1.62-0.73-1.62-1.62V20.29c0-0.89,0.73-1.62,1.62-1.62h4.11
				c0.89,0,1.62,0.73,1.62,1.62v2.88c0.46-1.34,1.24-2.44,2.31-3.3c1.48-1.17,3.41-1.76,5.74-1.76c3.16,0,5.72,1.1,7.59,3.25
				c1.86,2.15,2.81,5.1,2.81,8.77v8.36c0,3.67-0.94,6.63-2.81,8.8c-1.87,2.18-4.43,3.28-7.59,3.28c-2.33,0-4.26-0.59-5.74-1.77
				c-1.08-0.86-1.86-1.97-2.32-3.31l0.17,5.72v7.28c0,0.89-0.73,1.62-1.62,1.62H138.73z M150.03,24.67c-1.68,0-3.01,0.51-3.97,1.52
				c-0.96,1.01-1.45,2.45-1.45,4.29v7.74c0,1.83,0.49,3.27,1.45,4.29c0.96,1.01,2.29,1.52,3.97,1.52c1.71,0,3.05-0.5,3.97-1.49
				c0.92-0.99,1.39-2.45,1.39-4.32v-7.74c0-1.87-0.47-3.32-1.39-4.32C153.08,25.17,151.75,24.67,150.03,24.67z"/>
			<path class="st1" d="M152.5,18.36c3.1,0,5.57,1.06,7.4,3.17c1.83,2.11,2.75,4.98,2.75,8.61v8.36c0,3.63-0.92,6.51-2.75,8.64
				c-1.83,2.13-4.3,3.2-7.4,3.2c-2.28,0-4.14-0.57-5.58-1.71c-1.44-1.14-2.31-2.72-2.61-4.74h-0.17l0.22,7.35v7.27
				c0,0.76-0.61,1.37-1.37,1.37h-4.28c-0.76,0-1.37-0.61-1.37-1.37V20.29c0-0.76,0.61-1.37,1.37-1.37h4.11
				c0.76,0,1.37,0.61,1.37,1.37v4.52h0.11c0.3-2.02,1.17-3.6,2.61-4.74C148.36,18.93,150.22,18.36,152.5,18.36 M150.03,44.27
				c1.79,0,3.18-0.52,4.15-1.57c0.97-1.05,1.46-2.54,1.46-4.49v-7.74c0-1.94-0.49-3.44-1.46-4.49c-0.97-1.05-2.36-1.57-4.15-1.57
				c-1.76,0-3.14,0.53-4.15,1.6c-1.01,1.06-1.51,2.55-1.51,4.46v7.74c0,1.91,0.5,3.39,1.51,4.46
				C146.89,43.74,148.27,44.27,150.03,44.27 M152.5,17.86c-2.39,0-4.37,0.61-5.89,1.82c-0.8,0.63-1.44,1.4-1.91,2.29v-1.68
				c0-1.03-0.84-1.87-1.87-1.87h-4.11c-1.03,0-1.87,0.84-1.87,1.87V58.5c0,1.03,0.84,1.87,1.87,1.87H143c1.03,0,1.87-0.84,1.87-1.87
				v-7.27l-0.14-4.44c0.47,0.86,1.1,1.61,1.88,2.23c1.52,1.21,3.5,1.82,5.89,1.82c3.24,0,5.86-1.13,7.78-3.37
				c1.9-2.22,2.87-5.23,2.87-8.96v-8.36c0-3.73-0.97-6.74-2.87-8.94C158.36,18.98,155.74,17.86,152.5,17.86L152.5,17.86z
				 M150.03,43.77c-1.63,0-2.87-0.47-3.79-1.44c-0.91-0.96-1.38-2.35-1.38-4.12v-7.74c0-1.77,0.46-3.15,1.38-4.11
				c0.92-0.97,2.16-1.44,3.79-1.44c1.66,0,2.9,0.46,3.78,1.41c0.88,0.95,1.32,2.34,1.32,4.15v7.74c0,1.81-0.45,3.2-1.32,4.15
				C152.94,43.31,151.7,43.77,150.03,43.77L150.03,43.77z"/>
		</g>
		<g>
			<path class="st0" d="M177.31,50.02c-0.89,0-1.62-0.73-1.62-1.62V27.52c0-0.62-0.5-1.12-1.12-1.12h-5.73
				c-0.89,0-1.62-0.73-1.62-1.62v-3.6c0-0.89,0.73-1.62,1.62-1.62h5.73c0.62,0,1.12-0.5,1.12-1.12v-0.99c0-2.68,0.9-4.85,2.66-6.47
				c1.76-1.61,4.14-2.42,7.07-2.42h8c0.89,0,1.62,0.73,1.62,1.62v3.43c0,0.89-0.73,1.62-1.62,1.62h-7.83c-0.75,0-1.35,0.2-1.76,0.6
				c-0.41,0.4-0.62,0.98-0.62,1.73v0.88c0,0.62,0.5,1.12,1.12,1.12h9.1c0.89,0,1.62,0.73,1.62,1.62v3.6c0,0.89-0.73,1.62-1.62,1.62
				h-9.1c-0.62,0-1.12,0.5-1.12,1.12V48.4c0,0.89-0.73,1.62-1.62,1.62H177.31z"/>
			<path class="st1" d="M193.42,8.82c0.76,0,1.37,0.61,1.37,1.37v3.43c0,0.76-0.61,1.37-1.37,1.37h-7.83
				c-0.82,0-1.47,0.22-1.94,0.67c-0.47,0.45-0.7,1.09-0.7,1.91v0.88c0,0.76,0.61,1.37,1.37,1.37h9.1c0.76,0,1.37,0.61,1.37,1.37v3.6
				c0,0.76-0.61,1.37-1.37,1.37h-9.1c-0.76,0-1.37,0.61-1.37,1.37V48.4c0,0.76-0.61,1.37-1.37,1.37h-4.28
				c-0.76,0-1.37-0.61-1.37-1.37V27.52c0-0.76-0.61-1.37-1.37-1.37h-5.73c-0.76,0-1.37-0.61-1.37-1.37v-3.6
				c0-0.76,0.61-1.37,1.37-1.37h5.73c0.76,0,1.37-0.61,1.37-1.37v-0.99c0-2.62,0.86-4.71,2.58-6.28c1.72-1.57,4.02-2.36,6.9-2.36
				H193.42 M193.42,8.32h-8c-3,0-5.43,0.84-7.24,2.49c-1.82,1.66-2.74,3.9-2.74,6.65v0.99c0,0.48-0.39,0.87-0.87,0.87h-5.73
				c-1.03,0-1.87,0.84-1.87,1.87v3.6c0,1.03,0.84,1.87,1.87,1.87h5.73c0.48,0,0.87,0.39,0.87,0.87V48.4c0,1.03,0.84,1.87,1.87,1.87
				h4.28c1.03,0,1.87-0.84,1.87-1.87V27.52c0-0.48,0.39-0.87,0.87-0.87h9.1c1.03,0,1.87-0.84,1.87-1.87v-3.6
				c0-1.03-0.84-1.87-1.87-1.87h-9.1c-0.48,0-0.87-0.39-0.87-0.87v-0.88c0-0.69,0.18-1.19,0.55-1.55c0.37-0.36,0.89-0.53,1.59-0.53
				h7.83c1.03,0,1.87-0.84,1.87-1.87v-3.43C195.29,9.16,194.45,8.32,193.42,8.32L193.42,8.32z"/>
		</g>
		<g>
			<path class="st0" d="M217.17,50.02c-3.12,0-5.66-0.95-7.55-2.82c-1.89-1.87-2.85-4.37-2.85-7.41V16.53c0-0.62-0.5-1.12-1.12-1.12
				h-6.69c-0.89,0-1.62-0.73-1.62-1.62v-3.6c0-0.89,0.73-1.62,1.62-1.62h13.7c0.89,0,1.62,0.73,1.62,1.62v29.59
				c0,1.03,0.3,1.83,0.91,2.46c0.61,0.63,1.4,0.93,2.43,0.93h8.22c0.89,0,1.62,0.73,1.62,1.62v3.6c0,0.89-0.73,1.62-1.62,1.62
				H217.17z"/>
			<path class="st1" d="M212.66,8.82c0.76,0,1.37,0.61,1.37,1.37v29.59c0,1.08,0.33,1.96,0.98,2.64c0.65,0.67,1.52,1.01,2.61,1.01
				h8.22c0.76,0,1.37,0.61,1.37,1.37v3.6c0,0.76-0.61,1.37-1.37,1.37h-8.67c-3.07,0-5.53-0.92-7.38-2.75
				c-1.85-1.83-2.78-4.24-2.78-7.24V16.53c0-0.76-0.61-1.37-1.37-1.37h-6.69c-0.76,0-1.37-0.61-1.37-1.37v-3.6
				c0-0.76,0.61-1.37,1.37-1.37H212.66 M212.66,8.32h-13.7c-1.03,0-1.87,0.84-1.87,1.87v3.6c0,1.03,0.84,1.87,1.87,1.87h6.69
				c0.48,0,0.87,0.39,0.87,0.87v23.26c0,3.11,0.98,5.67,2.92,7.59c1.94,1.92,4.54,2.89,7.73,2.89h8.67c1.03,0,1.87-0.84,1.87-1.87
				v-3.6c0-1.03-0.84-1.87-1.87-1.87h-8.22c-0.95,0-1.69-0.28-2.25-0.86c-0.57-0.58-0.84-1.33-0.84-2.29V10.19
				C214.53,9.16,213.69,8.32,212.66,8.32L212.66,8.32z"/>
		</g>
		<g>
			<path class="st0" d="M240.56,50.58c-3.15,0-5.7-0.86-7.57-2.56c-1.88-1.71-2.83-4.04-2.83-6.94c0-3.13,1.05-5.58,3.12-7.29
				c2.06-1.69,5-2.55,8.74-2.55h6.32c0.62,0,1.12-0.5,1.12-1.12V28.9c0-1.45-0.44-2.57-1.32-3.35c-0.88-0.78-2.19-1.17-3.87-1.17
				c-1.51,0-2.76,0.32-3.7,0.94c-0.68,0.45-1.16,1.04-1.43,1.75c-0.25,0.65-0.84,1.06-1.51,1.06h-4.14c-0.51,0-0.99-0.24-1.3-0.65
				c-0.31-0.4-0.41-0.91-0.28-1.39c0.59-2.17,1.82-3.98,3.66-5.37c2.3-1.75,5.26-2.63,8.82-2.63c3.93,0,7.04,0.94,9.25,2.81
				c2.22,1.88,3.34,4.54,3.34,7.93V48.4c0,0.89-0.73,1.62-1.62,1.62h-4.05c-0.89,0-1.62-0.73-1.62-1.62v-2.7
				c-0.54,1.31-1.47,2.4-2.79,3.24C245.19,50.03,243.06,50.58,240.56,50.58z M242.13,36.11c-1.35,0-2.44,0.39-3.25,1.16
				c-0.81,0.77-1.21,1.82-1.21,3.13c0,1.36,0.45,2.41,1.37,3.2c0.92,0.8,2.22,1.2,3.88,1.2c1.99,0,3.6-0.47,4.78-1.4
				s1.76-2.17,1.76-3.79v-2.39c0-0.62-0.5-1.12-1.12-1.12H242.13z"/>
			<path class="st1" d="M244.37,18.36c3.89,0,6.92,0.92,9.09,2.75c2.17,1.83,3.25,4.41,3.25,7.74V48.4c0,0.76-0.61,1.37-1.37,1.37
				h-4.05c-0.76,0-1.37-0.61-1.37-1.37v-4.02h-0.11c-0.38,1.83-1.39,3.28-3.06,4.35c-1.66,1.07-3.73,1.6-6.2,1.6
				c-3.1,0-5.57-0.83-7.4-2.5c-1.83-1.66-2.75-3.92-2.75-6.76c0-3.06,1.01-5.43,3.03-7.1c2.02-1.66,4.88-2.5,8.58-2.5h6.32
				c0.76,0,1.37-0.61,1.37-1.37V28.9c0-1.53-0.47-2.71-1.4-3.53c-0.94-0.82-2.28-1.23-4.04-1.23c-1.57,0-2.85,0.33-3.84,0.98
				c-0.73,0.48-1.24,1.1-1.53,1.87c-0.21,0.54-0.7,0.9-1.28,0.9h-4.14c-0.89,0-1.57-0.85-1.33-1.72c0.58-2.12,1.77-3.87,3.57-5.24
				C237.97,19.22,240.86,18.36,244.37,18.36 M242.92,45.06c2.06,0,3.7-0.48,4.94-1.46c1.23-0.97,1.85-2.3,1.85-3.98v-2.39
				c0-0.76-0.61-1.37-1.37-1.37h-6.2c-1.42,0-2.56,0.41-3.42,1.23c-0.86,0.82-1.29,1.93-1.29,3.31c0,1.42,0.49,2.55,1.46,3.39
				C239.85,44.63,241.19,45.06,242.92,45.06 M244.37,17.86c-3.61,0-6.63,0.9-8.97,2.68c-1.88,1.43-3.14,3.28-3.75,5.5
				c-0.15,0.56-0.04,1.14,0.32,1.6c0.36,0.47,0.91,0.74,1.5,0.74h4.14c0.77,0,1.46-0.48,1.74-1.23c0.26-0.68,0.7-1.21,1.34-1.63
				c0.9-0.6,2.1-0.9,3.57-0.9c1.62,0,2.87,0.37,3.71,1.11c0.83,0.73,1.23,1.76,1.23,3.16v1.21c0,0.48-0.39,0.87-0.87,0.87h-6.32
				c-3.8,0-6.8,0.88-8.9,2.61c-2.13,1.76-3.21,4.27-3.21,7.48c0,2.98,0.98,5.37,2.91,7.13c1.92,1.74,4.52,2.63,7.74,2.63
				c2.55,0,4.73-0.56,6.47-1.68c1.03-0.66,1.83-1.46,2.4-2.4v1.65c0,1.03,0.84,1.87,1.87,1.87h4.05c1.03,0,1.87-0.84,1.87-1.87
				V28.85c0-3.46-1.15-6.2-3.43-8.12C251.53,18.82,248.36,17.86,244.37,17.86L244.37,17.86z M242.92,44.56
				c-1.59,0-2.84-0.38-3.71-1.14c-0.87-0.75-1.29-1.73-1.29-3.02c0-1.25,0.37-2.22,1.14-2.95c0.77-0.74,1.78-1.09,3.08-1.09h6.2
				c0.48,0,0.87,0.39,0.87,0.87v2.39c0,1.53-0.54,2.71-1.66,3.59C246.4,44.1,244.85,44.56,242.92,44.56L242.92,44.56z"/>
		</g>
		<g>
			<path class="st0" d="M282.48,50.02c-0.89,0-1.62-0.73-1.62-1.62V30.25c0-1.76-0.47-3.14-1.39-4.12
				c-0.92-0.97-2.24-1.46-3.91-1.46c-1.68,0-2.99,0.5-3.91,1.49c-0.92,0.99-1.39,2.44-1.39,4.32V48.4c0,0.89-0.73,1.62-1.62,1.62
				h-4.27c-0.89,0-1.62-0.73-1.62-1.62V20.29c0-0.89,0.73-1.62,1.62-1.62h4.11c0.89,0,1.62,0.73,1.62,1.62v2.87
				c0.46-1.33,1.22-2.43,2.29-3.29c1.46-1.17,3.38-1.77,5.71-1.77c3.13,0,5.65,1.05,7.51,3.11c1.85,2.06,2.79,4.85,2.79,8.3V48.4
				c0,0.89-0.73,1.62-1.62,1.62H282.48z"/>
			<path class="st1" d="M278.08,18.36c3.07,0,5.51,1.01,7.32,3.03c1.81,2.02,2.72,4.73,2.72,8.13V48.4c0,0.76-0.61,1.37-1.37,1.37
				h-4.28c-0.76,0-1.37-0.61-1.37-1.37V30.25c0-1.83-0.49-3.26-1.46-4.29c-0.97-1.03-2.34-1.54-4.09-1.54
				c-1.76,0-3.12,0.52-4.09,1.57c-0.97,1.05-1.46,2.54-1.46,4.49V48.4c0,0.76-0.61,1.37-1.37,1.37h-4.28
				c-0.76,0-1.37-0.61-1.37-1.37V20.29c0-0.76,0.61-1.37,1.37-1.37h4.11c0.76,0,1.37,0.61,1.37,1.37v4.52h0.11
				c0.3-2.02,1.16-3.6,2.58-4.74C273.95,18.93,275.8,18.36,278.08,18.36 M278.08,17.86c-2.39,0-4.36,0.61-5.87,1.82
				c-0.78,0.63-1.41,1.39-1.88,2.27v-1.66c0-1.03-0.84-1.87-1.87-1.87h-4.11c-1.03,0-1.87,0.84-1.87,1.87V48.4
				c0,1.03,0.84,1.87,1.87,1.87h4.28c1.03,0,1.87-0.84,1.87-1.87V30.47c0-1.81,0.45-3.2,1.32-4.15c0.88-0.95,2.1-1.41,3.73-1.41
				c1.63,0,2.85,0.45,3.73,1.39c0.88,0.93,1.32,2.26,1.32,3.95V48.4c0,1.03,0.84,1.87,1.87,1.87h4.28c1.03,0,1.87-0.84,1.87-1.87
				V29.52c0-3.51-0.96-6.36-2.85-8.47C283.87,18.93,281.28,17.86,278.08,17.86L278.08,17.86z"/>
		</g>
		<g>
			<path class="st0" d="M295.83,50.02c-0.89,0-1.62-0.73-1.62-1.62v-4.45c0-0.39,0.14-0.77,0.4-1.07l13.77-15.68
				c0.29-0.33,0.36-0.79,0.18-1.2c-0.18-0.4-0.57-0.66-1.02-0.66h-11.2c-0.89,0-1.62-0.73-1.62-1.62v-3.43
				c0-0.89,0.73-1.62,1.62-1.62h21.05c0.89,0,1.62,0.73,1.62,1.62v4.45c0,0.4-0.14,0.78-0.41,1.07l-13.9,15.68
				c-0.3,0.33-0.37,0.79-0.18,1.2c0.18,0.41,0.57,0.66,1.02,0.66H318c0.89,0,1.62,0.73,1.62,1.62v3.43c0,0.89-0.73,1.62-1.62,1.62
				H295.83z"/>
			<path class="st1" d="M317.38,18.92c0.76,0,1.37,0.61,1.37,1.37v4.45c0,0.33-0.12,0.66-0.34,0.91l-13.9,15.68
				c-0.78,0.88-0.16,2.28,1.02,2.28h12.47c0.76,0,1.37,0.61,1.37,1.37v3.43c0,0.76-0.61,1.37-1.37,1.37h-22.17
				c-0.76,0-1.37-0.61-1.37-1.37v-4.45c0-0.33,0.12-0.65,0.34-0.9l13.76-15.68c0.78-0.88,0.15-2.27-1.03-2.27h-11.2
				c-0.76,0-1.37-0.61-1.37-1.37v-3.43c0-0.76,0.61-1.37,1.37-1.37H317.38 M317.38,18.42h-21.05c-1.03,0-1.87,0.84-1.87,1.87v3.43
				c0,1.03,0.84,1.87,1.87,1.87h11.2c0.35,0,0.65,0.19,0.79,0.51c0.14,0.32,0.09,0.67-0.14,0.93l-13.76,15.68
				c-0.3,0.34-0.46,0.78-0.46,1.23v4.45c0,1.03,0.84,1.87,1.87,1.87h22.17c1.03,0,1.87-0.84,1.87-1.87v-3.43
				c0-1.03-0.84-1.87-1.87-1.87h-12.47c-0.35,0-0.65-0.19-0.79-0.51c-0.14-0.32-0.09-0.67,0.14-0.93l13.9-15.68
				c0.3-0.34,0.47-0.78,0.47-1.24v-4.45C319.25,19.26,318.41,18.42,317.38,18.42L317.38,18.42z"/>
		</g>
		<g>
			<path class="st0" d="M338.38,50.58c-2.65,0-4.98-0.52-6.93-1.54c-1.96-1.03-3.49-2.48-4.56-4.33c-1.06-1.84-1.6-4.03-1.6-6.49
				v-7.74c0-2.46,0.54-4.65,1.6-6.49c1.07-1.85,2.61-3.31,4.59-4.33c1.97-1.02,4.29-1.54,6.9-1.54c2.61,0,4.91,0.52,6.85,1.54
				c1.94,1.03,3.46,2.48,4.53,4.33c1.06,1.85,1.6,4.03,1.6,6.49v4.19c0,0.89-0.73,1.62-1.62,1.62h-16.11c-0.62,0-1.12,0.5-1.12,1.12
				v0.82c0,4.25,1.94,6.31,5.92,6.31c1.52,0,2.74-0.26,3.63-0.78c0.65-0.38,1.13-0.89,1.43-1.53c0.25-0.54,0.82-0.89,1.43-0.89h4.19
				c0.54,0,1.05,0.27,1.36,0.72c0.3,0.44,0.36,0.96,0.17,1.44c-0.73,1.86-2,3.43-3.77,4.66C344.56,49.76,341.7,50.58,338.38,50.58z
				 M338.38,24.05c-1.94,0-3.41,0.55-4.39,1.63c-0.98,1.09-1.48,2.7-1.48,4.8v0.93l11.61-0.11v-0.88c0-2.1-0.49-3.7-1.45-4.77
				C341.72,24.59,340.27,24.05,338.38,24.05z"/>
			<path class="st1" d="M338.38,18.36c2.58,0,4.82,0.5,6.73,1.51c1.91,1.01,3.38,2.42,4.43,4.23c1.05,1.81,1.57,3.94,1.57,6.37v4.19
				c0,0.76-0.61,1.37-1.37,1.37h-16.11c-0.76,0-1.37,0.61-1.37,1.37v0.82c0,4.38,2.06,6.56,6.17,6.56c1.57,0,2.82-0.27,3.76-0.81
				c0.7-0.4,1.21-0.95,1.53-1.64c0.22-0.46,0.7-0.74,1.21-0.74h4.19c0.94,0,1.64,0.94,1.3,1.82c-0.72,1.82-1.94,3.34-3.68,4.55
				c-2.28,1.59-5.07,2.38-8.36,2.38c-2.62,0-4.89-0.5-6.81-1.51c-1.93-1.01-3.41-2.42-4.46-4.23c-1.05-1.81-1.57-3.93-1.57-6.37
				v-7.74c0-2.43,0.52-4.55,1.57-6.37c1.05-1.81,2.54-3.23,4.49-4.23C333.53,18.86,335.8,18.36,338.38,18.36 M332.26,31.65
				l12.11-0.11v-1.12c0-2.17-0.5-3.81-1.51-4.94c-1.01-1.12-2.51-1.68-4.49-1.68c-2.02,0-3.54,0.57-4.57,1.71
				c-1.03,1.14-1.54,2.79-1.54,4.96V31.65 M338.38,17.86c-2.65,0-5.01,0.53-7.02,1.57c-2.02,1.05-3.6,2.54-4.69,4.43
				c-1.09,1.88-1.64,4.11-1.64,6.62v7.74c0,2.51,0.55,4.74,1.64,6.62c1.09,1.89,2.66,3.38,4.66,4.43c1.99,1.04,4.36,1.57,7.05,1.57
				c3.38,0,6.29-0.83,8.64-2.47c1.81-1.26,3.1-2.86,3.86-4.77c0.22-0.56,0.15-1.17-0.2-1.67c-0.35-0.52-0.94-0.83-1.57-0.83h-4.19
				c-0.71,0-1.36,0.4-1.66,1.03c-0.28,0.6-0.72,1.06-1.33,1.42c-0.85,0.5-2.03,0.75-3.51,0.75c-3.81,0-5.67-1.98-5.67-6.06v-0.82
				c0-0.48,0.39-0.87,0.87-0.87h16.11c1.03,0,1.87-0.84,1.87-1.87v-4.19c0-2.5-0.55-4.73-1.64-6.62c-1.09-1.89-2.65-3.38-4.63-4.43
				C343.37,18.39,341.03,17.86,338.38,17.86L338.38,17.86z M332.76,31.15v-0.67c0-2.03,0.48-3.59,1.41-4.63
				c0.93-1.03,2.34-1.55,4.2-1.55c1.82,0,3.21,0.51,4.12,1.52c0.92,1.02,1.39,2.57,1.39,4.6v0.63L332.76,31.15L332.76,31.15z"/>
		</g>
	</g>
	<g>
		<g>
			<path class="st0" d="M26.41,45.47c-0.72,0-1.34-0.46-1.55-1.15l-0.38-1.23c-0.23-0.75,0.11-1.56,0.82-1.92l0.9-0.46
				c0.23-0.11,0.48-0.17,0.73-0.17c0.51,0,0.99,0.24,1.3,0.65l0.77,1.04c0.29,0.38,0.39,0.87,0.28,1.34s-0.42,0.86-0.84,1.07
				l-1.3,0.66C26.91,45.41,26.67,45.47,26.41,45.47z"/>
			<path class="st1" d="M26.94,40.8c0.42,0,0.83,0.19,1.1,0.55l0.77,1.04c0.51,0.68,0.28,1.65-0.48,2.04l-1.3,0.66
				c-0.2,0.1-0.41,0.15-0.62,0.15c-0.58,0-1.13-0.37-1.31-0.97l-0.38-1.23c-0.19-0.64,0.1-1.32,0.69-1.62l0.9-0.46
				C26.52,40.84,26.73,40.8,26.94,40.8 M26.94,40.3C26.94,40.3,26.94,40.3,26.94,40.3c-0.29,0-0.58,0.07-0.84,0.2l-0.9,0.46
				c-0.81,0.41-1.21,1.34-0.94,2.21l0.38,1.23c0.24,0.79,0.96,1.32,1.79,1.32c0.29,0,0.58-0.07,0.84-0.2l1.3-0.66
				c0.49-0.25,0.85-0.7,0.98-1.24c0.13-0.54,0.01-1.1-0.32-1.54l-0.77-1.04C28.08,40.58,27.52,40.3,26.94,40.3L26.94,40.3z"/>
		</g>
		<g>
			<path class="st0" d="M39.33,33.8c-0.5,0-0.99-0.24-1.29-0.64l-0.62-0.83c-0.48-0.63-0.43-1.51,0.11-2.09l0.9-0.95
				c0.31-0.33,0.73-0.51,1.18-0.51c0.51,0,0.98,0.23,1.29,0.64l0.89,1.18c0.29,0.38,0.39,0.87,0.29,1.33s-0.41,0.86-0.83,1.08
				l-1.16,0.6C39.85,33.74,39.59,33.8,39.33,33.8z"/>
			<path class="st1" d="M39.61,29.04c0.41,0,0.82,0.18,1.09,0.54l0.89,1.18c0.51,0.68,0.29,1.65-0.46,2.04l-1.16,0.6
				c-0.2,0.1-0.42,0.15-0.63,0.15c-0.42,0-0.83-0.19-1.09-0.54l-0.62-0.83c-0.4-0.53-0.36-1.28,0.1-1.76l0.9-0.95
				C38.89,29.18,39.25,29.04,39.61,29.04 M39.61,28.54C39.61,28.54,39.61,28.54,39.61,28.54c-0.52,0-1,0.21-1.36,0.59l-0.9,0.95
				c-0.63,0.67-0.68,1.68-0.13,2.41l0.62,0.83c0.35,0.46,0.91,0.74,1.49,0.74c0.3,0,0.6-0.07,0.86-0.21l1.16-0.6
				c0.49-0.25,0.84-0.71,0.96-1.24c0.12-0.54,0-1.1-0.33-1.54l-0.89-1.18C40.74,28.81,40.2,28.54,39.61,28.54L39.61,28.54z"/>
		</g>
		<g>
			<path class="st0" d="M25.4,22.87c-0.32,0-0.62-0.09-0.89-0.27l-1.13-0.74c-0.4-0.26-0.66-0.68-0.72-1.16s0.09-0.94,0.42-1.29
				l1.03-1.12c0.31-0.34,0.73-0.52,1.19-0.52c0.5,0,0.97,0.23,1.28,0.63l0.83,1.07c0.49,0.63,0.45,1.51-0.09,2.09l-0.73,0.79
				C26.28,22.68,25.85,22.87,25.4,22.87z"/>
			<path class="st1" d="M25.3,18.03c0.41,0,0.81,0.18,1.08,0.53l0.83,1.07c0.41,0.53,0.38,1.28-0.08,1.77l-0.73,0.79
				c-0.27,0.29-0.63,0.44-1.01,0.44c-0.26,0-0.52-0.07-0.75-0.22l-1.13-0.74c-0.71-0.46-0.83-1.45-0.25-2.07l1.03-1.12
				C24.57,18.17,24.93,18.03,25.3,18.03 M25.3,17.53L25.3,17.53c-0.52,0-1.02,0.22-1.37,0.6l-1.03,1.12
				c-0.37,0.4-0.55,0.95-0.48,1.5c0.07,0.55,0.37,1.03,0.83,1.33l1.13,0.74c0.31,0.2,0.66,0.31,1.02,0.31c0.52,0,1.02-0.22,1.37-0.6
				l0.73-0.79c0.62-0.67,0.67-1.69,0.1-2.41l-0.83-1.07C26.42,17.79,25.88,17.53,25.3,17.53L25.3,17.53z"/>
		</g>
		<g>
			<path class="st0" d="M16.94,39.7c-0.31,0-0.61-0.09-0.87-0.25l-1.33-0.85c-0.4-0.26-0.67-0.67-0.73-1.14
				c-0.06-0.47,0.08-0.95,0.4-1.3l0.94-1.05c0.31-0.34,0.75-0.54,1.21-0.54c0.31,0,0.61,0.09,0.87,0.25l0.95,0.6
				c0.67,0.43,0.93,1.27,0.62,2l-0.55,1.29C18.18,39.32,17.59,39.7,16.94,39.7z"/>
			<path class="st1" d="M16.55,34.82c0.25,0,0.51,0.07,0.73,0.21l0.95,0.6c0.56,0.36,0.79,1.08,0.52,1.69l-0.55,1.29
				c-0.23,0.53-0.73,0.83-1.26,0.83c-0.25,0-0.5-0.07-0.73-0.21l-1.33-0.85c-0.71-0.45-0.85-1.44-0.28-2.07l0.94-1.05
				C15.8,34.97,16.17,34.82,16.55,34.82 M16.55,34.32c-0.53,0-1.04,0.23-1.39,0.62l-0.94,1.05c-0.37,0.41-0.53,0.96-0.46,1.5
				c0.07,0.54,0.38,1.03,0.85,1.32l1.33,0.85c0.3,0.19,0.65,0.29,1,0.29c0.75,0,1.42-0.44,1.72-1.13l0.55-1.29
				c0.36-0.84,0.06-1.82-0.71-2.31l-0.95-0.6C17.25,34.42,16.91,34.32,16.55,34.32L16.55,34.32z"/>
		</g>
		<g>
			<path class="st0" d="M35.68,45.5c-0.3,0-0.59-0.08-0.84-0.24l-1.26-0.77c-0.68-0.42-0.95-1.25-0.65-1.99l0.45-1.09
				c0.25-0.61,0.84-1.01,1.5-1.01c0.12,0,0.25,0.01,0.36,0.04l1.44,0.33c0.46,0.11,0.85,0.41,1.07,0.83s0.24,0.92,0.06,1.36
				l-0.63,1.53C36.93,45.1,36.34,45.5,35.68,45.5z"/>
			<path class="st1" d="M34.87,40.65c0.1,0,0.21,0.01,0.31,0.04l1.44,0.33c0.82,0.19,1.28,1.07,0.96,1.85l-0.63,1.53
				c-0.22,0.54-0.73,0.85-1.27,0.85c-0.24,0-0.49-0.06-0.71-0.2l-1.26-0.77c-0.57-0.35-0.81-1.06-0.55-1.68l0.45-1.09
				C33.82,40.97,34.33,40.65,34.87,40.65 M34.87,40.15C34.87,40.15,34.87,40.15,34.87,40.15c-0.76,0-1.44,0.46-1.73,1.16L32.7,42.4
				c-0.35,0.85-0.03,1.82,0.75,2.3l1.26,0.77c0.29,0.18,0.63,0.28,0.97,0.28c0.76,0,1.44-0.46,1.73-1.16l0.63-1.53
				c0.21-0.51,0.18-1.08-0.07-1.57c-0.25-0.49-0.7-0.84-1.24-0.96l-1.44-0.33C35.16,40.16,35.02,40.15,34.87,40.15L34.87,40.15z"/>
		</g>
		<g>
			<path class="st0" d="M38.24,25.15c-0.11,0-0.23-0.01-0.34-0.04l-1.23-0.26c-0.78-0.17-1.32-0.87-1.28-1.66l0.08-1.55
				c0.04-0.86,0.75-1.54,1.61-1.54c0.11,0,0.23,0.01,0.34,0.04l1.71,0.36c0.46,0.1,0.86,0.4,1.09,0.81
				c0.23,0.42,0.26,0.91,0.09,1.35l-0.56,1.45C39.51,24.74,38.9,25.15,38.24,25.15z"/>
			<path class="st1" d="M37.09,20.35c0.09,0,0.19,0.01,0.29,0.03l1.71,0.36c0.82,0.18,1.29,1.05,0.99,1.83l-0.56,1.45
				c-0.21,0.54-0.72,0.87-1.28,0.87c-0.09,0-0.19-0.01-0.29-0.03l-1.23-0.26c-0.66-0.14-1.11-0.74-1.08-1.41l0.08-1.55
				C35.76,20.91,36.37,20.35,37.09,20.35 M37.09,19.85C37.09,19.85,37.09,19.85,37.09,19.85c-1,0-1.81,0.78-1.86,1.78l-0.08,1.55
				c-0.05,0.92,0.58,1.73,1.48,1.92l1.23,0.26c0.13,0.03,0.26,0.04,0.39,0.04c0.77,0,1.47-0.48,1.74-1.19l0.56-1.45
				c0.2-0.51,0.16-1.08-0.1-1.56c-0.26-0.48-0.72-0.82-1.25-0.94l-1.71-0.36C37.35,19.87,37.22,19.85,37.09,19.85L37.09,19.85z"/>
		</g>
		<g>
			<path class="st0" d="M15.85,26.38c-0.43,0-0.86-0.18-1.16-0.49c-0.31-0.32-0.47-0.73-0.46-1.18l0.06-1.85
				c0.03-0.88,0.74-1.57,1.61-1.57c0.1,0,0.2,0.01,0.31,0.03l1.62,0.31c0.78,0.15,1.34,0.84,1.31,1.64L19.1,24.6
				c-0.02,0.8-0.62,1.45-1.41,1.56l-1.63,0.21C15.99,26.37,15.92,26.38,15.85,26.38z"/>
			<path class="st1" d="M15.91,21.54c0.09,0,0.17,0.01,0.26,0.02l1.62,0.31c0.66,0.13,1.13,0.71,1.11,1.38l-0.04,1.33
				c-0.02,0.67-0.53,1.23-1.19,1.32l-1.63,0.21c-0.06,0.01-0.12,0.01-0.18,0.01c-0.76,0-1.39-0.63-1.36-1.41l0.06-1.85
				C14.56,22.11,15.18,21.54,15.91,21.54 M15.91,21.04C15.91,21.04,15.91,21.04,15.91,21.04c-1.01,0-1.83,0.8-1.86,1.81l-0.06,1.85
				c-0.02,0.51,0.17,0.99,0.53,1.36c0.35,0.36,0.84,0.57,1.34,0.57c0.08,0,0.16-0.01,0.24-0.02l1.63-0.21
				c0.92-0.12,1.6-0.87,1.63-1.8l0.04-1.33c0.03-0.92-0.61-1.72-1.52-1.89l-1.62-0.31C16.14,21.05,16.02,21.04,15.91,21.04
				L15.91,21.04z"/>
		</g>
		<g>
			<path class="st0" d="M20.94,47.8c-0.43,0-0.84-0.17-1.15-0.48c-0.31-0.31-0.47-0.72-0.47-1.15l0.01-1.75
				c0.01-0.8,0.59-1.47,1.38-1.59l1.4-0.21c0.08-0.01,0.16-0.02,0.24-0.02c0.71,0,1.33,0.45,1.54,1.13l0.53,1.67
				c0.14,0.45,0.08,0.94-0.17,1.34c-0.25,0.4-0.66,0.67-1.13,0.74l-1.94,0.29C21.11,47.8,21.02,47.8,20.94,47.8z"/>
			<path class="st1" d="M22.36,42.86c0.59,0,1.12,0.38,1.3,0.96l0.53,1.66c0.25,0.8-0.27,1.64-1.1,1.77l-1.94,0.29
				c-0.07,0.01-0.14,0.02-0.21,0.02c-0.74,0-1.37-0.61-1.37-1.38l0.01-1.75c0.01-0.67,0.5-1.24,1.16-1.34l1.4-0.21
				C22.23,42.86,22.3,42.86,22.36,42.86 M22.36,42.36c-0.09,0-0.19,0.01-0.28,0.02l-1.4,0.21c-0.91,0.14-1.58,0.91-1.59,1.83
				l-0.01,1.75c0,0.5,0.19,0.97,0.54,1.33c0.35,0.36,0.82,0.55,1.32,0.55c0.09,0,0.19-0.01,0.28-0.02l1.94-0.29
				c0.54-0.08,1.02-0.39,1.31-0.86c0.29-0.46,0.36-1.03,0.2-1.55l-0.53-1.66C23.9,42.88,23.18,42.36,22.36,42.36L22.36,42.36z"/>
		</g>
		<g>
			<path class="st0" d="M42,38.69c-0.69,0-1.31-0.44-1.53-1.1l-0.49-1.43c-0.26-0.76,0.07-1.58,0.78-1.95l1.64-0.86
				c0.23-0.12,0.49-0.19,0.75-0.19c0.69,0,1.31,0.44,1.53,1.1l0.67,1.98c0.15,0.45,0.1,0.94-0.14,1.35
				c-0.24,0.41-0.65,0.69-1.11,0.77l-1.83,0.32C42.19,38.68,42.1,38.69,42,38.69z"/>
			<path class="st1" d="M43.16,33.4c0.56,0,1.1,0.35,1.3,0.93l0.67,1.98c0.27,0.8-0.23,1.64-1.06,1.79l-1.83,0.32
				c-0.08,0.01-0.16,0.02-0.24,0.02c-0.58,0-1.1-0.37-1.29-0.93l-0.49-1.43c-0.22-0.64,0.06-1.34,0.66-1.65l1.64-0.86
				C42.73,33.45,42.95,33.4,43.16,33.4 M43.16,32.9C43.16,32.9,43.16,32.9,43.16,32.9c-0.3,0-0.6,0.07-0.87,0.22l-1.64,0.86
				c-0.82,0.43-1.2,1.38-0.9,2.26l0.49,1.43c0.26,0.76,0.97,1.27,1.77,1.27c0.11,0,0.21-0.01,0.32-0.03l1.83-0.32
				c0.54-0.09,1.01-0.42,1.29-0.89c0.28-0.47,0.34-1.04,0.16-1.55l-0.67-1.98C44.67,33.41,43.96,32.9,43.16,32.9L43.16,32.9z"/>
		</g>
		<g>
			<path class="st0" d="M29.26,19.35c-0.5,0-0.97-0.23-1.28-0.62l-1.21-1.56c-0.29-0.37-0.4-0.85-0.31-1.32
				c0.09-0.46,0.39-0.86,0.8-1.09l1.94-1.08c0.24-0.13,0.51-0.21,0.79-0.21c0.68,0,1.29,0.43,1.52,1.06l0.68,1.85
				c0.28,0.75-0.03,1.58-0.73,1.97l-1.41,0.79C29.81,19.28,29.54,19.35,29.26,19.35z"/>
			<path class="st1" d="M29.99,13.73c0.55,0,1.08,0.33,1.28,0.89l0.68,1.85c0.23,0.63-0.03,1.34-0.62,1.67l-1.41,0.79
				c-0.21,0.12-0.44,0.17-0.66,0.17c-0.41,0-0.81-0.18-1.08-0.53l-1.21-1.56c-0.52-0.66-0.32-1.63,0.41-2.04l1.94-1.08
				C29.54,13.78,29.77,13.73,29.99,13.73 M29.99,13.23C29.99,13.23,29.99,13.23,29.99,13.23c-0.32,0-0.63,0.08-0.91,0.24l-1.94,1.08
				c-0.48,0.27-0.81,0.72-0.92,1.26c-0.11,0.54,0.02,1.09,0.36,1.52l1.21,1.56c0.36,0.46,0.89,0.72,1.47,0.72
				c0.32,0,0.63-0.08,0.91-0.24l1.41-0.79c0.81-0.45,1.17-1.41,0.84-2.28l-0.68-1.85C31.47,13.72,30.77,13.23,29.99,13.23
				L29.99,13.23z"/>
		</g>
		<g>
			<path class="st0" d="M11.91,36.65c-0.49,0-0.94-0.22-1.25-0.59l-1.5-1.83c-0.3-0.36-0.42-0.84-0.34-1.31s0.36-0.87,0.77-1.11
				l1.81-1.07c0.25-0.15,0.54-0.23,0.83-0.23c0.49,0,0.94,0.22,1.25,0.59l1.1,1.33c0.51,0.62,0.49,1.51-0.04,2.11l-1.4,1.57
				C12.81,36.45,12.37,36.65,11.91,36.65z"/>
			<path class="st1" d="M12.22,30.76c0.4,0,0.79,0.17,1.06,0.5l1.1,1.33c0.43,0.52,0.41,1.28-0.04,1.78l-1.4,1.57
				c-0.27,0.3-0.65,0.45-1.02,0.45c-0.39,0-0.78-0.17-1.06-0.5l-1.5-1.83c-0.53-0.65-0.36-1.62,0.36-2.04l1.81-1.07
				C11.74,30.82,11.98,30.76,12.22,30.76 M12.22,30.26C12.22,30.26,12.22,30.26,12.22,30.26c-0.33,0-0.66,0.09-0.95,0.26L9.46,31.6
				c-0.47,0.28-0.79,0.75-0.89,1.28c-0.09,0.54,0.05,1.09,0.4,1.51l1.5,1.83c0.36,0.43,0.88,0.68,1.44,0.68
				c0.53,0,1.04-0.23,1.39-0.62l1.4-1.57c0.62-0.69,0.64-1.72,0.05-2.43l-1.1-1.33C13.31,30.51,12.78,30.26,12.22,30.26L12.22,30.26
				z"/>
		</g>
		<g>
			<path class="st0" d="M32.48,51.49c-0.47,0-0.91-0.2-1.22-0.56l-1.47-1.69c-0.53-0.61-0.54-1.49-0.02-2.11l1.19-1.41
				c0.31-0.36,0.76-0.57,1.24-0.57c0.3,0,0.59,0.08,0.85,0.24l1.91,1.18c0.4,0.25,0.67,0.66,0.75,1.12c0.07,0.47-0.06,0.94-0.36,1.3
				l-1.63,1.92C33.41,51.28,32.96,51.49,32.48,51.49z"/>
			<path class="st1" d="M32.2,45.41c0.25,0,0.49,0.07,0.72,0.2l1.91,1.18c0.71,0.44,0.87,1.41,0.33,2.05l-1.63,1.92
				c-0.27,0.32-0.66,0.48-1.04,0.48c-0.38,0-0.76-0.16-1.03-0.47l-1.47-1.69c-0.44-0.51-0.45-1.27-0.01-1.78l1.19-1.41
				C31.43,45.57,31.81,45.41,32.2,45.41 M32.2,44.91C32.2,44.91,32.2,44.91,32.2,44.91c-0.55,0-1.07,0.24-1.43,0.66l-1.19,1.41
				c-0.6,0.71-0.59,1.73,0.02,2.43l1.47,1.69c0.35,0.41,0.87,0.64,1.41,0.64c0.55,0,1.07-0.24,1.42-0.66l1.63-1.92
				c0.35-0.42,0.51-0.96,0.42-1.5c-0.09-0.54-0.4-1.01-0.86-1.3l-1.91-1.18C32.89,45,32.55,44.91,32.2,44.91L32.2,44.91z"/>
		</g>
		<g>
			<path class="st0" d="M43.96,27.79c-0.28,0-0.56-0.08-0.81-0.22l-1.7-0.98c-0.7-0.4-0.99-1.24-0.7-1.99l0.87-2.22
				c0.25-0.62,0.84-1.03,1.51-1.03c0.28,0,0.56,0.08,0.81,0.22l2.32,1.34c0.41,0.24,0.69,0.64,0.78,1.1s-0.03,0.94-0.32,1.31
				l-1.48,1.86C44.92,27.57,44.46,27.79,43.96,27.79z"/>
			<path class="st1" d="M43.13,21.6c0.23,0,0.47,0.06,0.68,0.18l2.32,1.34c0.72,0.42,0.91,1.38,0.39,2.04l-1.48,1.86
				c-0.27,0.34-0.67,0.52-1.07,0.52c-0.23,0-0.47-0.06-0.68-0.18l-1.7-0.98c-0.59-0.34-0.84-1.05-0.59-1.68l0.87-2.22
				C42.07,21.92,42.59,21.6,43.13,21.6 M43.13,21.1C43.13,21.1,43.13,21.1,43.13,21.1c-0.77,0-1.46,0.47-1.74,1.19l-0.87,2.22
				c-0.34,0.87,0,1.83,0.8,2.3l1.7,0.98c0.28,0.16,0.61,0.25,0.93,0.25c0.57,0,1.11-0.26,1.46-0.7l1.48-1.86
				c0.34-0.43,0.48-0.98,0.37-1.51c-0.1-0.53-0.43-1-0.9-1.27l-2.32-1.34C43.78,21.19,43.45,21.1,43.13,21.1L43.13,21.1z"/>
		</g>
		<g>
			<path class="st0" d="M18.54,20.56c-0.1,0-0.21-0.01-0.32-0.03l-2.48-0.49c-0.46-0.09-0.86-0.38-1.09-0.79
				c-0.23-0.41-0.27-0.9-0.12-1.34l0.96-2.68c0.23-0.64,0.84-1.07,1.53-1.07c0.26,0,0.53,0.07,0.76,0.19l2.23,1.19
				c0.7,0.37,1.03,1.22,0.76,1.97l-0.71,1.98C19.83,20.13,19.22,20.56,18.54,20.56z"/>
			<path class="st1" d="M17.01,14.4c0.22,0,0.44,0.05,0.64,0.16l2.23,1.19c0.6,0.32,0.87,1.03,0.64,1.67l-0.71,1.98
				c-0.2,0.55-0.72,0.91-1.29,0.91c-0.09,0-0.18-0.01-0.27-0.03l-2.48-0.49c-0.82-0.16-1.3-1.02-1.02-1.8l0.96-2.68
				C15.93,14.74,16.46,14.4,17.01,14.4 M17.01,13.9C17.01,13.9,17.01,13.9,17.01,13.9c-0.79,0-1.5,0.5-1.76,1.24l-0.96,2.68
				c-0.18,0.51-0.13,1.08,0.13,1.55c0.27,0.47,0.73,0.81,1.26,0.91l2.48,0.49c0.12,0.02,0.24,0.04,0.37,0.04
				c0.79,0,1.49-0.5,1.76-1.24L21,17.59c0.31-0.86-0.07-1.84-0.88-2.28l-2.23-1.19C17.62,13.98,17.32,13.9,17.01,13.9L17.01,13.9z"
				/>
		</g>
		<g>
			<path class="st0" d="M16.5,48.4c-0.09,0-0.18-0.01-0.27-0.02l-2.98-0.49c-0.46-0.08-0.87-0.35-1.12-0.75
				c-0.25-0.4-0.31-0.89-0.16-1.34l0.81-2.56c0.21-0.67,0.83-1.13,1.54-1.13c0.09,0,0.18,0.01,0.26,0.02l2.22,0.36
				c0.79,0.13,1.37,0.83,1.36,1.63l-0.05,2.69C18.1,47.69,17.38,48.4,16.5,48.4z"/>
			<path class="st1" d="M14.33,42.36c0.07,0,0.15,0.01,0.22,0.02l2.22,0.36c0.67,0.11,1.16,0.7,1.15,1.37l-0.05,2.69
				c-0.01,0.76-0.63,1.34-1.37,1.34c-0.07,0-0.15-0.01-0.22-0.02l-2.98-0.49c-0.82-0.14-1.33-0.97-1.08-1.76l0.81-2.56
				C13.21,42.74,13.74,42.36,14.33,42.36 M14.33,41.86c-0.82,0-1.53,0.52-1.78,1.3l-0.81,2.56c-0.16,0.52-0.1,1.08,0.19,1.54
				c0.28,0.46,0.75,0.78,1.29,0.87l2.98,0.49c0.1,0.02,0.21,0.03,0.31,0.03c1.01,0,1.85-0.82,1.87-1.83l0.05-2.69
				c0.02-0.92-0.66-1.73-1.56-1.88l-2.22-0.36C14.53,41.87,14.43,41.86,14.33,41.86L14.33,41.86z"/>
		</g>
		<g>
			<path class="st0" d="M45.64,45.89c-0.07,0-0.14,0-0.21-0.01l-2.83-0.36c-0.79-0.1-1.4-0.78-1.42-1.58l-0.04-2.39
				c-0.01-0.8,0.57-1.5,1.36-1.63l2.81-0.45c0.09-0.01,0.17-0.02,0.26-0.02c0.88,0,1.6,0.71,1.61,1.59l0.05,3.2
				c0.01,0.44-0.16,0.85-0.46,1.16C46.49,45.72,46.08,45.89,45.64,45.89z"/>
			<path class="st1" d="M45.59,39.71c0.73,0,1.35,0.59,1.37,1.34l0.05,3.2c0.01,0.77-0.61,1.39-1.37,1.39c-0.06,0-0.12,0-0.17-0.01
				l-2.83-0.36c-0.67-0.09-1.18-0.65-1.2-1.33l-0.04-2.39c-0.01-0.68,0.48-1.27,1.15-1.37l2.81-0.45
				C45.44,39.71,45.52,39.71,45.59,39.71 M45.59,39.21C45.59,39.21,45.59,39.21,45.59,39.21c-0.1,0-0.2,0.01-0.3,0.02l-2.81,0.45
				c-0.91,0.15-1.59,0.95-1.57,1.88l0.04,2.39c0.02,0.92,0.72,1.7,1.63,1.82l2.83,0.36c0.08,0.01,0.16,0.01,0.24,0.01
				c0.5,0,0.98-0.2,1.33-0.56c0.35-0.36,0.54-0.84,0.54-1.34l-0.05-3.2C47.44,40.03,46.6,39.21,45.59,39.21L45.59,39.21z"/>
		</g>
		<g>
			<path class="st0" d="M35.06,17.51c-0.69,0-1.3-0.44-1.53-1.08l-1-2.85c-0.16-0.44-0.11-0.93,0.12-1.34
				c0.23-0.41,0.63-0.69,1.09-0.79l3.32-0.66c0.11-0.02,0.21-0.03,0.32-0.03c0.86,0,1.56,0.67,1.61,1.53l0.17,3.02
				c0.05,0.8-0.51,1.52-1.3,1.68l-2.5,0.5C35.27,17.5,35.16,17.51,35.06,17.51z"/>
			<path class="st1" d="M37.38,11.01c0.71,0,1.32,0.55,1.36,1.29l0.17,3.02c0.04,0.68-0.43,1.29-1.1,1.42l-2.5,0.5
				c-0.09,0.02-0.18,0.03-0.27,0.03c-0.57,0-1.09-0.36-1.29-0.92l-1-2.85c-0.28-0.78,0.21-1.63,1.02-1.79l3.32-0.66
				C37.2,11.02,37.29,11.01,37.38,11.01 M37.38,10.51c-0.12,0-0.25,0.01-0.37,0.04l-3.32,0.66c-0.53,0.11-0.99,0.44-1.26,0.91
				c-0.27,0.47-0.32,1.03-0.14,1.54l1,2.85c0.26,0.75,0.97,1.25,1.76,1.25c0.12,0,0.25-0.01,0.37-0.04l2.5-0.5
				c0.91-0.18,1.55-1.01,1.5-1.94l-0.17-3.02C39.19,11.28,38.37,10.51,37.38,10.51L37.38,10.51z"/>
		</g>
		<g>
			<path class="st0" d="M7.71,31.13c-0.67,0-1.26-0.4-1.51-1.02l-1.32-3.33c-0.17-0.43-0.15-0.92,0.06-1.34
				c0.21-0.42,0.6-0.72,1.05-0.83l3.11-0.77c0.13-0.03,0.26-0.05,0.39-0.05c0.67,0,1.26,0.4,1.5,1.02l1,2.52
				c0.3,0.75-0.01,1.61-0.71,2.01L8.5,30.92C8.26,31.06,7.99,31.13,7.71,31.13z"/>
			<path class="st1" d="M9.49,24.05c0.55,0,1.06,0.33,1.27,0.86l1,2.52c0.25,0.64,0,1.36-0.6,1.7L8.38,30.7
				c-0.21,0.12-0.44,0.18-0.67,0.18c-0.54,0-1.06-0.32-1.27-0.86l-1.32-3.33c-0.31-0.77,0.14-1.63,0.94-1.83l3.11-0.77
				C9.27,24.06,9.38,24.05,9.49,24.05 M9.49,23.55C9.49,23.55,9.49,23.55,9.49,23.55c-0.15,0-0.3,0.02-0.45,0.05l-3.11,0.77
				c-0.52,0.13-0.97,0.48-1.21,0.96c-0.25,0.48-0.27,1.04-0.08,1.54l1.32,3.33c0.28,0.72,0.97,1.18,1.74,1.18
				c0.32,0,0.64-0.08,0.92-0.24l2.78-1.58c0.81-0.46,1.16-1.45,0.82-2.32l-1-2.52C10.94,24.01,10.26,23.55,9.49,23.55L9.49,23.55z"
				/>
		</g>
		<g>
			<path class="st0" d="M26.07,56.78c-0.64,0-1.21-0.37-1.48-0.95l-1.4-3.08c-0.33-0.73-0.07-1.61,0.61-2.04l2.44-1.53
				c0.26-0.16,0.55-0.25,0.86-0.25c0.48,0,0.94,0.21,1.25,0.59l2.16,2.61c0.3,0.36,0.43,0.83,0.35,1.29
				c-0.07,0.46-0.34,0.87-0.74,1.11l-3.2,2C26.67,56.7,26.37,56.78,26.07,56.78z"/>
			<path class="st1" d="M27.12,49.19c0.4,0,0.79,0.17,1.05,0.5l2.16,2.61c0.53,0.64,0.37,1.59-0.33,2.03l-3.2,2
				c-0.23,0.14-0.48,0.21-0.72,0.21c-0.52,0-1.02-0.29-1.25-0.8l-1.4-3.08c-0.28-0.62-0.06-1.36,0.52-1.72l2.44-1.53
				C26.61,49.25,26.87,49.19,27.12,49.19 M27.12,48.69c-0.35,0-0.69,0.1-0.99,0.28l-2.44,1.53c-0.79,0.49-1.1,1.51-0.71,2.35
				l1.4,3.08c0.3,0.67,0.97,1.1,1.7,1.1c0.35,0,0.69-0.1,0.99-0.28l3.2-2c0.46-0.29,0.77-0.75,0.85-1.29
				c0.09-0.53-0.06-1.07-0.41-1.49l-2.16-2.61C28.2,48.93,27.67,48.69,27.12,48.69L27.12,48.69z"/>
		</g>
		<g>
			<path class="st0" d="M48.98,33.54c-0.45,0-0.89-0.19-1.2-0.53l-2.07-2.26c-0.55-0.6-0.56-1.52-0.04-2.14l2.31-2.73
				c0.31-0.36,0.76-0.57,1.23-0.57c0.45,0,0.89,0.19,1.2,0.53l2.68,2.94c0.31,0.34,0.46,0.81,0.41,1.27
				c-0.05,0.46-0.3,0.88-0.68,1.15l-2.93,2.05C49.63,33.44,49.31,33.54,48.98,33.54z"/>
			<path class="st1" d="M49.22,25.57c0.37,0,0.74,0.15,1.01,0.45l2.68,2.94c0.56,0.61,0.45,1.57-0.23,2.04l-2.93,2.05
				c-0.24,0.17-0.51,0.25-0.78,0.25c-0.37,0-0.74-0.15-1.01-0.45l-2.07-2.26c-0.46-0.51-0.48-1.28-0.03-1.81l2.31-2.73
				C48.45,25.73,48.84,25.57,49.22,25.57 M49.22,25.07C49.22,25.07,49.22,25.07,49.22,25.07c-0.55,0-1.07,0.24-1.43,0.66l-2.31,2.73
				c-0.61,0.71-0.59,1.78,0.05,2.47l2.07,2.26c0.35,0.39,0.86,0.61,1.38,0.61c0.38,0,0.75-0.12,1.07-0.34l2.93-2.05
				c0.44-0.31,0.73-0.79,0.79-1.32c0.06-0.53-0.11-1.07-0.48-1.46l-2.68-2.94C50.25,25.29,49.75,25.07,49.22,25.07L49.22,25.07z"/>
		</g>
		<g>
			<path class="st0" d="M22.25,15.11c-0.28,0-0.56-0.08-0.81-0.22L18.18,13c-0.4-0.23-0.68-0.63-0.77-1.08s0.02-0.93,0.3-1.3
				l2.54-3.33c0.31-0.41,0.78-0.64,1.29-0.64c0.43,0,0.83,0.16,1.13,0.46l2.69,2.64c0.58,0.57,0.65,1.49,0.16,2.14l-1.97,2.59
				C23.24,14.87,22.76,15.11,22.25,15.11z"/>
			<path class="st1" d="M21.53,6.9c0.34,0,0.69,0.13,0.96,0.39l2.69,2.64c0.49,0.48,0.55,1.26,0.13,1.81l-1.97,2.59
				c-0.27,0.35-0.67,0.54-1.09,0.54c-0.23,0-0.47-0.06-0.69-0.18l-3.26-1.89c-0.71-0.41-0.9-1.36-0.4-2.01l2.54-3.33
				C20.71,7.08,21.12,6.9,21.53,6.9 M21.53,6.4C21.53,6.4,21.53,6.4,21.53,6.4c-0.59,0-1.13,0.27-1.49,0.74l-2.54,3.33
				c-0.32,0.43-0.45,0.97-0.35,1.5c0.1,0.53,0.43,0.98,0.89,1.25l3.26,1.89c0.28,0.17,0.61,0.25,0.94,0.25
				c0.58,0,1.14-0.28,1.49-0.74l1.97-2.59c0.57-0.75,0.49-1.81-0.18-2.47l-2.69-2.64C22.49,6.59,22.02,6.4,21.53,6.4L21.53,6.4z"/>
		</g>
		<g>
			<path class="st0" d="M9.07,46.63c-0.25,0-0.5-0.06-0.73-0.18l-3.93-1.99C4,44.26,3.7,43.88,3.58,43.43
				c-0.12-0.45-0.04-0.92,0.22-1.31l2.21-3.3c0.3-0.45,0.8-0.72,1.35-0.72c0.25,0,0.51,0.06,0.73,0.17l3.07,1.56
				c0.73,0.37,1.07,1.23,0.79,2l-1.36,3.73C10.36,46.21,9.75,46.63,9.07,46.63z"/>
			<path class="st1" d="M7.36,38.35c0.21,0,0.42,0.05,0.62,0.15l3.07,1.56c0.62,0.31,0.9,1.04,0.67,1.69l-1.36,3.73
				c-0.2,0.56-0.73,0.9-1.29,0.9c-0.21,0-0.42-0.05-0.62-0.15l-3.93-1.99c-0.73-0.37-0.97-1.3-0.52-1.98l2.21-3.3
				C6.48,38.57,6.92,38.35,7.36,38.35 M7.36,37.85C7.36,37.85,7.36,37.85,7.36,37.85c-0.63,0-1.21,0.31-1.55,0.83l-2.21,3.3
				c-0.3,0.44-0.39,0.99-0.25,1.51c0.14,0.52,0.49,0.95,0.96,1.19l3.93,1.99c0.26,0.13,0.55,0.2,0.84,0.2
				c0.78,0,1.49-0.49,1.76-1.23l1.36-3.73c0.32-0.89-0.07-1.88-0.91-2.3L8.2,38.06C7.94,37.92,7.65,37.85,7.36,37.85L7.36,37.85z"/>
		</g>
		<g>
			<path class="st0" d="M43.38,54.91c-0.22,0-0.43-0.04-0.63-0.13l-3.84-1.64c-0.76-0.32-1.15-1.16-0.92-1.95l1.04-3.51
				c0.2-0.68,0.84-1.16,1.55-1.16c0.09,0,0.19,0.01,0.28,0.02l4.12,0.73c0.45,0.08,0.85,0.35,1.1,0.74s0.31,0.87,0.17,1.31
				l-1.31,4.42C44.73,54.43,44.09,54.91,43.38,54.91z"/>
			<path class="st1" d="M40.57,46.78c0.08,0,0.16,0.01,0.24,0.02l4.12,0.73c0.81,0.14,1.31,0.95,1.07,1.74l-1.31,4.42
				c-0.18,0.6-0.73,0.98-1.31,0.98c-0.18,0-0.36-0.04-0.54-0.11L39,52.91c-0.64-0.27-0.97-0.98-0.78-1.65l1.04-3.51
				C39.44,47.17,39.98,46.78,40.57,46.78 M40.57,46.28C40.57,46.28,40.57,46.28,40.57,46.28c-0.82,0-1.56,0.55-1.79,1.34l-1.04,3.51
				c-0.27,0.91,0.19,1.88,1.06,2.25l3.84,1.64c0.23,0.1,0.48,0.15,0.73,0.15c0.82,0,1.56-0.55,1.79-1.34l1.31-4.42
				c0.15-0.51,0.08-1.06-0.2-1.51c-0.28-0.45-0.74-0.77-1.26-0.86l-4.12-0.73C40.79,46.29,40.68,46.28,40.57,46.28L40.57,46.28z"/>
		</g>
		<g>
			<path class="st0" d="M45.31,18.59c-0.06,0-0.12,0-0.17-0.01l-3.85-0.42c-0.82-0.09-1.44-0.78-1.44-1.61l0-4.39
				c0-0.43,0.17-0.84,0.48-1.15c0.31-0.3,0.71-0.47,1.14-0.47c0.06,0,0.12,0,0.18,0.01l4.8,0.52c0.46,0.05,0.87,0.29,1.14,0.66
				c0.27,0.37,0.37,0.84,0.27,1.29l-0.94,4.29C46.73,18.06,46.06,18.59,45.31,18.59z"/>
			<path class="st1" d="M41.45,10.8c0.05,0,0.1,0,0.15,0.01l4.8,0.52c0.81,0.09,1.36,0.86,1.19,1.65l-0.94,4.29
				c-0.14,0.63-0.7,1.07-1.33,1.07c-0.05,0-0.1,0-0.15-0.01l-3.85-0.42c-0.69-0.07-1.22-0.66-1.22-1.36l0-4.39
				C40.08,11.4,40.7,10.8,41.45,10.8 M41.45,10.3C41.45,10.3,41.45,10.3,41.45,10.3c-0.5,0-0.96,0.19-1.31,0.54
				c-0.36,0.35-0.55,0.82-0.55,1.33l0,4.39c0,0.96,0.72,1.75,1.67,1.86l3.85,0.42c0.07,0.01,0.13,0.01,0.2,0.01
				c0.87,0,1.64-0.62,1.82-1.47l0.94-4.29c0.11-0.52,0-1.06-0.31-1.49c-0.31-0.43-0.79-0.71-1.32-0.77l-4.8-0.52
				C41.58,10.3,41.52,10.3,41.45,10.3L41.45,10.3z"/>
		</g>
		<g>
			<path class="st0" d="M5.42,23.26c-0.84,0-1.55-0.66-1.61-1.5l-0.37-5.03c-0.03-0.45,0.12-0.89,0.43-1.22
				C4.18,15.19,4.61,15,5.05,15l4.66,0.13c0.83,0.02,1.51,0.67,1.57,1.5l0.3,4.09c0.06,0.83-0.51,1.57-1.33,1.71l-4.54,0.81
				C5.61,23.25,5.52,23.26,5.42,23.26z"/>
			<path class="st1" d="M5.05,15.25c0.01,0,0.03,0,0.04,0l4.61,0.13c0.7,0.02,1.27,0.57,1.33,1.27l0.3,4.09
				c0.05,0.7-0.43,1.33-1.13,1.45l-4.54,0.81c-0.08,0.01-0.16,0.02-0.24,0.02c-0.7,0-1.31-0.54-1.36-1.27l-0.37-5.03
				C3.63,15.92,4.26,15.25,5.05,15.25 M5.05,14.75C5.05,14.75,5.05,14.75,5.05,14.75c-0.52,0-1.02,0.22-1.37,0.6
				c-0.35,0.38-0.53,0.89-0.49,1.41l0.37,5.03c0.07,0.97,0.89,1.73,1.86,1.73c0.11,0,0.22-0.01,0.33-0.03l4.54-0.81
				c0.95-0.17,1.61-1.02,1.54-1.98l-0.3-4.09c-0.07-0.96-0.85-1.7-1.81-1.73l-4.61-0.13C5.1,14.75,5.06,14.75,5.05,14.75L5.05,14.75
				z"/>
		</g>
		<g>
			<path class="st0" d="M16.65,59.78c-0.8,0-1.47-0.57-1.6-1.36l-0.77-4.77c-0.13-0.83,0.38-1.61,1.19-1.82l4.2-1.1
				c0.13-0.04,0.27-0.05,0.41-0.05c0.68,0,1.29,0.43,1.52,1.06l1.66,4.54c0.16,0.43,0.12,0.9-0.09,1.31
				c-0.21,0.4-0.58,0.7-1.02,0.81l-5.09,1.33C16.92,59.76,16.79,59.78,16.65,59.78z"/>
			<path class="st1" d="M20.08,50.93c0.56,0,1.08,0.35,1.28,0.9l1.66,4.54c0.28,0.76-0.16,1.59-0.94,1.79L17,59.48
				c-0.12,0.03-0.23,0.04-0.35,0.04c-0.65,0-1.24-0.47-1.35-1.15l-0.77-4.77c-0.11-0.7,0.32-1.36,1.01-1.54l4.2-1.1
				C19.85,50.94,19.97,50.93,20.08,50.93 M20.08,50.43C20.08,50.43,20.08,50.43,20.08,50.43c-0.16,0-0.32,0.02-0.47,0.06l-4.2,1.1
				c-0.94,0.24-1.53,1.15-1.37,2.11l0.77,4.77c0.15,0.91,0.92,1.57,1.84,1.57c0.16,0,0.32-0.02,0.47-0.06l5.09-1.33
				c0.51-0.13,0.94-0.48,1.18-0.94c0.24-0.47,0.28-1.01,0.1-1.51l-1.66-4.54C21.57,50.92,20.86,50.43,20.08,50.43L20.08,50.43z"/>
		</g>
		<g>
			<path class="st0" d="M51.81,42.21c-0.63,0-1.2-0.37-1.47-0.94l-1.94-4.17c-0.36-0.77-0.07-1.66,0.66-2.08l4.38-2.53
				c0.25-0.14,0.53-0.22,0.81-0.22c0.63,0,1.2,0.37,1.47,0.93l2.32,4.96c0.19,0.41,0.2,0.88,0.03,1.3c-0.17,0.42-0.52,0.75-0.94,0.9
				l-4.76,1.74C52.18,42.17,52,42.21,51.81,42.21z"/>
			<path class="st1" d="M54.25,32.52c0.51,0,1.01,0.29,1.24,0.79l2.32,4.96c0.34,0.73-0.02,1.59-0.77,1.86l-4.76,1.74
				c-0.15,0.06-0.31,0.08-0.47,0.08c-0.52,0-1.01-0.3-1.24-0.79L48.63,37c-0.3-0.64-0.06-1.41,0.56-1.76l4.38-2.53
				C53.78,32.58,54.02,32.52,54.25,32.52 M54.25,32.02c-0.33,0-0.65,0.09-0.93,0.25l-4.38,2.53c-0.84,0.49-1.17,1.52-0.76,2.41
				l1.94,4.17c0.31,0.66,0.97,1.08,1.69,1.08c0.22,0,0.43-0.04,0.64-0.11l4.76-1.74c0.49-0.18,0.89-0.56,1.09-1.04
				c0.2-0.48,0.19-1.03-0.03-1.5l-2.32-4.96C55.64,32.44,54.97,32.02,54.25,32.02L54.25,32.02z"/>
		</g>
		<g>
			<path class="st0" d="M28.53,10.99c-0.48,0-0.93-0.21-1.24-0.58l-3.4-4.06C23.6,6,23.47,5.55,23.52,5.1
				c0.06-0.45,0.3-0.85,0.67-1.11l4.64-3.3c0.28-0.2,0.6-0.3,0.94-0.3c0.58,0,1.1,0.29,1.39,0.79l2.72,4.55
				c0.43,0.72,0.23,1.66-0.45,2.15l-3.96,2.81C29.19,10.89,28.87,10.99,28.53,10.99z"/>
			<path class="st1" d="M29.76,0.64c0.46,0,0.92,0.23,1.18,0.67l2.72,4.55c0.37,0.61,0.2,1.4-0.38,1.82l-3.96,2.81
				c-0.24,0.17-0.52,0.25-0.79,0.25c-0.39,0-0.78-0.17-1.05-0.49l-3.4-4.06c-0.51-0.61-0.39-1.53,0.26-1.99l4.64-3.3
				C29.21,0.73,29.49,0.64,29.76,0.64 M29.76,0.14c-0.39,0-0.76,0.12-1.08,0.35l-4.64,3.3c-0.42,0.3-0.7,0.77-0.77,1.28
				c-0.07,0.52,0.09,1.04,0.42,1.44l3.4,4.06c0.36,0.43,0.88,0.67,1.43,0.67c0.39,0,0.76-0.12,1.08-0.35l3.96-2.81
				c0.79-0.56,1.02-1.65,0.52-2.48l-2.72-4.55C31.03,0.48,30.43,0.14,29.76,0.14L29.76,0.14z"/>
		</g>
	</g>
	<rect class="st2" width="60" height="60"/>
</g>
</svg>
