<svg xmlns="http://www.w3.org/2000/svg" overflow="visible" viewBox="0 0 256.7 43.9" fill="#fff"><path d="M56.8 34.4c-1.7-1.6-2.5-3.8-2.5-6.6V7.4c0-.6.4-1 1-1h3.2c.6 0 1 .4 1 1v20.4c0 1.4.4 2.5 1.1 3.3.7.8 1.7 1.2 3.1 1.2 1.3 0 2.4-.4 3.1-1.2.7-.8 1.1-1.9 1.1-3.3V7.4c0-.6.4-1 1-1H72c.6 0 1 .4 1 1v20.4c0 2.8-.8 5-2.5 6.6-1.7 1.6-3.9 2.4-6.9 2.4s-5.2-.8-6.8-2.4zM95 15.7c1.4 1.5 2.1 3.6 2.1 6.2v.6c0 .6-.4 1-1 1h-4.4v-1.3c0-1.4-.4-2.6-1.1-3.4-.8-.8-1.8-1.2-3.1-1.2s-2.3.4-3.1 1.2c-.7.8-1.1 1.9-1.1 3.3v13.1c0 .6-.4 1-1 1h-3.1c-.6 0-1-.4-1-1V14.8c0-.6.4-1 1-1H82c.6 0 1 .4 1 1v3.3c.4-1.6 1.1-2.7 2.1-3.5 1-.8 2.4-1.2 4.1-1.2 2.4 0 4.4.8 5.8 2.3zM116.9 15.7c1.3 1.5 2 3.6 2 6.3v6.1c0 2.7-.7 4.8-2 6.3-1.3 1.6-3.1 2.3-5.4 2.3-1.7 0-3-.4-4.1-1.3-1.1-.8-1.7-2-1.9-3.5h-.1l.2 5.4v5.3c0 .6-.4 1-1 1h-3.1c-.6 0-1-.4-1-1V14.8c0-.6.4-1 1-1h3c.6 0 1 .4 1 1v3.3h.1c.2-1.5.9-2.6 1.9-3.5 1.1-.8 2.4-1.2 4.1-1.2 2.1 0 3.9.8 5.3 2.3zm-3.1 6.6c0-1.4-.4-2.5-1.1-3.3-.7-.8-1.7-1.1-3-1.1s-2.3.4-3 1.2c-.7.8-1.1 1.9-1.1 3.3v5.7c0 1.4.4 2.5 1.1 3.3.7.8 1.7 1.2 3 1.2s2.3-.4 3-1.1c.7-.8 1.1-1.9 1.1-3.3v-5.9zM128.6 35.4V20.1c0-.6-.4-1-1-1h-4.2c-.6 0-1-.4-1-1v-2.6c0-.6.4-1 1-1h4.2c.6 0 1-.4 1-1v-.7c0-1.9.6-3.4 1.9-4.6 1.3-1.1 2.9-1.7 5-1.7h5.8c.6 0 1 .4 1 1V10c0 .6-.4 1-1 1h-5.7c-.6 0-1.1.2-1.4.5-.3.3-.5.8-.5 1.4v.6c0 .6.4 1 1 1h6.7c.6 0 1 .4 1 1v2.6c0 .6-.4 1-1 1h-6.7c-.6 0-1 .4-1 1v15.3c0 .6-.4 1-1 1h-3.1c-.5 0-1-.5-1-1zM158.7 36.4c-2.2 0-4-.7-5.4-2-1.4-1.3-2-3.1-2-5.3v-17c0-.6-.4-1-1-1h-4.9c-.6 0-1-.4-1-1V7.4c0-.6.4-1 1-1h10c.6 0 1 .4 1 1V29c0 .8.2 1.4.7 1.9.5.5 1.1.7 1.9.7h6c.6 0 1 .4 1 1v2.6c0 .6-.4 1-1 1h-6.3zM185.3 15.4c1.6 1.3 2.4 3.2 2.4 5.7v14.3c0 .6-.4 1-1 1h-3c-.6 0-1-.4-1-1v-2.9h-.1c-.3 1.3-1 2.4-2.2 3.2-1.2.8-2.7 1.2-4.5 1.2-2.3 0-4.1-.6-5.4-1.8-1.3-1.2-2-2.9-2-4.9 0-2.2.7-4 2.2-5.2 1.5-1.2 3.6-1.8 6.3-1.8h4.6c.6 0 1-.4 1-1v-.9c0-1.1-.3-2-1-2.6-.7-.6-1.7-.9-3-.9-1.1 0-2.1.2-2.8.7-.5.4-.9.8-1.1 1.4-.2.4-.5.7-.9.7h-3c-.7 0-1.1-.6-1-1.3.4-1.6 1.3-2.8 2.6-3.8 1.7-1.3 3.8-1.9 6.3-1.9 2.8-.2 5 .5 6.6 1.8zm-4.1 16.5c.9-.7 1.4-1.7 1.4-2.9v-1.7c0-.6-.4-1-1-1H177c-1 0-1.9.3-2.5.9-.6.6-.9 1.4-.9 2.4s.4 1.9 1.1 2.5c.7.6 1.7.9 3 .9 1.4-.1 2.6-.4 3.5-1.1zM208.6 15.6c1.3 1.5 2 3.5 2 5.9v13.8c0 .6-.4 1-1 1h-3.1c-.6 0-1-.4-1-1V22.1c0-1.3-.4-2.4-1.1-3.1s-1.7-1.1-3-1.1-2.3.4-3 1.1c-.7.8-1.1 1.9-1.1 3.3v13.1c0 .6-.4 1-1 1h-3.1c-.6 0-1-.4-1-1V14.8c0-.6.4-1 1-1h3c.6 0 1 .4 1 1v3.3h.1c.2-1.5.8-2.6 1.9-3.5 1-.8 2.4-1.2 4.1-1.2 2.2 0 4 .8 5.3 2.2zM232.4 36.4h-16.2c-.6 0-1-.4-1-1v-3.3c0-.2.1-.5.2-.7L225.6 20c.6-.6.1-1.7-.8-1.7h-8.2c-.6 0-1-.4-1-1v-2.5c0-.6.4-1 1-1H232c.6 0 1 .4 1 1v3.3c0 .2-.1.5-.3.7l-10.2 11.5c-.6.6-.1 1.7.7 1.7h9.1c.6 0 1 .4 1 1v2.5c.1.4-.3.9-.9.9zM255.7 26.3h-11.8c-.6 0-1 .4-1 1v.6c0 3.2 1.5 4.8 4.5 4.8 1.1 0 2.1-.2 2.7-.6.5-.3.9-.7 1.1-1.2.2-.3.5-.5.9-.5h3.1c.7 0 1.2.7.9 1.3-.5 1.3-1.4 2.4-2.7 3.3-1.7 1.2-3.7 1.7-6.1 1.7-1.9 0-3.6-.4-5-1.1-1.4-.7-2.5-1.8-3.3-3.1-.8-1.3-1.1-2.9-1.1-4.7v-5.7c0-1.8.4-3.3 1.1-4.7.8-1.3 1.9-2.4 3.3-3.1 1.4-.7 3.1-1.1 5-1.1s3.5.4 4.9 1.1c1.4.7 2.5 1.8 3.2 3.1.8 1.3 1.1 2.9 1.1 4.7v3.1c.2.7-.3 1.1-.8 1.1zm-12.8-3.2l8.9-.1v-.8c0-1.6-.4-2.8-1.1-3.6-.7-.8-1.8-1.2-3.3-1.2-1.5 0-2.6.4-3.3 1.3s-1.1 2-1.1 3.6v.8z"/><g><path d="M20.5 30.2l.6.8c.4.5.2 1.2-.4 1.5l-.9.5c-.6.3-1.2 0-1.4-.6l-.3-.9c-.1-.5.1-1 .5-1.2l.7-.3c.4-.3.9-.2 1.2.2zM27.6 22.2l.7-.7c.4-.5 1.2-.4 1.5.1l.6.9c.4.5.2 1.2-.3 1.5l-.9.4c-.4.2-1 .1-1.3-.3l-.5-.6c-.2-.4-.2-.9.2-1.3zM18 16.4l-.8-.5c-.5-.3-.6-1.1-.2-1.5l.8-.8c.4-.5 1.1-.4 1.5.1l.6.8c.3.4.3.9-.1 1.3l-.5.6c-.3.2-.9.2-1.3 0zM13.7 27.3l-.4.9c-.2.6-.9.8-1.5.5l-1-.6c-.5-.3-.6-1.1-.2-1.5l.7-.8c.3-.4.9-.4 1.3-.2l.7.4c.4.3.6.8.4 1.3zM25.7 29.7l1 .2c.6.1.9.8.7 1.4l-.4 1.2c-.2.6-.9.8-1.4.5l-.9-.6c-.4-.3-.6-.8-.4-1.2l.3-.8c.2-.5.6-.8 1.1-.7zM26.1 17l.1-1.1c0-.6.6-1.1 1.2-.9l1.2.3c.6.1.9.8.7 1.3l-.4 1.1c-.2.5-.7.7-1.1.6l-1-.3c-.4-.1-.8-.5-.7-1zM12.9 18.9l-1.2.2c-.6.1-1.1-.4-1.1-1v-1.4c0-.6.6-1.1 1.2-1l1.2.3c.5.1.8.5.8 1v1c0 .5-.4.9-.9.9zM17.3 32l.4 1.2c.2.6-.2 1.2-.8 1.3l-1.4.2c-.6.1-1.2-.4-1.1-1v-1.3c0-.5.4-.9.9-1l1-.2c.4.1.9.4 1 .8zM29.9 25.2l1.2-.6c.5-.3 1.2 0 1.4.6l.5 1.4c.2.6-.2 1.2-.8 1.3l-1.3.2c-.5.1-1-.2-1.1-.7l-.4-1c-.2-.5 0-1 .5-1.2zM20.6 13.6l-.9-1.1c-.4-.5-.2-1.3.3-1.5l1.4-.8c.5-.3 1.2 0 1.4.5l.5 1.4c.2.5 0 1-.5 1.2l-1 .6c-.4.2-.9.1-1.2-.3zM10.5 25.1l-1 1.1c-.4.5-1.1.4-1.5 0l-1.1-1.3c-.4-.5-.3-1.2.3-1.5l1.3-.8c.4-.3 1-.2 1.3.2l.8 1c.2.4.2 1-.1 1.3zM24.1 33.3l1.4.9c.5.3.6 1 .2 1.5l-1.2 1.4c-.4.5-1.1.5-1.5 0l-1.1-1.2c-.3-.4-.3-.9 0-1.3l.9-1c.3-.4.8-.5 1.3-.3zM30 18l.6-1.6c.2-.6.9-.8 1.4-.5l1.7 1c.5.3.7 1 .3 1.5l-1.1 1.4c-.3.4-.9.5-1.3.2l-1.2-.7c-.4-.3-.6-.8-.4-1.3zM13.4 14.8l-1.8-.4c-.6-.1-1-.7-.7-1.3l.7-2c.2-.6.9-.8 1.4-.5l1.6.9c.4.2.6.8.5 1.2l-.5 1.4c-.3.5-.8.8-1.2.7zM13.1 32.3v2c0 .6-.6 1.1-1.2 1l-2.2-.4c-.6-.1-1-.7-.8-1.3l.6-1.9c.2-.5.6-.8 1.1-.7l1.6.3c.5 0 .9.5.9 1zM31.1 29.4l2.1-.3c.6-.1 1.1.4 1.2 1v2.3c0 .6-.5 1.1-1.1 1l-2.1-.3c-.5-.1-.9-.5-.9-1v-1.7c0-.5.3-1 .8-1zM24.7 12L24 9.9c-.2-.6.2-1.2.7-1.3l2.4-.5c.6-.1 1.2.3 1.2.9l.1 2.2c0 .5-.3.9-.8 1l-1.8.4c-.5.1-1-.2-1.1-.6zM8.2 21.3l-2 1.2c-.5.3-1.2.1-1.4-.5l-1-2.4c-.2-.6.1-1.2.7-1.3l2.3-.6c.5-.1 1 .1 1.2.6l.7 1.8c.1.4-.1.9-.5 1.2zM20.6 36.3l1.6 1.9c.4.5.3 1.2-.2 1.5l-2.3 1.5c-.5.3-1.2.1-1.4-.4l-1-2.3c-.2-.5 0-1 .4-1.3l1.8-1.1c.2-.3.8-.2 1.1.2zM33.5 21l1.7-2c.4-.5 1.1-.5 1.5 0l2 2.2c.4.4.3 1.1-.2 1.5l-2.1 1.5c-.4.3-1 .2-1.3-.1l-1.5-1.7c-.4-.4-.4-1-.1-1.4zM15.8 10.7l-2.4-1.4c-.5-.3-.7-1-.3-1.5L15 5.4c.3-.4 1-.5 1.4-.1l2 1.9c.4.4.4.9.1 1.3l-1.4 1.9c-.3.5-.9.6-1.3.3zM8.6 30.5l-1 2.7c-.2.6-.9.8-1.4.5l-2.9-1.5c-.5-.3-.7-.9-.4-1.4l1.6-2.4c.3-.4.8-.6 1.3-.3L8 29.2c.5.3.7.8.6 1.3zM29.8 34.2l3 .5c.6.1 1 .7.8 1.3l-1 3.2c-.2.6-.8.9-1.4.6l-2.8-1.2c-.5-.2-.7-.7-.6-1.2l.8-2.6c.2-.4.7-.7 1.2-.6zM29.3 12.1V8.9c0-.6.5-1.1 1.1-1l3.5.4c.6.1 1 .6.9 1.2l-.7 3.1c-.1.5-.6.8-1.1.8l-2.8-.3c-.5-.1-.9-.5-.9-1zM7.5 16.2l-3.3.6c-.6.1-1.2-.3-1.2-.9l-.3-3.7c0-.6.4-1.1 1-1.1l3.4.1c.5 0 .9.4 1 .9l.2 3c0 .6-.3 1-.8 1.1zM15.6 37.9l1.2 3.3c.2.6-.1 1.2-.7 1.3l-3.7 1c-.6.1-1.1-.2-1.2-.8l-.6-3.5c-.1-.5.2-1 .7-1.1l3.1-.8c.5-.2 1 .1 1.2.6zM36 25.8l3.2-1.9c.5-.3 1.2-.1 1.4.4l1.7 3.6c.2.5 0 1.2-.6 1.4l-3.5 1.3c-.5.2-1 0-1.2-.5l-1.4-3c-.3-.5-.1-1.1.4-1.3zM20.1 7.5l-2.5-3c-.4-.4-.3-1.1.2-1.5L21.2.6c.5-.3 1.1-.2 1.4.3l2 3.3c.3.4.1 1-.3 1.3l-2.9 2.1c-.4.4-1 .3-1.3-.1z"/><path d="M0 0h43.9v43.9H0z" fill="none"/></g></svg>