<?xml version="1.0" encoding="utf-8"?>
<!-- Generator: Adobe Illustrator 25.0.1, SVG Export Plug-In . SVG Version: 6.00 Build 0)  -->
<svg version="1.1" id="Livello_1" xmlns="http://www.w3.org/2000/svg" xmlns:xlink="http://www.w3.org/1999/xlink" x="0px" y="0px"
	 viewBox="0 0 354.11 62" style="enable-background:new 0 0 354.11 62;" xml:space="preserve">
<style type="text/css">
	.st0{fill:#0D1117;}
	.st1{fill:#FFFFFF;}
	.st2{fill:none;}
</style>
<g>
	<g>
		<g>
			<path class="st0" d="M88.55,51.83c-4.12,0-7.39-1.14-9.74-3.39c-2.35-2.26-3.55-5.4-3.55-9.34V11.19c0-1.03,0.84-1.87,1.87-1.87
				h4.33c1.03,0,1.87,0.84,1.87,1.87v27.85c0,1.81,0.45,3.23,1.33,4.21c0.88,0.98,2.15,1.46,3.89,1.46c1.7,0,2.97-0.48,3.87-1.46
				c0.9-0.98,1.36-2.4,1.36-4.21V11.19c0-1.03,0.84-1.87,1.87-1.87h4.33c1.03,0,1.87,0.84,1.87,1.87V39.1
				c0,3.94-1.19,7.08-3.55,9.34C95.94,50.69,92.66,51.83,88.55,51.83z"/>
			<path class="st1" d="M99.97,9.82c0.76,0,1.37,0.61,1.37,1.37V39.1c0,3.81-1.13,6.81-3.39,8.97c-2.26,2.17-5.39,3.25-9.4,3.25
				s-7.13-1.08-9.39-3.25c-2.26-2.17-3.39-5.16-3.39-8.97V11.19c0-0.76,0.61-1.37,1.37-1.37h4.33c0.76,0,1.37,0.61,1.37,1.37v27.85
				c0,1.95,0.49,3.46,1.46,4.54c0.97,1.08,2.39,1.63,4.26,1.63c1.83,0,3.24-0.54,4.23-1.63c0.99-1.08,1.49-2.6,1.49-4.54V11.19
				c0-0.76,0.61-1.37,1.37-1.37H99.97 M99.97,8.82h-4.33c-1.31,0-2.37,1.06-2.37,2.37v27.85c0,1.68-0.41,2.98-1.22,3.87
				c-0.8,0.87-1.94,1.3-3.5,1.3c-1.59,0-2.74-0.42-3.52-1.29c-0.8-0.89-1.2-2.19-1.2-3.88V11.19c0-1.31-1.06-2.37-2.37-2.37h-4.33
				c-1.31,0-2.37,1.06-2.37,2.37V39.1c0,4.08,1.25,7.34,3.7,9.7c2.44,2.34,5.84,3.53,10.09,3.53c4.25,0,7.64-1.19,10.09-3.53
				c2.46-2.35,3.7-5.62,3.7-9.7V11.19C102.34,9.88,101.27,8.82,99.97,8.82L99.97,8.82z"/>
		</g>
		<g>
			<path class="st0" d="M109.77,51.27c-1.03,0-1.87-0.84-1.87-1.87V21.29c0-1.03,0.84-1.87,1.87-1.87h3.88
				c1.03,0,1.87,0.84,1.87,1.87v1.83c0.54-1.02,1.25-1.87,2.11-2.53c1.5-1.15,3.49-1.73,5.91-1.73c3.46,0,6.22,1.09,8.22,3.24
				c1.99,2.14,2.99,5.12,2.99,8.86v0.88c0,1.03-0.84,1.87-1.87,1.87h-6.48v-2.24c0-1.84-0.47-3.27-1.41-4.25
				c-0.94-0.99-2.2-1.47-3.87-1.47c-1.66,0-2.92,0.49-3.84,1.49c-0.92,1-1.38,2.43-1.38,4.23V49.4c0,1.03-0.84,1.87-1.87,1.87
				H109.77z"/>
			<path class="st1" d="M123.55,19.36c3.33,0,5.95,1.03,7.85,3.08c1.91,2.06,2.86,4.9,2.86,8.52v0.88c0,0.76-0.61,1.37-1.37,1.37
				h-5.98v-1.74c0-1.98-0.51-3.51-1.54-4.6c-1.03-1.08-2.44-1.63-4.23-1.63s-3.2,0.55-4.21,1.66c-1.01,1.1-1.51,2.63-1.51,4.57V49.4
				c0,0.76-0.61,1.37-1.37,1.37h-4.28c-0.76,0-1.37-0.61-1.37-1.37V21.29c0-0.76,0.61-1.37,1.37-1.37h3.88
				c0.76,0,1.37,0.61,1.37,1.37v4.52h0.06c0.49-2.13,1.44-3.74,2.86-4.82C119.36,19.9,121.23,19.36,123.55,19.36 M123.55,18.36
				c-2.53,0-4.62,0.62-6.21,1.83c-0.48,0.37-0.92,0.79-1.31,1.27v-0.17c0-1.31-1.06-2.37-2.37-2.37h-3.88
				c-1.31,0-2.37,1.06-2.37,2.37V49.4c0,1.31,1.06,2.37,2.37,2.37h4.28c1.31,0,2.37-1.06,2.37-2.37V31.47
				c0-1.68,0.42-2.99,1.25-3.89c0.82-0.9,1.95-1.33,3.47-1.33c1.52,0,2.67,0.43,3.51,1.32c0.84,0.89,1.27,2.2,1.27,3.91v1.74v1h1
				h5.98c1.31,0,2.37-1.06,2.37-2.37v-0.88c0-3.87-1.05-6.97-3.13-9.2C130.04,19.5,127.15,18.36,123.55,18.36L123.55,18.36z"/>
		</g>
		<g>
			<path class="st0" d="M140.23,61.36c-1.03,0-1.87-0.84-1.87-1.87V21.29c0-1.03,0.84-1.87,1.87-1.87h4.11
				c1.03,0,1.87,0.84,1.87,1.87v1.68c0.47-0.89,1.11-1.65,1.91-2.29c1.52-1.21,3.51-1.82,5.89-1.82c3.24,0,5.86,1.12,7.78,3.34
				c1.9,2.2,2.87,5.2,2.87,8.94v8.36c0,3.73-0.97,6.75-2.87,8.96c-1.92,2.24-4.54,3.37-7.78,3.37c-2.39,0-4.37-0.61-5.89-1.82
				c-0.78-0.62-1.41-1.36-1.88-2.22l0.14,4.43v7.29c0,1.03-0.84,1.87-1.87,1.87H140.23z M151.53,25.92c-1.63,0-2.87,0.47-3.79,1.44
				c-0.91,0.96-1.38,2.35-1.38,4.11v7.74c0,1.77,0.46,3.15,1.38,4.12c0.92,0.97,2.16,1.44,3.79,1.44c1.67,0,2.9-0.46,3.78-1.41
				c0.88-0.95,1.32-2.34,1.32-4.15v-7.74c0-1.81-0.45-3.2-1.32-4.15C154.44,26.38,153.2,25.92,151.53,25.92z"/>
			<path class="st1" d="M154,19.36c3.1,0,5.57,1.06,7.4,3.17c1.83,2.11,2.75,4.98,2.75,8.61v8.36c0,3.63-0.92,6.51-2.75,8.64
				c-1.83,2.13-4.3,3.2-7.4,3.2c-2.28,0-4.14-0.57-5.58-1.71c-1.44-1.14-2.31-2.72-2.61-4.74h-0.17l0.22,7.35v7.27
				c0,0.76-0.61,1.37-1.37,1.37h-4.28c-0.76,0-1.37-0.61-1.37-1.37V21.29c0-0.76,0.61-1.37,1.37-1.37h4.11
				c0.76,0,1.37,0.61,1.37,1.37v4.52h0.11c0.3-2.02,1.17-3.6,2.61-4.74C149.86,19.93,151.72,19.36,154,19.36 M151.53,45.27
				c1.79,0,3.18-0.52,4.15-1.57c0.97-1.05,1.46-2.54,1.46-4.49v-7.74c0-1.94-0.49-3.44-1.46-4.49c-0.97-1.05-2.36-1.57-4.15-1.57
				c-1.76,0-3.14,0.53-4.15,1.6c-1.01,1.06-1.51,2.55-1.51,4.46v7.74c0,1.91,0.5,3.39,1.51,4.46
				C148.39,44.74,149.78,45.27,151.53,45.27 M154,18.36c-2.5,0-4.59,0.65-6.2,1.93c-0.41,0.32-0.77,0.67-1.1,1.06v-0.05
				c0-1.31-1.06-2.37-2.37-2.37h-4.11c-1.31,0-2.37,1.06-2.37,2.37V59.5c0,1.31,1.06,2.37,2.37,2.37h4.28
				c1.31,0,2.37-1.06,2.37-2.37v-7.27l-0.08-2.78c0.31,0.35,0.64,0.67,1.02,0.96c1.61,1.28,3.7,1.93,6.2,1.93
				c3.39,0,6.14-1.19,8.16-3.54c1.98-2.31,2.99-5.44,2.99-9.29v-8.36c0-3.86-1.01-6.97-2.99-9.26
				C160.14,19.54,157.39,18.36,154,18.36L154,18.36z M151.53,44.27c-1.48,0-2.6-0.42-3.42-1.29c-0.83-0.88-1.24-2.11-1.24-3.77
				v-7.74c0-1.66,0.41-2.89,1.24-3.77c0.82-0.87,1.94-1.29,3.42-1.29c1.52,0,2.64,0.41,3.42,1.25c0.79,0.85,1.19,2.13,1.19,3.81
				v7.74c0,1.68-0.4,2.96-1.19,3.81C154.17,43.86,153.05,44.27,151.53,44.27L151.53,44.27z"/>
		</g>
		<g>
			<path class="st0" d="M178.81,51.27c-1.03,0-1.87-0.84-1.87-1.87V28.52c0-0.48-0.39-0.87-0.87-0.87h-5.73
				c-1.03,0-1.87-0.84-1.87-1.87v-3.6c0-1.03,0.84-1.87,1.87-1.87h5.73c0.48,0,0.87-0.39,0.87-0.87v-0.99
				c0-2.75,0.92-4.99,2.74-6.65c1.81-1.65,4.24-2.49,7.24-2.49h8c1.03,0,1.87,0.84,1.87,1.87v3.43c0,1.03-0.84,1.87-1.87,1.87h-7.83
				c-0.7,0-1.22,0.17-1.59,0.53c-0.37,0.35-0.55,0.86-0.55,1.55v0.88c0,0.48,0.39,0.87,0.87,0.87h9.1c1.03,0,1.87,0.84,1.87,1.87
				v3.6c0,1.03-0.84,1.87-1.87,1.87h-9.1c-0.48,0-0.87,0.39-0.87,0.87V49.4c0,1.03-0.84,1.87-1.87,1.87H178.81z"/>
			<path class="st1" d="M194.92,9.82c0.76,0,1.37,0.61,1.37,1.37v3.43c0,0.76-0.61,1.37-1.37,1.37h-7.83
				c-0.82,0-1.47,0.22-1.94,0.67c-0.47,0.45-0.7,1.09-0.7,1.91v0.88c0,0.76,0.61,1.37,1.37,1.37h9.1c0.76,0,1.37,0.61,1.37,1.37v3.6
				c0,0.76-0.61,1.37-1.37,1.37h-9.1c-0.76,0-1.37,0.61-1.37,1.37V49.4c0,0.76-0.61,1.37-1.37,1.37h-4.28
				c-0.76,0-1.37-0.61-1.37-1.37V28.52c0-0.76-0.61-1.37-1.37-1.37h-5.73c-0.76,0-1.37-0.61-1.37-1.37v-3.6
				c0-0.76,0.61-1.37,1.37-1.37h5.73c0.76,0,1.37-0.61,1.37-1.37v-0.99c0-2.62,0.86-4.71,2.58-6.28c1.72-1.57,4.02-2.36,6.9-2.36
				H194.92 M194.92,8.82h-8c-3.12,0-5.67,0.88-7.57,2.62c-1.93,1.76-2.91,4.12-2.91,7.02v0.99c0,0.2-0.17,0.37-0.37,0.37h-5.73
				c-1.31,0-2.37,1.06-2.37,2.37v3.6c0,1.31,1.06,2.37,2.37,2.37h5.73c0.2,0,0.37,0.17,0.37,0.37V49.4c0,1.31,1.06,2.37,2.37,2.37
				h4.28c1.31,0,2.37-1.06,2.37-2.37V28.52c0-0.2,0.17-0.37,0.37-0.37h9.1c1.31,0,2.37-1.06,2.37-2.37v-3.6
				c0-1.31-1.06-2.37-2.37-2.37h-9.1c-0.2,0-0.37-0.17-0.37-0.37v-0.88c0-0.54,0.13-0.93,0.39-1.19c0.28-0.27,0.68-0.39,1.24-0.39
				h7.83c1.31,0,2.37-1.06,2.37-2.37v-3.43C197.29,9.88,196.23,8.82,194.92,8.82L194.92,8.82z"/>
		</g>
		<g>
			<path class="st0" d="M218.67,51.27c-3.19,0-5.79-0.97-7.73-2.89c-1.94-1.92-2.92-4.48-2.92-7.59V17.53
				c0-0.48-0.39-0.87-0.87-0.87h-6.69c-1.03,0-1.87-0.84-1.87-1.87v-3.6c0-1.03,0.84-1.87,1.87-1.87h13.7
				c1.03,0,1.87,0.84,1.87,1.87v29.59c0,0.96,0.27,1.71,0.84,2.29c0.56,0.58,1.3,0.86,2.25,0.86h8.22c1.03,0,1.87,0.84,1.87,1.87
				v3.6c0,1.03-0.84,1.87-1.87,1.87H218.67z"/>
			<path class="st1" d="M214.16,9.82c0.76,0,1.37,0.61,1.37,1.37v29.59c0,1.08,0.33,1.96,0.98,2.64c0.65,0.67,1.52,1.01,2.61,1.01
				h8.22c0.76,0,1.37,0.61,1.37,1.37v3.6c0,0.76-0.61,1.37-1.37,1.37h-8.67c-3.07,0-5.53-0.92-7.38-2.75
				c-1.85-1.83-2.78-4.24-2.78-7.24V17.53c0-0.76-0.61-1.37-1.37-1.37h-6.69c-0.76,0-1.37-0.61-1.37-1.37v-3.6
				c0-0.76,0.61-1.37,1.37-1.37H214.16 M214.16,8.82h-13.7c-1.31,0-2.37,1.06-2.37,2.37v3.6c0,1.31,1.06,2.37,2.37,2.37h6.69
				c0.2,0,0.37,0.17,0.37,0.37v23.26c0,3.25,1.03,5.93,3.07,7.95c2.04,2.02,4.75,3.04,8.08,3.04h8.67c1.31,0,2.37-1.06,2.37-2.37
				v-3.6c0-1.31-1.06-2.37-2.37-2.37h-8.22c-0.81,0-1.43-0.23-1.89-0.71c-0.47-0.48-0.7-1.12-0.7-1.94V11.19
				C216.53,9.88,215.47,8.82,214.16,8.82L214.16,8.82z"/>
		</g>
		<g>
			<path class="st0" d="M242.06,51.83c-3.22,0-5.82-0.88-7.74-2.63c-1.93-1.75-2.91-4.15-2.91-7.13c0-3.21,1.08-5.72,3.21-7.48
				c2.1-1.73,5.1-2.61,8.9-2.61h6.32c0.48,0,0.87-0.39,0.87-0.87V29.9c0-1.39-0.4-2.43-1.23-3.16c-0.84-0.74-2.08-1.11-3.71-1.11
				c-1.46,0-2.66,0.3-3.57,0.9c-0.64,0.42-1.08,0.96-1.34,1.63c-0.28,0.74-0.97,1.23-1.74,1.23h-4.14c-0.59,0-1.14-0.27-1.5-0.74
				c-0.35-0.46-0.47-1.05-0.32-1.6c0.61-2.22,1.87-4.07,3.75-5.5c2.34-1.78,5.36-2.68,8.97-2.68c3.99,0,7.16,0.96,9.41,2.87
				c2.28,1.93,3.43,4.66,3.43,8.12V49.4c0,1.03-0.84,1.87-1.87,1.87h-4.05c-1.03,0-1.87-0.84-1.87-1.87v-1.65
				c-0.57,0.94-1.37,1.74-2.4,2.4C246.79,51.26,244.61,51.83,242.06,51.83z M243.63,37.36c-1.3,0-2.31,0.36-3.08,1.09
				c-0.76,0.73-1.14,1.7-1.14,2.95c0,1.28,0.42,2.27,1.29,3.01c0.87,0.76,2.12,1.14,3.71,1.14c1.93,0,3.49-0.45,4.63-1.35
				c1.12-0.88,1.66-2.06,1.66-3.59v-2.39c0-0.48-0.39-0.87-0.87-0.87H243.63z"/>
			<path class="st1" d="M245.87,19.36c3.89,0,6.92,0.92,9.09,2.75c2.17,1.83,3.25,4.41,3.25,7.74V49.4c0,0.76-0.61,1.37-1.37,1.37
				h-4.05c-0.76,0-1.37-0.61-1.37-1.37v-4.02h-0.11c-0.38,1.83-1.39,3.28-3.06,4.35c-1.66,1.07-3.73,1.6-6.2,1.6
				c-3.1,0-5.57-0.83-7.4-2.5c-1.83-1.66-2.75-3.92-2.75-6.76c0-3.06,1.01-5.43,3.03-7.1c2.02-1.66,4.88-2.5,8.58-2.5h6.32
				c0.76,0,1.37-0.61,1.37-1.37V29.9c0-1.53-0.47-2.71-1.4-3.53c-0.94-0.82-2.28-1.23-4.04-1.23c-1.57,0-2.85,0.33-3.84,0.98
				c-0.73,0.48-1.24,1.1-1.53,1.87c-0.21,0.54-0.7,0.9-1.28,0.9h-4.14c-0.89,0-1.57-0.85-1.33-1.72c0.58-2.12,1.77-3.87,3.57-5.24
				C239.47,20.22,242.36,19.36,245.87,19.36 M244.42,46.06c2.06,0,3.7-0.48,4.94-1.46c1.23-0.97,1.85-2.3,1.85-3.98v-2.39
				c0-0.76-0.61-1.37-1.37-1.37h-6.2c-1.42,0-2.56,0.41-3.42,1.23c-0.86,0.82-1.29,1.93-1.29,3.31c0,1.42,0.49,2.55,1.46,3.39
				C241.35,45.63,242.7,46.06,244.42,46.06 M245.87,18.36c-3.72,0-6.84,0.94-9.27,2.78c-1.97,1.5-3.29,3.44-3.93,5.77
				c-0.19,0.71-0.05,1.45,0.4,2.04c0.46,0.6,1.15,0.94,1.9,0.94h4.14c0.98,0,1.85-0.61,2.21-1.55c0.22-0.57,0.59-1.03,1.15-1.39
				c0.82-0.54,1.93-0.82,3.29-0.82c1.5,0,2.64,0.33,3.38,0.99c0.72,0.63,1.06,1.54,1.06,2.78v1.21c0,0.2-0.17,0.37-0.37,0.37h-6.32
				c-3.92,0-7.02,0.92-9.22,2.72c-2.25,1.86-3.39,4.5-3.39,7.87c0,3.12,1.03,5.65,3.08,7.5c2.01,1.83,4.73,2.76,8.08,2.76
				c2.65,0,4.92-0.59,6.74-1.76c0.62-0.4,1.16-0.85,1.63-1.34v0.17c0,1.31,1.06,2.37,2.37,2.37h4.05c1.31,0,2.37-1.06,2.37-2.37
				V29.85c0-3.62-1.21-6.48-3.61-8.5C253.26,19.36,249.99,18.36,245.87,18.36L245.87,18.36z M244.42,45.06
				c-1.47,0-2.6-0.34-3.38-1.02c-0.75-0.65-1.11-1.51-1.11-2.64c0-1.11,0.32-1.95,0.98-2.59c0.67-0.64,1.57-0.96,2.73-0.96h6.2
				c0.2,0,0.37,0.17,0.37,0.37v2.39c0,1.37-0.48,2.42-1.47,3.2C247.69,44.64,246.23,45.06,244.42,45.06L244.42,45.06z"/>
		</g>
		<g>
			<path class="st0" d="M283.98,51.27c-1.03,0-1.87-0.84-1.87-1.87V31.25c0-1.69-0.44-3.02-1.32-3.95c-0.88-0.93-2.1-1.39-3.73-1.39
				c-1.63,0-2.85,0.46-3.73,1.41c-0.88,0.94-1.32,2.34-1.32,4.15V49.4c0,1.03-0.84,1.87-1.87,1.87h-4.27
				c-1.03,0-1.87-0.84-1.87-1.87V21.29c0-1.03,0.84-1.87,1.87-1.87h4.11c1.03,0,1.87,0.84,1.87,1.87v1.66
				c0.47-0.88,1.09-1.64,1.88-2.27c1.5-1.21,3.48-1.82,5.87-1.82c3.2,0,5.79,1.07,7.69,3.19c1.89,2.1,2.85,4.95,2.85,8.47V49.4
				c0,1.03-0.84,1.87-1.87,1.87H283.98z"/>
			<path class="st1" d="M279.58,19.36c3.07,0,5.51,1.01,7.32,3.03c1.81,2.02,2.72,4.73,2.72,8.13V49.4c0,0.76-0.61,1.37-1.37,1.37
				h-4.28c-0.76,0-1.37-0.61-1.37-1.37V31.25c0-1.83-0.49-3.26-1.46-4.29c-0.97-1.03-2.34-1.54-4.09-1.54
				c-1.76,0-3.12,0.52-4.09,1.57c-0.97,1.05-1.46,2.54-1.46,4.49V49.4c0,0.76-0.61,1.37-1.37,1.37h-4.28
				c-0.76,0-1.37-0.61-1.37-1.37V21.29c0-0.76,0.61-1.37,1.37-1.37h4.11c0.76,0,1.37,0.61,1.37,1.37v4.52h0.11
				c0.3-2.02,1.16-3.6,2.58-4.74C275.45,19.93,277.3,19.36,279.58,19.36 M279.58,18.36c-2.5,0-4.58,0.65-6.18,1.93
				c-0.39,0.31-0.75,0.66-1.07,1.03v-0.03c0-1.31-1.06-2.37-2.37-2.37h-4.11c-1.31,0-2.37,1.06-2.37,2.37V49.4
				c0,1.31,1.06,2.37,2.37,2.37h4.28c1.31,0,2.37-1.06,2.37-2.37V31.47c0-1.68,0.4-2.96,1.19-3.81c0.78-0.84,1.88-1.25,3.36-1.25
				c1.48,0,2.59,0.4,3.37,1.23c0.8,0.84,1.19,2.02,1.19,3.6V49.4c0,1.31,1.06,2.37,2.37,2.37h4.28c1.31,0,2.37-1.06,2.37-2.37V30.52
				c0-3.64-1-6.6-2.98-8.8C285.64,19.49,282.93,18.36,279.58,18.36L279.58,18.36z"/>
		</g>
		<g>
			<path class="st0" d="M297.33,51.27c-1.03,0-1.87-0.84-1.87-1.87v-4.45c0-0.45,0.16-0.89,0.46-1.23l13.76-15.68
				c0.23-0.26,0.28-0.61,0.14-0.93c-0.14-0.32-0.44-0.51-0.79-0.51h-11.2c-1.03,0-1.87-0.84-1.87-1.87v-3.43
				c0-1.03,0.84-1.87,1.87-1.87h21.05c1.03,0,1.87,0.84,1.87,1.87v4.45c0,0.46-0.17,0.9-0.47,1.24l-13.9,15.68
				c-0.23,0.26-0.29,0.61-0.14,0.93c0.14,0.32,0.44,0.51,0.79,0.51h12.47c1.03,0,1.87,0.84,1.87,1.87v3.43
				c0,1.03-0.84,1.87-1.87,1.87H297.33z"/>
			<path class="st1" d="M318.88,19.92c0.76,0,1.37,0.61,1.37,1.37v4.45c0,0.33-0.12,0.66-0.34,0.91L306,42.32
				c-0.78,0.88-0.16,2.28,1.02,2.28h12.47c0.76,0,1.37,0.61,1.37,1.37v3.43c0,0.76-0.61,1.37-1.37,1.37h-22.17
				c-0.76,0-1.37-0.61-1.37-1.37v-4.45c0-0.33,0.12-0.65,0.34-0.9l13.76-15.68c0.78-0.88,0.15-2.27-1.03-2.27h-11.2
				c-0.76,0-1.37-0.61-1.37-1.37v-3.43c0-0.76,0.61-1.37,1.37-1.37H318.88 M318.88,18.92h-21.05c-1.31,0-2.37,1.06-2.37,2.37v3.43
				c0,1.31,1.06,2.37,2.37,2.37h11.2c0.21,0,0.3,0.14,0.34,0.22c0.04,0.08,0.08,0.24-0.06,0.39l-13.76,15.68
				c-0.38,0.43-0.59,0.99-0.59,1.56v4.45c0,1.31,1.06,2.37,2.37,2.37h22.17c1.31,0,2.37-1.06,2.37-2.37v-3.43
				c0-1.31-1.06-2.37-2.37-2.37h-12.47c-0.21,0-0.3-0.14-0.34-0.22c-0.04-0.08-0.08-0.24,0.06-0.4l13.9-15.68
				c0.38-0.43,0.6-0.99,0.6-1.57v-4.45C321.25,19.98,320.18,18.92,318.88,18.92L318.88,18.92z"/>
		</g>
		<g>
			<path class="st0" d="M339.88,51.83c-2.69,0-5.06-0.53-7.05-1.57c-2-1.05-3.57-2.54-4.66-4.43c-1.09-1.88-1.64-4.11-1.64-6.62
				v-7.74c0-2.51,0.55-4.73,1.64-6.62c1.09-1.89,2.67-3.38,4.69-4.43c2.01-1.04,4.37-1.57,7.02-1.57c2.65,0,4.99,0.53,6.96,1.57
				c1.98,1.05,3.54,2.54,4.63,4.43c1.09,1.89,1.64,4.11,1.64,6.62v4.19c0,1.03-0.84,1.87-1.87,1.87h-16.11
				c-0.48,0-0.87,0.39-0.87,0.87v0.82c0,4.08,1.85,6.06,5.67,6.06c1.47,0,2.65-0.25,3.51-0.75c0.61-0.36,1.05-0.82,1.33-1.42
				c0.29-0.63,0.95-1.03,1.66-1.03h4.19c0.63,0,1.21,0.31,1.57,0.83c0.34,0.5,0.41,1.11,0.19,1.67c-0.75,1.91-2.05,3.51-3.86,4.77
				C346.16,51,343.26,51.83,339.88,51.83z M339.88,25.3c-1.86,0-3.28,0.52-4.2,1.55c-0.94,1.04-1.41,2.6-1.41,4.63v0.67l11.11-0.1
				v-0.63c0-2.03-0.47-3.58-1.38-4.6C343.09,25.81,341.7,25.3,339.88,25.3z"/>
			<path class="st1" d="M339.88,19.36c2.58,0,4.82,0.5,6.73,1.51c1.91,1.01,3.38,2.42,4.43,4.23c1.05,1.81,1.57,3.94,1.57,6.37v4.19
				c0,0.76-0.61,1.37-1.37,1.37h-16.11c-0.76,0-1.37,0.61-1.37,1.37v0.82c0,4.38,2.06,6.56,6.17,6.56c1.57,0,2.82-0.27,3.76-0.81
				c0.7-0.4,1.21-0.95,1.53-1.64c0.22-0.46,0.7-0.74,1.21-0.74h4.19c0.94,0,1.64,0.94,1.3,1.82c-0.72,1.82-1.94,3.34-3.68,4.55
				c-2.28,1.59-5.07,2.38-8.36,2.38c-2.62,0-4.89-0.5-6.81-1.51c-1.93-1.01-3.41-2.42-4.46-4.23c-1.05-1.81-1.57-3.93-1.57-6.37
				v-7.74c0-2.43,0.52-4.55,1.57-6.37c1.05-1.81,2.54-3.23,4.49-4.23C335.03,19.86,337.3,19.36,339.88,19.36 M333.76,32.65
				l12.11-0.11v-1.12c0-2.17-0.5-3.81-1.51-4.94c-1.01-1.12-2.51-1.68-4.49-1.68c-2.02,0-3.54,0.57-4.57,1.71
				c-1.03,1.14-1.54,2.79-1.54,4.96V32.65 M339.88,18.36c-2.73,0-5.17,0.55-7.25,1.63c-2.11,1.09-3.75,2.65-4.89,4.62
				c-1.13,1.96-1.7,4.27-1.7,6.87v7.74c0,2.6,0.57,4.91,1.7,6.87c1.14,1.97,2.77,3.53,4.86,4.62c2.06,1.08,4.51,1.63,7.28,1.63
				c3.48,0,6.49-0.86,8.93-2.56c1.89-1.32,3.25-3,4.04-5c0.28-0.7,0.18-1.5-0.25-2.14c-0.45-0.66-1.19-1.05-1.98-1.05h-4.19
				c-0.91,0-1.74,0.52-2.11,1.32c-0.24,0.5-0.61,0.9-1.13,1.2c-0.78,0.45-1.87,0.68-3.26,0.68c-3.58,0-5.17-1.72-5.17-5.56v-0.82
				c0-0.2,0.17-0.37,0.37-0.37h16.11c1.31,0,2.37-1.06,2.37-2.37v-4.19c0-2.59-0.57-4.9-1.7-6.87c-1.14-1.97-2.76-3.53-4.83-4.62
				C345.03,18.91,342.61,18.36,339.88,18.36L339.88,18.36z M334.76,31.64v-0.17c0-1.9,0.43-3.35,1.28-4.29
				c0.84-0.93,2.09-1.38,3.83-1.38c1.7,0,2.93,0.44,3.74,1.35c0.83,0.93,1.26,2.36,1.26,4.27v0.13L334.76,31.64L334.76,31.64z"/>
		</g>
	</g>
	<g>
		<g>
			<g>
				<path class="st0" d="M27.91,46.72c-0.83,0-1.55-0.53-1.79-1.32l-0.38-1.23c-0.27-0.87,0.13-1.8,0.94-2.21l0.9-0.46
					c0.26-0.13,0.55-0.2,0.84-0.2c0.59,0,1.15,0.28,1.5,0.75l0.77,1.04c0.33,0.44,0.45,1.01,0.32,1.54
					c-0.13,0.54-0.48,0.99-0.98,1.24l-1.3,0.66C28.49,46.66,28.21,46.72,27.91,46.72z"/>
				<path class="st1" d="M28.44,41.8c0.42,0,0.83,0.19,1.1,0.55l0.77,1.04c0.51,0.68,0.28,1.65-0.48,2.04l-1.3,0.66
					c-0.2,0.1-0.41,0.15-0.62,0.15c-0.58,0-1.13-0.37-1.31-0.97l-0.38-1.23c-0.19-0.64,0.1-1.32,0.69-1.62l0.9-0.46
					C28.02,41.84,28.23,41.8,28.44,41.8 M28.44,40.8L28.44,40.8c-0.37,0-0.74,0.09-1.07,0.26l-0.9,0.46c-1.03,0.52-1.53,1.7-1.2,2.8
					l0.38,1.23c0.31,1,1.22,1.68,2.27,1.68c0.37,0,0.74-0.09,1.07-0.26l1.3-0.66c0.63-0.32,1.08-0.89,1.24-1.57
					c0.16-0.68,0.01-1.4-0.41-1.96l-0.77-1.04C29.89,41.15,29.18,40.8,28.44,40.8L28.44,40.8z"/>
			</g>
			<g>
				<path class="st0" d="M40.84,35.05c-0.58,0-1.14-0.28-1.49-0.74l-0.62-0.83c-0.55-0.73-0.5-1.74,0.13-2.41l0.9-0.96
					c0.36-0.38,0.84-0.59,1.36-0.59c0.59,0,1.14,0.27,1.49,0.74l0.89,1.18c0.33,0.44,0.45,1,0.33,1.54
					c-0.12,0.54-0.47,0.99-0.96,1.25l-1.16,0.6C41.43,34.98,41.13,35.05,40.84,35.05z"/>
				<path class="st1" d="M41.11,30.04c0.41,0,0.82,0.18,1.09,0.54l0.89,1.18c0.51,0.68,0.29,1.65-0.46,2.04l-1.16,0.6
					c-0.2,0.1-0.42,0.15-0.63,0.15c-0.42,0-0.83-0.19-1.09-0.54l-0.62-0.83c-0.4-0.53-0.36-1.28,0.1-1.76l0.9-0.95
					C40.39,30.18,40.75,30.04,41.11,30.04 M41.11,29.04L41.11,29.04c-0.66,0-1.27,0.26-1.72,0.74l-0.9,0.95
					c-0.8,0.84-0.87,2.13-0.17,3.05l0.62,0.83c0.45,0.59,1.15,0.94,1.89,0.94c0.38,0,0.75-0.09,1.09-0.27l1.16-0.6
					c0.62-0.32,1.06-0.9,1.22-1.58c0.15-0.68,0-1.39-0.42-1.95L43,29.98C42.55,29.38,41.86,29.04,41.11,29.04L41.11,29.04z"/>
			</g>
			<g>
				<path class="st0" d="M26.9,24.12c-0.36,0-0.72-0.11-1.02-0.31l-1.13-0.74c-0.46-0.3-0.76-0.79-0.83-1.33
					c-0.07-0.55,0.11-1.09,0.48-1.5l1.03-1.12c0.35-0.38,0.85-0.6,1.37-0.6c0.58,0,1.12,0.26,1.48,0.72l0.83,1.07
					c0.56,0.72,0.52,1.74-0.1,2.41l-0.73,0.79C27.92,23.9,27.42,24.12,26.9,24.12z"/>
				<path class="st1" d="M26.8,19.03c0.41,0,0.81,0.18,1.08,0.53l0.83,1.07c0.41,0.53,0.38,1.28-0.08,1.77l-0.73,0.79
					c-0.27,0.29-0.63,0.44-1.01,0.44c-0.26,0-0.52-0.07-0.75-0.22l-1.13-0.74c-0.71-0.46-0.83-1.45-0.25-2.07l1.03-1.12
					C26.07,19.17,26.43,19.03,26.8,19.03 M26.8,18.03L26.8,18.03c-0.66,0-1.29,0.28-1.74,0.76l-1.03,1.12
					c-0.47,0.51-0.7,1.2-0.61,1.9c0.09,0.69,0.47,1.31,1.05,1.69l1.13,0.74c0.39,0.25,0.84,0.39,1.3,0.39
					c0.66,0,1.29-0.28,1.74-0.76l0.73-0.79c0.79-0.85,0.84-2.14,0.13-3.06l-0.83-1.07C28.22,18.36,27.54,18.03,26.8,18.03
					L26.8,18.03z"/>
			</g>
			<g>
				<path class="st0" d="M18.44,40.95c-0.35,0-0.7-0.1-1-0.29l-1.33-0.85c-0.46-0.3-0.77-0.78-0.85-1.32
					c-0.08-0.54,0.09-1.09,0.46-1.5l0.94-1.05c0.35-0.39,0.86-0.62,1.39-0.62c0.36,0,0.7,0.1,1,0.29l0.95,0.6
					c0.77,0.49,1.08,1.47,0.71,2.31l-0.55,1.29C19.87,40.51,19.19,40.95,18.44,40.95z"/>
				<path class="st1" d="M18.05,35.82c0.25,0,0.51,0.07,0.73,0.21l0.95,0.6c0.56,0.36,0.79,1.08,0.52,1.69l-0.55,1.29
					c-0.23,0.53-0.73,0.83-1.26,0.83c-0.25,0-0.5-0.07-0.73-0.21l-1.33-0.85c-0.71-0.45-0.85-1.44-0.28-2.07l0.94-1.05
					C17.3,35.97,17.67,35.82,18.05,35.82 M18.05,34.82c-0.67,0-1.32,0.29-1.76,0.79l-0.94,1.05c-0.47,0.52-0.68,1.21-0.58,1.9
					c0.09,0.69,0.49,1.3,1.07,1.68l1.33,0.85c0.38,0.24,0.82,0.37,1.27,0.37c0.95,0,1.81-0.56,2.18-1.44l0.55-1.29
					c0.46-1.07,0.08-2.3-0.9-2.93l-0.95-0.6C18.94,34.95,18.5,34.82,18.05,34.82L18.05,34.82z"/>
			</g>
			<g>
				<path class="st0" d="M37.18,46.75c-0.34,0-0.68-0.1-0.97-0.28l-1.26-0.77c-0.78-0.48-1.1-1.45-0.75-2.3l0.45-1.09
					c0.29-0.71,0.97-1.16,1.73-1.16c0.14,0,0.28,0.02,0.42,0.05l1.44,0.33c0.53,0.12,0.99,0.47,1.24,0.96
					c0.25,0.49,0.28,1.06,0.07,1.57l-0.63,1.53C38.62,46.29,37.95,46.75,37.18,46.75z"/>
				<path class="st1" d="M36.38,41.65c0.1,0,0.21,0.01,0.31,0.04l1.44,0.33c0.82,0.19,1.28,1.07,0.96,1.85l-0.63,1.53
					c-0.22,0.54-0.73,0.85-1.27,0.85c-0.24,0-0.49-0.06-0.71-0.2l-1.26-0.77c-0.57-0.35-0.81-1.06-0.55-1.68l0.45-1.09
					C35.32,41.97,35.83,41.65,36.38,41.65 M36.38,40.65L36.38,40.65c-0.97,0-1.83,0.58-2.19,1.47l-0.45,1.09
					c-0.44,1.08-0.04,2.31,0.95,2.91l1.26,0.77c0.37,0.23,0.8,0.35,1.24,0.35c0.97,0,1.83-0.58,2.19-1.47L40,44.24
					c0.26-0.64,0.23-1.37-0.09-1.99c-0.32-0.62-0.89-1.06-1.57-1.22l-1.44-0.33C36.73,40.67,36.55,40.65,36.38,40.65L36.38,40.65z"
					/>
			</g>
			<g>
				<path class="st0" d="M39.74,26.4c-0.13,0-0.26-0.01-0.39-0.04l-1.23-0.26c-0.9-0.19-1.52-1-1.48-1.92l0.08-1.55
					c0.05-1,0.87-1.78,1.86-1.78c0.13,0,0.26,0.01,0.39,0.04l1.71,0.37c0.54,0.11,0.99,0.46,1.25,0.94c0.26,0.48,0.3,1.05,0.1,1.56
					l-0.56,1.45C41.2,25.92,40.5,26.4,39.74,26.4z"/>
				<path class="st1" d="M38.59,21.35c0.09,0,0.19,0.01,0.29,0.03l1.71,0.36c0.82,0.18,1.29,1.05,0.99,1.83l-0.56,1.45
					c-0.21,0.54-0.72,0.87-1.28,0.87c-0.09,0-0.19-0.01-0.29-0.03l-1.23-0.26c-0.66-0.14-1.11-0.74-1.08-1.41l0.08-1.55
					C37.26,21.91,37.88,21.35,38.59,21.35 M38.59,20.35L38.59,20.35c-1.26,0-2.3,0.99-2.36,2.25l-0.08,1.55
					c-0.06,1.17,0.73,2.19,1.87,2.43l1.23,0.26c0.16,0.03,0.33,0.05,0.49,0.05c0.97,0,1.86-0.61,2.21-1.51l0.56-1.45
					c0.25-0.65,0.2-1.37-0.13-1.98c-0.33-0.61-0.91-1.04-1.59-1.19l-1.71-0.36C38.92,20.37,38.75,20.35,38.59,20.35L38.59,20.35z"/>
			</g>
			<g>
				<path class="st0" d="M17.35,27.63c-0.5,0-0.99-0.21-1.34-0.57c-0.35-0.37-0.54-0.85-0.53-1.36l0.06-1.85
					c0.03-1.02,0.85-1.81,1.86-1.81c0.12,0,0.23,0.01,0.35,0.03l1.62,0.31c0.91,0.17,1.54,0.97,1.52,1.89l-0.04,1.33
					c-0.03,0.92-0.71,1.68-1.63,1.8l-1.63,0.21C17.51,27.62,17.43,27.63,17.35,27.63z"/>
				<path class="st1" d="M17.41,22.54c0.09,0,0.17,0.01,0.26,0.02l1.62,0.31c0.66,0.13,1.13,0.71,1.11,1.38l-0.04,1.33
					c-0.02,0.67-0.53,1.23-1.19,1.32l-1.63,0.21c-0.06,0.01-0.12,0.01-0.18,0.01c-0.76,0-1.39-0.63-1.36-1.41l0.06-1.85
					C16.06,23.11,16.68,22.54,17.41,22.54 M17.41,21.54L17.41,21.54c-1.29,0-2.33,1.01-2.36,2.3l-0.06,1.85
					c-0.02,0.65,0.22,1.26,0.67,1.72c0.44,0.46,1.06,0.72,1.7,0.72c0.1,0,0.2-0.01,0.31-0.02l1.63-0.21
					c1.16-0.15,2.03-1.11,2.06-2.28l0.04-1.33c0.03-1.17-0.77-2.18-1.92-2.4l-1.62-0.31C17.71,21.55,17.56,21.54,17.41,21.54
					L17.41,21.54z"/>
			</g>
			<g>
				<path class="st0" d="M22.45,49.05c-0.5,0-0.97-0.2-1.32-0.55c-0.35-0.36-0.54-0.83-0.54-1.33l0.01-1.75
					c0.01-0.92,0.68-1.69,1.59-1.83l1.4-0.21c0.09-0.01,0.19-0.02,0.28-0.02c0.82,0,1.53,0.52,1.78,1.3l0.53,1.67
					c0.17,0.52,0.09,1.09-0.2,1.55c-0.29,0.46-0.77,0.78-1.31,0.86l-1.94,0.29C22.63,49.05,22.54,49.05,22.45,49.05z"/>
				<path class="st1" d="M23.86,43.86c0.59,0,1.12,0.38,1.3,0.96l0.53,1.66c0.25,0.8-0.27,1.64-1.1,1.77l-1.94,0.29
					c-0.07,0.01-0.14,0.02-0.21,0.02c-0.74,0-1.37-0.61-1.37-1.38l0.01-1.75c0.01-0.67,0.5-1.24,1.16-1.34l1.4-0.21
					C23.73,43.86,23.8,43.86,23.86,43.86 M23.86,42.86c-0.12,0-0.24,0.01-0.35,0.03l-1.4,0.21c-1.16,0.17-2.01,1.15-2.02,2.32
					l-0.01,1.75c0,0.64,0.24,1.23,0.69,1.69c0.45,0.45,1.04,0.7,1.68,0.7c0.12,0,0.24-0.01,0.35-0.03l1.94-0.29
					c0.69-0.1,1.29-0.5,1.66-1.09c0.37-0.59,0.46-1.31,0.25-1.97l-0.53-1.66C25.81,43.52,24.9,42.86,23.86,42.86L23.86,42.86z"/>
			</g>
			<g>
				<path class="st0" d="M43.51,39.94c-0.8,0-1.51-0.51-1.77-1.27l-0.49-1.43c-0.3-0.88,0.08-1.82,0.9-2.26l1.64-0.86
					c0.27-0.14,0.57-0.22,0.87-0.22c0.8,0,1.51,0.51,1.77,1.27l0.67,1.98c0.18,0.52,0.12,1.08-0.16,1.56
					c-0.28,0.47-0.75,0.79-1.29,0.89l-1.83,0.32C43.72,39.93,43.61,39.94,43.51,39.94z"/>
				<path class="st1" d="M44.66,34.4c0.56,0,1.1,0.35,1.3,0.93l0.67,1.98c0.27,0.8-0.23,1.64-1.06,1.79l-1.83,0.32
					c-0.08,0.01-0.16,0.02-0.24,0.02c-0.58,0-1.1-0.37-1.29-0.93l-0.49-1.43c-0.22-0.64,0.06-1.34,0.66-1.65l1.64-0.86
					C44.23,34.45,44.45,34.4,44.66,34.4 M44.66,33.4L44.66,33.4c-0.38,0-0.76,0.09-1.1,0.27l-1.64,0.86
					c-1.04,0.55-1.52,1.75-1.14,2.86l0.49,1.43c0.33,0.96,1.23,1.6,2.24,1.6c0.14,0,0.27-0.01,0.41-0.04l1.83-0.32
					c0.68-0.12,1.28-0.53,1.63-1.13c0.35-0.6,0.43-1.31,0.2-1.97l-0.67-1.98C46.58,34.05,45.67,33.4,44.66,33.4L44.66,33.4z"/>
			</g>
			<g>
				<path class="st0" d="M30.77,20.6c-0.58,0-1.12-0.26-1.47-0.72l-1.21-1.56c-0.34-0.43-0.47-0.99-0.36-1.52
					c0.11-0.54,0.44-0.99,0.92-1.26l1.94-1.08c0.28-0.15,0.59-0.24,0.91-0.24c0.78,0,1.48,0.49,1.75,1.22l0.68,1.85
					c0.32,0.87-0.03,1.83-0.84,2.28l-1.41,0.79C31.4,20.52,31.08,20.6,30.77,20.6z"/>
				<path class="st1" d="M31.49,14.73c0.55,0,1.08,0.33,1.28,0.89l0.68,1.85c0.23,0.63-0.03,1.34-0.62,1.67l-1.41,0.79
					c-0.21,0.12-0.44,0.17-0.66,0.17c-0.41,0-0.81-0.18-1.08-0.53l-1.21-1.56c-0.52-0.66-0.32-1.63,0.41-2.04l1.94-1.08
					C31.04,14.78,31.27,14.73,31.49,14.73 M31.49,13.73L31.49,13.73c-0.4,0-0.8,0.1-1.15,0.3l-1.94,1.08
					c-0.61,0.34-1.03,0.92-1.17,1.6c-0.14,0.68,0.03,1.38,0.45,1.93l1.21,1.56c0.45,0.58,1.13,0.91,1.87,0.91
					c0.4,0,0.8-0.1,1.15-0.3l1.41-0.79c1.03-0.57,1.48-1.79,1.07-2.89l-0.68-1.85C33.37,14.35,32.48,13.73,31.49,13.73L31.49,13.73z
					"/>
			</g>
			<g>
				<path class="st0" d="M13.41,37.9c-0.56,0-1.09-0.25-1.44-0.68l-1.5-1.83c-0.35-0.42-0.49-0.97-0.4-1.51
					c0.09-0.54,0.42-1.01,0.89-1.28l1.81-1.07c0.29-0.17,0.62-0.26,0.95-0.26c0.56,0,1.09,0.25,1.44,0.68l1.1,1.33
					c0.59,0.72,0.57,1.74-0.05,2.43l-1.4,1.57C14.45,37.67,13.94,37.9,13.41,37.9z"/>
				<path class="st1" d="M13.72,31.76c0.4,0,0.79,0.17,1.06,0.5l1.1,1.33c0.43,0.52,0.41,1.28-0.04,1.78l-1.4,1.57
					c-0.27,0.3-0.65,0.45-1.02,0.45c-0.39,0-0.78-0.17-1.06-0.5l-1.5-1.83c-0.53-0.65-0.36-1.62,0.36-2.04l1.81-1.07
					C13.24,31.82,13.48,31.76,13.72,31.76 M13.72,30.76L13.72,30.76c-0.42,0-0.84,0.11-1.21,0.33l-1.81,1.07
					c-0.59,0.35-1,0.95-1.12,1.63c-0.12,0.68,0.06,1.38,0.5,1.91l1.5,1.83c0.45,0.55,1.12,0.87,1.83,0.87
					c0.67,0,1.31-0.29,1.76-0.79l1.4-1.57c0.79-0.88,0.81-2.17,0.07-3.08l-1.1-1.33C15.1,31.08,14.43,30.76,13.72,30.76L13.72,30.76
					z"/>
			</g>
			<g>
				<path class="st0" d="M33.98,52.74c-0.54,0-1.05-0.23-1.41-0.64l-1.47-1.69c-0.61-0.7-0.62-1.72-0.02-2.43l1.19-1.41
					c0.36-0.42,0.88-0.66,1.43-0.66c0.35,0,0.68,0.1,0.98,0.28l1.91,1.18c0.46,0.29,0.78,0.76,0.86,1.3
					c0.08,0.54-0.07,1.09-0.42,1.5l-1.63,1.92C35.05,52.5,34.53,52.74,33.98,52.74z"/>
				<path class="st1" d="M33.7,46.41c0.25,0,0.49,0.07,0.72,0.2l1.91,1.18c0.71,0.44,0.87,1.41,0.33,2.05l-1.63,1.92
					c-0.27,0.32-0.66,0.48-1.04,0.48c-0.38,0-0.76-0.16-1.03-0.47l-1.47-1.69c-0.44-0.51-0.45-1.27-0.01-1.78l1.19-1.41
					C32.93,46.57,33.31,46.41,33.7,46.41 M33.71,45.41L33.71,45.41c-0.7,0-1.36,0.31-1.81,0.84l-1.19,1.41
					c-0.76,0.9-0.75,2.2,0.02,3.09l1.47,1.69c0.45,0.52,1.1,0.81,1.79,0.81c0.7,0,1.35-0.3,1.81-0.84l1.63-1.92
					c0.45-0.53,0.64-1.22,0.53-1.9c-0.11-0.68-0.51-1.28-1.1-1.64l-1.91-1.18C34.57,45.53,34.14,45.41,33.71,45.41L33.71,45.41z"/>
			</g>
			<g>
				<path class="st0" d="M45.46,29.04c-0.33,0-0.65-0.09-0.93-0.25l-1.7-0.98c-0.81-0.47-1.14-1.43-0.8-2.3l0.87-2.22
					c0.28-0.72,0.97-1.19,1.74-1.19c0.33,0,0.65,0.09,0.93,0.25l2.32,1.34c0.47,0.27,0.8,0.73,0.9,1.27
					c0.1,0.53-0.04,1.09-0.37,1.51l-1.48,1.86C46.57,28.78,46.03,29.04,45.46,29.04z"/>
				<path class="st1" d="M44.63,22.6c0.23,0,0.47,0.06,0.68,0.18l2.32,1.34c0.72,0.42,0.91,1.38,0.39,2.04l-1.48,1.86
					c-0.27,0.34-0.67,0.52-1.07,0.52c-0.23,0-0.47-0.06-0.68-0.18l-1.7-0.98c-0.59-0.34-0.84-1.05-0.59-1.68l0.87-2.22
					C43.57,22.92,44.09,22.6,44.63,22.6 M44.63,21.6L44.63,21.6c-0.98,0-1.85,0.59-2.21,1.5l-0.87,2.22c-0.43,1.1,0,2.32,1.02,2.92
					l1.7,0.98c0.36,0.21,0.77,0.32,1.18,0.32c0.73,0,1.4-0.33,1.85-0.89l1.48-1.86c0.43-0.54,0.6-1.24,0.47-1.92
					c-0.13-0.68-0.55-1.26-1.14-1.61l-2.32-1.34C45.45,21.71,45.04,21.6,44.63,21.6L44.63,21.6z"/>
			</g>
			<g>
				<path class="st0" d="M20.04,21.81c-0.12,0-0.24-0.01-0.37-0.04l-2.48-0.49c-0.53-0.11-0.99-0.44-1.26-0.91
					c-0.27-0.47-0.32-1.04-0.13-1.55l0.96-2.68c0.27-0.74,0.97-1.24,1.76-1.24c0.3,0,0.61,0.08,0.88,0.22l2.23,1.19
					c0.81,0.43,1.19,1.41,0.88,2.28l-0.71,1.98C21.53,21.31,20.83,21.81,20.04,21.81z"/>
				<path class="st1" d="M18.51,15.4c0.22,0,0.44,0.05,0.64,0.16l2.23,1.19c0.6,0.32,0.87,1.03,0.64,1.67l-0.71,1.98
					c-0.2,0.55-0.72,0.91-1.29,0.91c-0.09,0-0.18-0.01-0.27-0.03l-2.48-0.49c-0.82-0.16-1.3-1.02-1.02-1.8l0.96-2.68
					C17.43,15.74,17.96,15.4,18.51,15.4 M18.51,14.4L18.51,14.4c-1,0-1.9,0.63-2.23,1.57l-0.96,2.68c-0.23,0.65-0.17,1.36,0.17,1.96
					c0.34,0.6,0.92,1.02,1.6,1.16l2.48,0.49c0.15,0.03,0.31,0.05,0.46,0.05c1,0,1.89-0.63,2.23-1.57l0.71-1.98
					c0.39-1.1-0.09-2.34-1.11-2.88l-2.23-1.19C19.29,14.5,18.9,14.4,18.51,14.4L18.51,14.4z"/>
			</g>
			<g>
				<path class="st0" d="M18,49.65c-0.1,0-0.2-0.01-0.31-0.03l-2.98-0.49c-0.54-0.09-1.01-0.4-1.29-0.87s-0.35-1.03-0.19-1.54
					l0.81-2.56c0.25-0.78,0.96-1.3,1.78-1.3c0.1,0,0.2,0.01,0.3,0.03l2.22,0.36c0.91,0.15,1.58,0.96,1.56,1.88l-0.05,2.69
					C19.85,48.83,19.01,49.65,18,49.65z"/>
				<path class="st1" d="M15.83,43.36c0.07,0,0.15,0.01,0.22,0.02l2.22,0.36c0.67,0.11,1.16,0.7,1.15,1.37l-0.05,2.69
					c-0.01,0.76-0.63,1.34-1.37,1.34c-0.07,0-0.15-0.01-0.22-0.02l-2.98-0.49c-0.82-0.14-1.33-0.97-1.08-1.76l0.81-2.56
					C14.71,43.74,15.24,43.36,15.83,43.36 M15.83,42.36c-1.03,0-1.94,0.66-2.26,1.65l-0.81,2.56c-0.21,0.66-0.12,1.37,0.24,1.96
					s0.96,0.99,1.63,1.1l2.98,0.49c0.13,0.02,0.26,0.03,0.39,0.03c1.28,0,2.34-1.04,2.36-2.33l0.05-2.69
					c0.02-1.17-0.83-2.19-1.98-2.38l-2.22-0.36C16.09,42.37,15.96,42.36,15.83,42.36L15.83,42.36z"/>
			</g>
			<g>
				<path class="st0" d="M47.15,47.14c-0.08,0-0.16,0-0.24-0.01l-2.83-0.36c-0.92-0.12-1.62-0.9-1.63-1.82l-0.04-2.39
					c-0.02-0.92,0.66-1.73,1.57-1.88l2.81-0.45c0.1-0.02,0.2-0.02,0.3-0.02c1.01,0,1.85,0.82,1.86,1.84l0.05,3.2
					c0.01,0.5-0.18,0.98-0.53,1.34C48.12,46.94,47.65,47.14,47.15,47.14z"/>
				<path class="st1" d="M47.09,40.71c0.73,0,1.35,0.59,1.37,1.34l0.05,3.2c0.01,0.77-0.61,1.39-1.37,1.39c-0.06,0-0.12,0-0.17-0.01
					l-2.83-0.36c-0.67-0.09-1.18-0.65-1.2-1.33l-0.04-2.39c-0.01-0.68,0.48-1.27,1.15-1.37l2.81-0.45
					C46.94,40.71,47.02,40.71,47.09,40.71 M47.09,39.71L47.09,39.71c-0.12,0-0.25,0.01-0.38,0.03l-2.81,0.45
					c-1.16,0.19-2.01,1.21-1.99,2.38l0.04,2.39c0.02,1.17,0.91,2.16,2.07,2.31l2.83,0.36c0.1,0.01,0.2,0.02,0.3,0.02
					c0.64,0,1.24-0.25,1.69-0.71c0.45-0.46,0.69-1.06,0.68-1.7l-0.05-3.2C49.43,40.75,48.37,39.71,47.09,39.71L47.09,39.71z"/>
			</g>
			<g>
				<path class="st0" d="M36.56,18.76c-0.79,0-1.5-0.5-1.76-1.25l-1-2.85c-0.18-0.51-0.13-1.07,0.14-1.54
					c0.27-0.47,0.73-0.8,1.26-0.91l3.32-0.66c0.12-0.02,0.25-0.04,0.37-0.04c0.99,0,1.81,0.77,1.86,1.76l0.17,3.02
					c0.05,0.92-0.59,1.76-1.5,1.94l-2.5,0.5C36.8,18.75,36.68,18.76,36.56,18.76z"/>
				<path class="st1" d="M38.88,12.01c0.71,0,1.32,0.55,1.36,1.29l0.17,3.02c0.04,0.68-0.43,1.29-1.1,1.42l-2.5,0.5
					c-0.09,0.02-0.18,0.03-0.27,0.03c-0.57,0-1.09-0.36-1.29-0.92l-1-2.85c-0.28-0.78,0.21-1.63,1.02-1.79l3.32-0.66
					C38.71,12.02,38.8,12.01,38.88,12.01 M38.89,11.01c-0.16,0-0.31,0.02-0.47,0.05l-3.32,0.66c-0.67,0.13-1.25,0.55-1.59,1.15
					c-0.34,0.6-0.4,1.31-0.18,1.96l1,2.85c0.33,0.95,1.23,1.58,2.23,1.58c0.16,0,0.31-0.02,0.47-0.05l2.5-0.5
					c1.15-0.23,1.97-1.29,1.9-2.46l-0.17-3.02C41.17,11.99,40.14,11.01,38.89,11.01L38.89,11.01z"/>
			</g>
			<g>
				<path class="st0" d="M9.21,32.38c-0.77,0-1.45-0.46-1.74-1.18l-1.32-3.33c-0.2-0.5-0.17-1.06,0.08-1.54s0.69-0.83,1.21-0.96
					l3.11-0.77c0.15-0.04,0.3-0.05,0.45-0.05c0.77,0,1.45,0.46,1.74,1.18l1,2.52c0.34,0.86-0.01,1.86-0.82,2.32l-2.78,1.58
					C9.85,32.29,9.53,32.38,9.21,32.38z"/>
				<path class="st1" d="M10.99,25.05c0.55,0,1.06,0.33,1.27,0.86l1,2.52c0.25,0.64,0,1.36-0.6,1.7L9.88,31.7
					c-0.21,0.12-0.44,0.18-0.67,0.18c-0.54,0-1.06-0.32-1.27-0.86l-1.32-3.33c-0.31-0.77,0.14-1.63,0.94-1.83l3.11-0.77
					C10.77,25.06,10.88,25.05,10.99,25.05 M10.99,24.05L10.99,24.05c-0.19,0-0.38,0.02-0.57,0.07l-3.11,0.77
					c-0.66,0.16-1.23,0.61-1.54,1.22c-0.31,0.61-0.35,1.32-0.1,1.96l1.32,3.33c0.36,0.91,1.23,1.49,2.2,1.49
					c0.41,0,0.81-0.11,1.16-0.31L13.16,31c1.02-0.58,1.47-1.84,1.03-2.94l-1-2.52C12.83,24.64,11.97,24.05,10.99,24.05L10.99,24.05z
					"/>
			</g>
			<g>
				<path class="st0" d="M27.57,58.03c-0.73,0-1.4-0.43-1.7-1.1l-1.4-3.08c-0.38-0.85-0.08-1.86,0.71-2.35l2.44-1.53
					c0.3-0.19,0.64-0.28,0.99-0.28c0.56,0,1.08,0.25,1.44,0.68l2.16,2.61c0.34,0.41,0.49,0.96,0.41,1.49c-0.09,0.53-0.4,1-0.85,1.29
					l-3.2,2C28.26,57.93,27.92,58.03,27.57,58.03z"/>
				<path class="st1" d="M28.62,50.19c0.4,0,0.79,0.17,1.05,0.5l2.16,2.61c0.53,0.64,0.37,1.59-0.33,2.03l-3.2,2
					c-0.23,0.14-0.48,0.21-0.72,0.21c-0.52,0-1.02-0.29-1.25-0.8l-1.4-3.08c-0.28-0.62-0.06-1.36,0.52-1.72l2.44-1.53
					C28.12,50.25,28.37,50.19,28.62,50.19 M28.62,49.19c-0.44,0-0.88,0.12-1.26,0.36l-2.44,1.53c-1,0.63-1.39,1.91-0.9,2.98
					l1.4,3.08c0.38,0.85,1.23,1.39,2.16,1.39c0.44,0,0.88-0.12,1.25-0.36l3.2-2c0.58-0.36,0.97-0.96,1.08-1.63
					c0.11-0.67-0.08-1.36-0.51-1.89l-2.16-2.61C29.99,49.5,29.32,49.19,28.62,49.19L28.62,49.19z"/>
			</g>
			<g>
				<path class="st0" d="M50.48,34.79c-0.52,0-1.03-0.22-1.38-0.61l-2.07-2.26c-0.63-0.69-0.65-1.75-0.05-2.47l2.31-2.73
					c0.36-0.42,0.88-0.66,1.43-0.66c0.52,0,1.03,0.22,1.38,0.61l2.68,2.94c0.36,0.4,0.54,0.93,0.48,1.46
					c-0.06,0.53-0.35,1.02-0.79,1.32l-2.93,2.05C51.24,34.68,50.87,34.79,50.48,34.79z"/>
				<path class="st1" d="M50.73,26.57c0.37,0,0.74,0.15,1.01,0.45l2.68,2.94c0.56,0.61,0.45,1.57-0.23,2.04l-2.93,2.05
					c-0.24,0.17-0.51,0.25-0.78,0.25c-0.37,0-0.74-0.15-1.01-0.45l-2.07-2.26c-0.46-0.51-0.48-1.28-0.03-1.81l2.31-2.73
					C49.95,26.73,50.34,26.57,50.73,26.57 M50.73,25.57L50.73,25.57c-0.7,0-1.36,0.31-1.81,0.84l-2.31,2.73
					c-0.77,0.91-0.74,2.25,0.06,3.13l2.07,2.26c0.45,0.49,1.09,0.77,1.75,0.77c0.49,0,0.96-0.15,1.36-0.43l2.93-2.05
					c0.56-0.39,0.92-1,1-1.68c0.08-0.68-0.15-1.35-0.6-1.86l-2.68-2.94C52.03,25.85,51.39,25.57,50.73,25.57L50.73,25.57z"/>
			</g>
			<g>
				<path class="st0" d="M23.76,16.36c-0.33,0-0.65-0.09-0.94-0.25l-3.26-1.89c-0.46-0.27-0.79-0.72-0.89-1.25
					c-0.1-0.53,0.02-1.07,0.35-1.5l2.54-3.33c0.36-0.47,0.9-0.74,1.49-0.74c0.49,0,0.95,0.19,1.31,0.53l2.69,2.64
					c0.67,0.66,0.75,1.72,0.18,2.47l-1.97,2.59C24.89,16.08,24.34,16.36,23.76,16.36z"/>
				<path class="st1" d="M23.03,7.9c0.34,0,0.69,0.13,0.96,0.39l2.69,2.64c0.49,0.48,0.55,1.26,0.13,1.81l-1.97,2.59
					c-0.27,0.35-0.67,0.54-1.09,0.54c-0.23,0-0.47-0.06-0.69-0.18l-3.26-1.89c-0.71-0.41-0.9-1.36-0.4-2.01l2.54-3.33
					C22.21,8.08,22.62,7.9,23.03,7.9 M23.03,6.9L23.03,6.9c-0.75,0-1.43,0.34-1.88,0.93l-2.54,3.33c-0.41,0.54-0.57,1.23-0.44,1.9
					c0.13,0.67,0.55,1.24,1.13,1.58l3.26,1.89c0.36,0.21,0.77,0.32,1.19,0.32c0.74,0,1.44-0.35,1.89-0.93l1.97-2.59
					c0.72-0.95,0.62-2.29-0.23-3.13l-2.69-2.64C24.24,7.14,23.65,6.9,23.03,6.9L23.03,6.9z"/>
			</g>
			<g>
				<path class="st0" d="M10.57,47.88c-0.29,0-0.58-0.07-0.84-0.2l-3.93-1.99c-0.48-0.24-0.83-0.68-0.96-1.19S4.8,43.43,5.1,42.99
					l2.21-3.3c0.35-0.52,0.93-0.83,1.55-0.83c0.29,0,0.58,0.07,0.84,0.2l3.07,1.56c0.84,0.43,1.23,1.42,0.91,2.31l-1.36,3.73
					C12.06,47.39,11.36,47.88,10.57,47.88z"/>
				<path class="st1" d="M8.86,39.35c0.21,0,0.42,0.05,0.62,0.15l3.07,1.56c0.62,0.31,0.9,1.04,0.67,1.69l-1.36,3.73
					c-0.2,0.56-0.73,0.9-1.29,0.9c-0.21,0-0.42-0.05-0.62-0.15l-3.93-1.99c-0.73-0.37-0.97-1.3-0.52-1.98l2.21-3.3
					C7.98,39.57,8.42,39.35,8.86,39.35 M8.86,38.35L8.86,38.35c-0.79,0-1.53,0.39-1.97,1.05l-2.21,3.3
					c-0.38,0.56-0.49,1.26-0.32,1.92c0.17,0.66,0.62,1.21,1.22,1.51l3.93,1.99c0.33,0.17,0.7,0.26,1.07,0.26
					c0.99,0,1.89-0.63,2.23-1.56l1.36-3.73c0.41-1.12-0.09-2.38-1.15-2.92l-3.07-1.56C9.6,38.44,9.23,38.35,8.86,38.35L8.86,38.35z"
					/>
			</g>
			<g>
				<path class="st0" d="M44.88,56.16c-0.25,0-0.5-0.05-0.73-0.15l-3.84-1.64c-0.87-0.37-1.33-1.34-1.06-2.25l1.04-3.51
					c0.23-0.79,0.97-1.34,1.79-1.34c0.11,0,0.22,0.01,0.33,0.03l4.12,0.73c0.52,0.09,0.98,0.4,1.26,0.86c0.28,0.45,0.35,1,0.2,1.51
					l-1.31,4.42C46.43,55.61,45.7,56.16,44.88,56.16z"/>
				<path class="st1" d="M42.07,47.78c0.08,0,0.16,0.01,0.24,0.02l4.12,0.73c0.81,0.14,1.31,0.95,1.07,1.74l-1.31,4.42
					c-0.18,0.6-0.73,0.98-1.31,0.98c-0.18,0-0.36-0.04-0.54-0.11l-3.84-1.64c-0.64-0.27-0.97-0.98-0.78-1.65l1.04-3.51
					C40.94,48.17,41.48,47.78,42.07,47.78 M42.07,46.78L42.07,46.78c-1.04,0-1.97,0.7-2.27,1.7l-1.04,3.51
					c-0.34,1.15,0.24,2.38,1.34,2.85l3.84,1.64c0.3,0.13,0.61,0.19,0.93,0.19c1.04,0,1.97-0.7,2.27-1.69l1.31-4.42
					c0.19-0.65,0.1-1.35-0.26-1.92c-0.35-0.57-0.94-0.97-1.6-1.09l-4.12-0.73C42.35,46.79,42.21,46.78,42.07,46.78L42.07,46.78z"/>
			</g>
			<g>
				<path class="st0" d="M46.81,19.84c-0.07,0-0.13,0-0.2-0.01l-3.85-0.42c-0.95-0.1-1.67-0.9-1.67-1.86l0-4.39
					c0-0.5,0.2-0.97,0.55-1.33c0.35-0.35,0.82-0.54,1.31-0.54c0.07,0,0.13,0,0.2,0.01l4.8,0.52c0.53,0.06,1.01,0.34,1.32,0.77
					c0.31,0.43,0.42,0.97,0.31,1.49l-0.94,4.29C48.44,19.22,47.68,19.84,46.81,19.84z"/>
				<path class="st1" d="M42.95,11.8c0.05,0,0.1,0,0.15,0.01l4.8,0.52c0.81,0.09,1.36,0.86,1.19,1.65l-0.94,4.29
					c-0.14,0.63-0.7,1.07-1.33,1.07c-0.05,0-0.1,0-0.15-0.01l-3.85-0.42c-0.69-0.07-1.22-0.66-1.22-1.36l0-4.39
					C41.58,12.4,42.21,11.8,42.95,11.8 M42.95,10.8L42.95,10.8c-0.63,0-1.22,0.24-1.67,0.69c-0.45,0.45-0.7,1.04-0.7,1.68l0,4.39
					c0,1.21,0.91,2.22,2.11,2.35l3.85,0.42c0.09,0.01,0.17,0.01,0.25,0.01c1.1,0,2.07-0.78,2.31-1.86l0.94-4.29
					c0.14-0.66,0-1.35-0.39-1.89c-0.39-0.55-1-0.9-1.67-0.97l-4.8-0.52C43.12,10.8,43.04,10.8,42.95,10.8L42.95,10.8z"/>
			</g>
			<g>
				<path class="st0" d="M6.93,24.51c-0.97,0-1.79-0.76-1.86-1.73l-0.37-5.03c-0.04-0.52,0.14-1.03,0.49-1.41
					c0.35-0.38,0.85-0.6,1.37-0.6l4.67,0.13c0.96,0.03,1.74,0.77,1.81,1.73l0.3,4.09c0.07,0.96-0.59,1.81-1.54,1.98l-4.54,0.81
					C7.14,24.5,7.03,24.51,6.93,24.51z"/>
				<path class="st1" d="M6.56,16.25c0.01,0,0.03,0,0.04,0l4.61,0.13c0.7,0.02,1.27,0.57,1.33,1.27l0.3,4.09
					c0.05,0.7-0.43,1.33-1.13,1.45l-4.54,0.81C7.09,24.01,7,24.01,6.93,24.01c-0.7,0-1.31-0.54-1.36-1.27l-0.37-5.03
					C5.13,16.92,5.76,16.25,6.56,16.25 M6.56,15.25L6.56,15.25c-0.66,0-1.29,0.28-1.73,0.76c-0.45,0.48-0.67,1.13-0.63,1.79
					l0.37,5.03c0.09,1.23,1.13,2.19,2.36,2.19c0.14,0,0.28-0.01,0.42-0.04l4.54-0.81c1.2-0.21,2.04-1.29,1.95-2.51l-0.3-4.09
					c-0.09-1.22-1.08-2.16-2.29-2.19l-4.61-0.13l-0.01,0L6.56,15.25L6.56,15.25z"/>
			</g>
			<g>
				<path class="st0" d="M18.15,61.03c-0.92,0-1.7-0.66-1.84-1.57l-0.77-4.77c-0.15-0.96,0.44-1.86,1.37-2.1l4.2-1.1
					c0.15-0.04,0.31-0.06,0.47-0.06c0.78,0,1.49,0.49,1.75,1.23l1.66,4.54c0.18,0.49,0.14,1.04-0.1,1.51
					c-0.24,0.47-0.68,0.81-1.18,0.94l-5.09,1.33C18.47,61.01,18.31,61.03,18.15,61.03z"/>
				<path class="st1" d="M21.58,51.93c0.56,0,1.08,0.35,1.28,0.9l1.66,4.54c0.28,0.76-0.16,1.59-0.94,1.79l-5.09,1.33
					c-0.12,0.03-0.23,0.04-0.35,0.04c-0.65,0-1.24-0.47-1.35-1.15l-0.77-4.77c-0.11-0.7,0.32-1.36,1.01-1.54l4.2-1.1
					C21.35,51.94,21.47,51.93,21.58,51.93 M21.58,50.93L21.58,50.93c-0.2,0-0.4,0.03-0.6,0.08l-4.2,1.1
					c-1.19,0.31-1.94,1.46-1.74,2.67l0.77,4.77c0.19,1.15,1.17,1.99,2.34,1.99c0.2,0,0.4-0.03,0.6-0.08l5.09-1.33
					c0.64-0.17,1.19-0.6,1.5-1.19c0.31-0.59,0.36-1.29,0.13-1.91l-1.66-4.54C23.47,51.55,22.57,50.93,21.58,50.93L21.58,50.93z"/>
			</g>
			<g>
				<path class="st0" d="M53.31,43.46c-0.72,0-1.39-0.42-1.69-1.08l-1.94-4.17c-0.41-0.88-0.09-1.92,0.76-2.41l4.38-2.53
					c0.28-0.16,0.61-0.25,0.93-0.25c0.72,0,1.39,0.42,1.69,1.08l2.32,4.96c0.22,0.47,0.23,1.02,0.03,1.5
					c-0.2,0.48-0.6,0.86-1.09,1.04l-4.76,1.74C53.74,43.42,53.53,43.46,53.31,43.46z"/>
				<path class="st1" d="M55.75,33.52c0.51,0,1.01,0.29,1.24,0.79l2.32,4.96c0.34,0.73-0.02,1.59-0.77,1.86l-4.76,1.74
					c-0.15,0.06-0.31,0.08-0.47,0.08c-0.52,0-1.01-0.3-1.24-0.79L50.13,38c-0.3-0.64-0.06-1.41,0.56-1.76l4.38-2.53
					C55.28,33.58,55.52,33.52,55.75,33.52 M55.75,32.52c-0.41,0-0.82,0.11-1.18,0.32l-4.38,2.53c-1.07,0.62-1.48,1.93-0.96,3.05
					l1.94,4.17c0.39,0.83,1.23,1.37,2.15,1.37c0.28,0,0.55-0.05,0.81-0.14l4.76-1.74c0.62-0.23,1.12-0.71,1.38-1.32
					c0.25-0.61,0.24-1.31-0.04-1.91l-2.32-4.96C57.51,33.06,56.67,32.52,55.75,32.52L55.75,32.52z"/>
			</g>
			<g>
				<path class="st0" d="M30.03,12.24c-0.55,0-1.08-0.24-1.43-0.67l-3.4-4.06c-0.33-0.4-0.49-0.92-0.42-1.44
					c0.07-0.52,0.35-0.98,0.77-1.28l4.64-3.3c0.32-0.23,0.69-0.35,1.08-0.35c0.66,0,1.26,0.34,1.6,0.91l2.72,4.55
					c0.5,0.83,0.27,1.92-0.52,2.48l-3.96,2.81C30.79,12.12,30.42,12.24,30.03,12.24z"/>
				<path class="st1" d="M31.26,1.64c0.46,0,0.92,0.23,1.18,0.67l2.72,4.55c0.37,0.61,0.2,1.4-0.38,1.82l-3.96,2.81
					c-0.24,0.17-0.52,0.25-0.79,0.25c-0.39,0-0.78-0.17-1.05-0.49l-3.4-4.06c-0.51-0.61-0.39-1.53,0.26-1.99l4.64-3.3
					C30.71,1.73,30.99,1.64,31.26,1.64 M31.26,0.64c-0.49,0-0.97,0.15-1.37,0.44l-4.64,3.3c-0.54,0.38-0.89,0.97-0.98,1.63
					c-0.08,0.65,0.11,1.32,0.53,1.82l3.4,4.06c0.45,0.54,1.11,0.85,1.82,0.85c0.49,0,0.97-0.15,1.37-0.44l3.96-2.81
					c1-0.71,1.29-2.09,0.66-3.15L33.3,1.8C32.87,1.09,32.09,0.64,31.26,0.64L31.26,0.64z"/>
			</g>
		</g>
		<rect x="1.5" y="1" class="st2" width="60" height="60"/>
	</g>
</g>
</svg>
