<svg xmlns="http://www.w3.org/2000/svg" viewBox="0 0 264.71 42.65" fill="#1fcc9a">
  <path d="M9.96 40.62l12.68-7.31c.44-.25.98-.25 1.42 0l12.67 7.31c.95.55 2.13-.14 2.13-1.23v-5.67c0-.51-.27-.98-.71-1.23l-14.09-8.13a1.44 1.44 0 00-1.42 0l-14.1 8.13c-.44.25-.71.72-.71 1.23v5.67c0 1.1 1.18 1.78 2.13 1.23z"/>
  <path d="M19.77 40.39l2.86-1.65c.44-.25.98-.25 1.42 0l2.86 1.65c.95.55 2.13-.14 2.13-1.23v-.01c0-.51-.27-.98-.71-1.23l-4.28-2.47a1.44 1.44 0 00-1.42 0l-4.28 2.47c-.44.25-.71.72-.71 1.23v.01a1.42 1.42 0 002.13 1.23zM14.09 1.42v14.64c0 .51-.27.98-.71 1.23L.71 24.6a1.42 1.42 0 000 2.46l4.91 2.84c.44.25.98.25 1.42 0l14.09-8.14c.44-.25.71-.72.71-1.23l.01-16.27c0-.51-.27-.98-.71-1.23L16.23.19a1.43 1.43 0 00-2.14 1.23z"/>
  <path d="M9.4 10.04v3.31c0 .51-.27.98-.71 1.23l-2.86 1.65a1.42 1.42 0 000 2.46h.01c.44.25.98.25 1.42 0l4.28-2.47c.44-.25.71-.72.71-1.23v-4.95c0-.51-.27-.98-.71-1.23h-.01a1.42 1.42 0 00-2.13 1.23zM45.97 24.6L33.3 17.28a1.41 1.41 0 01-.71-1.23V1.42A1.42 1.42 0 0030.46.19l-4.91 2.83c-.44.25-.71.72-.71 1.23v16.27c0 .51.27.98.71 1.23l14.09 8.14c.44.25.98.25 1.42 0l4.91-2.84a1.4 1.4 0 000-2.45z"/>
  <path d="M40.86 16.23L38 14.57a1.41 1.41 0 01-.71-1.23v-3.31a1.42 1.42 0 00-2.13-1.23l-.01.01c-.44.25-.71.72-.71 1.23v4.95c0 .51.27.97.71 1.23l4.28 2.47c.44.25.98.25 1.42 0l.01-.01a1.4 1.4 0 000-2.45z"/>
  <g>
    <path d="M74.14 26.39c0 1.23-.33 2.2-.99 2.88a3.57 3.57 0 01-2.72 1.03 3.64 3.64 0 01-2.74-1.01c-.65-.67-.97-1.64-.97-2.9V6.19a1 1 0 00-1-1h-4.17a1 1 0 00-1 1v20.24c0 2.85.88 5.1 2.65 6.75 1.77 1.65 4.18 2.47 7.22 2.47 3.05 0 5.45-.82 7.22-2.47 1.77-1.65 2.65-3.9 2.65-6.75V6.19a1 1 0 00-1-1h-4.17a1 1 0 00-1 1v20.2zM96.69 12.19c-2.17 0-3.81.62-4.94 1.87a6.33 6.33 0 00-1.38 2.86h-.1V13.6a1 1 0 00-1-1h-3.76a1 1 0 00-1 1v20.64a1 1 0 001 1h4.17a1 1 0 001-1v-13c0-1.23.32-2.2.95-2.88.63-.69 1.52-1.03 2.68-1.03 1.15 0 2.06.34 2.72 1.03a4 4 0 01.99 2.88v.44a1 1 0 001 1h4.59a1 1 0 001-1v-.85c0-2.74-.69-4.87-2.08-6.38-1.4-1.51-3.34-2.26-5.84-2.26zM118.88 12.19c-1.89 0-3.37.54-4.42 1.63a5.57 5.57 0 00-1.47 3.11h-.11V13.6a1 1 0 00-1-1h-3.97a1 1 0 00-1 1v28.05a1 1 0 001 1h4.17a1 1 0 001-1v-5.17l-.21-5.56h.11c.2 1.27.69 2.31 1.47 3.11 1.06 1.08 2.53 1.63 4.42 1.63 2.28 0 4.1-.8 5.47-2.41s2.06-3.75 2.06-6.44v-5.76c0-2.69-.69-4.84-2.06-6.44a6.76 6.76 0 00-5.46-2.42zm1.36 14.4a3.8 3.8 0 01-.93 2.74c-.62.65-1.5.97-2.65.97-1.13 0-2-.32-2.63-.97a3.75 3.75 0 01-.95-2.74v-5.35c0-1.18.31-2.09.95-2.74a3.53 3.53 0 012.63-.97c1.15 0 2.04.32 2.65.97.62.65.93 1.56.93 2.74v5.35zM137.32 7.04a6.32 6.32 0 00-2.06 4.94v.44a1 1 0 01-1 1h-3.97a1 1 0 00-1 1v3.56a1 1 0 001 1h3.97a1 1 0 011 1v14.26a1 1 0 001 1h4.17a1 1 0 001-1V19.98a1 1 0 011-1h6.23a1 1 0 001-1v-3.56a1 1 0 00-1-1h-7.23v-1.23c0-.49.14-.89.43-1.19.29-.3.69-.45 1.21-.45h5.59a1 1 0 001-1V6.19a1 1 0 00-1-1h-5.79c-2.33 0-4.18.62-5.55 1.85zM165.16 29a2.43 2.43 0 01-.68-1.79V6.19a1 1 0 00-1-1h-11.17a1 1 0 00-1 1v3.56a1 1 0 001 1h5a1 1 0 011 1v15.46c0 2.42.73 4.36 2.2 5.82 1.47 1.47 3.41 2.2 5.82 2.2h6.2a1 1 0 001-1v-3.56a1 1 0 00-1-1h-5.59a2.35 2.35 0 01-1.78-.67zM192.97 14.23c-1.62-1.36-3.94-2.04-6.96-2.04-2.74 0-4.99.67-6.73 2a7.4 7.4 0 00-2.77 4.18 1 1 0 00.98 1.23h4.04c.4 0 .76-.24.91-.61.21-.51.53-.91.97-1.22a4.1 4.1 0 012.43-.64c1.12 0 1.97.24 2.53.72.56.48.84 1.2.84 2.16v.69a1 1 0 01-1 1h-3.69c-2.96 0-5.23.61-6.81 1.83-1.58 1.22-2.37 2.97-2.37 5.25 0 2.11.67 3.79 2 5.02 1.33 1.23 3.13 1.85 5.41 1.85 2.03 0 3.66-.5 4.88-1.5.85-.7 1.4-1.57 1.66-2.61h.13v2.7a1 1 0 001 1h3.97a1 1 0 001-1V20.01c0-2.5-.81-4.43-2.42-5.78zm-3.75 13.39c0 1.07-.38 1.92-1.13 2.55-.75.63-1.76.95-3.03.95a3.9 3.9 0 01-2.59-.8 2.75 2.75 0 01-.95-2.2c0-.88.28-1.58.84-2.12.56-.54 1.32-.8 2.28-.8h3.57a1 1 0 011 1v1.42zM211.16 12.19a6 6 0 00-4.45 1.65 5.53 5.53 0 00-1.52 3.09h-.12V13.6a1 1 0 00-1-1h-3.97a1 1 0 00-1 1v20.64a1 1 0 001 1h4.17a1 1 0 001-1v-13c0-1.18.3-2.09.91-2.74.6-.64 1.45-.97 2.55-.97 1.12 0 2 .32 2.61.97.62.65.93 1.56.93 2.74v12.99a1 1 0 001 1h4.17a1 1 0 001-1v-13.6c0-2.55-.67-4.6-2-6.13a6.62 6.62 0 00-5.28-2.31zM240.79 17.56V13.6a1 1 0 00-1-1h-16.07a1 1 0 00-1 1v3.35a1 1 0 001 1h7.47a1 1 0 01.73 1.68l-9.35 9.96c-.17.19-.27.43-.27.68v3.96a1 1 0 001 1h16.93a1 1 0 001-1v-3.35a1 1 0 00-1-1h-8.34a1 1 0 01-.73-1.68l9.35-9.96a.94.94 0 00.28-.68zM263.71 25.36a1 1 0 001-1v-3.12c0-1.81-.4-3.4-1.21-4.75a8.31 8.31 0 00-3.44-3.17 11.34 11.34 0 00-5.19-1.13c-2 0-3.75.38-5.25 1.13a8.18 8.18 0 00-3.46 3.17 9.1 9.1 0 00-1.21 4.75v5.35c0 1.81.4 3.4 1.21 4.75a8.18 8.18 0 003.46 3.17c1.5.75 3.24 1.13 5.25 1.13 2.44 0 4.53-.6 6.28-1.81a8.09 8.09 0 002.88-3.4c.29-.65-.22-1.37-.93-1.37h-4.03a.97.97 0 00-.84.48c-.22.36-.54.65-.95.88-.59.33-1.37.49-2.33.49-1.37 0-2.4-.36-3.09-1.09-.69-.73-1.03-1.8-1.03-3.23v-1.23h12.88zm-12.87-4.12c0-1.43.34-2.52 1.01-3.27.67-.75 1.68-1.13 3.03-1.13 1.32 0 2.3.36 2.96 1.09.66.73.99 1.8.99 3.23v.62l-7.98.08v-.62z"/>
  </g>
</svg>