<svg xmlns="http://www.w3.org/2000/svg" overflow="visible" viewBox="0 0 43.9 43.9" fill="#fff"><path d="M20.5 30.2l.6.8c.4.5.2 1.2-.4 1.5l-.9.5c-.6.3-1.2 0-1.4-.6l-.3-.9c-.1-.5.1-1 .5-1.2l.7-.3c.4-.3.9-.2 1.2.2zM27.6 22.2l.7-.7c.4-.5 1.2-.4 1.5.1l.6.9c.4.5.2 1.2-.3 1.5l-.9.4c-.4.2-1 .1-1.3-.3l-.5-.6c-.2-.4-.2-.9.2-1.3zM18 16.4l-.8-.5c-.5-.3-.6-1.1-.2-1.5l.8-.8c.4-.5 1.1-.4 1.5.1l.6.8c.3.4.3.9-.1 1.3l-.5.6c-.3.2-.9.2-1.3 0zM13.7 27.3l-.4.9c-.2.6-.9.8-1.5.5l-1-.6c-.5-.3-.6-1.1-.2-1.5l.7-.8c.3-.4.9-.4 1.3-.2l.7.4c.4.3.6.8.4 1.3zM25.7 29.7l1 .2c.6.1.9.8.7 1.4l-.4 1.2c-.2.6-.9.8-1.4.5l-.9-.6c-.4-.3-.6-.8-.4-1.2l.3-.8c.2-.5.6-.8 1.1-.7zM26.1 17l.1-1.1c0-.6.6-1.1 1.2-.9l1.2.3c.6.1.9.8.7 1.3l-.4 1.1c-.2.5-.7.7-1.1.6l-1-.3c-.4-.1-.8-.5-.7-1zM12.9 18.9l-1.2.2c-.6.1-1.1-.4-1.1-1v-1.4c0-.6.6-1.1 1.2-1l1.2.3c.5.1.8.5.8 1v1c0 .5-.4.9-.9.9zM17.3 32l.4 1.2c.2.6-.2 1.2-.8 1.3l-1.4.2c-.6.1-1.2-.4-1.1-1v-1.3c0-.5.4-.9.9-1l1-.2c.4.1.9.4 1 .8zM29.9 25.2l1.2-.6c.5-.3 1.2 0 1.4.6l.5 1.4c.2.6-.2 1.2-.8 1.3l-1.3.2c-.5.1-1-.2-1.1-.7l-.4-1c-.2-.5 0-1 .5-1.2zM20.6 13.6l-.9-1.1c-.4-.5-.2-1.3.3-1.5l1.4-.8c.5-.3 1.2 0 1.4.5l.5 1.4c.2.5 0 1-.5 1.2l-1 .6c-.4.2-.9.1-1.2-.3zM10.5 25.1l-1 1.1c-.4.5-1.1.4-1.5 0l-1.1-1.3c-.4-.5-.3-1.2.3-1.5l1.3-.8c.4-.3 1-.2 1.3.2l.8 1c.2.4.2 1-.1 1.3zM24.1 33.3l1.4.9c.5.3.6 1 .2 1.5l-1.2 1.4c-.4.5-1.1.5-1.5 0l-1.1-1.2c-.3-.4-.3-.9 0-1.3l.9-1c.3-.4.8-.5 1.3-.3zM30 18l.6-1.6c.2-.6.9-.8 1.4-.5l1.7 1c.5.3.7 1 .3 1.5l-1.1 1.4c-.3.4-.9.5-1.3.2l-1.2-.7c-.4-.3-.6-.8-.4-1.3zM13.4 14.8l-1.8-.4c-.6-.1-1-.7-.7-1.3l.7-2c.2-.6.9-.8 1.4-.5l1.6.9c.4.2.6.8.5 1.2l-.5 1.4c-.3.5-.8.8-1.2.7zM13.1 32.3v2c0 .6-.6 1.1-1.2 1l-2.2-.4c-.6-.1-1-.7-.8-1.3l.6-1.9c.2-.5.6-.8 1.1-.7l1.6.3c.5 0 .9.5.9 1zM31.1 29.4l2.1-.3c.6-.1 1.1.4 1.2 1v2.3c0 .6-.5 1.1-1.1 1l-2.1-.3c-.5-.1-.9-.5-.9-1v-1.7c0-.5.3-1 .8-1zM24.7 12L24 9.9c-.2-.6.2-1.2.7-1.3l2.4-.5c.6-.1 1.2.3 1.2.9l.1 2.2c0 .5-.3.9-.8 1l-1.8.4c-.5.1-1-.2-1.1-.6zM8.2 21.3l-2 1.2c-.5.3-1.2.1-1.4-.5l-1-2.4c-.2-.6.1-1.2.7-1.3l2.3-.6c.5-.1 1 .1 1.2.6l.7 1.8c.1.4-.1.9-.5 1.2zM20.6 36.3l1.6 1.9c.4.5.3 1.2-.2 1.5l-2.3 1.5c-.5.3-1.2.1-1.4-.4l-1-2.3c-.2-.5 0-1 .4-1.3l1.8-1.1c.2-.3.8-.2 1.1.2zM33.5 21l1.7-2c.4-.5 1.1-.5 1.5 0l2 2.2c.4.4.3 1.1-.2 1.5l-2.1 1.5c-.4.3-1 .2-1.3-.1l-1.5-1.7c-.4-.4-.4-1-.1-1.4zM15.8 10.7l-2.4-1.4c-.5-.3-.7-1-.3-1.5L15 5.4c.3-.4 1-.5 1.4-.1l2 1.9c.4.4.4.9.1 1.3l-1.4 1.9c-.3.5-.9.6-1.3.3zM8.6 30.5l-1 2.7c-.2.6-.9.8-1.4.5l-2.9-1.5c-.5-.3-.7-.9-.4-1.4l1.6-2.4c.3-.4.8-.6 1.3-.3L8 29.2c.5.3.7.8.6 1.3zM29.8 34.2l3 .5c.6.1 1 .7.8 1.3l-1 3.2c-.2.6-.8.9-1.4.6l-2.8-1.2c-.5-.2-.7-.7-.6-1.2l.8-2.6c.2-.4.7-.7 1.2-.6zM29.3 12.1V8.9c0-.6.5-1.1 1.1-1l3.5.4c.6.1 1 .6.9 1.2l-.7 3.1c-.1.5-.6.8-1.1.8l-2.8-.3c-.5-.1-.9-.5-.9-1zM7.5 16.2l-3.3.6c-.6.1-1.2-.3-1.2-.9l-.3-3.7c0-.6.4-1.1 1-1.1l3.4.1c.5 0 .9.4 1 .9l.2 3c0 .6-.3 1-.8 1.1zM15.6 37.9l1.2 3.3c.2.6-.1 1.2-.7 1.3l-3.7 1c-.6.1-1.1-.2-1.2-.8l-.6-3.5c-.1-.5.2-1 .7-1.1l3.1-.8c.5-.2 1 .1 1.2.6zM36 25.8l3.2-1.9c.5-.3 1.2-.1 1.4.4l1.7 3.6c.2.5 0 1.2-.6 1.4l-3.5 1.3c-.5.2-1 0-1.2-.5l-1.4-3c-.3-.5-.1-1.1.4-1.3zM20.1 7.5l-2.5-3c-.4-.4-.3-1.1.2-1.5L21.2.6c.5-.3 1.1-.2 1.4.3l2 3.3c.3.4.1 1-.3 1.3l-2.9 2.1c-.4.4-1 .3-1.3-.1z"/><path d="M0 0h43.9v43.9H0z" fill="none"/></svg>