<svg xmlns="http://www.w3.org/2000/svg" overflow="visible" viewBox="0 0 402 402"><defs/><style>.st0{fill:#3a3d3b}.st1{opacity:.6}.st2,.st3,.st4{enable-background:new}.st3,.st4{opacity:.25}.st4{opacity:.6}.st5{fill:#1fcc9a}.st6,.st7{opacity:.57}.st7{enable-background:new}</style><path d="M402 402H0V0h402v402zM2 400h398V2H2v398z" class="st0"/><g class="st1"><path d="M9.6 362.1h382.8v2H9.6z" class="st0"/><path d="M391.4 355.9h2v16h-2zM8.6 355.6h2v15.9h-2z" class="st0"/></g><g class="st2"><path d="M288.34 193.96v-8.76h2.71c.51 0 .97.11 1.36.32.4.21.7.51.92.89.22.38.32.82.32 1.31 0 .59-.15 1.1-.46 1.52-.31.42-.73.72-1.25.88l1.84 3.84h-1.27l-1.68-3.72h-1.4v3.72h-1.09zm2.71-4.68c.45 0 .81-.14 1.08-.43.27-.28.41-.66.41-1.13 0-.46-.14-.84-.41-1.13-.27-.29-.63-.43-1.08-.43h-1.63v3.12h1.63zM300.58 190.92h-4.03v.64c0 .53.13.93.38 1.2.25.27.62.41 1.11.41.84 0 1.32-.3 1.44-.89h1.08c-.07.55-.34.99-.79 1.31s-1.03.49-1.73.49c-.78 0-1.39-.23-1.85-.68-.46-.46-.69-1.07-.69-1.84v-1.8c0-.77.23-1.38.69-1.84.46-.46 1.08-.68 1.85-.68s1.39.23 1.85.68c.46.46.69 1.07.69 1.84v1.16zm-4.03-.81h2.98v-.35c0-.53-.13-.93-.38-1.21-.25-.28-.62-.41-1.11-.41s-.86.14-1.11.41c-.25.28-.38.68-.38 1.21v.35zM303.39 193.41c-.46-.45-.7-1.06-.7-1.85v-1.8c0-.78.23-1.4.7-1.85s1.1-.67 1.9-.67c.76 0 1.37.2 1.84.61.46.41.71.96.73 1.67h-1.08c-.02-.42-.17-.74-.43-.97-.26-.23-.61-.35-1.06-.35-.47 0-.84.14-1.11.41-.27.27-.4.65-.4 1.14v1.81c0 .5.13.88.4 1.15.26.27.64.41 1.12.41.45 0 .8-.12 1.06-.35.26-.23.4-.56.43-.97h1.08c-.02.7-.27 1.26-.73 1.67s-1.08.61-1.84.61c-.81 0-1.45-.22-1.91-.67zM313.16 193.96c-.57 0-1.01-.15-1.33-.46s-.47-.73-.47-1.28v-3.88h-1.86v-.98h1.86v-1.8h1.08v1.8h2.64v.98h-2.64v3.88c0 .26.06.45.17.57.12.12.3.19.55.19h1.8v.98h-1.8z" class="st0"/></g><g class="st2"><path d="M174.42 244.86c-1.14-.28-2.02-.83-2.65-1.66-.63-.82-.95-1.83-.95-3.02v-2.28c0-.78.15-1.48.44-2.12.29-.64.71-1.18 1.25-1.62.54-.44 1.18-.75 1.91-.94v1.02c-.77.18-1.38.6-1.84 1.26-.46.66-.68 1.46-.68 2.4v2.28c0 .93.23 1.72.68 2.36.45.65 1.07 1.06 1.84 1.25v1.07zM176.9 243.36v-1.1l2.68-2.84c.46-.49.79-.92 1-1.3s.31-.75.31-1.1c0-.49-.13-.87-.4-1.15s-.63-.42-1.1-.42c-.51 0-.91.14-1.21.43s-.44.68-.44 1.19h-1.08c.02-.79.28-1.42.77-1.88.49-.46 1.14-.7 1.95-.7.79 0 1.42.23 1.88.68.46.45.7 1.07.7 1.84 0 .5-.13.99-.4 1.48s-.7 1.04-1.3 1.67l-2.16 2.23h4v.98h-5.2zM184.67 242.78c-.48-.47-.71-1.09-.71-1.88v-3.84c0-.78.24-1.41.71-1.88.48-.47 1.12-.7 1.93-.7.81 0 1.45.23 1.93.7s.71 1.09.71 1.88v3.84c0 .78-.24 1.41-.72 1.88s-1.12.7-1.92.7c-.81 0-1.45-.24-1.93-.7zm3.09-.69c.29-.31.44-.71.44-1.19v-3.84c0-.49-.15-.89-.44-1.19-.29-.31-.68-.46-1.16-.46s-.87.15-1.16.46c-.29.31-.44.71-.44 1.19v3.84c0 .49.15.89.44 1.19.29.31.68.46 1.16.46s.87-.15 1.16-.46zm-1.59-2.57a.685.685 0 01-.17-.48v-.18c0-.2.06-.36.17-.48.11-.12.26-.18.43-.18.18 0 .33.06.44.18.11.12.16.28.16.48v.18c0 .2-.05.36-.16.48s-.25.18-.44.18c-.18 0-.32-.06-.43-.18z" class="st0"/></g><g class="st2"><path d="M191.87 242.78c-.48-.47-.71-1.09-.71-1.88v-3.84c0-.78.24-1.41.71-1.88.48-.47 1.12-.7 1.93-.7.81 0 1.45.23 1.93.7s.71 1.09.71 1.88v3.84c0 .78-.24 1.41-.72 1.88s-1.12.7-1.92.7c-.81 0-1.45-.24-1.93-.7zm3.09-.69c.29-.31.44-.71.44-1.19v-3.84c0-.49-.15-.89-.44-1.19-.29-.31-.68-.46-1.16-.46s-.87.15-1.16.46c-.29.31-.44.71-.44 1.19v3.84c0 .49.15.89.44 1.19.29.31.68.46 1.16.46s.87-.15 1.16-.46zm-1.59-2.57a.685.685 0 01-.17-.48v-.18c0-.2.06-.36.17-.48.11-.12.26-.18.43-.18.18 0 .33.06.44.18.11.12.16.28.16.48v.18c0 .2-.05.36-.16.48s-.25.18-.44.18c-.18 0-.32-.06-.43-.18z" class="st0"/></g><g class="st2"><path d="M200.54 245.28h-.96l.96-3.73h1.56l-1.56 3.73zM205.9 243.36v-1.1l2.68-2.84c.46-.49.79-.92 1-1.3s.31-.75.31-1.1c0-.49-.13-.87-.4-1.15-.27-.28-.63-.42-1.1-.42-.51 0-.91.14-1.21.43s-.44.68-.44 1.19h-1.08c.02-.79.28-1.42.77-1.88.49-.46 1.14-.7 1.95-.7.79 0 1.42.23 1.88.68.46.45.7 1.07.7 1.84 0 .5-.13.99-.4 1.48-.26.49-.7 1.04-1.3 1.67l-2.16 2.23h4v.98h-5.2zM213.67 242.78c-.48-.47-.71-1.09-.71-1.88v-3.84c0-.78.24-1.41.71-1.88.48-.47 1.12-.7 1.93-.7.81 0 1.45.23 1.93.7s.71 1.09.71 1.88v3.84c0 .78-.24 1.41-.72 1.88s-1.12.7-1.92.7c-.81 0-1.45-.24-1.93-.7zm3.09-.69c.29-.31.44-.71.44-1.19v-3.84c0-.49-.15-.89-.44-1.19-.29-.31-.68-.46-1.16-.46-.48 0-.87.15-1.16.46-.29.31-.44.71-.44 1.19v3.84c0 .49.15.89.44 1.19.29.31.68.46 1.16.46.48 0 .87-.15 1.16-.46zm-1.59-2.57a.685.685 0 01-.17-.48v-.18c0-.2.06-.36.17-.48.11-.12.26-.18.43-.18.18 0 .33.06.44.18.11.12.16.28.16.48v.18c0 .2-.05.36-.16.48s-.25.18-.44.18c-.18 0-.32-.06-.43-.18z" class="st0"/></g><g class="st2"><path d="M220.87 242.78c-.48-.47-.71-1.09-.71-1.88v-3.84c0-.78.24-1.41.71-1.88.48-.47 1.12-.7 1.93-.7.81 0 1.45.23 1.93.7s.71 1.09.71 1.88v3.84c0 .78-.24 1.41-.72 1.88s-1.12.7-1.92.7c-.81 0-1.45-.24-1.93-.7zm3.09-.69c.29-.31.44-.71.44-1.19v-3.84c0-.49-.15-.89-.44-1.19-.29-.31-.68-.46-1.16-.46-.48 0-.87.15-1.16.46-.29.31-.44.71-.44 1.19v3.84c0 .49.15.89.44 1.19.29.31.68.46 1.16.46.48 0 .87-.15 1.16-.46zm-1.59-2.57a.685.685 0 01-.17-.48v-.18c0-.2.06-.36.17-.48.11-.12.26-.18.43-.18.18 0 .33.06.44.18.11.12.16.28.16.48v.18c0 .2-.05.36-.16.48s-.25.18-.44.18c-.18 0-.32-.06-.43-.18z" class="st0"/></g><g class="st2"><path d="M227.58 243.79c.78-.18 1.39-.6 1.84-1.25.45-.65.68-1.44.68-2.36v-2.28c0-.94-.23-1.74-.68-2.4-.46-.66-1.07-1.08-1.84-1.26v-1.02c.74.18 1.37.5 1.91.94.54.44.96.98 1.25 1.62s.44 1.35.44 2.12v2.28c0 1.19-.32 2.2-.95 3.02-.63.82-1.52 1.38-2.65 1.66v-1.07z" class="st0"/></g><path d="M198.4 198.4h5.2v5.2h-5.2zM298.8 198.8h4.3v4.3h-4.3z" class="st0"/><path d="M327 227h-52v-52h52v52zm-50-2h48v-48h-48v48z" class="st0"/><g class="st3"><path d="M127 227H75v-52h52v52zm-50-2h48v-48H77v48z" class="st0"/></g><g class="st4"><path d="M116.77 386.11c-.66-.57-.99-1.35-1.02-2.34h1.44c0 .6.2 1.07.6 1.41.4.34.96.51 1.67.51.67 0 1.2-.17 1.58-.5.38-.34.57-.8.57-1.38 0-.47-.13-.88-.38-1.23-.26-.35-.61-.6-1.07-.74l-1.58-.5c-.8-.25-1.42-.65-1.85-1.22-.43-.57-.65-1.25-.65-2.04 0-.62.14-1.16.42-1.63.28-.47.68-.83 1.2-1.1.52-.26 1.12-.39 1.8-.39 1.02 0 1.84.29 2.46.86.61.57.93 1.33.95 2.28h-1.44c0-.58-.17-1.03-.52-1.36-.35-.33-.83-.5-1.46-.5-.62 0-1.1.15-1.45.46-.35.3-.52.72-.52 1.26 0 .48.13.9.38 1.25.26.35.62.6 1.1.75l1.6.51c.78.25 1.38.66 1.81 1.25.43.59.64 1.27.64 2.06 0 .63-.15 1.19-.45 1.67s-.72.86-1.26 1.13-1.17.4-1.87.4c-1.15-.02-2.04-.3-2.7-.87zM126.54 386.07c-.62-.6-.93-1.42-.93-2.46v-2.4c0-1.05.31-1.87.93-2.46.62-.6 1.46-.9 2.53-.9 1.01 0 1.83.27 2.45.82.62.54.94 1.29.98 2.22h-1.44c-.03-.55-.22-.99-.57-1.3s-.82-.46-1.42-.46c-.63 0-1.12.18-1.48.54s-.54.87-.54 1.52v2.42c0 .66.18 1.17.53 1.54.35.36.85.54 1.49.54.6 0 1.07-.15 1.42-.46s.54-.74.57-1.3h1.44c-.03.94-.36 1.68-.98 2.22-.62.54-1.43.82-2.45.82-1.07-.01-1.91-.3-2.53-.9zM141.99 382.76h-5.38v.85c0 .7.17 1.24.5 1.6.34.36.83.54 1.48.54 1.12 0 1.76-.39 1.92-1.18h1.44c-.1.74-.45 1.32-1.06 1.75-.61.43-1.38.65-2.3.65-1.04 0-1.86-.3-2.47-.91-.61-.61-.92-1.42-.92-2.45v-2.4c0-1.02.31-1.84.92-2.45.61-.61 1.44-.91 2.47-.91 1.03 0 1.86.3 2.47.91.61.61.92 1.42.92 2.45v1.55zm-5.37-1.09h3.97v-.46c0-.7-.17-1.24-.5-1.61-.34-.37-.83-.55-1.48-.55s-1.14.18-1.48.55-.5.9-.5 1.61v.46zM150.78 378.67c.52.55.78 1.29.78 2.22v5.92h-1.44v-5.76c0-.62-.17-1.1-.5-1.46-.34-.35-.79-.53-1.37-.53-.61 0-1.08.19-1.42.57-.34.38-.51.9-.51 1.58v5.6h-1.44V378h1.44v1.68h.02c.07-.59.31-1.04.72-1.36.41-.32.94-.48 1.62-.48.87 0 1.57.28 2.1.83zM161.19 382.76h-5.38v.85c0 .7.17 1.24.5 1.6.34.36.83.54 1.48.54 1.12 0 1.76-.39 1.92-1.18h1.44c-.1.74-.45 1.32-1.06 1.75-.61.43-1.38.65-2.3.65-1.03 0-1.86-.3-2.47-.91s-.92-1.42-.92-2.45v-2.4c0-1.02.31-1.84.92-2.45.61-.61 1.44-.91 2.47-.91 1.04 0 1.86.3 2.47.91.61.61.92 1.42.92 2.45v1.55zm-5.37-1.09h3.97v-.46c0-.7-.17-1.24-.5-1.61s-.83-.55-1.48-.55-1.14.18-1.48.55-.5.9-.5 1.61v.46zM173.95 386.8l-1.34-11.68h1.38l.88 8.64c.06.61.11 1.27.14 2 .06-.73.13-1.39.21-2l1.09-8.64h1.49l.99 8.64.22 2c.05-.73.11-1.39.18-2l.91-8.64h1.31l-1.38 11.68h-1.81l-.99-8.8-.19-1.87-.21 1.87-1.07 8.8h-1.81zM190.6 386.8h-7.52v-1.31h3.12v-6.18h-2.72V378h4.16v7.49h2.96v1.31zm-4-10.32c-.32 0-.57-.08-.76-.26-.19-.17-.28-.4-.28-.69s.1-.52.29-.7c.19-.18.44-.27.75-.27h.32c.31 0 .56.09.75.27.19.18.29.42.29.7s-.1.52-.29.69c-.19.17-.44.26-.75.26h-.32zM198.09 375.12h1.44v11.68h-1.44v-1.68h-.02c-.07.58-.33 1.03-.75 1.35s-.97.49-1.63.49c-.89 0-1.59-.29-2.1-.88-.52-.59-.78-1.38-.78-2.38v-2.58c0-1.01.26-1.81.78-2.4.52-.59 1.22-.88 2.1-.88.65 0 1.19.17 1.62.5s.68.78.77 1.34h.05l-.03-2v-2.56zm0 6.08c0-.66-.17-1.18-.51-1.55-.34-.37-.81-.56-1.41-.56-.61 0-1.08.18-1.42.55s-.5.89-.5 1.56v2.4c0 .67.17 1.19.5 1.56.34.37.81.55 1.42.55.6 0 1.07-.19 1.41-.56.34-.37.51-.89.51-1.55v-2.4zM206.76 386.8c-.76 0-1.35-.2-1.77-.61-.42-.41-.63-.98-.63-1.71v-5.17h-2.48V378h2.48v-2.4h1.44v2.4h3.52v1.31h-3.52v5.17c0 .34.08.59.23.76.15.17.4.25.73.25h2.4v1.31h-2.4zM217.98 378.67c.52.55.78 1.29.78 2.22v5.92h-1.44v-5.76c0-.62-.17-1.1-.5-1.46-.34-.35-.79-.53-1.37-.53-.61 0-1.08.19-1.42.57-.34.38-.51.9-.51 1.58v5.6h-1.44v-11.68h1.44v4.56h.02c.07-.59.31-1.04.72-1.36.41-.32.94-.48 1.62-.48.87-.01 1.57.27 2.1.82zM224.84 380.24c-.35 0-.64-.11-.86-.34-.22-.22-.34-.51-.34-.86 0-.34.11-.63.34-.86s.51-.34.86-.34h.32c.34 0 .63.11.86.34s.34.51.34.86-.11.64-.34.86c-.22.22-.51.34-.86.34h-.32zm0 6.72c-.35 0-.64-.11-.86-.34-.22-.22-.34-.51-.34-.86 0-.34.11-.63.34-.86.23-.23.51-.34.86-.34h.32c.34 0 .63.12.86.34.23.23.34.52.34.86 0 .35-.11.64-.34.86-.22.22-.51.34-.86.34h-.32zM247.4 386.8h-1.44v-2.56h-5.28v-2.26l4.62-6.86h1.57l-4.75 7.17v.64h3.84v-2.85h1.44v6.72zM251.23 386.03c-.63-.62-.95-1.46-.95-2.5v-5.12c0-1.04.32-1.88.95-2.5s1.49-.94 2.57-.94 1.93.31 2.57.94c.63.62.95 1.46.95 2.5v5.12c0 1.05-.32 1.88-.96 2.5-.64.62-1.49.94-2.56.94-1.08-.01-1.93-.32-2.57-.94zm4.11-.91c.39-.41.58-.94.58-1.59v-5.12c0-.65-.19-1.18-.58-1.59-.39-.41-.9-.62-1.54-.62s-1.16.21-1.54.62c-.39.41-.58.94-.58 1.59v5.12c0 .65.19 1.18.58 1.59.39.41.9.62 1.54.62s1.15-.21 1.54-.62zm-2.12-3.44c-.15-.16-.22-.37-.22-.64v-.24c0-.27.07-.48.22-.64.15-.16.34-.24.58-.24.25 0 .44.08.58.24.14.16.22.37.22.64v.24c0 .27-.07.48-.22.64s-.34.24-.58.24a.77.77 0 01-.58-.24zM260.83 386.03c-.63-.62-.95-1.46-.95-2.5v-5.12c0-1.04.32-1.88.95-2.5s1.49-.94 2.57-.94c1.08 0 1.93.31 2.57.94s.95 1.46.95 2.5v5.12c0 1.05-.32 1.88-.96 2.5s-1.49.94-2.56.94c-1.08-.01-1.93-.32-2.57-.94zm4.11-.91c.39-.41.58-.94.58-1.59v-5.12c0-.65-.2-1.18-.58-1.59-.39-.41-.9-.62-1.54-.62s-1.15.21-1.54.62c-.39.41-.58.94-.58 1.59v5.12c0 .65.2 1.18.58 1.59.39.41.9.62 1.54.62.64-.01 1.15-.21 1.54-.62zm-2.12-3.44c-.15-.16-.22-.37-.22-.64v-.24c0-.27.08-.48.22-.64.15-.16.34-.24.58-.24.25 0 .44.08.58.24.14.16.22.37.22.64v.24c0 .27-.07.48-.22.64-.14.16-.34.24-.58.24a.77.77 0 01-.58-.24zM275.62 378.72c.51.59.77 1.38.77 2.38v2.58c0 1.01-.26 1.81-.77 2.4-.51.59-1.21.88-2.1.88-.66 0-1.21-.17-1.64-.5-.43-.33-.69-.78-.76-1.34h-.05l.03 2v2.56h-1.44V378h1.44v1.68h.02c.07-.58.33-1.03.76-1.35.43-.33.98-.49 1.64-.49.89 0 1.59.3 2.1.88zm-.67 2.48c0-.68-.17-1.21-.5-1.57-.33-.36-.8-.54-1.41-.54-.6 0-1.07.19-1.42.56-.35.37-.52.89-.52 1.55v2.4c0 .66.17 1.18.52 1.55.35.37.82.56 1.42.56.61 0 1.08-.18 1.41-.54.33-.36.5-.89.5-1.57v-2.4zM278.68 386.8l3.04-4.53-2.85-4.27h1.7l1.66 2.72c.13.2.26.44.38.72.12-.28.24-.52.37-.72l1.68-2.72h1.68l-2.85 4.29 3.02 4.51h-1.7l-1.81-2.88c-.12-.2-.25-.46-.4-.78-.16.31-.3.57-.43.78l-1.82 2.88h-1.67z" class="st0"/></g><g class="st4"><path d="M27.68 290.03c-.57.66-1.35 1-2.34 1.02v-1.44c.6 0 1.07-.2 1.41-.6.34-.4.51-.96.51-1.67 0-.67-.17-1.2-.5-1.58-.34-.38-.8-.57-1.38-.57-.47 0-.88.13-1.23.38-.35.26-.6.61-.74 1.07l-.5 1.58c-.25.8-.65 1.42-1.22 1.85-.57.43-1.25.65-2.04.65-.62 0-1.16-.14-1.63-.42-.47-.28-.83-.68-1.1-1.2-.26-.52-.39-1.12-.39-1.8 0-1.02.29-1.84.86-2.46.57-.61 1.33-.93 2.28-.95v1.44c-.58 0-1.03.17-1.36.52-.33.35-.5.84-.5 1.46s.15 1.1.46 1.45c.3.35.72.52 1.26.52.48 0 .9-.13 1.25-.38.35-.26.6-.62.75-1.1l.51-1.6c.25-.78.66-1.38 1.25-1.81.59-.43 1.27-.64 2.06-.64.63 0 1.19.15 1.67.45.49.3.86.72 1.13 1.26.27.54.4 1.17.4 1.87-.01 1.15-.3 2.04-.87 2.7zM27.64 280.26c-.6.62-1.42.93-2.46.93h-2.4c-1.05 0-1.87-.31-2.46-.93-.6-.62-.9-1.46-.9-2.53 0-1.01.27-1.83.82-2.45.54-.62 1.29-.94 2.22-.98v1.44c-.55.03-.99.22-1.3.57-.31.35-.46.82-.46 1.42 0 .63.18 1.12.54 1.48s.87.54 1.52.54h2.42c.66 0 1.17-.18 1.54-.53.36-.35.54-.85.54-1.49 0-.6-.15-1.07-.46-1.42-.31-.35-.74-.54-1.3-.57v-1.44c.94.03 1.68.36 2.22.98.54.62.82 1.43.82 2.45 0 1.07-.3 1.91-.9 2.53zM24.33 264.81v5.38h.85c.7 0 1.24-.17 1.6-.5.36-.34.54-.83.54-1.48 0-1.12-.39-1.76-1.18-1.92v-1.44c.74.1 1.32.45 1.75 1.06.43.61.65 1.38.65 2.3 0 1.03-.3 1.86-.91 2.47-.61.61-1.42.92-2.45.92h-2.4c-1.02 0-1.84-.31-2.45-.92-.61-.61-.91-1.44-.91-2.47 0-1.04.3-1.86.91-2.47.61-.61 1.42-.92 2.45-.92h1.55zm-1.09 5.37v-3.97h-.46c-.7 0-1.24.17-1.61.5s-.55.83-.55 1.48.18 1.14.55 1.48.9.5 1.61.5h.46zM20.24 256.02c.55-.52 1.29-.78 2.22-.78h5.92v1.44h-5.76c-.62 0-1.1.17-1.46.5-.35.34-.53.79-.53 1.37 0 .61.19 1.08.57 1.42s.9.51 1.58.51h5.6v1.44h-8.8v-1.44h1.68v-.02c-.59-.07-1.04-.31-1.36-.72-.32-.4-.48-.94-.48-1.62 0-.87.27-1.58.82-2.1zM24.33 245.61v5.38h.85c.7 0 1.24-.17 1.6-.5.36-.34.54-.83.54-1.48 0-1.12-.39-1.76-1.18-1.92v-1.44c.74.1 1.32.45 1.75 1.06.43.61.65 1.38.65 2.3 0 1.03-.3 1.86-.91 2.47s-1.42.92-2.45.92h-2.4c-1.02 0-1.84-.31-2.45-.92-.61-.61-.91-1.44-.91-2.47s.3-1.86.91-2.47c.61-.61 1.42-.92 2.45-.92h1.55zm-1.09 5.37v-3.97h-.46c-.7 0-1.24.17-1.61.5-.37.34-.55.83-.55 1.48s.18 1.14.55 1.48.9.5 1.61.5h.46zM28.38 231.67v1.44H16.7v-1.44h4.99v-3.74H16.7v-1.44h11.68v1.44H23v3.74h5.38zM24.33 216.81v5.38h.85c.7 0 1.24-.17 1.6-.5.36-.34.54-.83.54-1.48 0-1.12-.39-1.76-1.18-1.92v-1.44c.74.1 1.32.45 1.75 1.06.43.61.65 1.38.65 2.3 0 1.04-.3 1.86-.91 2.47-.61.61-1.42.92-2.45.92h-2.4c-1.02 0-1.84-.31-2.45-.92-.61-.61-.91-1.44-.91-2.47s.3-1.86.91-2.47c.61-.61 1.42-.92 2.45-.92h1.55zm-1.09 5.37v-3.97h-.46c-.7 0-1.24.17-1.61.5s-.55.83-.55 1.48.18 1.14.55 1.48.9.5 1.61.5h.46zM18.06 210.6c0 .32-.08.57-.26.76-.17.19-.4.28-.69.28s-.52-.1-.7-.29c-.18-.19-.27-.44-.27-.75v-.32c0-.31.09-.56.27-.75s.42-.29.7-.29.52.1.69.29c.17.19.26.44.26.75v.32zm10.32-4v7.52h-1.31V211h-6.18v2.72h-1.31v-4.16h7.49v-2.96h1.31zM19.58 199.08v-1.39h9.12c.8 0 1.43.24 1.88.73.45.49.68 1.16.68 2.02v2.78h-1.31v-2.8c0-.45-.1-.78-.3-.98-.2-.21-.52-.31-.94-.31h-1.12l-1.12-.05v.21c.44.14.77.4 1.01.78s.35.86.35 1.44c0 .89-.29 1.59-.88 2.1-.59.52-1.39.78-2.4.78h-1.86c-1 0-1.8-.26-2.38-.78-.59-.52-.88-1.22-.88-2.1 0-.58.12-1.06.35-1.44.24-.38.57-.65 1.01-.78v-.21h-1.21zm3.2.03c-.66 0-1.18.17-1.55.51-.37.34-.56.81-.56 1.41 0 .61.18 1.08.55 1.42s.89.5 1.56.5h1.68c.67 0 1.19-.17 1.56-.5.37-.34.55-.81.55-1.42 0-.6-.19-1.07-.56-1.41-.37-.34-.89-.51-1.55-.51h-1.68zM20.24 188.82c.55-.52 1.29-.78 2.22-.78h5.92v1.44h-5.76c-.62 0-1.1.17-1.46.5-.35.34-.53.79-.53 1.37 0 .61.19 1.08.57 1.42s.9.51 1.58.51h5.6v1.44H16.7v-1.44h4.56v-.02c-.59-.07-1.04-.31-1.36-.72-.32-.41-.48-.94-.48-1.62 0-.87.27-1.57.82-2.1zM28.38 180.84c0 .76-.2 1.35-.61 1.77-.41.42-.98.63-1.71.63h-5.17v2.48h-1.31v-2.48h-2.4v-1.44h2.4v-3.52h1.31v3.52h5.17c.34 0 .59-.08.76-.23.17-.15.25-.4.25-.73v-2.4h1.31v2.4zM21.82 172.36c0 .35-.11.64-.34.86-.22.22-.51.34-.86.34-.34 0-.63-.11-.86-.34-.23-.23-.34-.51-.34-.86v-.32c0-.34.11-.63.34-.86s.51-.34.86-.34.64.11.86.34c.22.22.34.51.34.86v.32zm6.72 0c0 .35-.11.64-.34.86-.22.22-.51.34-.86.34-.34 0-.63-.11-.86-.34-.23-.23-.34-.51-.34-.86v-.32c0-.34.12-.63.34-.86.23-.23.52-.34.86-.34.35 0 .64.11.86.34.22.22.34.51.34.86v.32zM28.38 149.8v1.44h-2.56v5.28h-2.26l-6.86-4.62v-1.57l7.17 4.75h.64v-3.84h-2.85v-1.44h6.72zM27.6 145.97c-.62.63-1.46.95-2.5.95h-5.12c-1.04 0-1.88-.32-2.5-.95s-.94-1.49-.94-2.57c0-1.08.31-1.93.94-2.57.62-.63 1.46-.95 2.5-.95h5.12c1.05 0 1.88.32 2.5.96.62.64.94 1.49.94 2.56 0 1.08-.32 1.93-.94 2.57zm-.91-4.11c-.41-.39-.94-.58-1.59-.58h-5.12c-.65 0-1.18.19-1.59.58-.41.39-.62.9-.62 1.54s.21 1.15.62 1.54c.41.39.94.58 1.59.58h5.12c.65 0 1.18-.19 1.59-.58.41-.39.62-.9.62-1.54-.01-.64-.21-1.15-.62-1.54zm-3.43 2.12c-.16.15-.37.22-.64.22h-.24c-.27 0-.48-.07-.64-.22a.754.754 0 01-.24-.58c0-.25.08-.44.24-.58.16-.14.37-.22.64-.22h.24c.27 0 .48.07.64.22.16.14.24.34.24.58 0 .23-.08.43-.24.58zM27.6 136.37c-.62.63-1.46.95-2.5.95h-5.12c-1.04 0-1.88-.32-2.5-.95s-.94-1.49-.94-2.57c0-1.08.31-1.93.94-2.57.62-.63 1.46-.95 2.5-.95h5.12c1.05 0 1.88.32 2.5.96.62.64.94 1.49.94 2.56 0 1.08-.32 1.93-.94 2.57zm-.91-4.11c-.41-.39-.94-.58-1.59-.58h-5.12c-.65 0-1.18.19-1.59.58-.41.39-.62.9-.62 1.54s.21 1.15.62 1.54c.41.39.94.58 1.59.58h5.12c.65 0 1.18-.19 1.59-.58.41-.39.62-.9.62-1.54-.01-.64-.21-1.15-.62-1.54zm-3.43 2.12c-.16.15-.37.22-.64.22h-.24c-.27 0-.48-.07-.64-.22a.754.754 0 01-.24-.58c0-.25.08-.44.24-.58.16-.14.37-.22.64-.22h.24c.27 0 .48.07.64.22.16.14.24.34.24.58 0 .24-.08.43-.24.58zM20.3 121.58c.59-.51 1.38-.77 2.38-.77h2.58c1.01 0 1.81.26 2.4.77.59.51.88 1.21.88 2.1 0 .66-.17 1.21-.5 1.64-.33.43-.78.69-1.34.76v.05l2-.03h2.56v1.44H19.58v-1.44h1.68v-.02c-.58-.07-1.03-.33-1.35-.76s-.49-.98-.49-1.64c0-.89.29-1.59.88-2.1zm2.48.67c-.68 0-1.21.17-1.57.5s-.54.8-.54 1.41c0 .6.19 1.07.56 1.42.37.35.89.52 1.55.52h2.4c.66 0 1.18-.17 1.55-.52.37-.35.56-.82.56-1.42 0-.61-.18-1.08-.54-1.41s-.89-.5-1.57-.5h-2.4zM28.38 118.52l-4.53-3.04-4.27 2.85v-1.7l2.72-1.66c.2-.13.44-.26.72-.38-.28-.12-.52-.24-.72-.37l-2.72-1.68v-1.68l4.29 2.85 4.51-3.02v1.7l-2.88 1.81c-.2.12-.46.25-.78.4.31.16.57.3.78.43l2.88 1.82v1.67z" class="st0"/></g><path d="M275.8 159.9h25v2h-25z" class="st0"/><path d="M299.8 153.7h2v15.9h-2zM274.8 153.3h2v16h-2zM340.8 176h2v25h-2z" class="st0"/><path d="M334.6 175h16v2h-16zM334.3 200h15.9v2h-15.9z" class="st0"/><path d="M201 276.1h100v2H201z" class="st5"/><path d="M300 270h2v15.9h-2zM200 269.6h2v16h-2z" class="st5"/><g class="st6"><path d="M200 201h2v2h-2zM202 259.12h-2v-4.01h2v4.01zm0-8.02h-2v-4.01h2v4.01zm0-8.02h-2v-4.01h2v4.01zm0-8.02h-2v-4.01h2v4.01zm0-8.02h-2v-4.01h2v4.01zm0-8.01h-2v-4.01h2v4.01zm0-8.02h-2V207h2v4.01zM200 263.1h2v2h-2z" class="st0"/></g><g class="st6"><path d="M300 201h2v2h-2zM302 259.12h-2v-4.01h2v4.01zm0-8.02h-2v-4.01h2v4.01zm0-8.02h-2v-4.01h2v4.01zm0-8.02h-2v-4.01h2v4.01zm0-8.02h-2v-4.01h2v4.01zm0-8.01h-2v-4.01h2v4.01zm0-8.02h-2V207h2v4.01zM300 263.1h2v2h-2z" class="st0"/></g><g class="st2"><path d="M184.84 293.71h1.44v11.68h-1.44v-1.68h-.02c-.07.58-.33 1.03-.75 1.35s-.97.49-1.63.49c-.89 0-1.59-.29-2.1-.88-.52-.59-.78-1.38-.78-2.38v-2.58c0-1.01.26-1.81.78-2.4.52-.59 1.22-.88 2.1-.88.65 0 1.19.17 1.62.5s.68.78.77 1.34h.05l-.03-2v-2.56zm0 6.08c0-.66-.17-1.18-.51-1.55-.34-.37-.81-.56-1.41-.56-.61 0-1.08.18-1.42.55s-.5.89-.5 1.56v2.4c0 .67.17 1.19.5 1.56.34.37.81.55 1.42.55.6 0 1.07-.19 1.41-.56.34-.37.51-.89.51-1.55v-2.4zM196.55 305.39h-7.52v-1.31h3.12v-6.18h-2.72v-1.31h4.16v7.49h2.96v1.31zm-4-10.32c-.32 0-.57-.08-.76-.26-.19-.17-.28-.4-.28-.69s.1-.52.29-.7c.19-.18.44-.27.75-.27h.32c.31 0 .56.09.75.27s.29.42.29.7-.1.52-.29.69c-.19.17-.44.26-.75.26h-.32zM201.8 305.55c-.9 0-1.61-.21-2.15-.62s-.85-.98-.94-1.7h1.44c.06.32.24.57.53.76.29.19.66.28 1.12.28h.67c.55 0 .97-.12 1.26-.35.28-.23.42-.55.42-.94 0-.73-.5-1.17-1.49-1.33l-1.18-.19c-.87-.14-1.52-.41-1.94-.81-.42-.4-.62-.97-.62-1.7 0-.8.26-1.42.77-1.86.51-.44 1.26-.66 2.24-.66h.61c.83 0 1.51.2 2.02.6.52.4.83.94.94 1.62h-1.44c-.06-.29-.23-.52-.5-.69s-.61-.26-1.02-.26h-.61c-1.05 0-1.57.42-1.57 1.25 0 .35.1.62.31.79.21.18.55.3 1.02.38l1.18.19c.95.15 1.64.43 2.07.83.43.41.65.99.65 1.76 0 .83-.26 1.48-.79 1.94s-1.3.7-2.33.7h-.67zM212.71 305.39c-.76 0-1.35-.2-1.77-.61-.42-.41-.63-.98-.63-1.71v-5.17h-2.48v-1.31h2.48v-2.4h1.44v2.4h3.52v1.31h-3.52v5.17c0 .34.08.59.23.76.15.17.4.25.73.25h2.4v1.31h-2.4zM223.82 297.22c.6.52.9 1.22.9 2.12v6.05h-1.41v-1.68h-.02c-.04.55-.32 1-.83 1.34-.51.34-1.15.5-1.92.5-.9 0-1.61-.23-2.14-.7s-.8-1.1-.8-1.9c0-.84.26-1.5.79-1.98s1.25-.72 2.17-.72h2.72v-.85c0-.53-.17-.95-.5-1.24-.34-.29-.8-.44-1.4-.44-.52 0-.95.11-1.3.32-.34.21-.54.51-.59.88h-1.44c.1-.75.45-1.34 1.06-1.79.61-.45 1.37-.67 2.29-.67 1.01-.01 1.82.25 2.42.76zm-1.22 6.69c.45-.34.67-.78.67-1.32v-1.25h-2.69c-.48 0-.86.13-1.14.4-.28.27-.42.63-.42 1.1 0 .49.17.88.5 1.15s.78.42 1.34.42c.72.01 1.29-.16 1.74-.5zM233.53 297.26c.52.55.78 1.29.78 2.22v5.92h-1.44v-5.76c0-.62-.17-1.1-.5-1.46-.34-.35-.79-.53-1.37-.53-.61 0-1.08.19-1.42.57-.34.38-.51.9-.51 1.58v5.6h-1.44v-8.8h1.44v1.68h.02c.07-.59.31-1.04.72-1.36.41-.32.94-.48 1.62-.48.87-.01 1.57.27 2.1.82zM238.09 304.66c-.62-.6-.93-1.42-.93-2.46v-2.4c0-1.05.31-1.87.93-2.46.62-.6 1.46-.9 2.53-.9 1.01 0 1.83.27 2.45.82.62.54.94 1.29.98 2.22h-1.44c-.03-.55-.22-.99-.57-1.3s-.82-.46-1.42-.46c-.63 0-1.12.18-1.48.54s-.54.87-.54 1.52v2.42c0 .66.18 1.17.53 1.54.35.36.85.54 1.49.54.6 0 1.07-.15 1.42-.46s.54-.74.57-1.3h1.44c-.03.94-.36 1.68-.98 2.22-.62.54-1.43.82-2.45.82-1.07-.01-1.91-.31-2.53-.9zM253.54 301.34h-5.38v.85c0 .7.17 1.24.5 1.6.34.36.83.54 1.48.54 1.12 0 1.76-.39 1.92-1.18h1.44c-.1.74-.45 1.32-1.06 1.75-.61.43-1.38.65-2.3.65-1.04 0-1.86-.3-2.47-.91-.61-.61-.92-1.42-.92-2.45v-2.4c0-1.02.31-1.84.92-2.45.61-.61 1.44-.91 2.47-.91 1.03 0 1.86.3 2.47.91.61.61.92 1.42.92 2.45v1.55zm-5.37-1.08h3.97v-.46c0-.7-.17-1.24-.5-1.61-.34-.37-.83-.55-1.48-.55s-1.14.18-1.48.55-.5.9-.5 1.61v.46zM259.59 298.83c-.35 0-.64-.11-.86-.34-.22-.22-.34-.51-.34-.86 0-.34.12-.63.34-.86.23-.23.51-.34.86-.34h.32c.34 0 .63.11.86.34s.34.51.34.86-.11.64-.34.86c-.22.22-.51.34-.86.34h-.32zm0 6.72c-.35 0-.64-.11-.86-.34-.22-.22-.34-.51-.34-.86 0-.34.12-.63.34-.86.23-.23.51-.34.86-.34h.32c.34 0 .63.12.86.34.23.23.34.52.34.86 0 .35-.11.64-.34.86-.22.22-.51.34-.86.34h-.32zM282.79 305.39h-7.2v-1.31h3.17v-9.17l-3.17 2.37v-1.6l2.64-1.97h1.97v10.37h2.59v1.31zM285.98 304.62c-.63-.62-.95-1.46-.95-2.5V297c0-1.04.32-1.88.95-2.5s1.49-.94 2.57-.94 1.93.31 2.57.94c.63.62.95 1.46.95 2.5v5.12c0 1.05-.32 1.88-.96 2.5-.64.62-1.49.94-2.56.94-1.08-.01-1.93-.32-2.57-.94zm4.11-.92c.39-.41.58-.94.58-1.59v-5.12c0-.65-.19-1.18-.58-1.59-.39-.41-.9-.62-1.54-.62s-1.16.21-1.54.62c-.39.41-.58.94-.58 1.59v5.12c0 .65.19 1.18.58 1.59.39.41.9.62 1.54.62s1.16-.2 1.54-.62zm-2.12-3.43c-.15-.16-.22-.37-.22-.64v-.24c0-.27.07-.48.22-.64.15-.16.34-.24.58-.24.25 0 .44.08.58.24.14.16.22.37.22.64v.24c0 .27-.07.48-.22.64s-.34.24-.58.24a.77.77 0 01-.58-.24zM295.58 304.62c-.63-.62-.95-1.46-.95-2.5V297c0-1.04.32-1.88.95-2.5s1.49-.94 2.57-.94 1.93.31 2.57.94c.63.62.95 1.46.95 2.5v5.12c0 1.05-.32 1.88-.96 2.5-.64.62-1.49.94-2.56.94-1.08-.01-1.93-.32-2.57-.94zm4.11-.92c.39-.41.58-.94.58-1.59v-5.12c0-.65-.19-1.18-.58-1.59-.39-.41-.9-.62-1.54-.62s-1.16.21-1.54.62c-.39.41-.58.94-.58 1.59v5.12c0 .65.19 1.18.58 1.59.39.41.9.62 1.54.62s1.15-.2 1.54-.62zm-2.12-3.43c-.15-.16-.22-.37-.22-.64v-.24c0-.27.07-.48.22-.64.15-.16.34-.24.58-.24.25 0 .44.08.58.24.14.16.22.37.22.64v.24c0 .27-.07.48-.22.64s-.34.24-.58.24a.77.77 0 01-.58-.24zM310.37 297.31c.51.59.77 1.38.77 2.38v2.58c0 1.01-.26 1.81-.77 2.4s-1.21.88-2.1.88c-.66 0-1.21-.17-1.64-.5-.43-.33-.69-.78-.76-1.34h-.05l.03 2v2.56h-1.44v-11.68h1.44v1.68h.02c.07-.58.33-1.03.76-1.35.43-.33.98-.49 1.64-.49.89 0 1.59.3 2.1.88zm-.67 2.48c0-.68-.17-1.21-.5-1.57-.33-.36-.8-.54-1.41-.54-.6 0-1.07.19-1.42.56-.35.37-.52.89-.52 1.55v2.4c0 .66.17 1.18.52 1.55.35.37.82.56 1.42.56.61 0 1.08-.18 1.41-.54.33-.36.5-.89.5-1.57v-2.4zM313.43 305.39l3.04-4.53-2.85-4.27h1.7l1.66 2.72c.13.2.26.44.38.72.12-.28.24-.52.37-.72l1.68-2.72h1.68l-2.85 4.29 3.02 4.51h-1.7l-1.81-2.88c-.12-.2-.25-.46-.4-.78-.16.31-.3.57-.43.78l-1.82 2.88h-1.67z" class="st0"/></g><g class="st2"><path d="M240.19 91.4c-.9 0-1.61-.21-2.15-.62-.54-.42-.85-.98-.94-1.7h1.44c.06.32.24.57.53.76.29.19.66.28 1.12.28h.67c.55 0 .97-.12 1.26-.35.28-.23.42-.55.42-.94 0-.73-.5-1.17-1.49-1.33l-1.18-.19c-.88-.14-1.52-.41-1.94-.81-.42-.4-.62-.97-.62-1.7 0-.8.26-1.42.77-1.86s1.26-.66 2.24-.66h.61c.83 0 1.51.2 2.02.6.52.4.83.94.94 1.62h-1.44c-.06-.29-.23-.52-.5-.69s-.61-.26-1.02-.26h-.61c-1.05 0-1.57.42-1.57 1.25 0 .35.1.62.31.79.21.18.55.3 1.02.38l1.18.19c.95.15 1.64.43 2.07.83s.65.99.65 1.76c0 .83-.26 1.48-.79 1.94-.53.46-1.3.7-2.33.7h-.67zM254.14 91.24h-7.52v-1.31h3.12v-6.18h-2.72v-1.31h4.16v7.49h2.96v1.31zm-4-10.32c-.32 0-.57-.08-.76-.26-.19-.17-.28-.4-.28-.69s.1-.52.29-.7.44-.27.75-.27h.32c.31 0 .56.09.75.27.19.18.29.42.29.7s-.1.52-.29.69c-.19.17-.44.26-.75.26h-.32zM261.63 79.56h1.44v11.68h-1.44v-1.68h-.02c-.07.58-.33 1.03-.75 1.35s-.97.49-1.63.49c-.89 0-1.59-.29-2.1-.88-.52-.59-.78-1.38-.78-2.38v-2.58c0-1.01.26-1.81.78-2.4.52-.59 1.22-.88 2.1-.88.65 0 1.19.17 1.62.5s.68.78.77 1.34h.05l-.03-2v-2.56zm0 6.08c0-.66-.17-1.18-.51-1.55-.34-.37-.81-.56-1.41-.56-.61 0-1.08.18-1.42.55s-.5.89-.5 1.56v2.4c0 .67.17 1.19.5 1.56.34.37.81.55 1.42.55.6 0 1.07-.19 1.41-.56.34-.37.51-.89.51-1.55v-2.4zM272.74 87.19h-5.38v.85c0 .7.17 1.24.5 1.6.34.36.83.54 1.48.54 1.12 0 1.76-.39 1.92-1.18h1.44c-.1.74-.45 1.32-1.06 1.75-.61.43-1.38.65-2.3.65-1.04 0-1.86-.3-2.47-.91-.61-.61-.92-1.42-.92-2.45v-2.4c0-1.02.31-1.84.92-2.45.61-.61 1.44-.91 2.47-.91 1.03 0 1.86.3 2.47.91.61.61.92 1.42.92 2.45v1.55zm-5.38-1.08h3.97v-.46c0-.7-.17-1.24-.5-1.61-.34-.37-.83-.55-1.48-.55s-1.14.18-1.48.55-.5.9-.5 1.61v.46zM282.7 91.24h-6.72V79.56h1.44v10.37h5.28v1.31zM291.93 87.19h-5.38v.85c0 .7.17 1.24.5 1.6.34.36.83.54 1.48.54 1.12 0 1.76-.39 1.92-1.18h1.44c-.1.74-.45 1.32-1.06 1.75-.61.43-1.38.65-2.3.65-1.04 0-1.86-.3-2.47-.91-.61-.61-.92-1.42-.92-2.45v-2.4c0-1.02.31-1.84.92-2.45.61-.61 1.44-.91 2.47-.91 1.03 0 1.86.3 2.47.91.61.61.92 1.42.92 2.45v1.55zm-5.37-1.08h3.97v-.46c0-.7-.17-1.24-.5-1.61-.34-.37-.83-.55-1.48-.55s-1.14.18-1.48.55-.5.9-.5 1.61v.46zM300.72 83.11c.52.55.78 1.29.78 2.22v5.92h-1.44v-5.76c0-.62-.17-1.1-.5-1.46-.34-.35-.79-.53-1.37-.53-.61 0-1.08.19-1.42.57-.34.38-.51.9-.51 1.58v5.6h-1.44v-8.8h1.44v1.68h.02c.07-.59.31-1.04.72-1.36.41-.32.94-.48 1.62-.48.87-.01 1.58.27 2.1.82zM309.66 82.44h1.39v9.12c0 .8-.24 1.43-.73 1.88-.49.45-1.16.68-2.02.68h-2.78v-1.31h2.8c.45 0 .78-.1.98-.3.21-.2.31-.52.31-.94v-1.12l.05-1.12h-.21c-.14.44-.4.77-.78 1.01s-.86.35-1.44.35c-.89 0-1.59-.29-2.1-.88-.52-.59-.78-1.39-.78-2.4v-1.86c0-1 .26-1.8.78-2.38.52-.59 1.22-.88 2.1-.88.58 0 1.06.12 1.44.35.38.24.65.57.78 1.01h.21v-1.21zm-.03 3.2c0-.66-.17-1.18-.51-1.55-.34-.37-.81-.56-1.41-.56-.61 0-1.08.18-1.42.55s-.5.89-.5 1.56v1.68c0 .67.17 1.19.5 1.56.34.37.81.55 1.42.55.6 0 1.07-.19 1.41-.56.34-.37.51-.89.51-1.55v-1.68zM318.3 91.24c-.76 0-1.35-.2-1.77-.61-.42-.41-.63-.98-.63-1.71v-5.17h-2.48v-1.31h2.48v-2.4h1.44v2.4h3.52v1.31h-3.52v5.17c0 .34.08.59.23.76.15.17.4.25.73.25h2.4v1.31h-2.4zM329.52 83.11c.52.55.78 1.29.78 2.22v5.92h-1.44v-5.76c0-.62-.17-1.1-.5-1.46-.34-.35-.79-.53-1.37-.53-.61 0-1.08.19-1.42.57-.34.38-.51.9-.51 1.58v5.6h-1.44V79.56h1.44v4.56h.02c.07-.59.31-1.04.72-1.36.41-.32.94-.48 1.62-.48.87 0 1.58.28 2.1.83z" class="st0"/></g><g class="st2"><path d="M233.89 112.44h-3.92V97.4h3.92v1.28h-2.48v12.48h2.48v1.28zM237.69 110.68v-1.47l3.57-3.79c.61-.65 1.05-1.23 1.33-1.74s.42-.99.42-1.46c0-.65-.18-1.16-.54-1.54s-.85-.56-1.46-.56c-.68 0-1.22.19-1.61.58-.39.38-.58.91-.58 1.58h-1.44c.03-1.06.38-1.89 1.03-2.51.66-.62 1.52-.93 2.6-.93 1.06 0 1.89.3 2.51.9s.93 1.42.93 2.46c0 .66-.18 1.32-.53 1.97-.35.65-.93 1.39-1.73 2.22l-2.88 2.98h5.33v1.31h-6.95zM253.27 103.89c.52.59.78 1.41.78 2.46v1.14c0 1.04-.31 1.85-.92 2.46s-1.46.9-2.55.9c-.95 0-1.73-.25-2.34-.74-.61-.49-.97-1.15-1.07-1.98h1.44c.05.46.25.81.59 1.06.34.25.8.38 1.39.38.66 0 1.16-.18 1.5-.54.34-.36.51-.87.51-1.54v-1.14c0-.67-.17-1.19-.5-1.54s-.83-.54-1.5-.54c-.41 0-.77.11-1.08.33s-.54.51-.68.87h-1.44l.08-6.46h6.14v1.31h-4.75l-.05 3.89h.05c.11-.38.35-.68.74-.89.38-.21.87-.31 1.46-.31.95-.01 1.68.29 2.2.88zM262.84 102.6c.51.59.77 1.38.77 2.38v2.58c0 1.01-.26 1.81-.77 2.4-.51.59-1.21.88-2.1.88-.66 0-1.21-.17-1.64-.5-.43-.33-.69-.78-.76-1.34h-.05l.03 2v2.56h-1.44v-11.68h1.44v1.68h.02c.07-.58.33-1.03.76-1.35.43-.33.98-.49 1.64-.49.89 0 1.59.3 2.1.88zm-.67 2.48c0-.68-.17-1.21-.5-1.57s-.8-.54-1.41-.54c-.6 0-1.07.19-1.42.56-.35.37-.52.89-.52 1.55v2.4c0 .66.17 1.18.52 1.55.35.37.82.56 1.42.56.61 0 1.08-.18 1.41-.54s.5-.89.5-1.57v-2.4zM265.89 110.68l3.04-4.53-2.85-4.27h1.7l1.66 2.72c.13.2.26.44.38.72.12-.28.24-.52.37-.72l1.68-2.72h1.68l-2.85 4.29 3.02 4.51h-1.7l-1.81-2.88c-.12-.2-.25-.46-.4-.78-.16.31-.3.57-.43.78l-1.82 2.88h-1.67zM278.53 113.24h-1.28l1.28-4.98h2.08l-2.08 4.98zM295.29 110.68v-1.47l3.57-3.79c.61-.65 1.05-1.23 1.33-1.74s.42-.99.42-1.46c0-.65-.18-1.16-.54-1.54s-.85-.56-1.46-.56c-.68 0-1.22.19-1.61.58-.39.38-.58.91-.58 1.58h-1.44c.03-1.06.38-1.89 1.03-2.51.66-.62 1.52-.93 2.6-.93 1.06 0 1.89.3 2.51.9s.93 1.42.93 2.46c0 .66-.18 1.32-.53 1.97-.35.65-.93 1.39-1.73 2.22l-2.88 2.98h5.33v1.31h-6.95zM310.87 103.89c.52.59.78 1.41.78 2.46v1.14c0 1.04-.31 1.85-.92 2.46s-1.46.9-2.55.9c-.95 0-1.73-.25-2.34-.74-.61-.49-.96-1.15-1.07-1.98h1.44c.05.46.25.81.59 1.06.34.25.8.38 1.39.38.66 0 1.16-.18 1.5-.54.34-.36.51-.87.51-1.54v-1.14c0-.67-.17-1.19-.5-1.54s-.83-.54-1.5-.54c-.41 0-.76.11-1.08.33-.32.22-.54.51-.68.87H305l.08-6.46h6.14v1.31h-4.75l-.05 3.89h.05c.11-.38.35-.68.74-.89.38-.21.87-.31 1.46-.31.95-.01 1.68.29 2.2.88zM320.44 102.6c.51.59.77 1.38.77 2.38v2.58c0 1.01-.26 1.81-.77 2.4s-1.21.88-2.1.88c-.66 0-1.21-.17-1.64-.5-.43-.33-.69-.78-.76-1.34h-.05l.03 2v2.56h-1.44v-11.68h1.44v1.68h.02c.07-.58.33-1.03.76-1.35.43-.33.98-.49 1.64-.49.88 0 1.58.3 2.1.88zm-.68 2.48c0-.68-.17-1.21-.5-1.57s-.8-.54-1.41-.54c-.6 0-1.07.19-1.42.56-.35.37-.52.89-.52 1.55v2.4c0 .66.17 1.18.52 1.55.35.37.82.56 1.42.56.61 0 1.08-.18 1.41-.54s.5-.89.5-1.57v-2.4zM323.49 110.68l3.04-4.53-2.85-4.27h1.7l1.66 2.72c.13.2.26.44.38.72.12-.28.24-.52.37-.72l1.68-2.72h1.68l-2.85 4.29 3.02 4.51h-1.7l-1.81-2.88c-.12-.2-.25-.46-.4-.78-.16.31-.3.57-.43.78l-1.82 2.88h-1.67zM338.53 112.44h-3.92v-1.28h2.48V98.68h-2.48V97.4h3.92v15.04z" class="st0"/></g><g class="st3"><g class="st2"><path d="M72.47 165.36v-1.47l3.57-3.79c.61-.65 1.05-1.23 1.33-1.74s.42-.99.42-1.46c0-.65-.18-1.16-.54-1.54s-.85-.56-1.46-.56c-.68 0-1.22.19-1.61.58-.39.38-.58.91-.58 1.58h-1.44c.03-1.06.38-1.89 1.03-2.51.66-.62 1.52-.93 2.6-.93 1.06 0 1.89.3 2.51.9s.93 1.42.93 2.46c0 .66-.18 1.32-.53 1.97-.35.65-.93 1.39-1.73 2.22l-2.88 2.98h5.33v1.31h-6.95zM83.66 157.52c-.44-.43-.66-.99-.66-1.68s.22-1.25.66-1.68c.44-.43 1.02-.64 1.74-.64.73 0 1.31.21 1.74.64s.66.99.66 1.68-.22 1.25-.66 1.68-1.02.64-1.74.64c-.71 0-1.29-.22-1.74-.64zm2.78-.59c.27-.28.4-.64.4-1.09 0-.46-.13-.83-.4-1.1s-.62-.42-1.06-.42c-.43 0-.77.14-1.03.42s-.39.65-.39 1.1c0 .45.13.81.39 1.09s.61.42 1.03.42c.44-.01.79-.15 1.06-.42zM107.52 157.27c.55.58.82 1.37.82 2.36v.53h-1.44v-.4c0-.68-.17-1.21-.5-1.58-.34-.37-.81-.56-1.43-.56-.61 0-1.09.19-1.43.57s-.52.9-.52 1.58v5.6h-1.44v-8.8h1.41v1.57c.29-1.15 1.06-1.73 2.32-1.73.92-.01 1.66.28 2.21.86zM117.59 161.31h-5.38v.85c0 .7.17 1.24.5 1.6.34.36.83.54 1.48.54 1.12 0 1.76-.39 1.92-1.18h1.44c-.1.74-.45 1.32-1.06 1.75-.61.43-1.38.65-2.3.65-1.03 0-1.86-.3-2.47-.91-.61-.61-.92-1.42-.92-2.45v-2.4c0-1.02.31-1.84.92-2.45.61-.61 1.44-.91 2.47-.91s1.86.3 2.47.91c.61.61.92 1.42.92 2.45v1.55zm-5.37-1.09h3.97v-.46c0-.7-.17-1.24-.5-1.61-.34-.37-.83-.55-1.48-.55s-1.14.18-1.48.55-.5.9-.5 1.61v.46zM126.42 157.28c.51.59.77 1.38.77 2.38v2.58c0 1.01-.26 1.81-.77 2.4-.51.59-1.21.88-2.1.88-.66 0-1.21-.17-1.64-.5-.43-.33-.69-.78-.76-1.34h-.05l.03 2v2.56h-1.44v-11.68h1.44v1.68h.02c.07-.58.33-1.03.76-1.35s.98-.49 1.64-.49c.89 0 1.59.29 2.1.88zm-.67 2.48c0-.68-.17-1.21-.5-1.57s-.8-.54-1.41-.54c-.6 0-1.07.19-1.42.56-.35.37-.52.89-.52 1.55v2.4c0 .66.17 1.18.52 1.55.35.37.82.56 1.42.56.61 0 1.08-.18 1.41-.54s.5-.89.5-1.57v-2.4z" class="st0"/></g></g><g class="st1"><path d="M40.3 12.3h2v377.4h-2z" class="st0"/><path d="M32.5 388.7h16v2h-16zM32.9 11.3h15.9v2H32.9z" class="st0"/></g><g><path d="M251 125.8c-2.21 0-4-1.79-4-4s1.79-4 4-4 4 1.79 4 4-1.79 4-4 4zm0-6c-1.1 0-2 .9-2 2s.9 2 2 2 2-.9 2-2-.9-2-2-2z" class="st0"/></g><g><path d="M315.1 125.8c-2.21 0-4-1.79-4-4s1.79-4 4-4 4 1.79 4 4-1.79 4-4 4zm0-6c-1.1 0-2 .9-2 2s.9 2 2 2 2-.9 2-2-.9-2-2-2z" class="st0"/></g><g class="st7"><path d="M289.3 156.2h-2v-4h2v4zm0-8h-2l.02-4.02 1.98.04v3.98zm-6.02-2.09l-4-.08.04-2 4 .08-.04 2zm-8-.15l-4-.07.04-2 4 .07-.04 2zm-7.99-.15l-4-.08.04-2 4 .08-.04 2zm-8-.15l-4-.07.04-2 4 .07-.04 2zm-8-.15l-1.3-.02.06-4.69 2 .03-.05 3.69-.69-.01-.02 1zm.82-8.69l-2-.03.05-4 2 .03-.05 4zm.11-8l-2-.03.06-4 2 .03-.06 4z" class="st0"/></g><g class="st7"><path d="M342.8 170.9h-2v-.6h2v.6zm0-4.6h-2v-4h2v4zm0-8h-2v-.31l-1.71-.01.02-2 3.69.03v2.29zm-7.71-.35l-4-.03.02-2 4 .03-.02 2zm-8-.06l-4-.03.02-2 4 .03-.02 2zm-8-.06l-4-.03.02-2 4 .03-.02 2zm-2.99-5.03h-2v-4h2v4zm0-8h-2v-4h2v4zm0-8h-2v-4h2v4zm0-8h-2v-4h2v4z" class="st0"/></g><g><path d="M275.8 238.5H326v2h-50.2z" class="st0"/><path d="M274.8 230.7h2v16h-2zM325 231.1h2V247h-2z" class="st0"/></g><g><g class="st2"><path d="M335.94 243.36h-.9v-6.49h-2v-.82h4.9v.82h-2v6.49zM339.94 242.9c-.38-.37-.57-.89-.57-1.54v-1.5c0-.65.19-1.17.57-1.54s.9-.56 1.55-.56 1.17.19 1.55.56c.38.37.57.88.57 1.53v1.51c0 .65-.19 1.17-.57 1.54-.38.37-.9.56-1.55.56s-1.17-.19-1.55-.56zm2.45-.58c.21-.22.32-.54.32-.96v-1.5c0-.42-.11-.74-.32-.96s-.51-.33-.91-.33-.69.11-.9.33c-.21.22-.32.54-.32.96v1.5c0 .42.1.74.32.96.21.22.51.33.9.33s.7-.1.91-.33zM348.09 243.36c-.47 0-.84-.13-1.11-.38s-.39-.61-.39-1.07v-3.23h-1.55v-.82h1.55v-1.5h.9v1.5h2.2v.82h-2.2v3.23c0 .21.05.37.15.48s.25.15.46.15h1.5v.82h-1.51zM355.03 238.25c.37.32.56.77.56 1.33v3.78h-.88v-1.05h-.01c-.03.35-.2.62-.52.83-.32.21-.72.31-1.2.31-.56 0-1.01-.15-1.34-.44-.33-.29-.5-.69-.5-1.19 0-.53.17-.94.5-1.24.33-.3.78-.45 1.36-.45h1.7v-.53c0-.33-.11-.59-.32-.78-.21-.18-.5-.27-.88-.27-.33 0-.6.07-.81.2-.21.13-.34.32-.37.55h-.9c.06-.47.28-.84.66-1.12s.86-.42 1.43-.42c.64.01 1.14.17 1.52.49zm-.76 4.18c.28-.21.42-.49.42-.83v-.78h-1.68c-.3 0-.54.08-.71.25-.17.17-.26.4-.26.69 0 .31.1.55.31.72.21.17.49.26.84.26.44.01.8-.1 1.08-.31zM360.14 243.36c-.49 0-.88-.14-1.17-.42s-.43-.66-.43-1.12v-4.93h-1.65v-.82h2.55v5.75c0 .23.06.41.19.54s.3.19.51.19h1.85v.82h-1.85zM373.15 239.11c.33.37.49.88.49 1.54v.71c0 .65-.19 1.16-.57 1.54-.38.38-.92.56-1.6.56-.59 0-1.08-.15-1.46-.46s-.6-.72-.67-1.24h.9c.03.29.16.51.37.67.21.16.5.23.87.23.41 0 .73-.11.94-.33.21-.22.32-.54.32-.96v-.71c0-.42-.11-.74-.32-.96s-.52-.33-.93-.33c-.25 0-.48.07-.67.21-.2.14-.34.32-.43.54h-.9l.05-4.04h3.84v.82h-2.97l-.03 2.43h.03c.07-.24.22-.42.46-.56.24-.13.54-.19.91-.19.58-.02 1.04.16 1.37.53zM375.88 242.87c-.4-.39-.59-.91-.59-1.56v-3.2c0-.65.2-1.17.59-1.57.4-.39.93-.58 1.61-.58.67 0 1.21.2 1.6.58.4.39.6.91.6 1.57v3.2c0 .65-.2 1.17-.6 1.56-.4.39-.93.58-1.6.58-.68.01-1.21-.19-1.61-.58zm2.57-.57c.24-.26.37-.59.37-1v-3.2c0-.41-.12-.74-.37-1s-.57-.38-.96-.38c-.4 0-.72.13-.96.38-.24.26-.37.59-.37 1v3.2c0 .41.12.74.37 1 .24.26.56.38.96.38.4.01.72-.12.96-.38zm-1.32-2.14a.572.572 0 01-.14-.4v-.15c0-.17.05-.3.14-.4.09-.1.21-.15.36-.15s.27.05.37.15c.09.1.13.23.13.4v.15c0 .17-.04.3-.13.4-.09.1-.21.15-.37.15a.46.46 0 01-.36-.15zM385.13 238.31c.32.37.48.86.48 1.49v1.61c0 .63-.16 1.13-.48 1.5-.32.37-.76.55-1.31.55-.41 0-.75-.1-1.02-.31s-.43-.49-.48-.84h-.03l.02 1.25v1.6h-.9v-7.3h.9v1.05h.01c.05-.36.21-.64.48-.84.27-.2.61-.3 1.02-.3.55-.01.99.17 1.31.54zm-.42 1.55c0-.43-.1-.75-.31-.98-.21-.23-.5-.34-.88-.34-.37 0-.67.12-.88.35-.22.23-.33.56-.33.97v1.5c0 .41.11.74.33.97.22.23.51.35.88.35.38 0 .67-.11.88-.34s.31-.55.31-.98v-1.5zM387.04 243.36l1.9-2.83-1.78-2.67h1.06l1.04 1.7c.08.13.16.28.24.45.07-.17.15-.32.23-.45l1.05-1.7h1.05l-1.78 2.68 1.89 2.82h-1.06l-1.13-1.8c-.07-.13-.16-.29-.25-.49-.1.19-.19.36-.27.49l-1.14 1.8h-1.05z" class="st0"/></g></g></svg>