<svg xmlns="http://www.w3.org/2000/svg" overflow="visible" viewBox="0 0 402 402"><defs/><style>.st0{fill:#3a3d3b}.st1{opacity:.6}.st2{fill:#1fcc9a}.st3{opacity:.57}</style><path d="M402 402H0V0h402v402zM2 400h398V2H2v398z" class="st0"/><g class="st1"><path d="M9.56 362.11h382.89v2H9.56z" class="st0"/><path d="M391.44 355.95h2v15.95h-2zM8.56 355.6h2v15.95h-2z" class="st0"/></g><path d="M242.04 250.51c-1.14-.28-2.02-.83-2.65-1.66-.63-.82-.95-1.83-.95-3.02v-2.28c0-.78.15-1.48.44-2.12.29-.64.71-1.18 1.25-1.62.54-.44 1.18-.75 1.91-.94v1.02c-.77.18-1.38.6-1.84 1.26-.46.66-.68 1.46-.68 2.4v2.28c0 .93.23 1.72.68 2.36.45.65 1.07 1.06 1.84 1.25v1.07zM244.53 249.01v-1.1l2.68-2.84c.46-.49.79-.92 1-1.3s.31-.75.31-1.1c0-.49-.13-.87-.4-1.15-.27-.28-.63-.42-1.1-.42-.51 0-.91.14-1.21.43s-.44.68-.44 1.19h-1.08c.02-.79.28-1.42.77-1.88.49-.46 1.14-.7 1.95-.7.79 0 1.42.23 1.88.68.46.45.7 1.07.7 1.84 0 .5-.13.99-.4 1.48-.26.49-.7 1.04-1.3 1.67l-2.16 2.23h4v.98h-5.2zM252.3 248.42c-.48-.47-.71-1.09-.71-1.88v-3.84c0-.78.24-1.41.71-1.88.48-.47 1.12-.7 1.93-.7.81 0 1.45.23 1.93.7s.71 1.09.71 1.88v3.84c0 .78-.24 1.41-.72 1.88s-1.12.7-1.92.7c-.82.01-1.46-.23-1.93-.7zm3.08-.68c.29-.31.44-.71.44-1.19v-3.84c0-.49-.15-.89-.44-1.19-.29-.31-.68-.46-1.16-.46-.48 0-.87.15-1.16.46-.29.31-.44.71-.44 1.19v3.84c0 .49.15.89.44 1.19.29.31.68.46 1.16.46.48 0 .87-.15 1.16-.46zm-1.59-2.57a.685.685 0 01-.17-.48v-.18c0-.2.06-.36.17-.48.11-.12.26-.18.43-.18.18 0 .33.06.44.18.11.12.16.28.16.48v.18c0 .2-.05.36-.16.48s-.25.18-.44.18c-.17 0-.32-.06-.43-.18zM259.5 248.42c-.47-.47-.71-1.09-.71-1.88v-3.84c0-.78.24-1.41.71-1.88.48-.47 1.12-.7 1.93-.7.81 0 1.45.23 1.93.7.47.47.71 1.09.71 1.88v3.84c0 .78-.24 1.41-.72 1.88s-1.12.7-1.92.7c-.82.01-1.46-.23-1.93-.7zm3.08-.68c.29-.31.44-.71.44-1.19v-3.84c0-.49-.15-.89-.44-1.19-.29-.31-.68-.46-1.16-.46-.48 0-.87.15-1.16.46-.29.31-.44.71-.44 1.19v3.84c0 .49.15.89.44 1.19.29.31.68.46 1.16.46.48 0 .87-.15 1.16-.46zm-1.59-2.57a.685.685 0 01-.17-.48v-.18c0-.2.06-.36.17-.48.11-.12.26-.18.43-.18.19 0 .33.06.44.18.11.12.16.28.16.48v.18c0 .2-.05.36-.16.48s-.25.18-.44.18c-.17 0-.32-.06-.43-.18zM268.2 250.93h-.96l.96-3.73h1.56l-1.56 3.73zM273.57 249.01v-1.1l2.68-2.84c.46-.49.79-.92 1-1.3s.31-.75.31-1.1c0-.49-.13-.87-.4-1.15-.27-.28-.63-.42-1.1-.42-.51 0-.91.14-1.21.43s-.44.68-.44 1.19h-1.08c.02-.79.28-1.42.77-1.88.49-.46 1.14-.7 1.95-.7.79 0 1.42.23 1.88.68s.7 1.07.7 1.84c0 .5-.13.99-.4 1.48-.26.49-.7 1.04-1.3 1.67l-2.16 2.23h4v.98h-5.2zM281.33 248.42c-.48-.47-.71-1.09-.71-1.88v-3.84c0-.78.24-1.41.71-1.88.48-.47 1.12-.7 1.93-.7.81 0 1.45.23 1.93.7s.71 1.09.71 1.88v3.84c0 .78-.24 1.41-.72 1.88s-1.12.7-1.92.7c-.81.01-1.45-.23-1.93-.7zm3.09-.68c.29-.31.44-.71.44-1.19v-3.84c0-.49-.15-.89-.44-1.19-.29-.31-.68-.46-1.16-.46-.48 0-.87.15-1.16.46-.29.31-.44.71-.44 1.19v3.84c0 .49.15.89.44 1.19.29.31.68.46 1.16.46.48 0 .87-.15 1.16-.46zm-1.59-2.57a.685.685 0 01-.17-.48v-.18c0-.2.06-.36.17-.48.11-.12.26-.18.43-.18.18 0 .33.06.44.18.11.12.16.28.16.48v.18c0 .2-.05.36-.16.48s-.25.18-.44.18c-.18 0-.32-.06-.43-.18zM288.54 248.42c-.48-.47-.71-1.09-.71-1.88v-3.84c0-.78.24-1.41.71-1.88.48-.47 1.12-.7 1.93-.7.81 0 1.45.23 1.93.7s.71 1.09.71 1.88v3.84c0 .78-.24 1.41-.72 1.88s-1.12.7-1.92.7c-.82.01-1.46-.23-1.93-.7zm3.08-.68c.29-.31.44-.71.44-1.19v-3.84c0-.49-.15-.89-.44-1.19-.29-.31-.68-.46-1.16-.46-.48 0-.87.15-1.16.46-.29.31-.44.71-.44 1.19v3.84c0 .49.15.89.44 1.19.29.31.68.46 1.16.46.48 0 .87-.15 1.16-.46zm-1.59-2.57a.685.685 0 01-.17-.48v-.18c0-.2.06-.36.17-.48.11-.12.26-.18.43-.18.18 0 .33.06.44.18.11.12.16.28.16.48v.18c0 .2-.05.36-.16.48s-.25.18-.44.18c-.17 0-.32-.06-.43-.18zM295.2 249.44c.78-.18 1.39-.6 1.84-1.25.45-.65.68-1.44.68-2.36v-2.28c0-.94-.23-1.74-.68-2.4-.46-.66-1.07-1.08-1.84-1.26v-1.02c.74.18 1.37.5 1.91.94.54.44.96.98 1.25 1.62s.44 1.35.44 2.12v2.28c0 1.19-.32 2.2-.95 3.02-.63.82-1.52 1.38-2.65 1.66v-1.07zM126.27 256.91v-.92l2.23-2.37c.38-.41.66-.77.83-1.08.17-.32.26-.62.26-.92 0-.41-.11-.73-.33-.96s-.53-.35-.92-.35c-.43 0-.76.12-1 .36s-.37.57-.37.99h-.9c.02-.66.23-1.18.64-1.57s.95-.58 1.62-.58c.66 0 1.18.19 1.57.57s.58.89.58 1.54c0 .41-.11.82-.33 1.23-.22.41-.58.87-1.08 1.39l-1.8 1.86h3.33v.82h-4.33zM136.01 252.67c.33.37.49.88.49 1.54v.71c0 .65-.19 1.16-.58 1.54s-.92.56-1.59.56c-.59 0-1.08-.15-1.46-.46s-.6-.72-.67-1.24h.9c.03.29.16.51.37.67.21.16.5.23.87.23.41 0 .73-.11.94-.33.21-.22.32-.54.32-.96v-.71c0-.42-.1-.74-.31-.96s-.52-.33-.94-.33c-.25 0-.48.07-.67.21s-.34.32-.42.54h-.9l.05-4.04h3.84v.82h-2.97l-.03 2.43h.03c.07-.24.22-.42.46-.56.24-.13.54-.19.91-.19.58-.03 1.04.16 1.36.53zM141.99 251.86c.32.37.48.86.48 1.49v1.61c0 .63-.16 1.13-.48 1.5-.32.37-.76.55-1.31.55-.41 0-.75-.1-1.02-.31s-.43-.49-.48-.84h-.03l.02 1.25v1.6h-.9v-7.3h.9v1.05h.01c.05-.36.21-.64.48-.84.27-.2.61-.3 1.02-.3.56-.01.99.17 1.31.54zm-.42 1.55c0-.43-.1-.75-.31-.98-.21-.23-.5-.34-.88-.34-.37 0-.67.12-.88.35-.22.23-.33.56-.33.97v1.5c0 .41.11.74.33.97.22.23.51.35.88.35.38 0 .67-.11.88-.34s.31-.55.31-.98v-1.5zM143.9 256.91l1.9-2.83-1.78-2.67h1.06l1.04 1.7c.08.13.16.28.24.45.07-.17.15-.32.23-.45l1.05-1.7h1.05l-1.78 2.68 1.89 2.82h-1.06l-1.13-1.8c-.07-.13-.16-.29-.25-.49-.1.19-.19.36-.27.49l-1.14 1.8h-1.05zM152.53 256.91v-.92l2.23-2.37c.38-.41.66-.77.83-1.08.17-.32.26-.62.26-.92 0-.41-.11-.73-.33-.96s-.53-.35-.92-.35c-.43 0-.76.12-1 .36s-.37.57-.37.99h-.9c.02-.66.23-1.18.64-1.57s.95-.58 1.62-.58c.66 0 1.18.19 1.57.57s.58.89.58 1.54c0 .41-.11.82-.33 1.23-.22.41-.58.87-1.08 1.39l-1.8 1.86h3.33v.82h-4.33zM162.27 252.67c.33.37.49.88.49 1.54v.71c0 .65-.19 1.16-.58 1.54s-.92.56-1.59.56c-.59 0-1.08-.15-1.46-.46s-.6-.72-.67-1.24h.9c.03.29.16.51.37.67.21.16.5.23.87.23.41 0 .73-.11.94-.33.21-.22.32-.54.32-.96v-.71c0-.42-.1-.74-.31-.96s-.52-.33-.94-.33c-.25 0-.48.07-.67.21s-.34.32-.42.54h-.9l.05-4.04h3.84v.82h-2.97l-.03 2.43h.03c.07-.24.22-.42.46-.56.24-.13.54-.19.91-.19.58-.03 1.04.16 1.36.53zM168.25 251.86c.32.37.48.86.48 1.49v1.61c0 .63-.16 1.13-.48 1.5-.32.37-.76.55-1.31.55-.41 0-.75-.1-1.02-.31s-.43-.49-.48-.84h-.03l.02 1.25v1.6h-.9v-7.3h.9v1.05h.01c.05-.36.21-.64.48-.84.27-.2.61-.3 1.02-.3.56-.01.99.17 1.31.54zm-.42 1.55c0-.43-.1-.75-.31-.98-.21-.23-.5-.34-.88-.34-.37 0-.67.12-.88.35-.22.23-.33.56-.33.97v1.5c0 .41.11.74.33.97.22.23.51.35.88.35.38 0 .67-.11.88-.34s.31-.55.31-.98v-1.5zM170.16 256.91l1.9-2.83-1.78-2.67h1.06l1.04 1.7c.08.13.16.28.24.45.07-.17.15-.32.23-.45l1.05-1.7h1.05l-1.78 2.68 1.89 2.82H174l-1.13-1.8c-.07-.13-.16-.29-.25-.49-.1.19-.19.36-.27.49l-1.14 1.8h-1.05zM178.12 256.91v-.92l2.23-2.37c.38-.41.66-.77.83-1.08.17-.32.26-.62.26-.92 0-.41-.11-.73-.34-.96-.22-.23-.53-.35-.91-.35-.43 0-.76.12-1.01.36-.24.24-.36.57-.36.99h-.9c.02-.66.24-1.18.65-1.57.41-.39.95-.58 1.62-.58.66 0 1.18.19 1.57.57s.58.89.58 1.54c0 .41-.11.82-.33 1.23-.22.41-.58.87-1.08 1.39l-1.8 1.86h3.33v.82h-4.34zM187.86 252.67c.33.37.49.88.49 1.54v.71c0 .65-.19 1.16-.57 1.54-.38.38-.92.56-1.6.56-.59 0-1.08-.15-1.46-.46s-.6-.72-.67-1.24h.9c.03.29.16.51.37.67.21.16.5.23.87.23.41 0 .73-.11.94-.33.21-.22.32-.54.32-.96v-.71c0-.42-.11-.74-.32-.96s-.52-.33-.93-.33c-.25 0-.48.07-.67.21-.2.14-.34.32-.43.54h-.9l.05-4.04h3.84v.82h-2.97l-.03 2.43h.03c.07-.24.22-.42.46-.56.24-.13.54-.19.91-.19.59-.03 1.05.16 1.37.53zM193.84 251.86c.32.37.48.86.48 1.49v1.61c0 .63-.16 1.13-.48 1.5-.32.37-.76.55-1.31.55-.41 0-.75-.1-1.03-.31-.27-.21-.43-.49-.47-.84H191l.02 1.25v1.6h-.9v-7.3h.9v1.05h.01c.05-.36.21-.64.47-.84.27-.2.61-.3 1.03-.3.56-.01.99.17 1.31.54zm-.42 1.55c0-.43-.1-.75-.31-.98-.21-.23-.5-.34-.88-.34-.37 0-.67.12-.88.35s-.33.56-.33.97v1.5c0 .41.11.74.33.97s.51.35.88.35c.38 0 .67-.11.88-.34.21-.23.31-.55.31-.98v-1.5zM195.75 256.91l1.9-2.83-1.78-2.67h1.06l1.04 1.7c.08.13.16.28.24.45.07-.17.15-.32.23-.45l1.05-1.7h1.05l-1.78 2.68 1.89 2.82h-1.06l-1.13-1.8c-.07-.13-.16-.29-.25-.49-.1.19-.19.36-.27.49l-1.14 1.8h-1.05zM247.5 125.08h-.92l-2.37-2.23c-.41-.38-.77-.66-1.08-.83s-.62-.26-.92-.26c-.41 0-.73.11-.96.33s-.35.53-.35.92c0 .43.12.76.36 1s.57.36.99.36v.9c-.66-.02-1.18-.23-1.57-.64s-.58-.95-.58-1.62c0-.66.19-1.18.57-1.57s.89-.58 1.54-.58c.41 0 .82.11 1.23.33.41.22.87.58 1.39 1.08l1.86 1.8v-3.33h.82v4.34zM243.26 115.34c.37-.33.88-.49 1.54-.49h.71c.65 0 1.16.19 1.54.57.38.38.56.92.56 1.6 0 .59-.15 1.08-.46 1.46s-.72.6-1.24.67v-.9c.29-.03.51-.16.67-.37.16-.21.23-.5.23-.87 0-.41-.11-.73-.33-.94-.22-.21-.54-.32-.96-.32h-.71c-.42 0-.74.1-.96.31s-.33.52-.33.94c0 .25.07.48.21.67.14.2.32.34.54.43v.9l-4.04-.05v-3.84h.82v2.97l2.43.03v-.03c-.24-.07-.42-.22-.56-.46-.13-.24-.19-.54-.19-.91-.03-.59.16-1.04.53-1.37zM242.45 109.36c.37-.32.86-.48 1.49-.48h1.61c.63 0 1.13.16 1.5.48.37.32.55.76.55 1.31 0 .41-.1.75-.31 1.02s-.49.43-.84.48v.03l1.25-.02h1.6v.9H242v-.9h1.05v-.01c-.36-.05-.64-.21-.84-.48s-.3-.61-.3-1.02c-.01-.55.17-.99.54-1.31zm1.55.42c-.43 0-.75.1-.98.31-.23.21-.34.5-.34.88 0 .37.12.67.35.88.23.22.56.33.97.33h1.5c.41 0 .74-.11.97-.33.23-.22.35-.51.35-.88 0-.38-.11-.67-.34-.88s-.55-.31-.98-.31H244zM247.5 107.45l-2.83-1.9-2.67 1.78v-1.06l1.7-1.04c.13-.08.28-.16.45-.24-.17-.07-.32-.15-.45-.23l-1.7-1.05v-1.05l2.68 1.78 2.82-1.89v1.06l-1.8 1.13c-.13.07-.29.16-.49.25.19.1.36.19.49.27l1.8 1.14v1.05zM247.5 199.08h-.92l-2.37-2.23c-.41-.38-.77-.66-1.08-.83s-.62-.26-.92-.26c-.41 0-.73.11-.96.33s-.35.53-.35.92c0 .43.12.76.36 1s.57.36.99.36v.9c-.66-.02-1.18-.23-1.57-.64s-.58-.95-.58-1.62c0-.66.19-1.18.57-1.57s.89-.58 1.54-.58c.41 0 .82.11 1.23.33.41.22.87.58 1.39 1.08l1.86 1.8v-3.33h.82v4.34zM243.26 189.34c.37-.33.88-.49 1.54-.49h.71c.65 0 1.16.19 1.54.57.38.38.56.92.56 1.6 0 .59-.15 1.08-.46 1.46s-.72.6-1.24.67v-.9c.29-.03.51-.16.67-.37.16-.21.23-.5.23-.87 0-.41-.11-.73-.33-.94-.22-.21-.54-.32-.96-.32h-.71c-.42 0-.74.1-.96.31s-.33.52-.33.94c0 .25.07.48.21.67.14.2.32.34.54.43v.9l-4.04-.05v-3.84h.82v2.97l2.43.03v-.03c-.24-.07-.42-.22-.56-.46-.13-.24-.19-.54-.19-.91-.03-.59.16-1.04.53-1.37zM242.45 183.36c.37-.32.86-.48 1.49-.48h1.61c.63 0 1.13.16 1.5.48.37.32.55.76.55 1.31 0 .41-.1.75-.31 1.02s-.49.43-.84.48v.03l1.25-.02h1.6v.9H242v-.9h1.05v-.01c-.36-.05-.64-.21-.84-.48s-.3-.61-.3-1.02c-.01-.55.17-.99.54-1.31zm1.55.42c-.43 0-.75.1-.98.31-.23.21-.34.5-.34.88 0 .37.12.67.35.88.23.22.56.33.97.33h1.5c.41 0 .74-.11.97-.33.23-.22.35-.51.35-.88 0-.38-.11-.67-.34-.88s-.55-.31-.98-.31H244zM247.5 181.45l-2.83-1.9-2.67 1.78v-1.06l1.7-1.04c.13-.08.28-.16.45-.24-.17-.07-.32-.15-.45-.23l-1.7-1.05v-1.05l2.68 1.78 2.82-1.89v1.06l-1.8 1.13c-.13.07-.29.16-.49.25.19.1.36.19.49.27l1.8 1.14v1.05zM243.26 157.55c.37-.33.88-.49 1.54-.49h.71c.65 0 1.16.19 1.54.57.38.38.56.92.56 1.6 0 .59-.15 1.08-.46 1.46s-.72.6-1.24.67v-.9c.29-.03.51-.16.67-.37.16-.21.23-.5.23-.87 0-.41-.11-.73-.33-.94-.22-.21-.54-.32-.96-.32h-.71c-.42 0-.74.1-.96.31s-.33.52-.33.94c0 .25.07.48.21.67.14.2.32.34.54.43v.9l-4.04-.05v-3.84h.82v2.97l2.43.03v-.03c-.24-.07-.42-.22-.56-.46-.13-.24-.19-.54-.19-.91-.03-.59.16-1.04.53-1.37zM247.02 154.82c-.39.4-.91.59-1.56.59h-3.2c-.65 0-1.17-.2-1.57-.59-.39-.4-.58-.93-.58-1.6s.2-1.21.58-1.61c.39-.4.91-.6 1.57-.6h3.2c.65 0 1.17.2 1.56.6.39.4.58.93.58 1.6s-.19 1.21-.58 1.61zm-.57-2.57c-.26-.24-.59-.37-1-.37h-3.2c-.41 0-.74.12-1 .37-.26.24-.38.56-.38.96 0 .4.13.72.38.96.26.24.59.37 1 .37h3.2c.41 0 .74-.12 1-.37.26-.24.38-.57.38-.96 0-.4-.13-.72-.38-.96zm-2.15 1.32c-.1.09-.23.14-.4.14h-.15c-.17 0-.3-.05-.4-.14a.46.46 0 01-.15-.36c0-.15.05-.28.15-.37.1-.09.23-.13.4-.13h.15c.17 0 .3.04.4.13.1.09.15.21.15.37 0 .15-.05.27-.15.36zM242.45 145.57c.37-.32.86-.48 1.49-.48h1.61c.63 0 1.13.16 1.5.48.37.32.55.76.55 1.31 0 .41-.1.75-.31 1.02s-.49.43-.84.48v.03l1.25-.02h1.6v.9H242v-.9h1.05v-.01c-.36-.05-.64-.21-.84-.48s-.3-.61-.3-1.02c-.01-.55.17-.99.54-1.31zm1.55.42c-.43 0-.75.1-.98.31-.23.21-.34.5-.34.88 0 .37.12.67.35.88.23.22.56.33.97.33h1.5c.41 0 .74-.11.97-.33.23-.22.35-.51.35-.88 0-.38-.11-.67-.34-.88s-.55-.31-.98-.31H244zM247.5 143.66l-2.83-1.9-2.67 1.78v-1.06l1.7-1.04c.13-.08.28-.16.45-.24-.17-.07-.32-.15-.45-.23l-1.7-1.05v-1.05l2.68 1.78 2.82-1.89v1.06l-1.8 1.13c-.13.07-.29.16-.49.25.19.1.36.19.49.27l1.8 1.14v1.05zM198.4 198.4h5.21v5.21h-5.21zM198.4 273.4h5.21v5.21h-5.21zM198.4 98.4h5.21v5.21h-5.21zM273.4 198.4h5.21v5.21h-5.21zM123.4 198.4h5.21v5.21h-5.21z" class="st0"/><g><path d="M227 227h-52v-52h52v52zm-50-2h48v-48h-48v48z" class="st0"/></g><g><path d="M152 227h-52v-52h52v52zm-50-2h48v-48h-48v48z" class="st0"/></g><g><path d="M302 227h-52v-52h52v52zm-50-2h48v-48h-48v48z" class="st0"/></g><g><path d="M227 127h-52V75h52v52zm-50-2h48V77h-48v48z" class="st0"/></g><g><path d="M152 127h-52V75h52v52zm-50-2h48V77h-48v48z" class="st0"/></g><g><path d="M302 127h-52V75h52v52zm-50-2h48V77h-48v48z" class="st0"/></g><g><path d="M227 327h-52v-52h52v52zm-50-2h48v-48h-48v48z" class="st0"/></g><g><path d="M152 327h-52v-52h52v52zm-50-2h48v-48h-48v48z" class="st0"/></g><g><path d="M302 327h-52v-52h52v52zm-50-2h48v-48h-48v48z" class="st0"/></g><g class="st1"><path d="M116.77 386.11c-.66-.57-.99-1.35-1.02-2.34h1.44c0 .6.2 1.07.6 1.41.4.34.96.51 1.67.51.67 0 1.2-.17 1.58-.5.38-.34.57-.8.57-1.38 0-.47-.13-.88-.38-1.23-.26-.35-.61-.6-1.07-.74l-1.58-.5c-.8-.25-1.42-.65-1.85-1.22-.43-.57-.65-1.25-.65-2.04 0-.62.14-1.16.42-1.63.28-.47.68-.83 1.2-1.1.52-.26 1.12-.39 1.8-.39 1.02 0 1.84.29 2.46.86.61.57.93 1.33.95 2.28h-1.44c0-.58-.17-1.03-.52-1.36-.35-.33-.83-.5-1.46-.5-.62 0-1.1.15-1.45.46-.35.3-.52.72-.52 1.26 0 .48.13.9.38 1.25.26.35.62.6 1.1.75l1.6.51c.78.25 1.38.66 1.81 1.25.43.59.64 1.27.64 2.06 0 .63-.15 1.19-.45 1.67s-.72.86-1.26 1.13-1.17.4-1.87.4c-1.15-.02-2.04-.3-2.7-.87zM126.54 386.07c-.62-.6-.93-1.42-.93-2.46v-2.4c0-1.05.31-1.87.93-2.46.62-.6 1.46-.9 2.53-.9 1.01 0 1.83.27 2.45.82.62.54.94 1.29.98 2.22h-1.44c-.03-.55-.22-.99-.57-1.3s-.82-.46-1.42-.46c-.63 0-1.12.18-1.48.54s-.54.87-.54 1.52v2.42c0 .66.18 1.17.53 1.54.35.36.85.54 1.49.54.6 0 1.07-.15 1.42-.46s.54-.74.57-1.3h1.44c-.03.94-.36 1.68-.98 2.22-.62.54-1.43.82-2.45.82-1.07-.01-1.91-.3-2.53-.9zM141.99 382.76h-5.38v.85c0 .7.17 1.24.5 1.6.34.36.83.54 1.48.54 1.12 0 1.76-.39 1.92-1.18h1.44c-.1.74-.45 1.32-1.06 1.75-.61.43-1.38.65-2.3.65-1.04 0-1.86-.3-2.47-.91-.61-.61-.92-1.42-.92-2.45v-2.4c0-1.02.31-1.84.92-2.45.61-.61 1.44-.91 2.47-.91 1.03 0 1.86.3 2.47.91.61.61.92 1.42.92 2.45v1.55zm-5.37-1.09h3.97v-.46c0-.7-.17-1.24-.5-1.61-.34-.37-.83-.55-1.48-.55s-1.14.18-1.48.55-.5.9-.5 1.61v.46zM150.78 378.67c.52.55.78 1.29.78 2.22v5.92h-1.44v-5.76c0-.62-.17-1.1-.5-1.46-.34-.35-.79-.53-1.37-.53-.61 0-1.08.19-1.42.57-.34.38-.51.9-.51 1.58v5.6h-1.44V378h1.44v1.68h.02c.07-.59.31-1.04.72-1.36.41-.32.94-.48 1.62-.48.87 0 1.57.28 2.1.83zM161.19 382.76h-5.38v.85c0 .7.17 1.24.5 1.6.34.36.83.54 1.48.54 1.12 0 1.76-.39 1.92-1.18h1.44c-.1.74-.45 1.32-1.06 1.75-.61.43-1.38.65-2.3.65-1.03 0-1.86-.3-2.47-.91s-.92-1.42-.92-2.45v-2.4c0-1.02.31-1.84.92-2.45.61-.61 1.44-.91 2.47-.91 1.04 0 1.86.3 2.47.91.61.61.92 1.42.92 2.45v1.55zm-5.37-1.09h3.97v-.46c0-.7-.17-1.24-.5-1.61s-.83-.55-1.48-.55-1.14.18-1.48.55-.5.9-.5 1.61v.46zM173.95 386.8l-1.34-11.68h1.38l.88 8.64c.06.61.11 1.27.14 2 .06-.73.13-1.39.21-2l1.09-8.64h1.49l.99 8.64.22 2c.05-.73.11-1.39.18-2l.91-8.64h1.31l-1.38 11.68h-1.81l-.99-8.8-.19-1.87-.21 1.87-1.07 8.8h-1.81zM190.6 386.8h-7.52v-1.31h3.12v-6.18h-2.72V378h4.16v7.49h2.96v1.31zm-4-10.32c-.32 0-.57-.08-.76-.26-.19-.17-.28-.4-.28-.69s.1-.52.29-.7c.19-.18.44-.27.75-.27h.32c.31 0 .56.09.75.27s.29.42.29.7-.1.52-.29.69c-.19.17-.44.26-.75.26h-.32zM198.09 375.12h1.44v11.68h-1.44v-1.68h-.02c-.07.58-.33 1.03-.75 1.35s-.97.49-1.63.49c-.89 0-1.59-.29-2.1-.88s-.78-1.38-.78-2.38v-2.58c0-1.01.26-1.81.78-2.4.52-.59 1.22-.88 2.1-.88.65 0 1.19.17 1.62.5.43.33.68.78.77 1.34h.05l-.03-2v-2.56zm0 6.08c0-.66-.17-1.18-.51-1.55-.34-.37-.81-.56-1.41-.56-.61 0-1.08.18-1.42.55-.34.37-.5.89-.5 1.56v2.4c0 .67.17 1.19.5 1.56.34.37.81.55 1.42.55.6 0 1.07-.19 1.41-.56.34-.37.51-.89.51-1.55v-2.4zM206.76 386.8c-.76 0-1.35-.2-1.77-.61-.42-.41-.63-.98-.63-1.71v-5.17h-2.48V378h2.48v-2.4h1.44v2.4h3.52v1.31h-3.52v5.17c0 .34.08.59.23.76.15.17.4.25.73.25h2.4v1.31h-2.4zM217.98 378.67c.52.55.78 1.29.78 2.22v5.92h-1.44v-5.76c0-.62-.17-1.1-.5-1.46-.34-.35-.79-.53-1.37-.53-.61 0-1.08.19-1.42.57s-.51.9-.51 1.58v5.6h-1.44v-11.68h1.44v4.56h.02c.08-.59.31-1.04.72-1.36.41-.32.94-.48 1.62-.48.87-.01 1.57.27 2.1.82zM224.84 380.24c-.35 0-.64-.11-.86-.34-.22-.22-.34-.51-.34-.86 0-.34.11-.63.34-.86s.51-.34.86-.34h.32c.34 0 .63.11.86.34.23.23.34.51.34.86s-.11.64-.34.86c-.22.22-.51.34-.86.34h-.32zm0 6.72c-.35 0-.64-.11-.86-.34-.22-.22-.34-.51-.34-.86 0-.34.11-.63.34-.86.23-.23.51-.34.86-.34h.32c.34 0 .63.12.86.34.23.23.34.52.34.86 0 .35-.11.64-.34.86-.22.22-.51.34-.86.34h-.32zM247.4 386.8h-1.44v-2.56h-5.28v-2.26l4.62-6.86h1.57l-4.75 7.17v.64h3.84v-2.85h1.44v6.72zM251.23 386.03c-.63-.62-.95-1.46-.95-2.5v-5.12c0-1.04.32-1.88.95-2.5.63-.62 1.49-.94 2.57-.94s1.93.31 2.57.94.95 1.46.95 2.5v5.12c0 1.05-.32 1.88-.96 2.5-.64.62-1.49.94-2.56.94-1.08-.01-1.93-.32-2.57-.94zm4.11-.91c.39-.41.58-.94.58-1.59v-5.12c0-.65-.19-1.18-.58-1.59-.39-.41-.9-.62-1.54-.62s-1.15.21-1.54.62c-.39.41-.58.94-.58 1.59v5.12c0 .65.19 1.18.58 1.59.39.41.9.62 1.54.62.64-.01 1.15-.21 1.54-.62zm-2.12-3.44c-.15-.16-.22-.37-.22-.64v-.24c0-.27.07-.48.22-.64.15-.16.34-.24.58-.24.25 0 .44.08.58.24.14.16.22.37.22.64v.24c0 .27-.07.48-.22.64-.14.16-.34.24-.58.24a.77.77 0 01-.58-.24zM260.83 386.03c-.63-.62-.95-1.46-.95-2.5v-5.12c0-1.04.32-1.88.95-2.5.63-.62 1.49-.94 2.57-.94s1.93.31 2.57.94.95 1.46.95 2.5v5.12c0 1.05-.32 1.88-.96 2.5-.64.62-1.49.94-2.56.94-1.08-.01-1.93-.32-2.57-.94zm4.11-.91c.39-.41.58-.94.58-1.59v-5.12c0-.65-.19-1.18-.58-1.59-.39-.41-.9-.62-1.54-.62s-1.15.21-1.54.62c-.39.41-.58.94-.58 1.59v5.12c0 .65.19 1.18.58 1.59.39.41.9.62 1.54.62.64-.01 1.15-.21 1.54-.62zm-2.12-3.44c-.15-.16-.22-.37-.22-.64v-.24c0-.27.07-.48.22-.64.15-.16.34-.24.58-.24.25 0 .44.08.58.24.14.16.22.37.22.64v.24c0 .27-.07.48-.22.64-.14.16-.34.24-.58.24a.77.77 0 01-.58-.24zM275.62 378.72c.51.59.77 1.38.77 2.38v2.58c0 1.01-.26 1.81-.77 2.4s-1.21.88-2.1.88c-.66 0-1.21-.17-1.64-.5-.43-.33-.69-.78-.76-1.34h-.05l.03 2v2.56h-1.44V378h1.44v1.68h.02c.08-.58.33-1.03.76-1.35.43-.33.98-.49 1.64-.49.89 0 1.59.3 2.1.88zm-.67 2.48c0-.68-.17-1.21-.5-1.57s-.8-.54-1.41-.54c-.6 0-1.07.19-1.42.56-.35.37-.52.89-.52 1.55v2.4c0 .66.17 1.18.52 1.55.35.37.82.56 1.42.56.61 0 1.08-.18 1.41-.54s.5-.89.5-1.57v-2.4zM278.68 386.8l3.04-4.53-2.85-4.27h1.7l1.66 2.72c.13.2.26.44.38.72.12-.28.24-.52.37-.72l1.68-2.72h1.68l-2.85 4.29 3.02 4.51h-1.7l-1.81-2.88c-.12-.2-.25-.46-.4-.78-.16.31-.3.57-.43.78l-1.82 2.88h-1.67z" class="st0"/></g><g class="st1"><path d="M27.68 290.03c-.57.66-1.35.99-2.34 1.02v-1.44c.6 0 1.07-.2 1.41-.6.34-.4.51-.96.51-1.67 0-.67-.17-1.2-.5-1.58s-.8-.57-1.38-.57c-.47 0-.88.13-1.23.38-.35.26-.6.61-.74 1.07l-.5 1.58c-.25.8-.65 1.42-1.22 1.85-.57.43-1.25.65-2.04.65-.62 0-1.16-.14-1.63-.42-.47-.28-.83-.68-1.1-1.2s-.39-1.12-.39-1.8c0-1.02.29-1.84.86-2.46s1.33-.93 2.28-.95v1.44c-.58 0-1.03.17-1.36.52-.33.35-.5.83-.5 1.46 0 .62.15 1.1.46 1.45.3.35.72.52 1.26.52.48 0 .9-.13 1.25-.38.35-.26.6-.62.75-1.1l.51-1.6c.25-.78.66-1.38 1.25-1.81.59-.43 1.27-.64 2.06-.64.63 0 1.19.15 1.67.45s.86.72 1.13 1.26c.27.54.4 1.17.4 1.87-.01 1.15-.3 2.04-.87 2.7zM27.64 280.26c-.6.62-1.42.93-2.46.93h-2.4c-1.05 0-1.87-.31-2.46-.93-.6-.62-.9-1.46-.9-2.53 0-1.01.27-1.83.82-2.45.54-.62 1.29-.94 2.22-.98v1.44c-.55.03-.99.22-1.3.57-.31.35-.46.82-.46 1.42 0 .63.18 1.12.54 1.48s.87.54 1.52.54h2.42c.66 0 1.17-.18 1.54-.53.36-.35.54-.85.54-1.49 0-.6-.15-1.07-.46-1.42-.31-.35-.74-.54-1.3-.57v-1.44c.94.03 1.68.36 2.22.98.54.62.82 1.44.82 2.45 0 1.07-.3 1.91-.9 2.53zM24.33 264.81v5.38h.85c.7 0 1.24-.17 1.6-.5.36-.34.54-.83.54-1.48 0-1.12-.39-1.76-1.18-1.92v-1.44c.74.1 1.32.45 1.75 1.06.43.61.65 1.38.65 2.3 0 1.04-.3 1.86-.91 2.47s-1.42.92-2.45.92h-2.4c-1.02 0-1.84-.31-2.45-.92-.61-.61-.91-1.44-.91-2.47 0-1.03.3-1.86.91-2.47.61-.61 1.42-.92 2.45-.92h1.55zm-1.09 5.37v-3.97h-.46c-.7 0-1.24.17-1.61.5-.37.34-.55.83-.55 1.48s.18 1.14.55 1.48.9.5 1.61.5h.46zM20.24 256.02c.55-.52 1.29-.78 2.22-.78h5.92v1.44h-5.76c-.62 0-1.1.17-1.46.5-.35.34-.53.79-.53 1.37 0 .61.19 1.08.57 1.42s.9.51 1.58.51h5.6v1.44h-8.8v-1.44h1.68v-.02c-.59-.07-1.04-.31-1.36-.72-.32-.41-.48-.94-.48-1.62 0-.87.27-1.57.82-2.1zM24.33 245.61v5.38h.85c.7 0 1.24-.17 1.6-.5.36-.34.54-.83.54-1.48 0-1.12-.39-1.76-1.18-1.92v-1.44c.74.1 1.32.45 1.75 1.06.43.61.65 1.38.65 2.3 0 1.03-.3 1.86-.91 2.47s-1.42.92-2.45.92h-2.4c-1.02 0-1.84-.31-2.45-.92-.61-.61-.91-1.44-.91-2.47 0-1.04.3-1.86.91-2.47.61-.61 1.42-.92 2.45-.92h1.55zm-1.09 5.37v-3.97h-.46c-.7 0-1.24.17-1.61.5s-.55.83-.55 1.48.18 1.14.55 1.48.9.5 1.61.5h.46zM28.38 231.67v1.44H16.7v-1.44h4.99v-3.74H16.7v-1.44h11.68v1.44H23v3.74h5.38zM24.33 216.81v5.38h.85c.7 0 1.24-.17 1.6-.5.36-.34.54-.83.54-1.48 0-1.12-.39-1.76-1.18-1.92v-1.44c.74.1 1.32.45 1.75 1.06.43.61.65 1.38.65 2.3 0 1.03-.3 1.86-.91 2.47s-1.42.92-2.45.92h-2.4c-1.02 0-1.84-.31-2.45-.92-.61-.61-.91-1.44-.91-2.47 0-1.04.3-1.86.91-2.47.61-.61 1.42-.92 2.45-.92h1.55zm-1.09 5.37v-3.97h-.46c-.7 0-1.24.17-1.61.5s-.55.83-.55 1.48.18 1.14.55 1.48.9.5 1.61.5h.46zM18.06 210.6c0 .32-.08.57-.26.76-.17.19-.4.28-.69.28s-.52-.1-.7-.29c-.18-.19-.27-.44-.27-.75v-.32c0-.31.09-.56.27-.75s.42-.29.7-.29.52.1.69.29c.17.19.26.44.26.75v.32zm10.32-4v7.52h-1.31V211h-6.18v2.72h-1.31v-4.16h7.49v-2.96h1.31zM19.58 199.08v-1.39h9.12c.8 0 1.43.24 1.88.73.45.49.68 1.16.68 2.02v2.78h-1.31v-2.8c0-.45-.1-.78-.3-.98-.2-.21-.52-.31-.94-.31h-1.12l-1.12-.05v.21c.44.14.77.4 1.01.78.23.38.35.86.35 1.44 0 .89-.29 1.59-.88 2.1-.59.52-1.39.78-2.4.78h-1.86c-1 0-1.8-.26-2.38-.78-.59-.52-.88-1.22-.88-2.1 0-.58.12-1.06.35-1.44.24-.38.57-.65 1.01-.78v-.21h-1.21zm3.2.03c-.66 0-1.18.17-1.55.51-.37.34-.56.81-.56 1.41 0 .61.18 1.08.55 1.42.37.34.89.5 1.56.5h1.68c.67 0 1.19-.17 1.56-.5.37-.34.55-.81.55-1.42 0-.6-.19-1.07-.56-1.41-.37-.34-.89-.51-1.55-.51h-1.68zM20.24 188.82c.55-.52 1.29-.78 2.22-.78h5.92v1.44h-5.76c-.62 0-1.1.17-1.46.5-.35.34-.53.79-.53 1.37 0 .61.19 1.08.57 1.42s.9.51 1.58.51h5.6v1.44H16.7v-1.44h4.56v-.02c-.59-.08-1.04-.31-1.36-.72-.32-.41-.48-.94-.48-1.62 0-.87.27-1.57.82-2.1zM28.38 180.84c0 .76-.2 1.35-.61 1.77-.41.42-.98.63-1.71.63h-5.17v2.48h-1.31v-2.48h-2.4v-1.44h2.4v-3.52h1.31v3.52h5.17c.34 0 .59-.08.76-.23.17-.15.25-.4.25-.73v-2.4h1.31v2.4zM21.82 172.36c0 .35-.11.64-.34.86-.22.22-.51.34-.86.34-.34 0-.63-.11-.86-.34s-.34-.51-.34-.86v-.32c0-.34.11-.63.34-.86.23-.23.51-.34.86-.34s.64.11.86.34c.22.22.34.51.34.86v.32zm6.72 0c0 .35-.11.64-.34.86-.22.22-.51.34-.86.34-.34 0-.63-.11-.86-.34-.23-.23-.34-.51-.34-.86v-.32c0-.34.12-.63.34-.86.23-.23.52-.34.86-.34.35 0 .64.11.86.34.22.22.34.51.34.86v.32zM28.38 149.8v1.44h-2.56v5.28h-2.26l-6.86-4.62v-1.57l7.17 4.75h.64v-3.84h-2.85v-1.44h6.72zM27.6 145.97c-.62.63-1.46.95-2.5.95h-5.12c-1.04 0-1.88-.32-2.5-.95-.62-.63-.94-1.49-.94-2.57s.31-1.93.94-2.57 1.46-.95 2.5-.95h5.12c1.05 0 1.88.32 2.5.96.62.64.94 1.49.94 2.56 0 1.08-.32 1.93-.94 2.57zm-.91-4.11c-.41-.39-.94-.58-1.59-.58h-5.12c-.65 0-1.18.19-1.59.58-.41.39-.62.9-.62 1.54s.21 1.15.62 1.54c.41.39.94.58 1.59.58h5.12c.65 0 1.18-.19 1.59-.58.41-.39.62-.9.62-1.54-.01-.64-.21-1.15-.62-1.54zm-3.43 2.12c-.16.15-.37.22-.64.22h-.24c-.27 0-.48-.07-.64-.22a.754.754 0 01-.24-.58c0-.25.08-.44.24-.58.16-.14.37-.22.64-.22h.24c.27 0 .48.07.64.22.16.14.24.34.24.58 0 .23-.08.43-.24.58zM27.6 136.37c-.62.63-1.46.95-2.5.95h-5.12c-1.04 0-1.88-.32-2.5-.95-.62-.63-.94-1.49-.94-2.57s.31-1.93.94-2.57 1.46-.95 2.5-.95h5.12c1.05 0 1.88.32 2.5.96.62.64.94 1.49.94 2.56 0 1.08-.32 1.93-.94 2.57zm-.91-4.11c-.41-.39-.94-.58-1.59-.58h-5.12c-.65 0-1.18.19-1.59.58-.41.39-.62.9-.62 1.54s.21 1.15.62 1.54c.41.39.94.58 1.59.58h5.12c.65 0 1.18-.19 1.59-.58.41-.39.62-.9.62-1.54-.01-.64-.21-1.15-.62-1.54zm-3.43 2.12c-.16.15-.37.22-.64.22h-.24c-.27 0-.48-.07-.64-.22a.754.754 0 01-.24-.58c0-.25.08-.44.24-.58.16-.14.37-.22.64-.22h.24c.27 0 .48.07.64.22.16.14.24.34.24.58 0 .24-.08.43-.24.58zM20.3 121.58c.59-.51 1.38-.77 2.38-.77h2.58c1.01 0 1.81.26 2.4.77s.88 1.21.88 2.1c0 .66-.17 1.21-.5 1.64-.33.43-.78.69-1.34.76v.05l2-.03h2.56v1.44H19.58v-1.44h1.68v-.02c-.58-.08-1.03-.33-1.35-.76-.33-.43-.49-.98-.49-1.64 0-.89.29-1.59.88-2.1zm2.48.67c-.68 0-1.21.17-1.57.5s-.54.8-.54 1.41c0 .6.19 1.07.56 1.42.37.35.89.52 1.55.52h2.4c.66 0 1.18-.17 1.55-.52.37-.35.56-.82.56-1.42 0-.61-.18-1.08-.54-1.41s-.89-.5-1.57-.5h-2.4zM28.38 118.52l-4.53-3.04-4.27 2.85v-1.7l2.72-1.66c.2-.13.44-.26.72-.38-.28-.12-.52-.24-.72-.37l-2.72-1.68v-1.68l4.29 2.85 4.51-3.02v1.7l-2.88 1.81c-.2.12-.46.25-.78.4.31.16.57.3.78.43l2.88 1.82v1.67z" class="st0"/></g><g><path d="M214.11 101h2v100h-2z" class="st2"/><path d="M206.67 200h15.81v2h-15.81zM206.67 100h15.95v2h-15.95z" class="st2"/></g><g><path d="M125.75 213.37h75v2h-75z" class="st2"/><path d="M199.75 206.84h2v15.96h-2zM124.75 206.86h2v15.95h-2z" class="st2"/></g><g class="st1"><path d="M40.33 12.32h2v377.37h-2z" class="st0"/><path d="M32.55 388.68H48.5v2H32.55zM32.9 11.32h15.95v2H32.9z" class="st0"/></g><g><path d="M91.54 25.27h1.44v11.68h-1.44v-1.68h-.02c-.07.58-.33 1.03-.75 1.35s-.97.49-1.63.49c-.89 0-1.59-.29-2.1-.88s-.78-1.38-.78-2.38v-2.58c0-1.01.26-1.81.78-2.4.52-.59 1.22-.88 2.1-.88.65 0 1.19.17 1.62.5.43.33.68.78.77 1.34h.05l-.03-2v-2.56zm0 6.08c0-.66-.17-1.18-.51-1.55-.34-.37-.81-.56-1.41-.56-.61 0-1.08.18-1.42.55-.34.37-.5.89-.5 1.56v2.4c0 .67.17 1.19.5 1.56.34.37.81.55 1.42.55.6 0 1.07-.19 1.41-.56.34-.37.51-.89.51-1.55v-2.4zM103.25 36.95h-7.52v-1.31h3.12v-6.18h-2.72v-1.31h4.16v7.49h2.96v1.31zm-4-10.32c-.32 0-.57-.08-.76-.26-.19-.17-.28-.4-.28-.69s.1-.52.29-.7c.19-.18.44-.27.75-.27h.32c.31 0 .56.09.75.27s.29.42.29.7-.1.52-.29.69c-.19.17-.44.26-.75.26h-.32zM108.5 37.11c-.9 0-1.61-.21-2.15-.62s-.85-.98-.94-1.7h1.44c.06.32.24.57.53.76.29.19.66.28 1.12.28h.67c.55 0 .97-.12 1.26-.35.28-.23.42-.55.42-.94 0-.73-.5-1.17-1.49-1.33l-1.18-.19c-.88-.14-1.52-.41-1.94-.81-.42-.4-.62-.97-.62-1.7 0-.8.26-1.42.77-1.86s1.26-.66 2.24-.66h.61c.83 0 1.51.2 2.02.6.52.4.83.94.94 1.62h-1.44c-.06-.29-.23-.52-.5-.69s-.61-.26-1.02-.26h-.61c-1.05 0-1.57.42-1.57 1.25 0 .35.1.62.31.79.21.18.55.3 1.02.38l1.18.19c.95.15 1.64.43 2.07.83.43.41.65.99.65 1.76 0 .83-.26 1.48-.79 1.94-.53.46-1.3.7-2.33.7h-.67zM119.41 36.95c-.76 0-1.35-.2-1.77-.61-.42-.41-.63-.98-.63-1.71v-5.17h-2.48v-1.31h2.48v-2.4h1.44v2.4h3.52v1.31h-3.52v5.17c0 .34.08.59.23.76.15.17.4.25.73.25h2.4v1.31h-2.4zM130.51 28.78c.6.52.9 1.22.9 2.12v6.05H130v-1.68h-.02c-.04.55-.32 1-.83 1.34-.51.34-1.15.5-1.92.5-.9 0-1.61-.23-2.14-.7s-.8-1.1-.8-1.9c0-.84.26-1.5.79-1.98s1.25-.72 2.17-.72h2.72v-.85c0-.53-.17-.95-.5-1.24-.34-.29-.8-.44-1.4-.44-.52 0-.96.11-1.3.32-.34.21-.54.51-.59.88h-1.44c.1-.75.45-1.34 1.06-1.79.61-.45 1.37-.67 2.29-.67 1.02-.01 1.83.25 2.42.76zm-1.21 6.69c.45-.34.67-.78.67-1.32V32.9h-2.69c-.48 0-.86.13-1.14.4-.28.27-.42.63-.42 1.1 0 .49.17.88.5 1.15.33.28.78.42 1.34.42.71.01 1.29-.16 1.74-.5zM140.22 28.82c.52.55.78 1.29.78 2.22v5.92h-1.44V31.2c0-.62-.17-1.1-.5-1.46-.34-.35-.79-.53-1.37-.53-.61 0-1.08.19-1.42.57s-.51.9-.51 1.58v5.6h-1.44v-8.8h1.44v1.68h.02c.08-.59.31-1.04.72-1.36.41-.32.94-.48 1.62-.48.88-.01 1.58.27 2.1.82zM144.78 36.22c-.62-.6-.93-1.42-.93-2.46v-2.4c0-1.05.31-1.87.93-2.46.62-.6 1.46-.9 2.53-.9 1.01 0 1.83.27 2.45.82.62.54.94 1.29.98 2.22h-1.44c-.03-.55-.22-.99-.57-1.3s-.82-.46-1.42-.46c-.63 0-1.12.18-1.48.54s-.54.87-.54 1.52v2.42c0 .66.18 1.17.53 1.54.35.36.85.54 1.49.54.6 0 1.07-.15 1.42-.46s.54-.74.57-1.3h1.44c-.03.94-.36 1.68-.98 2.22-.62.54-1.43.82-2.45.82-1.06-.01-1.91-.31-2.53-.9zM160.24 32.9h-5.38v.85c0 .7.17 1.24.5 1.6.34.36.83.54 1.48.54 1.12 0 1.76-.39 1.92-1.18h1.44c-.1.74-.45 1.32-1.06 1.75-.61.43-1.38.65-2.3.65-1.03 0-1.86-.3-2.47-.91s-.92-1.42-.92-2.45v-2.4c0-1.02.31-1.84.92-2.45.61-.61 1.44-.91 2.47-.91 1.04 0 1.86.3 2.47.91.61.61.92 1.42.92 2.45v1.55zm-5.37-1.08h3.97v-.46c0-.7-.17-1.24-.5-1.61s-.83-.55-1.48-.55-1.14.18-1.48.55-.5.9-.5 1.61v.46z" class="st0"/><g><path d="M68.13 55.38h-3.92V40.34h3.92v1.28h-2.48V54.1h2.48v1.28zM79.09 53.62h-7.2v-1.31h3.17v-9.17l-3.17 2.37v-1.6l2.64-1.97h1.97v10.37h2.59v1.31zM82.28 52.85c-.63-.62-.95-1.46-.95-2.5v-5.12c0-1.04.32-1.88.95-2.5.63-.62 1.49-.94 2.57-.94s1.93.31 2.57.94c.63.62.95 1.46.95 2.5v5.12c0 1.05-.32 1.88-.96 2.5-.64.62-1.49.94-2.56.94-1.08-.01-1.93-.32-2.57-.94zm4.11-.92c.39-.41.58-.94.58-1.59v-5.12c0-.65-.19-1.18-.58-1.59s-.9-.62-1.54-.62-1.15.21-1.54.62-.58.94-.58 1.59v5.12c0 .65.19 1.18.58 1.59.39.41.9.62 1.54.62s1.15-.2 1.54-.62zm-2.12-3.43c-.15-.16-.22-.37-.22-.64v-.24c0-.27.07-.48.22-.64s.34-.24.58-.24c.25 0 .44.08.58.24.14.16.22.37.22.64v.24c0 .27-.07.48-.22.64-.14.16-.34.24-.58.24a.77.77 0 01-.58-.24zM91.88 52.85c-.63-.62-.95-1.46-.95-2.5v-5.12c0-1.04.32-1.88.95-2.5.63-.62 1.49-.94 2.57-.94s1.93.31 2.57.94c.63.62.95 1.46.95 2.5v5.12c0 1.05-.32 1.88-.96 2.5-.64.62-1.49.94-2.56.94-1.08-.01-1.93-.32-2.57-.94zm4.11-.92c.39-.41.58-.94.58-1.59v-5.12c0-.65-.19-1.18-.58-1.59s-.9-.62-1.54-.62-1.15.21-1.54.62-.58.94-.58 1.59v5.12c0 .65.19 1.18.58 1.59.39.41.9.62 1.54.62s1.15-.2 1.54-.62zm-2.12-3.43c-.15-.16-.22-.37-.22-.64v-.24c0-.27.07-.48.22-.64s.34-.24.58-.24c.25 0 .44.08.58.24.14.16.22.37.22.64v.24c0 .27-.07.48-.22.64-.14.16-.34.24-.58.24-.24 0-.43-.08-.58-.24zM106.67 45.54c.51.59.77 1.38.77 2.38v2.58c0 1.01-.26 1.81-.77 2.4-.51.59-1.21.88-2.1.88-.66 0-1.21-.17-1.64-.5-.43-.33-.69-.78-.76-1.34h-.05l.03 2v2.56h-1.44V44.82h1.44v1.68h.02c.08-.58.33-1.03.76-1.35.43-.32.98-.49 1.64-.49.89 0 1.59.3 2.1.88zm-.67 2.48c0-.68-.17-1.21-.5-1.57-.33-.36-.8-.54-1.41-.54-.6 0-1.07.19-1.42.56s-.52.89-.52 1.55v2.4c0 .66.17 1.18.52 1.55s.82.56 1.42.56c.61 0 1.08-.18 1.41-.54.33-.36.5-.88.5-1.57v-2.4zM109.73 53.62l3.04-4.53-2.85-4.27h1.7l1.66 2.72c.13.2.26.44.38.72.12-.28.24-.52.37-.72l1.68-2.72h1.68l-2.85 4.29 3.02 4.51h-1.7l-1.81-2.88c-.12-.2-.25-.46-.4-.78-.16.31-.3.57-.43.78l-1.82 2.88h-1.67zM122.37 56.18h-1.28l1.28-4.97h2.08l-2.08 4.97zM142.16 53.62h-1.55l4.18-10.37h-4.42v1.73h-1.44v-3.04h7.28v1.41l-4.05 10.27zM154.7 46.83c.52.59.78 1.41.78 2.46v1.13c0 1.04-.31 1.85-.92 2.46-.61.6-1.46.9-2.55.9-.95 0-1.73-.25-2.34-.74-.61-.49-.96-1.15-1.07-1.98h1.44c.05.46.25.81.59 1.06.34.25.81.38 1.39.38.66 0 1.16-.18 1.5-.54.34-.36.51-.87.51-1.54v-1.13c0-.67-.17-1.19-.5-1.54s-.83-.54-1.5-.54c-.41 0-.77.11-1.08.33s-.54.51-.68.87h-1.44l.08-6.46h6.14v1.31h-4.75l-.05 3.89h.05c.11-.38.35-.68.74-.89.38-.21.87-.31 1.46-.31.95-.01 1.68.29 2.2.88zM164.27 45.54c.51.59.77 1.38.77 2.38v2.58c0 1.01-.26 1.81-.77 2.4-.51.59-1.21.88-2.1.88-.66 0-1.21-.17-1.64-.5-.43-.33-.69-.78-.76-1.34h-.05l.03 2v2.56h-1.44V44.82h1.44v1.68h.02c.08-.58.33-1.03.76-1.35.43-.32.98-.49 1.64-.49.89 0 1.59.3 2.1.88zm-.67 2.48c0-.68-.17-1.21-.5-1.57-.33-.36-.8-.54-1.41-.54-.6 0-1.07.19-1.42.56s-.52.89-.52 1.55v2.4c0 .66.17 1.18.52 1.55s.82.56 1.42.56c.61 0 1.08-.18 1.41-.54.33-.36.5-.88.5-1.57v-2.4zM167.33 53.62l3.04-4.53-2.85-4.27h1.7l1.66 2.72c.13.2.26.44.38.72.12-.28.24-.52.37-.72l1.68-2.72h1.68l-2.85 4.29 3.02 4.51h-1.7l-1.81-2.88c-.12-.2-.25-.46-.4-.78-.16.31-.3.57-.43.78L169 53.62h-1.67zM182.37 55.38h-3.92V54.1h2.48V41.62h-2.48v-1.28h3.92v15.04z" class="st0"/></g></g><g><path d="M86.6 69.61c-2.22 0-4.03-1.81-4.03-4.03s1.81-4.03 4.03-4.03 4.03 1.81 4.03 4.03-1.81 4.03-4.03 4.03zm0-6.06c-1.14 0-2.03.89-2.03 2.03 0 1.14.89 2.03 2.03 2.03 1.14 0 2.03-.89 2.03-2.03 0-1.14-.89-2.03-2.03-2.03z" class="st0"/></g><g><path d="M161.34 69.61c-2.22 0-4.03-1.81-4.03-4.03s1.81-4.03 4.03-4.03 4.03 1.81 4.03 4.03-1.81 4.03-4.03 4.03zm0-6.06c-1.14 0-2.03.89-2.03 2.03 0 1.14.89 2.03 2.03 2.03 1.14 0 2.03-.89 2.03-2.03 0-1.14-.89-2.03-2.03-2.03z" class="st0"/></g><g class="st3"><path d="M199.34 153.34l-4-.01.01-2 4 .01-.01 2zm-8-.03l-4-.01.01-2 4 .01-.01 2zm-8-.03l-4-.01.01-2 4 .01-.01 2zm-8-.03l-4-.01.01-2 4 .01-.01 2zm-8-.03l-4-.01.01-2 4 .01-.01 2zm-8-.03l-4-.01.01-2 4 .01-.01 2zm-8-.03l-4-.01.01-2 4 .01-.01 2zm-8-.03l-4-.01.01-2 4 .01-.01 2zm-8-.02l-4-.01.01-2 4 .01-.01 2zm-8-.03l-4-.01.01-2 4 .01-.01 2zm-8-.03l-4-.01.01-2 4 .01-.01 2zm-8-.03l-4-.01.01-2 4 .01-.01 2zm-8-.03l-4-.01.01-2 4 .01-.01 2zm-8-.03l-4-.01.01-2 4 .01-.01 2zm-8-.03l-1.68-.01v-4.31h2v3.32h-.32v1zm-1.68-8.32v-4h2v4h-2zm-.01-8v-4h2v4h-2zm0-8v-4h2v4h-2zm-.01-8v-4h2v4h-2zm-.01-8v-4h2v4h-2zm0-8v-4h2v4h-2zm-.01-8v-4h2v4h-2zm-.01-8v-4h2v4h-2zm0-8v-4h2v4h-2zm-.01-8v-4h2v4h-2z" class="st0"/></g><g class="st3"><path d="M161.25 208.92l-.02-3.77 2-.01.02 3.77-2 .01zm-.05-7.77l-.02-4 2-.01.02 4-2 .01zm-.05-8l-.02-4 2-.01.02 4-2 .01zm-.05-8l-.02-4 2-.01.02 4-2 .01zm-.05-8l-.02-4 2-.01.02 4-2 .01zm-.05-8l-.02-4 2-.01.02 4-2 .01zm-.05-8l-.02-4 2-.01.02 4-2 .01zm-.05-8l-.02-4 2-.01.02 4-2 .01zm-.05-8l-.03-4 2-.01.03 4-2 .01zm-.05-8l-.03-4 2-.01.03 4-2 .01zm-.05-8l-.03-4 2-.01.03 4-2 .01zm-.05-8l-.03-4 2-.01.03 4-2 .01zm-.05-8l-.03-4 2-.01.03 4-2 .01zm-.05-8l-.03-4 2-.01.03 4-2 .01zm-.05-8l-.03-4 2-.01.03 4-2 .01zm-.05-8l-.03-4 2-.01.03 4-2 .01zm-.05-8l-.03-4 2-.01.03 4-2 .01zm-.05-8l-.03-4 2-.01.03 4-2 .01z" class="st0"/></g><g><path d="M235.22 176.08h2v25h-2z" class="st0"/><path d="M229.06 175.08h15.95v2h-15.95zM228.71 200.08h15.95v2h-15.95z" class="st0"/></g><g><path d="M177.2 237.21h23.55v2H177.2z" class="st0"/><path d="M199.75 231.05h2V247h-2zM176.2 230.7h2v15.95h-2z" class="st0"/></g><g><path d="M151.61 236.86h22.98v2h-22.98z" class="st0"/><path d="M173.59 230.7h2v15.95h-2zM150.61 230.35h2v15.95h-2z" class="st0"/></g><g><path d="M125.35 236.58h23.8v2h-23.8z" class="st0"/><path d="M148.15 230.41h2v15.95h-2zM124.35 230.06h2v15.95h-2z" class="st0"/></g><g><path d="M235.4 101h2v25h-2z" class="st0"/><path d="M229.23 100h15.95v2h-15.95zM228.88 125h15.95v2h-15.95z" class="st0"/></g><g><path d="M235.4 128.69h2v44.62h-2z" class="st0"/><path d="M228.89 127.69h15.93v2h-15.93zM229.07 172.31H245v2h-15.93z" class="st0"/></g><g class="st3"><path d="M233.46 238.22l1.46-1.37.06.08-1.52 1.29zm-2.64-3.14l-2.57-3.06 1.53-1.29 2.57 3.06-1.53 1.29zm-5.14-6.13l-2.57-3.06 1.53-1.29 2.57 3.06-1.53 1.29zm-5.14-6.13l-2.57-3.06 1.53-1.29 2.57 3.06-1.53 1.29zm-5.15-6.13l-2.57-3.06 1.53-1.29 2.57 3.06-1.53 1.29zm-5.14-6.12l-2.57-3.06 1.53-1.29 2.57 3.06-1.53 1.29z" class="st0"/></g></svg>